<svg width="74" height="74" fill="none" xmlns="http://www.w3.org/2000/svg"><g clip-path="url(#clip0_487_18968)"><path d="M69.02 38.186V27.513c0-3.27-2.66-5.93-5.93-5.93H32.256c-.928 0-1.795.234-2.578.616-1.787-2.076-4.028-3.614-6.545-4.491 2.63-1.69 4.38-4.633 4.38-7.984 0-5.23-4.257-9.487-9.488-9.487-5.23 0-9.487 4.256-9.487 9.487 0 3.36 1.76 6.31 4.401 7.996-6.005 2.107-10.33 7.82-10.33 14.536v5.93H.237v35.577h73.526V38.186h-4.744zM39.371 57.16v-4.743h16.602v4.743H39.372zm-7.116-7.115a3.562 3.562 0 01-3.557-3.558v-1.186h37.948v1.186a3.562 3.562 0 01-3.557 3.558H32.256zm30.834-26.09a3.562 3.562 0 013.557 3.558v15.416H28.7V27.513a3.562 3.562 0 013.557-3.558H63.09zM10.91 9.725a7.123 7.123 0 017.116-7.116 7.123 7.123 0 017.115 7.115 7.122 7.122 0 01-7.115 7.116 7.123 7.123 0 01-7.116-7.116zM4.98 32.255c0-7.192 5.853-13.044 13.046-13.044 3.796 0 7.295 1.612 9.774 4.432-.905 1.042-1.473 2.384-1.473 3.869v10.673H10.91V27.513H8.538v10.673H4.981v-5.93zm21.347 8.302v5.93c0 3.269 2.66 5.929 5.93 5.929H37v4.743h-4.744v2.372H63.09V57.16h-4.744v-4.743h4.744c3.27 0 5.93-2.66 5.93-5.93v-5.93h2.37v23.719H2.61V40.558h23.718zM2.609 71.39v-4.744H71.39v4.744H2.609z" fill="#007668"/><path d="M15.654 61.904c3.605 0 10.673-1.433 10.673-4.744v-9.487c0-3.311-7.068-4.744-10.673-4.744-3.605 0-10.673 1.433-10.673 4.744v9.487c0 3.311 7.068 4.744 10.673 4.744zm0-2.372c-4.077 0-8.07-1.608-8.301-2.372v-1.819c2.387 1.249 6.03 1.82 8.3 1.82 2.273 0 5.917-.571 8.304-1.821v1.793c-.233.79-4.226 2.399-8.303 2.399zm0-14.23c4.03 0 7.979 1.572 8.295 2.371-.317.8-4.264 2.372-8.295 2.372-4.069 0-8.051-1.602-8.301-2.339v-.01c.25-.793 4.232-2.395 8.3-2.395zm-8.301 5.295c2.387 1.25 6.03 1.82 8.3 1.82 2.273 0 5.916-.57 8.303-1.82v1.795c-.242.792-4.229 2.396-8.302 2.396-4.077 0-8.07-1.608-8.301-2.371v-1.82zM34.558 11.859c.728 0 1.405-.222 1.97-.599l4.137 3.104a3.481 3.481 0 00-.178 1.053 3.562 3.562 0 003.558 3.557 3.562 3.562 0 003.558-3.557c0-.548-.134-1.06-.357-1.524l4.761-4.762c.465.222.977.356 1.525.356a3.5 3.5 0 001.524-.357l2.39 2.39a3.524 3.524 0 00-.356 1.525 3.562 3.562 0 003.557 3.558 3.562 3.562 0 003.558-3.558 3.5 3.5 0 00-.357-1.524L68.61 6.76c.464.221.977.355 1.525.355a3.562 3.562 0 003.557-3.557A3.562 3.562 0 0070.135 0a3.562 3.562 0 00-3.558 3.558c0 .548.134 1.06.357 1.524l-4.761 4.761a3.525 3.525 0 00-1.526-.356 3.5 3.5 0 00-1.523.357l-2.39-2.39c.222-.464.356-.977.356-1.525a3.562 3.562 0 00-3.558-3.557 3.562 3.562 0 00-3.558 3.557 3.5 3.5 0 00.357 1.524l-4.761 4.762a3.525 3.525 0 00-1.525-.356c-.728 0-1.405.222-1.97.599l-4.138-3.104c.106-.334.178-.684.178-1.053a3.562 3.562 0 00-3.557-3.557A3.562 3.562 0 0031 8.3a3.562 3.562 0 003.558 3.558zm35.577-9.487c.653 0 1.185.532 1.185 1.186 0 .653-.532 1.186-1.185 1.186a1.188 1.188 0 01-1.186-1.186c0-.654.532-1.186 1.186-1.186zm-8.302 10.673c0 .653-.532 1.186-1.186 1.186a1.188 1.188 0 01-1.185-1.186c0-.654.532-1.186 1.185-1.186.654 0 1.186.532 1.186 1.186zm-8.301-8.301c.654 0 1.186.532 1.186 1.185 0 .654-.533 1.186-1.186 1.186a1.188 1.188 0 01-1.186-1.186c0-.653.533-1.185 1.186-1.185zm-9.487 9.487c.653 0 1.186.532 1.186 1.186 0 .653-.533 1.186-1.186 1.186a1.188 1.188 0 01-1.186-1.186c0-.654.532-1.186 1.186-1.186zm-9.487-7.116c.653 0 1.186.533 1.186 1.186 0 .654-.533 1.186-1.186 1.186a1.188 1.188 0 01-1.186-1.186c0-.653.532-1.186 1.186-1.186z" fill="#FFB800"/><path d="M63.09 38.186h-2.372v-11.86h-7.116v11.86h-2.371V31.07h-7.116v7.116h-2.372v-9.487h-7.115v9.487h-2.372v2.372H63.09v-2.372zm-7.116-9.487h2.372v9.487h-2.372v-9.487zm-9.487 4.743h2.372v4.744h-2.372v-4.744zM37 31.07h2.372v7.116H37V31.07z" fill="#007668"/></g><defs><clipPath id="clip0_487_18968"><path fill="#fff" d="M0 0h74v74H0z"/></clipPath></defs></svg>