<svg width="73" height="83" fill="none" xmlns="http://www.w3.org/2000/svg"><g clip-path="url(#clip0_487_18963)"><path d="M57.605 18.784l3.518-6.12a1.217 1.217 0 00-.449-1.66L55.7 8.147a1.217 1.217 0 00-1.66.449l-3.513 6.112a35.224 35.224 0 00-9.943-2.652V8.337h2.469A1.217 1.217 0 0044.27 7.12V1.385A1.214 1.214 0 0043.053.17H29.947a1.216 1.216 0 00-1.216 1.216V7.12a1.217 1.217 0 001.216 1.217h2.469v3.716a35.227 35.227 0 00-9.943 2.652L18.96 8.592a1.216 1.216 0 00-1.661-.449L12.326 11a1.217 1.217 0 00-.448 1.661l3.517 6.123a35.51 35.51 0 1042.21 0zm-2.062-7.927l2.863 1.649-2.815 4.899a36.304 36.304 0 00-2.86-1.65l2.812-4.898zM31.164 2.602h10.672v3.302H31.164V2.602zm3.685 5.735h3.302v3.516a35.058 35.058 0 00-1.651-.043c-.556 0-1.103.017-1.65.043V8.337zm-20.255 4.168l2.863-1.644 2.812 4.894a35.405 35.405 0 00-2.86 1.65l-2.815-4.9zM36.5 80.398a33.077 33.077 0 1133.077-33.076A33.114 33.114 0 0136.5 80.398z" fill="#007668"/><path d="M60.425 61.011a27.478 27.478 0 00-.076-27.511 1.14 1.14 0 00-.055-.122 1.155 1.155 0 00-.07-.094 27.771 27.771 0 00-9.808-9.756 1.067 1.067 0 00-.104-.076 1.14 1.14 0 00-.122-.054 27.476 27.476 0 00-27.51.074 1.246 1.246 0 00-.124.057 1.117 1.117 0 00-.092.07 27.777 27.777 0 00-9.759 9.808.658.658 0 00-.13.225 27.478 27.478 0 00.076 27.51c.016.042.035.083.056.123.015.026.038.046.054.07a27.77 27.77 0 009.82 9.778c.034.028.07.054.107.078.03.017.064.024.095.04a27.483 27.483 0 0027.57-.08c.03-.014.061-.02.09-.038.03-.017.061-.045.093-.07 4.037-2.398 7.4-5.782 9.774-9.834.02-.027.043-.047.06-.076a1 1 0 00.055-.122zm-10.183 7.351l-1.564-2.665a1.217 1.217 0 00-2.1 1.23l1.566 2.672a24.962 24.962 0 01-10.43 2.838v-3.104a1.217 1.217 0 00-2.433 0v3.104a24.955 24.955 0 01-10.3-2.777l1.55-2.679a1.217 1.217 0 00-2.106-1.219l-1.549 2.677a25.34 25.34 0 01-7.417-7.376l2.668-1.563a1.216 1.216 0 00-1.23-2.1l-2.671 1.566a24.962 24.962 0 01-2.84-10.43h3.105a1.217 1.217 0 000-2.434h-3.104A24.96 24.96 0 0114.162 35.8l2.68 1.55a1.217 1.217 0 001.218-2.106l-2.676-1.549a25.337 25.337 0 017.375-7.414l1.564 2.668a1.216 1.216 0 002.1-1.23l-1.566-2.671a24.948 24.948 0 0110.43-2.838v3.104a1.217 1.217 0 002.433 0v-3.104a24.964 24.964 0 0110.303 2.774l-1.554 2.68a1.216 1.216 0 102.107 1.22l1.548-2.68a25.339 25.339 0 017.417 7.378l-2.668 1.563a1.218 1.218 0 00.306 2.23 1.217 1.217 0 00.924-.13l2.672-1.566a24.974 24.974 0 012.839 10.43h-3.105a1.217 1.217 0 000 2.433h3.105a24.963 24.963 0 01-2.775 10.3l-2.68-1.55a1.217 1.217 0 00-1.218 2.106l2.675 1.549a25.336 25.336 0 01-7.374 7.416z" fill="#007668"/><path d="M54.852 47.322a1.217 1.217 0 00-1.217-1.217H41.92a5.571 5.571 0 00-4.202-4.203V30.187a1.217 1.217 0 00-2.434 0v11.715a5.557 5.557 0 106.636 6.637h11.716a1.217 1.217 0 001.217-1.217zM36.5 50.446a3.125 3.125 0 11-.001-6.25 3.125 3.125 0 01.001 6.25z" fill="#FFB800"/></g><defs><clipPath id="clip0_487_18963"><path fill="#fff" d="M0 0h73v83H0z"/></clipPath></defs></svg>