<svg width="69" height="73" fill="none" xmlns="http://www.w3.org/2000/svg"><g clip-path="url(#clip0_487_18973)"><path d="M55.523 72.79H1.797a1.167 1.167 0 01-1.168-1.17V1.38A1.172 1.172 0 011.797.21H40.34c.31 0 .607.124.826.343l15.183 15.218c.22.22.342.518.342.828v31.607a1.172 1.172 0 01-1.168 1.171 1.167 1.167 0 01-1.168-1.17V17.083L39.856 2.55H2.965V70.45h52.558a1.166 1.166 0 011.168 1.17 1.172 1.172 0 01-1.168 1.17z" fill="#007668"/><path d="M55.523 17.77H40.34a1.166 1.166 0 01-1.168-1.17V1.38a1.172 1.172 0 01.72-1.08 1.165 1.165 0 011.274.253l15.183 15.218a1.171 1.171 0 01-.826 1.999zm-14.015-2.342h11.196L41.508 4.207v11.221zM43.844 24.794H21.652a1.167 1.167 0 01-1.168-1.171 1.172 1.172 0 011.168-1.17h22.192a1.167 1.167 0 011.168 1.17 1.172 1.172 0 01-1.168 1.17zM43.844 35.33H21.652a1.166 1.166 0 01-1.168-1.171 1.172 1.172 0 011.168-1.171h22.192a1.167 1.167 0 011.168 1.17 1.171 1.171 0 01-1.168 1.171zM43.844 45.865H21.652a1.166 1.166 0 01-1.168-1.17 1.172 1.172 0 011.168-1.171h22.192a1.166 1.166 0 011.168 1.17 1.172 1.172 0 01-1.168 1.171zM35.668 56.4H21.652a1.167 1.167 0 01-1.168-1.17 1.172 1.172 0 011.168-1.17h14.016a1.167 1.167 0 011.168 1.17 1.172 1.172 0 01-1.168 1.17zM16.98 27.135H12.31a1.166 1.166 0 01-1.168-1.17v-4.683a1.172 1.172 0 011.168-1.171h4.671a1.167 1.167 0 011.168 1.17v4.683a1.172 1.172 0 01-1.168 1.17zm-3.503-2.341h2.335v-2.342h-2.335v2.341zM16.98 37.67H12.31a1.167 1.167 0 01-1.168-1.17v-4.683a1.172 1.172 0 011.168-1.17h4.671a1.167 1.167 0 011.168 1.17V36.5a1.172 1.172 0 01-1.168 1.17zm-3.503-2.34h2.335v-2.342h-2.335v2.341zM16.98 48.206H12.31a1.167 1.167 0 01-1.168-1.17v-4.683a1.172 1.172 0 011.168-1.17h4.671a1.166 1.166 0 011.168 1.17v4.683a1.172 1.172 0 01-1.168 1.17zm-3.503-2.34h2.335v-2.342h-2.335v2.341zM16.98 58.742H12.31a1.166 1.166 0 01-1.168-1.17v-4.683a1.172 1.172 0 011.168-1.17h4.671a1.167 1.167 0 011.168 1.17v4.682a1.172 1.172 0 01-1.168 1.171zm-3.503-2.341h2.335v-2.342h-2.335v2.342z" fill="#007668"/><path d="M54.355 64.595c-.31 0-.606-.123-.825-.343l-4.672-4.682a1.173 1.173 0 01.83-1.984c.306-.003.6.115.821.328l3.846 3.855 7.35-7.366a1.167 1.167 0 011.98.831c.002.307-.115.603-.328.824l-8.176 8.194c-.219.22-.516.343-.826.343z" fill="#FFB800"/><path d="M55.523 72.79c-2.54 0-5.025-.755-7.137-2.17a12.87 12.87 0 01-4.732-5.78 12.903 12.903 0 012.785-14.033 12.82 12.82 0 0114.001-2.791 12.854 12.854 0 015.766 4.743 12.898 12.898 0 012.165 7.154 12.906 12.906 0 01-3.767 9.101 12.847 12.847 0 01-9.08 3.776zm0-23.413c-2.079 0-4.11.618-5.84 1.776a10.53 10.53 0 00-3.871 4.728 10.558 10.558 0 002.279 11.482 10.49 10.49 0 0011.456 2.284 10.516 10.516 0 004.717-3.88 10.553 10.553 0 001.771-5.854 10.56 10.56 0 00-3.082-7.447 10.511 10.511 0 00-7.43-3.089z" fill="#FFB800"/></g><defs><clipPath id="clip0_487_18973"><path fill="#fff" d="M0 0h69v73H0z"/></clipPath></defs></svg>