<svg width="32" height="32" fill="none" xmlns="http://www.w3.org/2000/svg"><g clip-path="url(#clip0_4_9216)"><path d="M27.875 2.5H25V1a1 1 0 00-2 0v1.5H9V1a1 1 0 00-2 0v1.5H4.125A4.13 4.13 0 000 6.625v21.25A4.13 4.13 0 004.125 32h23.75A4.13 4.13 0 0032 27.875V6.625A4.13 4.13 0 0027.875 2.5zm-23.75 2H7v1a1 1 0 002 0v-1h14v1a1 1 0 002 0v-1h2.875C29.047 4.5 30 5.453 30 6.625V9H2V6.625C2 5.453 2.953 4.5 4.125 4.5zM27.875 30H4.125A2.127 2.127 0 012 27.875V11h28v16.875A2.127 2.127 0 0127.875 30z" fill="#fff"/></g><defs><clipPath id="clip0_4_9216"><path fill="#fff" d="M0 0h32v32H0z"/></clipPath></defs></svg>