<svg width="26" height="34" fill="none" xmlns="http://www.w3.org/2000/svg"><path d="M1 30.016h8C9 32.213 10.794 34 13 34s4-1.787 4-3.984h8c.552 0 1-.446 1-.996 0-3.833-1.177-5.317-2.215-6.628C22.827 21.184 22 20.14 22 17v-4.05c0-4.025-2.675-7.438-6.347-8.568A2.96 2.96 0 0016 2.988 2.998 2.998 0 0013 0c-1.654 0-3 1.34-3 2.988 0 .503.126.978.347 1.394C6.675 5.512 4 8.925 4 12.949V17c0 3.14-.827 4.184-1.785 5.392C1.177 23.702 0 25.188 0 29.02c0 .55.448.996 1 .996zm12 1.992c-1.103 0-2-.894-2-1.993h4c0 1.1-.897 1.993-2 1.993zm-1-29.02a1 1 0 012 0 1 1 0 01-2 0zM3.785 23.627C4.823 22.317 6 20.832 6 17v-4.05c0-3.845 3.14-6.973 7-6.973s7 3.127 7 6.972V17c0 3.832 1.177 5.317 2.215 6.627.849 1.07 1.595 2.012 1.754 4.396H2.03c.16-2.384.905-3.325 1.754-4.396z" fill="#fff"/><path d="M2 12.95C2 9.056 4.108 5.42 7.501 3.461A.994.994 0 007.865 2.1a1.002 1.002 0 00-1.367-.362C2.514 4.04 0 8.285 0 12.95c0 .55.448.996 1 .996s1-.446 1-.996zM19.502 1.738a1.002 1.002 0 00-1.367.362.994.994 0 00.363 1.362C21.892 5.422 24 9.057 24 12.949c0 .55.448.996 1 .996s1-.446 1-.996c0-4.661-2.511-8.908-6.498-11.21z" fill="#fff"/></svg>