<svg width="1880" height="450" fill="none" xmlns="http://www.w3.org/2000/svg"><mask id="a" style="mask-type:alpha" maskUnits="userSpaceOnUse" x="0" y="0" width="1880" height="450"><path d="M0 60C0 26.863 26.863 0 60 0h1760c33.14 0 60 26.863 60 60v390H0V60z" fill="#1D2437"/></mask><g mask="url(#a)"><path opacity=".3" d="M-1117.29 391.891l-78.78 7.286m78.78-7.286l15.45-2.489m-15.45 2.489l82.12-19.634m-160.9 26.92l94.23-9.775m-94.23 9.775l20.88-6.379m73.35-3.396l-73.35 3.396m73.35-3.396l17.65-5.902m-17.65 5.902l66.67-17.145m-66.67 17.145l78.97-21.216m-152.32 24.612l91-9.298m-91 9.298l-82.48-10.32m82.48 10.32l21.13-6.858m69.87-2.44l61.32-15.314m-61.32 15.314l82.91-15.545m-82.91 15.545l-69.87 2.44m69.87-2.44l24.47-.214m24.55-11.029l12.3-4.071m-12.3 4.071l69.923-29.03m-57.623 24.959l21.59-.231m-21.59.231l57.623-24.959m-57.623 24.959l73.981-25.42m-52.391 25.189l52.391-25.189m-52.391 25.189l83.217-16.732m-83.217 16.732l-58.44 15.331m58.44-15.331l33.074 9.462m2.959-34.19l16.358-.461m-16.358.461l70.064-29.03m-53.706 28.569l30.826 8.457m-30.826-8.457l53.706-28.569m-53.706 28.569l79.353-22.42m-48.527 30.877l48.527-30.877m-48.527 30.877l91.82-12.892m-91.82 12.892l44.937 19.979m-44.937-19.979l-50.143 26.194m73.023-63.22l25.647 6.149m-25.647-6.149l82.366-19.683m-56.719 25.832l56.719-25.832m-56.719 25.832l43.293 17.985m-43.293-17.985l94.943-12.232m-38.224-13.6l38.224 13.6m-38.224-13.6l167.528-5.984m-612.381 93.948l103.61 3.462m-103.61-3.462l23.32-5.852m80.29 9.314l-80.29-9.314m80.29 9.314l25.51.692m-25.51-.692l94.34-2.654m-174.63-6.66l105.8 10.006m-105.8-10.006l-89.57-15.628m89.57 15.628l25.21 3.561m80.59 6.445l68.83-3.346m-68.83 3.346l101.76 6.908m-101.76-6.908l-80.59-6.445m80.59 6.445l30.96 11.919m37.87-15.265l32.93 10.254m-32.93-10.254l91.514-5.869m141.963-39.086l-46.883 32.871m46.883-32.871l51.65-30.217m-51.65 30.217l152.21-6.05m-152.21 6.05l-46.856 32.871m46.856-32.871l58.226 29.162m-105.109 3.709l-51.403 26.871m51.403-26.871l55.815 29.756m-55.815-29.756l-95.08 6.215m95.08-6.215l-51.403 26.887-43.677-20.672m-58.584 16.123l58.584-16.123m-58.584 16.123l102.261 4.533m-102.261-4.533l-70.8 5.011m70.8-5.011l40.034 21.15m18.55-37.273l43.677 20.656m0 0l107.218 2.885m-107.218-2.885l-62.227 16.617m62.227-16.617l50.472 29.063m56.746-26.178l49.294-33.465m-49.294 33.465l139.853.791m-139.853-.791l-55.788-29.756m55.788 29.756l-56.746 26.178m56.746-26.178l60.309 33.448m-17.591-126.292l100.56 24.167m-100.56-24.167l129.304-19.584m-129.304 19.584l199.011-9.709m-98.451 33.876l98.451-33.876m-98.451 33.876l150.594-12.842m-150.594 12.842l-93.984 35.212m93.984-35.212l76.201 30.168m-47.457-73.919l69.707 9.875m-69.707-9.875l165.691-16.979m-95.984 26.854l52.143 21.034m-52.143-21.034l95.984-26.854m-95.984 26.854l120.398-20.425m-68.255 41.459l68.255-41.459m-68.255 41.459l94.258-18.628m-94.258 18.628l-74.393 43.01m74.393-43.01l42.197 31.701m1.644-79.589l24.414 6.429m-24.414-6.429l87.847-25.865m-63.433 32.294l26.003 22.831m-26.003-22.831l63.433-32.294m-63.433 32.294l71.105-24.299m-45.102 47.13l45.102-47.13m-45.102 47.13l68.118-18.974m-68.118 18.974l31.374 36.795m-31.374-36.795l-52.061 50.329m89.491-105.454l7.672 7.995m-7.672-7.995l51.02-26.393m-43.348 34.388l43.348-34.388m-43.348 34.388l23.016 28.156m-23.016-28.156l57.459-21.315m-14.111-13.073l14.111 13.073m-14.111-13.073l55.239-18.612m-587.607 170.521l105.082-3.709m0 0l90.559 34.256m-90.559-34.256l170.185-5.044m-79.626 39.3l79.626-39.3m-79.626 39.3l134.318-4.203m-134.318 4.203l-79.544 32.657m79.544-32.657l61.98 33.481m17.646-72.781l54.692 35.097m-54.692-35.097l116.59-11.309m-116.59 11.309l116.59-11.292-61.898 46.389m182.077-115.709l-36.744 55.769m36.744-55.769l34.443-49.471m-34.443 49.471l72.201-13.88m-72.201 13.88l38.361 43.999m-75.105 11.77l-83.435 13.534m83.435-13.534l-45.786 53.016m45.786-53.016l38.388 45.96m-38.388-45.96l75.105-11.77m-220.438 71.71l61.898-46.406m-61.898 46.406l99.547-6.924m-99.547 6.924l-72.338 37.684m72.338-37.684l40.224 36.679m21.674-83.085l37.649 39.482m0 0l-59.323 43.603m59.323-43.603l36.305 41.987m-36.305-41.987l84.174-7.056m-964.501-22.568l114.78 19.189m-114.78-19.189l24.17 9.496m90.61 9.693l-90.61-9.693m90.61 9.693l27.7 15.562m-27.7-15.562l111.55 18.364m-202.16-28.057l118.31 25.255m-118.31-25.255l-95.91-1.995m95.91 1.995l24.38 22.683m93.93 2.572l83.85 2.802m-83.85-2.802l118.37 25.321m-118.37-25.321l-93.93-2.572m93.93 2.572l28.36 25.551m55.49-22.749l34.52 22.519m-34.52-22.519l110.834 16.139m-76.314 6.38l76.314-6.38m-76.314 6.38l119.086 21.776m-119.086-21.776l-90.01.23m90.01-.23l33.46 26.92m42.854-33.3l42.772 28.156m-42.772-28.156l112.699 12.446m-69.927 15.71l69.927-15.71m-69.927 15.71l120.344 14.59m-120.344-14.59l38.142 25.519m-38.142-25.519l-85.626 5.144m155.553-20.854l50.417 30.3m-50.417-30.3l117.055 7.27m-638.658-65.907l120.29 24.678m-120.29-24.678l23.35 33.514m96.94-8.836l-96.94 8.836m96.94-8.836l27.13 32.261m-27.13-32.261l122.29 28.123m-219.23-19.287l124.07 23.425m-124.07-23.425l-100.78 21.76m100.78-21.76l25.24 38.674m98.83-15.249l95.16-4.138m-95.16 4.138l125.38 23.359m-125.38-23.359l-98.83 15.249m98.83-15.249l28.61 31.849m66.55-35.987l30.22 27.497m-30.22-27.497l123.47 26.69m205.97 9.446l-82.202 10.929m82.202-10.929l66.638-23.03m-66.638 23.03l126.947 4.45m-126.947-4.45l41.018 20.111m-123.22-9.182l-90.998.462m90.998-.462l34.936 13.979m-34.936-13.979l-123.768-20.375m123.768 20.375l123.22 9.182m-340.238-28.75l93.25-.807m-93.25.807l126.02 20.03m-126.02-20.03l-96.77 8.49m96.77-8.49l31.46 23.145m61.79-23.952l32.77 20.837m0 0l125.934 13.517m-125.934-13.517l-94.56 3.115m94.56-3.115l33.895 14.243m92.039-.726l88.284-4.797m-88.284 4.797l123.96 3.396m-123.96-3.396l-92.039.726m92.039-.726l36.059 6.759m77.845-54.697l60.309 27.48m-60.309-27.48l141.524.824m-81.215 26.656l81.215-26.656m-81.215 26.656l118.727 2.242m-118.727-2.242l-85.929 15.661m85.929-15.661l32.059 16.898m49.156-43.554l37.512 28.898m-37.512-28.898l112.562-1.005m-75.05 29.903l75.05-29.903m-75.05 29.903l105.575 2.622m-105.575-2.622l-86.668 14.656m86.668-14.656l24.386 18.563m50.664-48.466l30.525 32.525m-30.525-32.525l95.628-1.616m-65.103 34.141l65.103-34.141m-65.103 34.141l101.053 2.687m-101.053-2.687l27.318 20.886m-27.318-20.886l-81.189 15.941m146.292-50.082l47.869-49.043m-47.869 49.043l35.95 36.828m-35.95-36.828l92.669-1.088m-44.8-47.955l36.717-57.73m-36.717 57.73l88.203-4.632m-88.203 4.632l44.8 47.955m-468.003 46.026l35.676 8.193m-35.676-8.193l117.988 1.237m-82.312 6.956l82.312-6.956m-82.312 6.956l117.138 4.056m-117.138-4.056l-87.901 3.363m87.901-3.363l36.087 6.512m46.225-13.468l34.826 11.012m-34.826-11.012l111.054 3.907m182.242-13.254l-73.735 18.199m73.735-18.199l56.719-37.916m-56.719 37.916l105.109 2.439m-105.109-2.439l36.498 22.469m-110.233-4.27l-71.625 9.594m71.625-9.594l41.156 17.359m-41.156-17.359l-108.507-4.945m108.507 4.945l110.233 4.27m-294.968-2.11l76.228-7.105m-76.228 7.105l113.11 7.434m-113.11-7.434l-81.051 2.456m81.051-2.456l38.114 12.429m38.114-19.534l36.882 14.539m0 0l112.781 7.765m-112.781-7.765l-74.996 4.995m74.996-4.995l42.388 17.639m70.393-9.874l69.077-13.089m-69.077 13.089l116.069 5.028m-116.069-5.028l-70.393 9.874m70.393-9.874l48.225 20.787m29.072-293.416l37.758 35.591m-37.758-35.591l41.128-31.685m-41.128 31.685l79.325-11.408m-79.325 11.408l37.758 35.607 41.567-47.015m-41.567 46.999l41.567-46.999m-41.567 46.999l103.684 2.357m-103.684-2.357l-33.84 57.879m33.84-57.879l57.651 51.845m-54.281-119.121l38.197 20.277m-38.197-20.277l96.56 2.045m-58.363 18.232l62.117 49.356m-62.117-49.356l58.363-18.232m-58.363 18.232l115.439 30.184m-115.439-30.184l62.117 49.373 53.322-19.189m-53.322 19.172l53.322-19.172m-53.322 19.172l121.138 53.362m-121.138-53.362l-46.033 49.488m46.033-49.488l71.023 71.38m-74.777-138.968l57.076 48.416m-57.076-48.416l120.015 62.099m-62.939-13.683l67.816 72.534m-67.816-72.534l62.94 13.683m-62.94-13.683l123.029 78.617m-55.213-6.083l55.213 6.083m-55.213-6.083l121.824 78.353M-64.04 323.676l71.927 77.991m-71.927-77.991l-50.115 18.018m45.238-76.869l60.09 64.934m-60.09-64.934l120.974 91.706m-120.974-91.706L-8.8 329.759m-.027 0l66.61 72.27M-8.8 329.759l60.857 26.772M-8.8 329.759l117.521 84.964M-8.8 329.759l66.611 72.27m-5.754-45.498l56.664 58.192m-56.664-58.192l126.563 80.15m-501.322-110.845l51.486 53.098m-51.486-53.098l91.491-6.034m-40.005 59.132l40.005-59.132m-40.005 59.132l109.521 2.225m-109.521-2.225l-43.403 52.587m43.403-52.587l60.281 53.115m-20.276-112.247l69.516 61.357m-69.516-61.357l117.056 21.892m171.939 60.335l-49.897-.362m0 0l-49.294 14.935m49.294-14.935l71.379 70.72m-71.379-70.72l-122.042-59.973M7.887 401.667l49.924.362m-49.924-.362l118.508 66.945m-288.09-87.453l47.54-39.465m-47.54 39.465l120.288 35.427m-120.288-35.427l-49.24 50.89m49.24-50.89l69.186 62.643m-21.646-102.108l72.748 74.892m-72.748-74.892l72.748 74.908m0-.016l-51.102 27.216m51.102-27.2l120.672 55.785m-120.672-55.785l-51.102 27.2m51.102-27.2l69.653 66.072m51.02-10.287l47.129-3.775m-47.13 3.775l126.071 51.417m-126.07-51.417l-51.02 10.287m51.02-10.287l68.117 56.758m-38.662-114.422l-50.91-12.694m50.91 12.694l77.517 57.269m-77.517-57.269l69.899 21.958m-69.899-21.958l161.034 68.792m-161.034-68.792l77.544 57.269M57.811 402.029l128.427 69.963M57.811 402.029l68.584 66.583m59.843 3.38l-59.843-3.38m52.225-31.931l91.135 46.834m-91.135-46.834l185.338 61.473m-94.203-14.639l-83.49-11.523m83.49 11.523l94.423 39.894m-94.423-39.894l94.203 14.639m-94.203-14.639l174.597 40.372m-258.087-51.895l177.913 51.417m-177.913-51.417l-59.87-3.38m59.87 3.38l93.354 49.702m84.559 1.715l80.174.478m-80.174-.478l152.402 14.325m-152.402-14.325l-84.559-1.715m84.559 1.715l79.9 26.87m-80.12-52.125l80.394 25.733m-80.394-25.733l158.266 16.765m-77.872 8.968l72.228 13.847m-72.228-13.847l77.872-8.968m-5.644 22.815l-72.502 12.545m72.502-12.545l78.037-14.869m-78.037 14.869l132.838-8.259m-132.838 8.259l-72.201-13.847m72.201 13.847l-72.475 12.545m72.475-12.545l64.419 10.303m-58.775-33.118l-77.845 8.968m77.845-8.968l72.393 7.946m-72.393-7.946l147.361-4.154m-543.19-42.153l78.941 55.192m-78.941-55.192l153.224 53.082m-74.283 2.11l74.283-2.11m-74.283 2.11l163.938 33.86m-163.938-33.86l-57.953 5.341m57.953-5.341l86.093 40.751m-11.81-42.861l89.655 35.97m-89.655-35.97l164.459 28.585m-74.804 7.385l74.804-7.385m-74.804 7.385l141.853 7.452m-141.853-7.452l-77.845 6.891m77.845-6.891l74.914 21.695m-.11-29.08l67.049 14.837m0 0l-66.939 14.243m66.939-14.243l69.872-17.079m-69.872 17.079l118.59-8.408m-118.59 8.408l-67.022-14.837m67.022 14.837l56.61 11.078m-882.356-144.673l48.39 40.355m-48.39-40.355l103.684.528m-55.294 39.827l55.294-39.827m-55.294 39.827l116.48 2.308m-116.48-2.308l-68.611 20.03m68.611-20.03l47.704 21.843m7.59-61.67l61.186 42.135m-61.186-42.135l118.426 11.753m-118.426-11.753l61.186 42.152 57.24-30.399m-57.24 30.382l57.24-30.382m-57.24 30.382l120.81 21.892m-120.81-21.892l-68.776 19.535m68.776-19.535l53.76 29.377m3.48-59.759l63.57 52.274m-63.57-52.274l120.755 38.872m-57.185 13.402l57.185-13.402m-57.185 13.402l120.946 37.52m-120.946-37.52l55.678 36.136m-55.678-36.136l-67.05 7.485m124.235-20.887l63.761 50.922m-63.761-50.922l119.137 46.471m-482.223-37.239l46.992 18.117m-46.992-18.117l116.315 1.813m-69.323 16.304l69.323-16.304m-69.323 16.304l122.809 2.489m-122.809-2.489l-67.844 15.759m67.844-15.759l54.965 20.524m14.358-36.828l53.486 18.793m-53.486-18.793l122.536 9.842m187.996 30.035l-65.269-1.384m65.269 1.384l55.376-4.451m-55.376 4.451l126.235 36.811M92.007 533.596l57.459 35.641M26.738 532.212l-66.528-1.715m66.529 1.715l58.72 28.964m-58.72-28.964L-95.99 503.561M26.74 532.212l122.727 37.025m-314.505-56.725l69.05-8.951m-69.05 8.951l125.249 17.985m-125.249-17.985l-67.844 18.035m67.844-18.035l59.761 24.596m9.29-33.547l56.198 26.936m0 0l125.248 30.679M-39.79 530.497l-65.488 6.611m65.488-6.611l62.309 25.98m62.94 4.699l64.007 8.061m-64.008-8.061l131.277 33.497M85.458 561.176l-62.94-4.699m62.94 4.699l64.885 25.518m-2.96-57.549l70.859 41.262m-70.859-41.262l144.046 35.41m-73.187 5.852l73.187-5.852m-73.187 5.852l153.58 19.848m-153.58-19.848l-68.776-1.17m68.776 1.17l74.557 25.75m-1.37-31.602l80.393 25.7m-80.393-25.7l152.759 14.804m-72.366 10.896l72.366-10.896m-72.366 10.896l134.072 2.605m-134.072-2.605l-79.023 5.902m79.023-5.902l70.557 15.809m1.809-26.705l61.706 13.501m-61.706-13.501l123.549-3.165m-61.843 16.666l-63.515 13.204m63.515-13.204l61.843-16.666m-61.843 16.666l104.588-10.468M505.894 592.86l51.485 8.045m-407.913-31.668l67.269 25.436m-67.269-25.436l143.333 26.92m-76.064-1.484l76.064 1.484m-76.064-1.484l152.101 17.985m-152.101-17.985l-66.392-7.979m66.392 7.979l76.694 17.656m-.63-16.172l76.037 16.501m-76.037-16.501l149.58 9.907m-73.543 6.594l73.543-6.594m-73.543 6.594l135.989 2.951m-135.989-2.951l-75.407-.329m75.407.329l72.091 10.369m1.452-16.963l62.446 9.545m-62.446-9.545l115-5.159m-52.554 14.704l-63.898 7.418m63.898-7.418l52.554-14.704m-52.554 14.704l106.945-10.6m-106.945 10.6l-63.871 7.418m63.871-7.418l58.911 4.22M-1473.09 423.773l126.02 16.914m-126.02-16.914l23.18 43.273m102.84-26.359l-102.84 26.359m102.84-26.359l26.82 35.344m-26.82-35.344l127.44 16.6m-230.28 9.759l129.66 8.985m-129.66-8.985l-107.33 33.992m107.33-33.992l24.88 37.026m104.78-28.041l100.62-18.744m-100.62 18.744l130.54 6.758m-130.54-6.758l-104.78 28.041m104.78-28.041l28.22 26.953m72.4-45.697l29.92 25.502m-29.92-25.502l128.23 14.655m-98.31 10.847l98.31-10.847m-98.31 10.847l130.92 4.616m-130.92-4.616l-102.32 20.195m102.32-20.195l31.12 16.7m67.19-27.547l32.61 15.463m-32.61-15.463l128.455 11.128m-95.845 4.335l95.845-4.335m-95.845 4.335l130.89 2.506m-130.89-2.506l33.81 7.864m-33.81-7.864l-99.8 12.084m195.645-16.419l35.045 6.841m-35.045-6.841l128.098 6.033m-722.393 11.935l132.21 3.034m-132.21-3.034l22.8 35.954m109.41-32.92l-109.41 32.92m109.41-32.92l26.33 26.606m-26.33-26.606l133-1.088m-133 1.088l133-1.072m-242.41 33.992l135.74-6.314m-135.74 6.314L-1649 566.913m114.56-29.921l24.33 23.541m111.41-29.855L-1292.03 503m-106.67 27.678l106.67-27.694m-106.67 27.694l136.13-10.632m-136.13 10.632l-111.41 29.855m111.41-29.855l27.65 15.579m79.02-43.273l29.46 17.062m-29.46-17.062l133.44-3.495M-1292.03 503l133.44-3.511M-1292.03 503l29.46 17.046m334.67-30.135l-97.08 5.358m97.08-5.358l93.053-.808m-93.053.808l129.852 1.78m-129.852-1.78l36.306 2.11m-133.386 3.248l-101.27 13.122m101.27-13.122l35.018 3.824m-35.018-3.824l-133.61 4.22m133.61-4.22l133.386-3.248m-370.976 28.025l103.98-20.557m-103.98 20.557l136.32-11.655m-136.32 11.655l-108.48 26.211m108.48-26.211l30.69 9.033m73.29-29.59l32.34 8.902m0 0l136.288-9.298m-136.288 9.298l-105.63 20.688m105.63-20.688l33.59 5.572m102.698-14.87l98.368-7.072m-98.368 7.072l136.318-.165m-136.318.165l-102.698 14.87m102.698-14.87l36.47 6.825m118.645-16.815l36.799 2.588m-36.799-2.588l123.988 3.149m-87.189-.561l87.189.561m-87.189-.561l125.796 10.765m-125.796-10.765l-93.546.33m93.546-.33l38.498 8.259m48.691-7.698l38.607 10.204m-38.607-10.204l119.165 9.973m-80.558.231l80.558-.231m-80.558.231l123.194 17.112m-123.194-17.112l-87.298-2.506m87.298 2.506l42.088 16.963m38.47-17.194l42.636 17.343m-42.636-17.343l117.384 12.644m-117.384-12.644l42.636 17.359m0-.016l-81.106-.149m155.854-4.55l-74.748 4.715m74.748-4.715l48.253 22.453m-48.253-22.453l118.618 10.913m-193.366-6.198l123.001 17.738m-123.001-17.738l47.321 23.607m-47.321-23.607l-81.106-.165m-261.43-27.398l37.95 6.907m-37.95-6.907l132.044 7.929m-94.094-1.022l94.094 1.022m-94.094-1.022l135.085 17.903m-135.085-17.903l-99.848 6.99m99.848-6.99l39.512 17.524m54.582-16.502l40.991 16.881m-40.991-16.881l129.386 19.469m204.107 17.903l-75.68 5.869m75.68-5.869l70.365-11.54m-70.365 11.54l125.139 12.627m-125.139-12.627l53.404 26.87m-129.084-21.001l-128.427-23.772m128.427 23.772l-82.833.873-45.594-24.645m128.427 23.772l-82.833.857m82.833-.857l51.047 29.013m-51.047-29.013l129.084 21.001m-345.906-47.361l88.395 2.588m-88.395-2.588l133.989 27.217m-133.989-27.217l-95.573-.379m95.573.379l43.266 25.98m45.129-23.392l45.594 24.629m0 0l-90.723-1.237m90.723 1.237l47.924 31.091m-47.924-31.091l133.88 28.156M-1649 566.913l138.89-6.38m-138.89 6.38l22.11 17.573m116.78-23.953l-116.78 23.953m116.78-23.953l25.48 12.116m-25.48-12.116l139.06-14.276m-255.84 38.229l142.26-11.837m-142.26 11.837l-122.43 20.589m122.43-20.589l23.15 14.078m119.11-25.915l113.58-26.392m-113.58 26.392l142.3-17.424m-142.3 17.424l-119.11 25.915m119.11-25.915l26.53 12.413m87.05-38.805l28.72 8.968m-28.72-8.968l139.17-17.178m-110.45 26.146l110.45-26.146m-110.45 26.146l142.29-17.491m-142.29 17.491l-115.77 29.837m115.77-29.837l29.86 13.946m80.59-40.092l31.84 8.655m-31.84-8.655l139.22-15.116m-139.22 15.116l139.22-15.1m-107.38 23.755l107.38-23.755m-107.38 23.755l107.38-23.771m-107.38 23.771l142.32-12.149m-142.32 12.149l33.23 17.754m-33.23-17.754l-112.43 31.437m219.81-55.208l34.94 11.622m-34.94-11.622l139.168-8.045m-139.168 8.061l139.168-8.061m-139.168 8.061l34.94 11.606m-691.6 79.49l145.58-6.511m-145.58 6.511l20.77 17.788 124.81-24.299m0 0l145.64-13.502m-145.64 13.502l24.31 15.908 121.33-29.41m0 0l145.63-15.891m-145.63 15.891l27.78 17.211 117.85-33.102m254.75-43.586l-109.09 29.903m109.09-29.903l104.228-19.667m-104.228 19.667l142.342.346m-142.342-.346l36.58 23.046m-145.67 6.857l-145.66 13.683m145.66-13.683l-114.34 34.52-31.32-20.837m145.66-13.683l145.67-6.857m-145.67 6.857l34.83 25.931 110.84-32.788m67.648-42.713l38.114 20.013m-38.114-20.013l139.36 10.534m-101.246 9.479l101.246-9.479m-101.246 9.479l142.347 19.798m-142.347-19.798l-105.762 22.7m105.762-22.7l39.923 32.657m61.323-42.136l41.101 29.277m-41.101-29.277l138.839 26.359m-97.738 2.918l97.738-2.918m-97.738 2.918l142.373 30.563m-142.373-30.563l-102.424 12.859m102.424-12.859l43.293 36.185m54.445-39.103l44.635 33.481m-44.635-33.481l138.647 32.328m-94.012 1.153l94.012-1.153m-94.012 1.153l142.374 31.652m-142.374-31.652l46.636 33.927m-46.636-33.927l-99.08 5.622m193.092-6.775l85.956-2.935m-85.956 2.935l48.362 32.805m-48.362-32.805l138.812 28.519m-52.856-31.454l78.037-8.012m-78.037 8.012l134.838 20.689m-134.838-20.689l52.856 31.454m-623.306-55.027l145.685 9.957m-145.685-9.957l38.329 33.085 107.356-23.128m0 0l145.717 23.326m-145.717-23.326l41.841 37.19 103.876-13.864m241.454 26.03l-95.738 2.275m95.738-2.275l90.45-4.286m-90.45 4.286l142.401 23.013m-142.401-23.013l49.979 27.414m-145.717-25.139l-145.716-28.305m145.716 28.305l-100.368 7.022-45.348-35.327m145.716 28.305l145.717 25.139m-145.717-25.139l48.883 29.195 96.834-4.056m82.613-109.576l54.774 24.167m-54.774-24.167l122.809 4.765m-68.035 19.402l68.035-19.402m-68.035 19.402l129.194 3.314m-129.194-3.314l-71.735 14.243m71.735-14.243l59.733 25.42m8.302-44.822l61.159 22.716m-61.159-22.716l127.605 6.561m-66.446 16.155l66.446-16.155m-66.446 16.155l130.427 7.484m-130.427-7.484l-69.461 22.106m69.461-22.106l63.761 22.024m2.685-38.179l63.98 23.639m-63.98-23.639l127.797 19.369m-63.816 4.27l63.816-4.27m-63.816 4.27l130.454 18.2m-130.454-18.2l66.5 20.062m-66.5-20.062l-66.666 14.54m130.482-18.81l66.638 22.47m-66.638-22.47l127.824 30.217m-522.996-22.502l56.801 28.701m-56.801-28.701l131.468 11.177m-74.667 17.524l74.667-17.524m-74.667 17.524l136.237 4.286m-136.237-4.286l-81.982 10.765m81.982-10.765l57.323 25.766m17.344-43.29l61.57 21.81m-61.57-21.81l133.222-.082m197.12 3.66l-63.953 1.862m63.953-1.862l61.186 7.747m-61.186-7.747L222.9 607.004M89.157 578.947l69.214 20.606M25.204 580.809l-68.775 12.842m68.775-12.842L92.5 598.844m-67.296-18.035l-133.167-5.522m133.167 5.522l133.167 18.744m-337.986-2.374l71.652-21.892m-71.652 21.892l136.043-3.528m-136.043 3.528l-78.914 21.48m78.914-21.48l60.308 17.441m11.344-39.333l64.391 18.364m0 0L92.5 598.844m-136.072-5.193l-75.735 20.969m75.736-20.969l63.432 16.188m72.64-10.995l65.87.709m-65.87-.709l136.537 22.288M92.5 598.844l-72.64 10.995m72.64-10.995l66.556 21.777m-8.713-33.927l72.557 20.31m-72.557-20.31l143.086 25.635m-70.529-5.325l70.529 5.325m-70.529-5.325l146.566 18.117M222.9 607.004l-64.529-7.451m64.529 7.451l75.16 16.699m-4.631-11.374l76.037 12.792m-76.037-12.792l147.498 10.698m-71.461 2.094l71.461-2.094m-71.461 2.094l136.647 3.89m-136.647-3.89l-71.406-1.418m71.406 1.418l70.803 9.957m.658-12.051l65.186 5.984m0 0l-65.844 6.067m65.844-6.067l57.623-9.182m-57.623 9.182l118.891-4.681m-118.891 4.681l57.623-9.165m-57.623 9.165l-65.159-5.984m65.159 5.984l64.199 6.1m-411.941-35.558l70.667 21.579m-70.667-21.579l139.689 24.15m-69.022-2.571l69.022 2.571m-69.022-2.571l141.058 18.216m-141.058-18.216l-69.982-.511m69.982.511l69.625 22.304m-.603-19.733l72.036 15.645m-72.036-15.645l142.209 11.375m-70.173 4.27l70.173-4.27m-70.173 4.27l137.359 4.879m-137.359-4.879l-71.433 4.088m71.433-4.088l68.694 16.254m1.479-20.524l67.186 9.149m-67.186-9.149l130.043.033m-130.043-.033l67.214 9.149m-.028 0l-68.665 11.375m-836.624-51.944l51.951 27.299m-51.951-27.299l139.305 15.001m-87.354 12.298l87.354-12.298m-87.354 12.298l142.429 4.945m-142.429-4.945l-92.422 4.401m92.422-4.401l53.349 18.216m34.005-30.514l55.075 17.243m-55.075-17.243l139.222-4.039m-84.147 21.282l84.147-21.282m-84.147 21.282l142.483-6.676m-142.483 6.676l-89.08 13.271m89.08-13.271l56.747 10.6m27.4-31.882l58.336 14.606m-58.336-14.606l139.168-4.781m-80.832 19.387l80.832-19.387m-80.832 19.387l142.511-.05m-142.51.05l60.144 12.677m-60.145-12.677l-85.736 17.276m166.568-36.663l61.68 19.337m-61.68-19.337l139.195 10.782m-597.361 14.737l145.771 13.815m-145.771-13.815l52.417 20.359 93.354-6.544m0 0l145.827-2.671m-145.827 2.671l55.925 10.319 89.902-12.99M81.54 629.176L-.826 641.903m82.366-12.727l77.516-8.555m-77.516 8.555l142.456 19.304M81.54 629.176l63.542 20.722M-.826 641.903l-145.881 4.599m145.88-4.599l-86.476 13.039-59.404-8.44m145.88-4.599l145.909 7.995M-.826 641.903l62.884 12.973 83.024-4.978m13.974-29.277l64.94 27.859m-64.94-27.859l139.607 22.815m-74.667 5.044l74.667-5.044m-74.667 5.044l142.374 18.035M223.996 648.48l-78.914 1.418m78.914-1.418l66.775 20.491m7.892-25.535l67.707 23.079m-67.707-23.079l140.127 12.166m-72.42 10.913l72.42-10.913m-72.42 10.913l142.428 5.374m-142.428-5.374l-75.599 2.456m75.599-2.456l70.118 13.683m2.302-24.596l70.008 16.287m-70.008-16.287l68.693-11.375m-68.693 11.375l138.4 2.225m-138.4-2.225l70.035 16.287m-.027 0l-72.31 8.309m-291.406-30.3l145.689 19.073m-145.689-19.073l66.282 18.298 79.407.775m0 0l145.717 11.227m-145.717-11.227l69.899 11.886 75.818-.659m7.891-156.311l150.238-1.022m0 0l54.801 6.61m-54.801-6.61l74.968-12.1m-74.968 12.1l121.385-10.815m-66.584 17.425l66.584-17.425m-66.584 17.425l103.657-15.809m-103.657 15.809l-68.419 18.562m68.419-18.562l42.306 5.951m-22.139-24.661l46.417 1.285m-46.417-1.285l110.123-12.002m-63.706 13.287l37.073 1.616m-37.073-1.616l63.706-13.287m-63.706 13.287l96.45-18.924m-59.377 20.54l59.377-20.54m-59.377 20.54l92.203-21.942m-92.203 21.942l-61.351 21.76m61.351-21.76l33.675 3.561m-7.042-18.464l32.744-5.637m-32.744 5.637l88.203-22.963m-55.459 17.326l32.826-1.402m-32.826 1.402l55.459-17.326m-55.459 17.326l88.066-27.91m-55.24 26.508l55.24-26.508m-55.24 26.508l98.532-26.639m-98.532 26.639l39.731 5.424m-39.731-5.424l-58.528 25.503m81.161-41.427l32.607-10.584M867.911 475.8l81.681-37.042m-49.074 26.458l49.074-26.458m-49.074 26.458l43.292-.131m-43.292.131l96.258-37.668m-47.184 11.21l47.184-11.21m-47.184 11.21l88.638-48.862M444.105 550.279l136.894-2.242m0 0l48.718 8.671m-48.718-8.671l110.725-12.611m-62.007 21.282l62.007-21.282m-62.007 21.282l97.409-15.677m-97.409 15.677l-61.98 19.486m61.98-19.486l38.334 6.05m23.673-27.332l35.402 5.605m-35.402-5.605l95.026-18.199m157.06-52.142l-58.801 32.063m58.801-32.063l52.966-37.537m-52.966 37.537l116.4-27.695m-116.4 27.695l61.76 13.781m-120.561 18.282l-61.487 26.854m61.487-26.854l54.116 14.441m-54.116-14.441l-98.259 20.079m98.259-20.079l-61.487 26.87m61.487-26.87l120.561-18.282m-278.444 62.165l59.624-23.804m-59.624 23.804l96.396-17.013m-96.396 17.013l-59.075 21.727m59.075-21.727l34.717 5.242m24.907-29.046l36.772 6.791m0 0l-61.679 22.255m61.679-22.271l115.603-12.413m-115.603 12.413l-61.679 22.271m61.679-22.271l47.047 10.913m68.556-23.326l66.445-32.723m-66.445 32.723l142.835-4.468m-142.835 4.468l-68.556 23.326m68.556-23.326l76.475 25.288m-18.824-109.329l63.434 9.842m-63.434-9.842l41.454-37.652m-41.454 37.652l52.614-18.562 32.79 22.321m-21.97 6.083l17.23-9.957 4.74 3.874m-21.97 6.083l71.1 44.064m-71.1-44.064l-54.64 41.476m54.64-41.476l52.55 42.663m-74.53-90.157l43.95 41.411m-43.95-41.411l46.04 79.359m-2.09-37.948l49.13 50.147m-49.13-50.147l2.09 37.948m-2.09-37.948l48.94 57.401 22.96 3.445m-71.9-60.846l71.9 60.846m-22.77-10.699l22.77 10.699m-22.77-10.699l33.08 10.073 86.12-39.532m-119.2 29.459l-8.46-3.94-10.09 2.539m18.55 1.401l67.76 9.529m-67.76-9.529l24.47 9.446 94.73-38.905m-166.24 17.26l69.81 22.898m-69.81-22.898l24.22 25.569 35.87.214 53.18-29.261m-43.46 26.376l96.43-40.158m-96.43 40.158l43.46-26.376m-43.46 26.376l155.42-97.855m-58.99 57.697l58.99-57.697m-58.99 57.697l161.77-116.994m-161.77 116.994l91.84-50.988m-91.84 50.988l-51.44 38.988m-1.53-25.206l111.96-71.479m-111.96 71.479l180.65-142.826m-68.69 71.347l68.69-71.347m-68.69 71.347l102.78-59.297m-102.78 59.297l185.75-145.464m-117.06 74.117l117.06-74.117m-117.06 74.117l199.29-161.916m-571.91 317.831l76.39 28.255m-76.39-28.255l107.19 1.187m-107.19-1.187l107.19 1.203m-30.8 27.052l30.8-27.052m-30.8 27.052l30.8-27.068m-30.8 27.068l86.92 1.797m-86.92-1.797l-66.36 29.756m66.36-29.756l59.9 28.866m-29.1-55.934l56.12 28.865m-56.12-28.865l86.31 10.93m-86.31-10.914l86.31 10.914m-86.31-10.914l56.12 28.849m243.4-173.917l-69.93 66.006m69.93-66.006l82.97-86.167m-82.97 86.167l165.2-105.619m-165.2 105.619l78.17-16.93m-148.1 82.936l-143.28 89.976m143.28-89.976l-57.24 49.554m57.24-49.554l77.44-20.952m-77.44 20.952l148.1-82.936m-148.1 82.936l148.1-82.919m-321.57 190.83l30.19-17.935m-30.19 17.935l116.23-58.357m-116.23 58.357l-27.02 27.069m27.02-27.069l69.54-12.578m-39.35-5.357l86.04-40.422m0 0l-46.69 45.779m46.69-45.779l82.94-34.14m-82.94 34.14l134.68-70.506M567.737 576.194l42.745 6.198m-42.745-6.198l100.314-13.436m-57.569 19.634l57.569-19.634m-57.569 19.634l91.436-17.524m-91.436 17.524l-53.103 18.513m53.103-18.513l40.306 1.269m17.263-20.903l33.867 2.11m-33.867-2.11l93.792-16.485m-59.925 18.595l59.925-18.595m-59.925 18.595l100.834-14.127m-100.834 14.127l-51.13 18.793m51.13-18.793l43.731.742m16.194-19.337l40.909 4.468m-40.909-4.468l108.726-11.358m-67.817 15.826l67.817-15.826m-67.817 15.826l132.893-.264m-132.893.264l61.706 7.533m-61.706-7.533l-57.103 14.869m124.92-30.695l65.076 15.562m-65.076-15.562l145.031 1.962m-458.221 64.028l54.391 4.104m-54.391-4.104l93.409-17.244m-39.018 21.348l39.018-21.348m-39.018 21.348l98.614-15.627m-98.614 15.627l-48.034 14.82m48.034-14.82l59.459 4.319m-20.441-25.667l59.596 5.721m-59.596-5.721l94.861-18.051m189.996-15.133l-71.187 7.797m71.187-7.797l79.955-13.6m-79.955 13.6l169.745 18.331m-169.745-18.331l94.035 22.601m-165.222-14.804l-44.69 19.766m44.69-19.766l94.395 22.041m-94.395-22.041l-118.809 7.336m118.809-7.336l165.222 14.804m-319.296 16.304l35.265-23.772m-35.265 23.772l109.357-11.342m-109.357 11.342l-39.155 19.946m39.155-19.946l69.324 9.528m-34.059-33.3l74.092 12.43m-74.092-12.43l74.119 12.43m-.027 0l-40.033 20.87m40.06-20.87l139.085 2.275m-139.085-2.275l-40.06 20.87m40.06-20.87l84.969 17.655m54.116-15.38l70.827-7.237m-70.827 7.237l172.327 19.089m-172.327-19.089l-54.116 15.38m54.116-15.38l102.977 26.508m-46.23-69.946l89.79 31.931m-89.79-31.931l126.26-.89m-36.47 32.821l36.47-32.821m-36.47 32.821l103.19-33.827m-103.19 33.827l-75.71 4.27m75.71-4.27l69.52 4.814m-33.05-37.635l66.72-1.006m-66.72 1.006l96.56-39.647m-29.84 38.641l29.84-38.641m-29.84 38.641l115.09-84.486m-115.09 84.486l-33.67 38.641m33.67-38.641l77-35.41m-47.16-3.231l85.25-45.845m-85.25 45.845l129.63-79.919m-44.38 34.074l44.38-34.074m-44.38 34.074l115.65-36.844m-115.65 36.844l88.99-30.629m-88.99 30.629l-38.09 49.076m82.47-83.15l51.74-36.366m-51.74 36.366l71.27-2.77m-71.27 2.77l110.21-16.304m-58.47-20.062l70.66-61.984m-70.66 61.984l122.62-28.305m-122.62 28.305l70.66-61.967m-70.66 61.967l58.47 20.062m-448.58 172.961l101.5 26.326m-101.5-26.326l145.23.544m-43.73 25.782l43.73-25.782m-43.73 25.782l116.53-44.806m-116.53 44.806l-69.35 7.419m69.35-7.419l74.39 3.462m-30.66-29.244l72.8-19.024m-72.8 19.024l110.67-74.051m153.74-85.92l-15.37-1.005-11.29 7.22m26.66-6.215l38.94-13.534m-38.94 13.534l87.85 36.449m-87.85-36.449l64.26 25.602m-90.92-19.387l-44.19 51.351m44.19-51.351l71.11 27.81m-71.11-27.81l-127.08 79.705m127.08-79.705l90.92 19.387m-255.87 115.345l37.87-55.027m-37.87 55.027l120.76-83.381m-120.76 83.381l-42.14 48.268m42.14-48.268l77.52-11.193m-39.65-43.834l82.89-28.354m0 0l115.3-23.541m-115.3 23.541l-43.24 72.188m43.24-72.188l85.49 15.957m29.81-39.498l13.62-9.033 6.19.61m-19.81 8.423l88.25 45.285m-88.25-45.285l-29.81 39.498m29.81-39.498l73.21 55.703m-61.73-254.545l82.23-19.452m-82.23 19.452l82.23-87.799m-82.23 87.799l169.01-113.697m-86.78 94.245l86.78-94.245m-86.78 94.245l133.82-49.867m-133.82 49.867l-87.03 88.689m87.03-88.689l48.83 40.718m-48.83-109.065l86.78-25.898m-86.78 25.898L1722.13 78m-57.87 57.137l47.04 44.378m-47.04-44.378L1722.13 78m-57.87 57.137l120.17-22.881m-73.13 67.259l73.13-67.259m-73.13 67.259l121.99 4.401m-121.99-4.401l-84.99 90.585m84.99-90.585l38.01 83.727M1722.13 78l62.3 34.256M1722.13 78l114.42 1.978m-52.12 32.278l48.86 71.66m-48.86-71.66l52.12-32.278m-52.12 32.278l115.8 20.408m-66.94 51.252l66.94-51.252m-66.94 51.252l126.02 17.59m-126.02-17.59l51.57 79.178m-51.57-79.178l-83.98 79.326m87.24-183.264l63.68 52.686m-63.68-52.686l108.64 37.965m-44.96 14.721l44.96-14.721m-44.96 14.721l59.08 68.842m-59.08-68.842l114.53 37.949m-69.57-52.67l69.57 52.67m-69.57-52.67l105.28 53.131m-560.02 146.997l51.96 33.679m-51.96-33.679l135.86-47.971m-83.9 81.65l83.9-81.65m-83.9 81.65l-51.96-33.662m51.96 33.662l115.84 1.616m-115.84-1.616l-64.15 48.367m64.15-48.367l38.11 70.49m-90.07-104.152l135.86-47.988m0 0l31.94 83.266m-31.94-83.266l123-6.858m210-61.736l-74.45 61.588m74.45-61.588l55.45-30.893m-55.45 30.893l125.98 23.359m-125.98-23.359l-74.42 61.588m74.42-61.588l66.42 62.857m-140.87-1.269l-87.57 82.771m87.57-82.771l65.32 65.61m-65.32-65.61l-135.55.148m-91.06 90.124l91.06-90.124m-91.06 90.124l139.04-7.501m-139.04 7.501l-77.73 68.874m77.73-68.874l49.27 78.089m41.79-168.213l47.98 82.623m0 0l152.89-17.161m-152.89 17.161l-89.77 85.59m89.77-85.59l68.11 61.456m84.78-78.617l75.55-64.341m-75.55 64.341l156.19-20.804m-156.19 20.804l-65.29-65.61m65.29 65.61l-84.78 78.617m84.78-78.617l84.97 39.729m-20.39-197.82l70.53 54.252m-70.53-54.252l35.71.461m-35.71-.461l112.43 41.361m-41.9 12.891l41.9-12.891m-41.9 12.891l121.88 21.777m-121.88-21.777l-59.56 39.498m59.56-39.498l79.27 41.493m-114.09-95.284l76.72 40.9m-76.72-40.9l104.39 47.51m-27.67-6.61l79.98 34.668m-79.98-34.668l27.67 6.61m-27.67-6.61l109.49 30.728m-29.51 3.94l29.51-3.94m-29.51 3.94l113.69 12.858m-113.69-12.858l-42.61 19.716m42.61-19.716l86.89 21.793m-139.2-49.851l81.82 24.118m-81.82-24.118l105.85 21.117-24.03 3.001m0 0l84.18 16.798m0 0l-26.8 8.935m-409.17-5.341l140.84 1.269m0 0l80.64 43.537m-80.64-43.537l138.83 1.995m-58.19 41.542l58.19-41.542m-58.19 41.542l148.92-18.43m-148.92 18.43l-71.22 60.533m71.22-60.533l96.61 19.634m-38.42-61.176l90.73 23.112m-90.73-23.112l129.5 2.077m-38.77 21.035l38.77-21.035m-38.77 21.035l131.03-9.908m-131.03 9.908l-52.31 38.064m52.31-38.064l99.71 7.946m-60.94-28.981l92.26 11.127m0 0L2355 297.416m-876.74 102.701l48.91 49.983m-48.91-49.983l102.26 22.123m-102.26-22.123l48.91 49.999 53.35-27.876m-53.35 27.86l53.35-27.86m-53.35 27.86l104.51 42.581M1527.17 450.1l-11.15-1.088-12.44-9.759m23.59 10.847l62.99 48.647m-62.99-48.647l-11.18-1.088-12.41-9.759m76.94-17.013l51.16 70.441m-51.16-70.441l127 9.215m-75.84 61.226l75.84-61.226m-75.84 61.226l151.63-11.919m-151.63 11.919l-25.6 9.495-15.92-3.429m41.52-6.066l89.87 27.167m-14.03-88.393l75.79 49.307m-75.79-49.307l157.88-24.134m-82.09 73.441l82.09-73.441m-82.09 73.441l175.37-44.444m-175.37 44.444l107.14 7.913m-107.14-7.913l-61.76 39.086m143.85-112.527l93.28 28.997m-93.28-28.997l169.75-38.888m-531.57 70.82l68.44 53.708m-68.44-53.708l86.58 59.494m-18.14-5.786l18.14 5.786m-18.14-5.786l108.24 45.136m-108.24-45.136l-15.04 10.418m15.04-10.418l84.78 55.884m-66.64-50.098l90.1 39.35m-90.1-39.35l131.39 21.101m237.13-83.53l-68.23 52.357m68.23-52.357l76.47-67.885m-76.47 67.885l181.99-57.565m-181.99 57.565l117.41-6.445m-185.64 58.802l-55.57 38.525m55.57-38.525l121.05-7.237m-121.05 7.237l-168.9 31.173m168.9-31.173l185.64-58.802m-395.83 108.224l41.29-18.249m-41.29 18.249l154.62-10.897m-154.62 10.897l-23.46 10.748m23.46-10.748l110.72 25.502m-69.43-43.751l113.33 7.352m0 0l176.62-45.762M1834.88 527.2l-43.9 36.399m43.9-36.399l119.16 7.072m57.46-52.834l64.59-51.565m-64.59 51.565l182.99-59.725m-182.99 59.725l-57.46 52.834m57.46-52.834l117.2 2.308m-93.55-115.313l105.52 10.32m-105.52-10.32l167.83-40.899m-62.31 51.219l62.31-51.219m-62.31 51.219l171.56-51.236m-171.56 51.236l-64.58 51.12m64.58-51.12l119.25-11.837m-56.94-39.382l109.25-.017m-109.25.017L2355 297.416m-42.77 30.101l42.77-30.101m-42.77 30.101l144.04-25.354m-144.04 25.354l-52.31 39.399m52.31-39.399l111.24-4.269M2355 297.416l101.27 4.747m0 0l-32.8 21.085m-347.38 106.625l118.4-8.16m-118.4 8.16l183.83-62.957m-65.43 54.797l65.43-54.797m-65.43 54.797l173.61-52.802m-173.61 52.802l-65.79 62.033m65.79-62.033l107.63 8.654m-42.2-63.451l108.18 1.995m-108.18-1.995l163.55-43.668m-55.37 45.663l55.37-45.663m-55.37 45.663l148.64-25.008m-148.64 25.008l-65.98 61.456m65.98-61.456l93.43 23.524m-38.06-69.187l93.27 20.655m0 0l-55.21 48.532M440.954 623.027l122.782-3.198m-122.782 3.198l122.782-3.181m0-.017l61.268 4.501m-61.268-4.501l107.493-10.501m-46.225 15.002l46.225-15.002m-46.225 15.002l-61.268-4.484m61.268 4.484l113.576-6.644m-113.576 6.644l-54.692 10.781m54.692-10.781l67.351 8.737m-128.619-13.221l107.493-10.518m0 0l67.351 8.358m-67.351-8.358l108.479-10.418m-41.128 18.776l41.128-18.776m-41.128 18.776l120.371-3.659m-120.371 3.659l-46.225 15.381m46.225-15.381l76.338 14.309m-35.21-33.085l79.243 15.117m-79.243-15.117l125.029-3.215m-45.786 18.332l45.786-18.332m-45.786 18.332l139.25 4.319m-139.25-4.319l87.682 20.672m-87.682-20.672l-44.033 17.968m89.819-36.3l93.464 22.651m-93.464-22.651l157.093 11.128m-157.093-11.128l93.491 22.651m-427.916 16.765l-62.829 9.116m62.829-9.116l68.42 10.534m-68.42-10.534l122.043-2.044m-184.872 11.16l131.249 1.418m-131.249-1.418l69.707 13.6m61.542-12.182l53.623-12.578m-53.623 12.578l129.002 2.506m-129.002-2.506l-61.542 12.182m61.542-12.182l75.516 17.243m-21.893-29.821l75.379 15.084m-75.379-15.084l122.563-1.072m183.283-13.649l-51.568 16.353m0 0l-47.02 17.688m47.02-17.688l92.997 24.282m-92.997-24.282l-131.715-2.704m131.715 2.704l51.595-16.353m-51.595 16.353l149.527 9.231m-328.426 4.221l47.184-16.156m-47.184 16.156l131.879 4.236m-131.879-4.236l-53.486 14.737m53.486-14.737l83.654 21.677m-36.47-37.833l84.695 20.392m0 0l140.017 6.594m-140.017-6.594l-48.225 17.441m48.225-17.441l90.806 24.711m49.211-18.117l56.53-15.051m-56.53 15.051l149.2 9.232m-149.2-9.232l-49.211 18.117m49.211-18.117l93.38 24.151m-71.18-76.309l-63.602 11.523m63.602-11.523l96.97 25.403m-96.97-25.403l143.74-3.957m-207.342 15.48l160.572 13.88m-160.572-13.88l97.932 25.584m62.64-11.704l46.77-29.36m-46.77 29.36l125.05-27.068m-125.05 27.068l-62.61 11.705m62.61-11.705l79.65 14.457m-79.65-14.457l-62.64 11.704m109.41-41.064l78.28 2.292m-78.28-2.292l119.66-59.461m-41.38 61.753l41.38-61.753m-41.38 61.753l127.5-53.461m-127.5 53.461l-45.4 41.525m45.4-41.525l83.38 12.743m-42-74.496l86.12 8.292m-86.12-8.292l128.73-56.231m-42.61 64.523l42.61-64.523m-42.61 64.523l123.55-16.584m-123.55 16.584l90.06 32.92m-90.06-32.92l-44.12 66.204m86.73-130.727l80.94 47.939m-80.94-47.939l103.02 16.205M1096.16 643.93l92.67 24.283m0 0l49.62-21.53m-49.62 21.53l-92.64-24.282m92.64 24.282l133.88-6.495m-133.88 6.495l-55.82 14.919m55.82-14.919l85.32 16.979m-177.96-41.261l142.26 2.752m0 0l84.26 15.035m-84.26-15.035l128.78-28.782m167.67-82.788l-33.49 49.504m33.49-49.504l22.08-31.734m-22.08 31.734l106.59 27.695m-106.59-27.695l87.19 53.23m-120.68-3.726l-134.18 33.284m134.18-33.284l-43.67 55.143m43.67-55.143l91.25 39.828m-91.25-39.828l120.68 3.726m-299.38 73.375l44.52-43.817m-44.52 43.817l135.03-21.958m-135.03 21.958l-48.56 23.474m48.56-23.474l89.9 15.001m-45.38-58.818l90.51 21.859m0 0l-45.13 36.959m45.13-36.959l95.13 21.678m-95.13-21.678l134.92-15.315M577.19 657.827l-68.365 14.062m68.365-14.062l74.146 18.2m-74.146-18.2l137.058 5.061m-205.423 9.001l142.511 4.138m-142.511-4.138l-72.31 8.309m72.31-8.309l73.489 10.748m69.022-6.61l62.912-13.139m-62.912 13.139l142.511 8.374m-142.511-8.374l-69.022 6.61m69.022-6.61l76.859 15.545m-13.947-28.684l79.599 21.513m-79.599-21.513l137.14 6.94m-57.541 14.573l57.541-14.573m-57.541 14.573l142.538 9.364m-142.538-9.364l-65.652 7.171m65.652-7.171l80.229 19.749m-22.688-34.322l84.997 23.937m-84.997-23.937l139.031 7.27m-54.034 16.667l54.034-16.667m-54.034 16.667l142.535 7.072m-142.535-7.072l83.575 22.09m-83.575-22.09l-62.309 10.385m116.343-27.052l88.501 23.739m-88.501-23.739l142.591 6.034m-696.495-2.934l145.799 2.439m-145.799-2.439l73.489 4.78 72.31-2.341m0 0l145.881 8.935m-145.881-8.935l77.051 10.386 68.83-1.451m0 0l145.881 12.578m-145.881-12.578l80.558 17.079 65.323-4.501m204.844-3.313l-58.96 15.018m58.96-15.018l54.09-17.705m-54.09 17.705l142.79 1.582m-142.79-1.582l86.97 21.249m-145.93-6.231L874.076 704.15m145.884 11.705l-61.792 10.22-84.092-21.925m145.884 11.705l145.93 6.231m-145.93-6.231l87.62 23.59 58.31-17.359m-32.88-38.954l88.7 19.287m-88.7-19.287l141.14 2.06m-52.44 17.227l52.44-17.227m-52.44 17.227l143.74-6.759m-143.74 6.759l-55.82 19.667m55.82-19.667l92.26 15.859m-39.82-33.086l91.3 10.468m-91.3-10.468l138.46-8.473m-47.16 18.941l47.16-18.941m-47.16 18.941l143.83-13.171m-143.83 13.171l-51.48 22.618m51.48-22.618l97.41 7.353m-50.25-26.294l96.67 5.77m-96.67-5.77l140.26-15.281m-43.59 21.051l43.59-21.051m-43.59 21.051l145.77-17.194m-145.77 17.194l103.65-1.385m-103.65 1.385l-46.42 20.524m90.01-41.575l39.79-36.993m-39.79 36.993l102.18 3.857m-102.18-3.857l139.06-10.979m-99.27-26.014l29.43-36.102m-29.43 36.102l128.1 4.253m-128.1-4.253l99.27 26.014m-526.04 71.627l148.08-3.808m-148.08 3.808l91.88 20.672 56.2-24.48m0 0l148.89-15.265m-148.89 15.265l97.68 11.259 51.21-26.524m192.19-37.718l-42.12 15.809m42.12-15.809l36.88-14.836m-36.88 14.836l146.57-15.545m-146.57 15.545l109.74-7.484m-151.86 23.293l-150.07 21.909m150.07-21.909l-47.65 23.722-102.42-1.813m150.07-21.909l151.86-23.293m-151.86 23.293l107.99-6.099 43.87-17.194m-207.81-154.432l84.51 59.429m-84.51-59.429l99.82 45.466m-15.31 13.963l15.31-13.963m-15.31 13.963l118.75 30.134m-118.75-30.134l-19.4 25.535m19.4-25.535l99.41 47.51m-84.1-61.473l103.44 44.097m-103.44-44.097l134.18 14.754m-134.18-14.754l103.47 44.114 30.71-29.36m-30.74 29.343l30.74-29.343m-30.74 29.343l148.48-11.77m-148.48 11.77l-19.34 17.376m19.34-17.376l116.04 24.019m-85.3-53.362l117.74 17.573m-117.74-17.573l163.06-29.327m-45.32 46.9l45.32-46.9m-45.32 46.9l162.49-37.619m-162.49 37.619l117.58 12.463m-117.58-12.463l-32.44 35.789m77.76-82.689l117.17 9.281m-117.17-9.281l174.66-50.526m-506.61 104.597l98.67 40.355m-98.67-40.355l118.81 21.975m-20.14 18.38l20.14-18.38m-20.14 18.38l132.31 9.726m-132.31-9.726l-28.83 21.761m28.83-21.761l109.71 17.837m-89.57-36.217l112.17 28.106m-112.17-28.106l135.38 6.643m194.93-73.408l-44.91 50.082m44.91-50.082l57.49-59.807m-57.49 59.807l166.51-47.707m-166.51 47.707l-117.14-9.281 174.63-50.526m-57.49 59.807l111.55 12.034m-156.46 38.048l-32.36 34.882m32.36-34.882l114.48 8.16m-114.48-8.16l-150.02 23.326m150.02-23.326l156.46-38.048m-329.69 82.837l23.21-21.463m-23.21 21.463l140.87-9.907m-140.87 9.907l-22.6 8.111m22.6-8.111l116.78 6.281m-93.57-27.744l117.66 11.556m0 0l146.84-26.722m-146.84 26.722l-24.09 16.188m24.09-16.188l117.14.198m29.7-26.92l41.98-46.208m-41.98 46.208l148.54-32.888m-148.54 32.888l-29.7 26.92m29.7-26.92l112.78 2.703M2128.7 483.746l109.02 12.1m-109.02-12.1l173.42-53.379m-64.4 65.479l64.4-65.479m-64.4 65.479l160.6-42.037m-160.6 42.037l-54.96 59.741m54.96-59.741l100.81 20.144m-36.41-85.623l96.2 23.442m-96.2-23.442l159.41-37.932m-63.21 61.374l63.21-61.374m-63.21 61.374l144.73-20.639m-144.73 20.639l-59.79 62.181m59.79-62.181l88.23 34.223m-25.02-95.597l81.52 40.735m0 0l-56.5 54.862m-303.79 67.555l106.56 13.32m-106.56-13.32l155.77-39.597m-155.77 39.597l106.59 13.32 49.18-52.917m-49.21 52.917l49.21-52.917m-49.21 52.917l146.04-28.453m-146.04 28.453l-35.76 35.591m35.76-35.591l106.59 11.21m-57.38-64.127l96.83 24.464m-96.83-24.464l148.02-27.958m-148.02 27.958l96.83 24.481 51.19-52.439m-51.19 52.422l51.19-52.422m-51.19 52.422l139.34-13.402m-139.34 13.402l-39.45 39.663m39.45-39.663l101.39 23.112m-50.2-75.534l88.15 39.02m0 0l-37.95 36.514m-844.82 86.893l109.69-.709m-109.69.709l138.54-3.924m-28.85 3.215l28.85-3.215m-28.85 3.215l145.38-6.545m-145.38 6.545l-36.83 8.061m36.83-8.061l115.13-7.963m-86.28 4.748l116.53-3.33m-116.53 3.33l139.38-1.83m-22.85-1.5l22.85 1.5m-22.85-1.5l141.09-6.792M1947 643.205l-30.25-1.418m30.25 1.418l115.77-4.682m-92.92 6.182l118.24-8.292m-118.24 8.292l141.23-15.99m-22.99 7.698l22.99-7.698m-22.99 7.698l141.22-15.578m-141.22 15.578l116.97-5.341m-116.97 5.341l-25.32 2.11m48.31-9.808l118.23-7.88m-118.23 7.88l142.48-24.217m-488.77 53.313l151.96-16.024m-151.96 16.024l112.51-8.473 39.45-7.551m0 0l146.02-3.264m-146.02 3.264l116.04-3.676 29.98.412m166.54-17.688l-24.25 10.237m24.25-10.237l24.25-16.337m-24.25 16.337l141.25-18.43m-141.25 18.43l118.24-1.385m-142.49 11.622l-142.29 7.451m142.29-7.451l-28.03 6.067-114.26 1.384m142.29-7.451l142.49-11.622m-142.49 11.622l116.78 1.253 25.71-12.875m-93.99-14.952l117-2.093m-117 2.093l142.35-24.381m-25.35 22.288l25.35-22.288m-25.35 22.288l141.2-15.331m-141.2 15.331l-23.01 17.045m23.01-17.045l119.5 5.506m-94.15-27.794l115.85 6.957m-115.85-6.957l140.84-16.551m-24.99 23.508l24.99-23.508m-24.99 23.508l141.08-6.331m-141.08 6.331l-21.7 20.837m21.7-20.837l120.59 13.649m-95.6-37.157l116.09 17.177m0 0l-20.49 19.98m-284.8 18.727l142.51-11.539m-142.51 11.539l119.27 6.842 23.24-18.381m0 0l142.29-7.188m-142.29 7.188l121.57 13.682 20.72-20.87m-4360.79 22.123l-131 21.942m131-21.942l21.79 18.744m-21.79-18.744l149.12-8.407m-280.12 30.349l152.79-3.198m-152.79 3.198l18.96 21.232m133.83-24.43l-133.83 24.43m133.83-24.43l22.82 21.282m-22.82-21.282l127.33-27.151m-127.33 27.151l152.78-7.567m-152.78 7.567l22.82 21.298 129.96-28.865m-286.61 31.997l156.65-3.148m-156.65 3.148l-140.78 22.667m140.78-22.667l19.92 22.634m136.73-25.782l129.96-28.849m-129.96 28.849l156.68-5.177m-156.68 5.177l-136.73 25.782m136.73-25.782l24 24.002m80.51-72.435l25.45 19.584m-25.45-19.584l149.14-12.199m-123.69 31.783l26.72 23.672m-26.72-23.672l123.69-31.783m-123.69 31.783l152.82-9.05m-126.1 32.722l126.1-32.722m-126.1 32.722l156.7-5.209m-156.7 5.209l-132.68 29.179m132.68-29.179l28.08 26.805m68.89-82.26l29.13 22.733m-29.13-22.733l149.14-12.265m-120.01 34.998l30.6 27.513m-30.6-27.513l120.01-34.998m-120.01 34.998l152.84-7.682m-122.24 35.195l122.24-35.195m-122.24 35.195l156.71-3.247m-156.71 3.247l32.17 30.201m-32.17-30.201l-128.62 32.014m218.03-94.525l32.83 27.316m-32.83-27.316l149.17-8.589m-116.34 35.905l116.34-35.905m-116.34 35.905l34.47 31.948m-34.47-31.948l152.86-3.429m-36.52-32.476l36.52 32.476m-36.52-32.476l149.169.297m-998.559 107.004l160.7-.033m-160.7.033l16.71 23.887m143.99-23.92l-143.99 23.92m143.99-23.92l21.02 23.92m-21.02-23.92l160.73-1.78m-304.72 25.7h165.01m-165.01 0l-151.83 24.744m151.83-24.744l17.68 24.81m147.33-24.81l139.71-25.7m-139.71 25.7l165.03-.264m-165.03.264l-147.33 24.81m147.33-24.81l22.22 24.876m117.49-50.576l25.32 25.436m-25.32-25.436l160.76-2.374m285.33-35.261l-124.54 33.448m124.54-33.448l118.39-35.377m-118.39 35.377l156.73-.083m-156.73.083l36.25 33.299m-160.79.149l-131.19 29.36m131.19-29.36l33.9 29.343m-33.9-29.343l-160.79 1.813m160.79-1.813l160.79-.149m-457.02 29.772l135.44-27.81m-135.44 27.81l165.04-.263m-165.04.263l-142.81 25.14m142.81-25.14l26.75 25.206m108.69-53.016l29.6 27.547m0 0l165.09-.017m-165.09.017l-138.29 25.469m138.29-25.469l31.29 25.518m133.8-25.535l126.89-29.492m-126.89 29.492l165.08-.016m-165.08.016l-133.8 25.535m133.8-25.535l35.81 25.601m173.22-123.769l38.34 35.294m-38.34-35.294l112.649-32.179m-112.649 32.179l152.873 4.879m-114.533 30.415l114.533-30.415m-114.533 30.415l156.757 5.193m-156.757-5.193l-120.48 33.382m120.48-33.382l40.33 33.481m33.979-100.954l40.224 37.058m-40.224-37.058l149.196 14.095m-108.972 22.963l42.224 35.608m-42.224-35.608l108.972-22.963m-108.972 22.963l152.896 13.073m-110.672 22.535l110.672-22.535m-110.672 22.535l156.759 9.133m-156.759-9.133l-116.427 28.288m116.427-28.288l44.417 31.387m22.331-89.958l43.924 36.036m-43.924-36.036l149.224 21.447m-105.3 14.589l46.087 31.668m-46.087-31.668l105.3-14.589m-105.3 14.589l152.895 16.188m-106.808 15.48l106.808-15.48m-106.808 15.48l156.814 9.528m-156.814-9.528l48.5 26.574m-48.5-26.574l-112.342 22.254m171.555-68.511l47.595 30.777m-47.595-30.777l149.224 22.189m-101.629 8.588l101.629-8.588m-101.629 8.588l50.006 25.008m-50.006-25.008l152.923 14.194m-51.294-22.782l51.294 22.782m-51.294-22.782l149.252 16.303m-791.685 26.821l38.19 29.476m-38.19-29.476l160.81.099m-122.62 29.377l122.62-29.377m-122.62 29.377l165.12.065m-165.12-.065l-129.27 25.617m129.27-25.617l40.34 25.683m82.28-55.06l42.5 29.442m-42.5-29.442l160.844 3.099m269.156-12.726l-108.314 17.046m108.314-17.046l102.917-10.814M-586.68 673.01l156.787 6.38m-156.787-6.38l52.582 20.59m-160.896-3.544l-160.842-4.32m160.842 4.32l-114.042 22.617m114.042-22.617l51.102 23.26m-51.102-23.26l160.896 3.544m-440.082 18.479l118.344-26.343m-118.344 26.343l165.144.594m-165.144-.594l-124.78 25.618m124.78-25.618l44.855 25.668m73.489-52.011l46.8 26.937m0 0l-120.289 25.074m120.289-25.074l49.404 25.14m-49.404-25.14l165.144.643m-1472.488 24.002l169.51.066m-169.51-.066l14.01 26.376m155.5-26.31l-155.5 26.31m155.5-26.31l18.76 26.376m-18.76-26.376l169.55.066m-325.05 26.244l174.26.066m-174.26-.066l-164.54 27.843m164.54-27.843l14.77 27.909m159.49-27.843l150.79-26.31m-150.79 26.31l-159.49 27.843m310.28-54.153l-150.76 26.31m150.76-26.31l23.54 26.376m-23.54-26.376l169.56.066m-320.32 26.244l174.3.066m-174.3-.066l-159.52 27.843m159.52-27.843l19.81 27.909m154.49-27.843l146.02-26.31m-146.02 26.31l174.35.066m-174.35-.066l-154.49 27.843m154.49-27.843l24.88 27.909m121.14-54.219l28.33 26.376m-28.33-26.376l169.58.049m-141.25 26.327l141.25-26.327m-141.25 26.327l174.35.066m-174.35-.066l29.92 27.925m-29.92-27.925l-149.47 27.843m290.72-54.17l33.1 26.393m-33.1-26.393l169.61.066m-998.34 53.906l179.31.066m-179.31-.066l10.22 29.607m169.09-29.541l-169.09 29.541m169.09-29.541l15.59 29.607m-15.59-29.607l179.33.066m-348.42 29.475l184.68.066m-184.68-.066l-179.59 31.388m179.59-31.388l10.76 31.454m173.92-31.388l163.74-29.541m-163.74 29.541l184.7.083m-184.7-.083l-173.92 31.388m173.92-31.388l16.46 31.47m147.28-61.011l20.96 29.624m-20.96-29.624l179.37.066m323.82-27.777l-144.43 27.859m144.43-27.859l136.51-26.327m-136.51 26.327l174.38.066m-174.38-.066l34.99 27.925m-179.42-.066l-153.06 29.542m153.06-29.542l31.67 29.608m-31.67-29.608l-179.39-.082m179.39.082l-153.09 29.542m153.09-29.542l179.42.066m-517.22 29.41l158.41-29.558m-158.41 29.558l184.71.066m-184.71-.066l-168.24 31.387m168.24-31.387l22.14 31.47m136.27-61.028l26.3 29.624m0 0l-162.57 31.404m162.6-31.404l184.73.066m-184.73-.066l-162.6 31.404m162.6-31.404l27.84 31.47m156.89-31.404l147.75-29.542m-147.75 29.542l184.79.082m-184.79-.082l-156.89 31.404m156.89-31.404l33.57 31.486m215.7-115.28l37.87 26.393m-37.87-26.393l169.61.066m-131.74 26.327l131.74-26.327m-131.74 26.327l174.4.066m-174.4-.066l-139.39 27.859m139.39-27.859l40.06 27.925m91.68-54.252l42.66 26.393m-42.66-26.393l169.635.05M-1056.3 764.09l126.975-26.343M-1056.3 764.09l174.433.066m-174.433-.066l-134.34 27.859m134.34-27.859l45.13 27.925m81.845-54.268l47.458 26.409m-47.458-26.409l169.693.066m-122.235 26.343l122.235-26.343m-122.235 26.343l174.46.049m-174.46-.049l50.171 27.925m-50.171-27.925l-129.303 27.859m251.538-54.202l115.74-24.497m-115.74 24.497l52.225 26.392m-52.225-26.392l169.692.066m-53.952-24.563l109.794-19.716m-109.794 19.716l165.171.231m-165.171-.231l53.952 24.563m-780.15 54.004l37.04 29.624m-37.04-29.624l179.45.066m-142.41 29.558l142.41-29.558m-142.41 29.558l184.79.066m-184.79-.066l-151.22 31.404m151.22-31.404l39.24 31.486m103.17-61.044l42.38 29.624m-42.38-29.624l179.47.066m303.763-27.81l-124.289 27.876m124.289-27.876l117.467-26.326m-117.467 26.326l174.46.066m-174.46-.066l55.24 27.942m-179.529-.066l-131.715 29.574m131.715-29.574l53.13 29.64m-53.13-29.64l-179.474-.066m179.474.066l179.529.066m-496.093 29.426l137.09-29.558m-137.09 29.558l184.849.082m-184.849-.082l-145.55 31.42m145.55-31.42l44.97 31.486m92.12-61.044l47.759 29.64m0 0l184.845.066m-184.845-.066l-139.879 31.404m139.879-31.404l50.664 31.487m134.181-31.421l126.399-29.574m-126.399 29.574l184.899.066m-184.899-.066l-134.181 31.421m134.181-31.421l56.39 31.503m238.413-191.028l53.87 17.194m-53.87-17.194l97.958-6.479m-97.958 6.479l152.951 7.138m-99.081 10.056l99.081-10.056m-99.081 10.056l156.787.478m-156.787-.478l-104.205 14.21m104.205-14.21l56.692 14.968m-12.604-38.641l54.993 13.617m-54.993-13.617l149.278 3.775m-94.285 9.842l57.706 10.534m-57.706-10.534l94.285-9.842m-94.285 9.842l152.895-1.896m-95.189 12.43l95.189-12.43m-95.189 12.43l156.676-2.424m-156.676 2.424l-100.095 14.49m100.095-14.49l60.664 13.419m-24.085-33.795l58.61 7.946m-58.61-7.946l149.334-4.55m-90.724 12.496l61.487 10.006m-61.487-10.006l90.724-12.496m-90.724 12.496l152.923-2.868m-152.923 2.868l61.515 10.006m-.028 0l-96.012 15.843m125.249-38.345l62.199 9.628m-62.2-9.628l149.334-.065m-87.134 9.693l-91.408 12.874m91.408-12.874l87.134-9.693m-87.134 9.693l65.296 12.825m-65.296-12.825l152.923 4.945m-244.331 7.929l156.704-.049m-156.704.049l64.72 14.722m-64.72-14.722l-96.04 15.843m274.582-38.41l65.789 14.638M62.14 654.877l149.307 13.319M-534.098 693.6l55.377 19.947m-55.377-19.947l160.897.758m-105.52 19.189l105.52-19.189m-105.52 19.189l165.198-.33m-165.198.33l-111.219 24.332m111.219-24.332l58.473 24.381m47.047-43.57l59.678 18.859m-59.678-18.859l160.759-1.071m252.744-15.892l-91.984 14.771m91.984-14.771l87.627-7.88m-87.627 7.88l156.896 6.314m-156.896-6.314l68.803 16.699m-160.787-1.928l-96.697 20.787m96.697-20.787l68.502 20.82m-68.502-20.82l-160.76 1.121m160.76-1.121l160.787 1.928m-160.787-1.928l160.787 1.945m-422.628 19.106l101.081-19.93m-101.081 19.93l165.144-.264m-165.144.264l-106.725 24.711m106.725-24.711l63.104 24.777m37.977-44.707l64.063 19.666m0 0l165.198.033m-165.198-.033l-102.04 25.041m102.04-25.041l67.844 25.107m97.355-25.074l92.285-18.892M16.82 712.986l165.253.643m-165.254-.643l92.286-18.875M16.82 712.986l-97.355 25.074m97.355-25.074l72.529 25.14m38.58-68.611l69.269 14.194m-69.269-14.194l83.518-1.319m-83.518 1.319l153.088 10.847m-83.819 3.347l83.819-3.347m-83.819 3.347l157.088 5.127m-157.088-5.127l-88.093 10.385m88.093-10.385l73.105 13.27m-58.856-28.783l69.57 12.166m-69.57-12.166l149.305 12.661m-79.735-.495l73.269 8.474m-73.269-8.474l79.735.495m-79.735-.495l153.142 5.935m-79.873 2.539l79.873-2.539m-79.873 2.539l157.088 1.813m-157.088-1.813l-83.983 8.143m83.983-8.143l77.215 9.05m-70.749-17.029l73.407 5.44m-73.407-5.44l149.307 4.121-75.9 1.319m0 0l77.215 4.352m0 0l-79.873 7.237m-322.396-3.792l72.968 19.535m-72.968-19.535l161.198 2.885m-88.23 16.65l88.23-16.65m-88.23 16.65l-72.968-19.518m72.968 19.518l165.363.247m-165.363-.247l-92.724 24.497m92.724-24.497l76.941 24.546m-149.909-44.064l161.198 2.868m0 0l77.133 16.897m-77.133-16.897l161.198.907m-84.065 15.99l84.065-15.99m-84.065 15.99l165.363.759m-165.363-.759l-88.422 24.299m88.422-24.299l81.27 24.365m2.795-40.355l81.298 16.749m0 0l-84.093 23.606m-1018.646-.362l56.993 26.392m-56.993-26.392l169.692.049m-112.699 26.343l112.699-26.343m-112.699 26.343l174.542.066m-174.542-.066l-119.22 27.876m119.22-27.876l60.309 27.942m52.39-54.285l61.843 26.409m-61.843-26.409l169.829.066m-107.986 26.343l107.986-26.343m-107.986 26.343l174.624.066m-174.624-.066l-114.233 27.876m114.233-27.876l65.323 27.959m42.663-54.302l66.638 26.409m-66.638-26.409l169.884.066m-103.246 26.343l103.246-26.343m-103.246 26.343l174.68.066m-174.68-.066l70.31 27.958m-70.31-27.958l-109.301 27.893m212.547-54.236l71.433 26.409m-71.433-26.409l169.884.066m-741.516 54.021l58.5 29.64m-58.5-29.64l179.529.066m-121.029 29.574l121.029-29.574m-121.029 29.574l184.872.083m-184.872-.083l-128.509 31.437m128.509-31.437l62.09 31.503m58.939-61.077l63.843 29.657m-63.843-29.657l179.556.083m283.98-27.827l-104.369 27.892m104.37-27.892l98.45-26.343m-98.45 26.343l174.542.066m-174.543-.066l75.243 27.958m-179.612-.066l-110.534 29.575m110.534-29.575l74.284 29.657m-74.284-29.657l-179.611-.065m179.611.065l179.612.066m-474.936 29.443l115.713-29.574m-115.713 29.574l184.79.066m-184.79-.066l-122.782 31.42m122.782-31.42l67.625 31.503m48.088-61.077l69.077 29.64m0 0l184.818.082m-184.818-.082l-117.165 31.437m117.165-31.437l73.215 31.519m111.603-31.437L66.14 792.427m-105.328 29.591l184.981.066m-184.981-.066l-111.603 31.437m111.603-31.437l78.831 31.519M89.35 738.126l76.092 26.409m-76.092-26.409l169.665.049m-93.573 26.36l93.573-26.36m-93.573 26.36l174.46.066m-174.46-.066l-99.3 27.892m99.3-27.892l80.338 27.958m13.235-54.318l80.887 26.426m-80.887-26.426l169.692.066m-88.805 26.36l88.805-26.36m-88.805 26.36l174.487 1.17m-174.487-1.17l-94.122 27.892m94.122-27.892l85.517 27.958m3.288-54.318l85.682 27.53m0 0l-88.97 26.788m-359.277-.132l79.653 29.657m-79.653-29.657l179.638.066m-99.985 29.591l99.985-29.591m-99.985 29.591l185.202.066m-185.202-.066l-106.15 31.453m106.15-31.453l84.86 31.519m15.125-61.11l85.217 29.657m-85.217-29.657l179.639.066m-94.422 29.591l94.422-29.591m-94.422 29.591l185.2.28m-185.2-.28l-100.342 31.453m100.342-31.453l90.723 31.536m3.699-61.127l90.778 29.871m0 0l-94.477 31.256m-2857.999-1.154l190.35.066m-190.35-.066l5.35 33.481m185-33.415l-185 33.415m185-33.415l11.4 33.497m-11.4-33.497l190.38.082m-375.38 33.333l196.4.082m-196.4-.082L-2628 921.571l202.82.099m-5.75-35.657l5.75 35.657m190.65-35.575l178.98-33.415m-178.98 33.415l196.44.066m-196.44-.066l-190.65 35.575m190.65-35.575l12.2 35.657m166.78-69.072l17.46 33.481m-17.46-33.481l190.38.083m-190.38-.083l17.46 33.498 172.92-33.415m-172.92 33.398l172.92-33.398m-172.92 33.398l196.46.083m-196.46-.083l-184.24 35.591m184.24-35.591l18.66 35.674m154.26-69.072l23.54 33.481m-23.54-33.481l190.44.066m-190.44-.066l23.54 33.497 166.9-33.431m-166.9 33.415l166.9-33.415m-166.9 33.415l196.49.082m-196.49-.082l25.1 35.69m-25.1-35.69l-177.8 35.591m344.7-69.006l29.59 33.497m-29.59-33.497l190.46.082m-940.91 68.759l202.85.082m0 0l202.9.083m374.29-35.509l-171.39 35.608m171.39-35.608l160.87-33.415m-160.87 33.415l196.52.082m-196.52-.082l-171.36 35.608 202.93.082m-31.57-35.69l31.57 35.69m-202.96-.082l-202.9-.099m535.16-68.924l35.65 33.497m-35.65-33.497l190.46.082m-154.81 33.415l154.81-33.415m-154.81 33.415l196.54.083m-196.54-.083l-164.95 35.608m164.95-35.608l38.03 35.691m116.78-69.106l41.73 33.498m-41.73-33.498l190.52.066m-148.79 33.432l148.79-33.432m-148.79 33.432l196.58.082m-196.58-.082l-158.51 35.608m158.51-35.608l44.5 35.706m104.29-69.138l47.79 33.514m-47.79-33.514l190.543.083m-142.753 33.431l142.753-33.431m-142.753 33.431l196.622.083m-196.622-.083l50.99 35.707m-50.99-35.707l-152.08 35.624m294.833-69.055l53.869 33.514m-53.869-33.514l190.571.082m-891.394 68.792l202.98.083m0 0l203.01.098m348.702-35.541l-145.632 35.624m145.632-35.624l136.702-33.432m-136.702 33.432l196.627.082m-196.627-.082l57.432 35.706m-203.064-.082l-203.07-.083m203.07.083l203.064.082m79.27-69.138l59.925 33.514m-59.925-33.514l190.599.066m-190.599-.066l190.599.083m-130.674 33.431l130.674-33.431m-130.674 33.431l130.674-33.448m-130.674 33.448l196.6.083m-196.6-.083l-139.195 35.624m139.195-35.624l63.926 35.707m66.748-69.155l65.926 33.531m-65.926-33.531l190.407.083m-190.407-.066l190.407.066m-190.407-.066l65.926 33.514m0 0l124.481-33.448m-124.481 33.448l196.463.082m-196.463-.082l-132.674 35.624m132.674-35.624l70.42 35.723m54.061-69.171l71.982 33.53m-71.982-33.53l190.38.082m-118.398 33.448l118.398-33.448m-118.398 33.448l196.49.082m-196.49-.082l77.105 35.723m-77.105-35.723l-126.043 35.641m244.441-69.089l78.092 33.53m-78.092-33.53l190.434.082m-841.09 68.825l203.121.083m0 0l203.094.099m322.533-35.559l-119.385 35.641m119.385-35.641l112.342-33.448m-112.342 33.448l196.764.083m-196.764-.083l83.818 35.724m-203.203-.083l-203.148-.082m203.148.082l203.203.083m28.524-69.172l84.422 33.531m-84.422-33.531l191.01.066m-106.588 33.465l106.588-33.465m-106.588 33.465l197.092.082m-197.092-.082L11.12 922.709m112.946-35.641l90.312 35.739m16.276-69.204l90.504 33.547m-90.504-33.547l191.065.083M321.158 887.15l100.561-33.464M321.158 887.15l197.066-.296m-197.066.296l-106.78 35.657m106.78-35.657l96.506 35.74m4.055-69.204l96.505 33.168m0 0l-100.56 36.036m-406.544-.181l203.258.098m0 0l203.286.083m93.08-237.846l-75.928 1.319m75.928-1.319l77.215 6.281m-77.215-6.281l149.443 8.16m-225.371-6.841l153.143 4.962m-153.143-4.962l77.27 4.434m75.873.528l-75.873-.528m75.873.528l81.133 14.144m-81.133-14.144l72.228 1.879m-72.228-1.879l153.142 16.996m-229.015-17.524l157.006 14.672m-157.006-14.672l-79.9 7.336m79.9-7.336l81.271 14.59m75.735.082l72.009 2.852m-72.009-2.852l157.06 25.601m-157.06-25.601l-75.735-.082m75.735.082l85.38 24.497m-94.285-36.762l80.914 15.117m-80.914-15.117l149.47 15.76m-68.556-.643l85.051 22.749m-85.051-22.749l68.556.643m-68.556-.643l153.169 22.683m-68.118.066l68.118-.066m-68.118.066l157.061 28.157M826.152 731.07l-71.68-1.104m71.68 1.104l89.463 31.256m-105.958-53.362l84.613 22.04m-84.613-22.04l149.471 17.507m-64.858 4.533l88.943 28.223m-88.943-28.223l64.858-4.533m-64.858 4.533l153.2 21.282m-64.257 6.941l64.257-6.941m-64.257 6.941l157.087 22.287m-157.087-22.287l93.577 33.547m-93.577-33.547l-67.598 3.099m43.513-35.855l88.342 25.815m-88.342-25.815l149.502 13.419m-61.16 12.396l61.16-12.396m-61.16 12.396l92.83 29.228m-92.83-29.228l153.19 12.727m-92.03-25.123l92.03 25.123m-92.03-25.123l150.29 3.297m-826.734-45.054l161.171 7.254m-161.171-7.254l81.38 16.996m79.791-9.742l-79.791 9.742m79.791-9.742l85.627 27.678m-85.627-27.678l161.115 24.579m-240.906-14.837l165.418 17.936m-165.418-17.936l-84.148 23.673m84.148-23.673l85.764 31.454m79.654-13.518l75.488-3.099m-75.488 3.099l165.445 32.212m-165.445-32.212l-79.654 13.518m79.654-13.518l90.312 39.053m-14.824-42.152l89.957 35.311m-89.957-35.311l161.143 32.36m224.685 19.188l-63.51 11.26m63.51-11.26l60.36-16.501m-60.36 16.501l157.88 7.353m-157.88-7.353l97.66 30.119m-161.17-18.859l-66.92 8.044m66.92-8.044l98.58 35.953m-98.58-35.953l-161.175-30.448m161.175 30.448l161.17 18.859m-393.531-46.356l71.186-2.951m-71.186 2.951l165.441 35.541m-165.441-35.541l-75.133 6.841m75.133-6.841l94.861 40.454m-23.675-43.405l94.255 38.492m0 0l165.5 27.909m-165.5-27.909l-70.58 4.913m70.58-4.913l99.44 36.548m66.06-8.639l62.59-17.094m-62.59 17.094l165.61 9.067m-165.61-9.067l-66.06 8.639m66.06-8.639l103.96 28.272m-78.67-91.986l97.52 23.854m-97.52-23.854l58.26-21.826m-58.26 21.826l156.65-5.308m-59.13 29.162l59.13-29.162m-59.13 29.162l161.45-18.81m-161.45 18.81l-60.2 22.766m60.2-22.766l103.06 17.029m-103.06-17.029l-60.22 22.766m20.96-68.446l98.39 16.518m-98.39-16.518l153.96-13.37m-55.57 29.888l102.32 10.352m-102.32-10.352l55.57-29.888m-55.57 29.888l157.72-24.497m-55.4 34.849l55.4-34.849m-55.4 34.849l160.65-35.294m-160.65 35.294l-58.39 35.839m58.39-35.839l104.8 3.924m-151.55-44.164l102.15 5.391m-102.15-5.391l153.72-24.859m-51.57 30.25l105.25-.445m-105.25.445l51.57-30.25m-51.57 30.25l158.19-34.14m-52.94 33.695l52.94-33.695m-52.94 33.695l161.28-40.998m-161.28 40.998l106.75-5.143m-106.75 5.143l-55.85 39.218m2.17-69.023l106.62-3.89m-106.62 3.89l155.74-29.953m-49.12 26.063l49.12-26.063m-49.12 26.063l108.34-7.303m-108.34 7.303l159.36-34.405m-110.24 8.342l110.24-8.342m-110.24 8.342l156.44-25.717m-640.82 162.345l103.02 26.161m0 0l60.26-31.898m-60.26 31.898l-103-26.161m103 26.161l165.15-21.958m-165.15 21.958l-61.65 19.205m61.65-19.205l107.44 13.172m-210.44-39.333l163.26-5.737m0 0l104.89 9.94m-104.89-9.94l163.19-31.915m217.13-80.216l-54.53 35.855m54.53-35.855l51.02-27.102m-51.02 27.102l161.91-34.256m-161.91 34.256l108.45-7.6m-162.98 43.455l-162.6 44.361m162.6-44.361l-57.08 42.762m57.08-42.762l106.4-6.924m-106.4 6.924l162.98-43.455m-383.88 129.671l58.3-41.855m-58.3 41.855l163.82-43.454m-163.82 43.454l-57.71 35.13m57.71-35.13l109.6 1.797m-51.3-43.652l105.52-1.599m0 0l-54.22 45.251m54.22-45.251l112.51-1.039m-112.51 1.039l163.48-49.686M429.418 738.802l169.912 7.781m-169.912-7.781l85.792 27.579m84.12-19.798l-84.12 19.798m84.12-19.798l90.614 35.294m-90.614-35.294l169.966 25.535m-254.086-5.737l174.734 15.496M515.21 766.381l-89.025 26.805m89.025-26.805l90.778 31.915m83.956-16.419l79.352-9.759m-79.352 9.759l174.761 26.442m-174.761-26.442l-83.956 16.419m83.956-16.419l95.875 33.366m-16.523-43.125l95.409 36.201m-95.409-36.201l169.994 33.613m-74.585 2.588l74.585-2.588m-74.585 2.588L1039.49 837.3m-174.785-28.981l-78.886 6.924m78.886-6.924l100.971 29.294m-26.386-31.882l100.2 31.569m-100.2-31.569l170.02 31.635m-69.82-.066l69.82.066m-69.82-.066l174.82 23.145M1039.49 837.3l106.04 21.348M1039.49 837.3l-73.814.313m143.634-.247l105 23.079m-105-23.079l170.02 19.633m-853.145-63.813l179.803 5.11m-179.803-5.11l90.86 29.904m88.943-24.794l-88.943 24.794m88.943-24.794l96.231 32.146m-96.231-32.146l179.831 16.947m-268.774 7.847l185.174 7.352m-185.174-7.352l-94.532 31.305m94.532-31.305l96.451 31.98m88.723-24.628l83.6-15.199m-83.6 15.199l185.229 13.963m-185.229-13.963l-88.723 24.628m88.723-24.628l102.177 30.596m-18.577-45.795l101.629 29.162m-101.629-29.162l179.857 22.37m248.634 22.832l-68.78-1.797m68.78 1.797l65.02-3.446m-65.02 3.446l174.65 8.193m-174.65-8.193l111.14 11.226m-179.92-13.023l-72.85 1.253m72.85-1.253l112.43 13.237m-112.43-13.237l-179.854-21.035m179.854 21.035l179.92 13.023m-438.002-27.266l78.228-6.792m-78.228 6.792l185.232 15.496m-185.232-15.496l-83.052 16.633m83.052-16.633l107.903 25.321m-29.675-32.113l107.004 22.288m0 0l185.28 11.984m-185.28-11.984l-77.329 9.825m77.329-9.825l113.65 17.869m71.63-5.885l67.49-.214m-67.49.214l185.25 3.61m-185.25-3.61l-71.63 5.885m71.63-5.885l119.36 9.875m-97.99-24.761l109.63 11.639m-109.63-11.639l169.09-6.033m-59.46 17.672l59.46-17.672m-59.46 17.672l172.71-18.793m-172.71 18.793l-63.51 3.033m63.51-3.033l115.6-.742m-56.14-16.93l113.25-1.121m-113.25 1.121l167.31-33.333m-54.06 32.212l54.06-32.212m-54.06 32.212l171.77-35.295m-171.77 35.295l-57.11 18.051m57.11-18.051l120.78-3.808m-66.72-28.404l117.71-3.083m-117.71 3.083l166.73-46.29m-49.02 43.207l49.02-43.207m-49.02 43.207l171.67-40.454m-171.67 40.454l126.26 1.039m-126.26-1.039l-50.99 31.487m100.01-74.694l50.97-48.647m-50.97 48.647l122.65 2.753m-122.65-2.753l166.98-45.004m-116.01-3.643l56.58-36.531m-56.58 36.531l164.05-40.438m-164.05 40.438l116.01 3.643m-623.99 145.332l117.76 3.824m-117.76-3.824l179.11-3.775m-61.35 7.599l61.35-7.599m-61.35 7.599l184.58-8.753m-184.58 8.753l-65.89 6.265m65.89-6.265l125.28 5.506m-63.93-13.105l123.23-1.154m-123.23 1.154l177.89-21.859m222.66-71.941l-45.41 41.493m45.41-41.493l44.33-47.757m-44.33 47.757l172.13-33.382m-172.13 33.382l131.85 11.919m-177.26 29.574l-48 32.541m48-32.541l135.12 11.342m-135.12-11.342l-177.25 30.448m177.25-30.448l177.26-29.574m-409.17 80.727l54.66-20.705m-54.66 20.705l183.88-18.612m-183.88 18.612l-59.3 14.259m59.3-14.259l131.57 6.495m-76.91-27.2l129.22 2.093m-129.22-2.093l129.25 2.093m-.03 0l-52.31 25.107m52.34-25.107l183.12-21.199M1811.7 848.13l-52.34 25.107m52.34-25.107l137.63 13.485m45.49-34.684l42.14-40.916m-42.14 40.916l183.39-16.93m-183.39 16.93l-45.49 34.684m45.49-34.684l144.15 23.788m-306.39-184.056l110.89-7.154m-110.89 7.154l46.2-17.375m-46.2 17.375l159.85-23.194m-48.96 16.04l48.96-16.04m-48.96 16.04l161.91-14.458m-161.91 14.458l-53.46 26.656m53.46-26.656l110.37-1.748m-175.06-8.473l113.65-5.819m-113.65 5.819l155.52-11.16m-41.87 5.341l112.95 1.582m-112.95-1.582l41.87-5.341m-41.87 5.341l152.9-2.572m-39.95 4.154l39.95-4.154m-39.95 4.154l152.43 3.446m-152.43-3.446l-51.54 12.71m51.54-12.71l109.41 10.567m-180.49-17.49l111.03 2.769m-111.03-2.769l144.32-.94m-33.29 3.709l112.48 7.6m-112.48-7.6l33.29-3.709m-33.29 3.709l148.18.726m-35.7 6.874l35.7-6.874m-35.7 6.874l153.39 4.649m-153.39-4.649l116.12 14.095m-116.12-14.095l-43.02 7.121m-36.17-18.43l114.89 4.435m-114.89-4.435l144.87-4.715m-29.98 9.15l29.98-9.15m-29.98 9.15l117.69 11.523m-117.69-11.523l148.68-.116m-118.7-9.034l118.7 9.034m-118.7-9.034l145.03-5.918m-578.51 59.61l107.47-3.907m-107.47 3.907l163.83-28.404m-56.36 24.497l56.36-24.497m-56.36 24.497l-107.44 3.907 163.8-28.404m-56.36 24.497l165.41-15.694m-165.41 15.694l-48.04 44.081m48.04-44.081l119.9 14.589m-63.54-39.086l109.05 8.803m-109.05-8.803l160.95-2.143m196.41-2.472l-37.27 9.446m37.27-9.446l30.99-11.639m-30.99 11.639l153.74 5.044m-153.74-5.044l122.7 18.891m-159.97-9.445l-45.18 9.495m45.18-9.495l122.1 21.216m-122.1-21.216l-159.14-6.974m159.14 6.974l159.97 9.445m-371.01-5.473l51.9-10.946m-51.9 10.946l165.86 5.523m-165.86-5.523l-45.51 30.283m45.51-30.283l124.89 27.613m-72.99-38.559l113.96 16.469m0 0l167.28 11.721m-167.28-11.721l-40.97 22.09m40.97-22.09l131.71 31.107m35.57-19.386l37.87-11.771m-37.87 11.771l167.77 13.765m-167.77-13.765l-35.57 19.386m35.57-19.386l137.96 32.393m-191.8-74.694l122.75 16.683m-122.75-16.683l26.33-14.952m-26.33 14.952l148.7-.066m-25.95 16.749l25.95-16.749m-25.95 16.749l153.45 4.665m-153.45-4.665l-31.04 13.847m31.04-13.847l128.95 23.277m-225.37-54.912l122.37 14.886m-122.37-14.886l144.89-4.583m-22.52 19.469l127.5 21.414m-127.5-21.414l22.52-19.469m-22.52 19.469l148.21.825m-20.71 20.589l20.71-20.589m-20.71 20.589l152.48 3.446m-152.48-3.446l-24.5 18.612m24.5-18.612l134.7 25.536m-239.68-66.419l125.69 20.294m-125.69-20.294l144.32-.692-18.63 20.986m0 0l131.77 24.035m0 0l-17.78 22.09m-319.19-16.354l129.9 25.536m-129.9-25.536l159.99 9.43m-30.09 16.106l30.09-16.106m-30.09 16.106l167.37 11.655m-167.37-11.655l-29.81 18.628m29.81-18.628l143.75 31.585m-113.66-47.691l137.28 27.761m-137.28-27.761l159.2 6.924m-21.92 20.837l21.92-20.837m-21.92 20.837l165.96 5.374m-165.96-5.374l-23.62 19.93m23.62-19.93l149.08 28.832m-127.16-49.669l144.04 26.211m0 0l-16.88 23.458m-1030.81-11.721l127.8 14.375m-127.8-14.375l167.94-29.492m-167.94 29.492l127.83 14.375m-.03 0l-40.28 45.301m80.42-89.168l-40.11 43.867m40.11-43.867l133.28 29.443m-133.28-29.443l170.4-2.67m-210.51 46.537l173.39-14.424m-173.39 14.424l-40.31 45.301m40.31-45.301l137.6 26.079m35.79-40.503l37.12-32.113m-37.12 32.113l176.87 4.681m-176.87-4.681l-35.79 40.503m35.79-40.503l144.37 38.772m-107.25-70.885l139.75 36.794m-139.75-36.794l172.68 9.017m-172.68-9.017l139.78 36.794 32.9-27.777m-32.93 27.777l32.93-27.777m-32.93 27.777l177.97 9.694m-177.97-9.694l149.72 39.845m-149.72-39.845l-32.47 34.091m32.47-34.091l-32.5 34.091m65.43-61.868l145.04 37.471m-145.04-37.471l173.53 13.007m-173.53-13.007l145.06 37.471 28.47-24.464m-597.03 69.814l141.25 23.986m-141.25-23.986l177.91-19.222m-177.91 19.222l141.28 23.986 36.63-43.208m-36.66 43.208l36.66-43.208m-36.66 43.208l184.21-5.77m-184.21 5.77l-39.24 40.718m39.24-40.718l150.76 35.03m-114.1-78.238l147.55 37.438m-147.55-37.438l180.16-1.731m-180.16 1.731l180.19-1.731m210.44-24.397l-28.25 30.151m28.25-30.151l28.49-24.464m-28.49 24.464l178.35 11.341m-178.35-11.341l154.53 38.542m-182.78-8.391L2549 806.192m28.25-35.376l158.97 40.371m-158.97-40.371l-182.19-5.754m182.19 5.754l182.78 8.391m-182.78-8.391l182.78 8.407m-397.61 25.008l32.61-39.169m-32.61 39.169l186.58 1.961m-186.58-1.961l32.64-39.169m-32.64 39.169l-33.45 40.8m33.45-40.8L2520 845.394m-124.97-80.332l153.97 41.13m0 0l187.22 4.995M2549 806.192l-153.94-41.13m153.94 41.13l-29 39.202m29-39.202l163 41.114m24.22-36.119l23.81-31.98m-23.81 31.98l187.48 5.968m-187.48-5.968l23.81-31.964m-23.81 31.964L2712 847.306m24.22-36.119l168.08 39.35m-270.31-134.336l149.86 35.805m-149.86-35.805l173.56 12.957m-173.56-12.957l173.56 12.974m-23.7 22.831l23.7-22.831m-23.7 22.831l23.7-22.848m-23.7 22.848l177.99 9.627m-177.99-9.627l-23.82 27.217m23.82-27.217l159 35.591m-159-35.591l-23.82 27.201m47.52-50.049l154.29 32.475m-154.29-32.475l172.7 8.902m-172.7-8.885l172.7 8.885m-172.7-8.885l154.29 32.458m0 0l18.41-23.573m-18.41 23.573l176.95 4.567m-176.95-4.567l-18.99 25.964m18.99-25.964l163.25 31.635m-144.84-55.208l158.54 28.14m0 0l-13.7 27.068m-365.06-14.061l163.67 37.948m0 0l19.15-29.558m-19.15 29.558l-163.67-37.932m163.67 37.932l187.26 4.946m-187.26-4.946l-19.4 33.382m19.4-33.382l172.92 36.597m-336.59-74.529l182.82 8.374m0 0l168.11 34.504m-168.11-34.504l182.24 5.671m-14.13 28.833l14.13-28.833m-14.13 28.833l186.65 1.895m-186.65-1.895l-14.34 31.651m14.34-31.651l177.72 33.53m-163.59-62.363l172.52 30.728m0 0l-8.93 31.635m-2866.167-1.236l190.983.675m-190.983-.675l96.615 33.2m94.368-32.525l-94.368 32.525m94.368-32.525l102.588 33.102M613.496 855.07l190.9 5.968m-190.9-5.968l102.615 33.102m-196.983-.577l196.956.577m-196.956-.577L418.54 923.681l203.45.033m-102.862-36.119l102.862 36.119m94.094-35.542l-94.094 35.542m182.406-62.676l-88.285 27.134m88.285-27.134l108.726 29.97m-108.726-29.97l190.955 8.688m-279.24 18.446l197.011 2.836m-197.011-2.836l-94.121 35.542m94.121-35.542l109.356 35.641m87.655-32.805l82.229-21.282m-82.229 21.282l197.038 3.346m-197.038-3.346l-87.655 32.805m87.655-32.805l115.848 32.953m-33.619-54.235l114.809 24.628m-114.809-24.628l190.979 8.044m-76.17 16.584l76.17-16.584m-76.17 16.584l197.07 2.16m-197.07-2.16l122.34 29.739m-122.34-29.739l-81.19 29.607m157.36-46.191l120.9 18.744m-120.9-18.744l190.99 3.99m-755.33 41.954l203.477.099m0 0l203.503.148m278.26-27.447l-74.73 27.579m74.73-27.579l70.09-14.754m-70.09 14.754l197.17-.083m-197.17.083l128.83 27.645m-203.56-.066l-203.53-.132m203.53.132l203.56.066m-58.74-42.399l127.08 14.671m-127.08-14.671l191.17-.759m-191.17.759l127.08 14.688 64.09-15.447m-64.09 15.43l64.09-15.43m-64.09 15.43l197.56-.527m-197.56.527l-68.34 27.728m68.34-27.728l135.3 27.827m-71.21-43.257l133.47 14.903m-133.47-14.903l190.87-7.764m-57.4 22.667l57.4-22.667m-57.4 22.667l197.26-3.825m-197.26 3.825l-62.26 28.354m62.26-28.354l141.39 28.42m-83.99-51.087l139.86 18.842m-139.86-18.842l189.97-11.622m-50.11 30.464l50.11-30.464m-50.11 30.464l196.46-4.187m-196.46 4.187l147.8 32.278m-147.8-32.278l-55.87 32.245m105.98-62.709l146.35 26.277m-146.35-26.277l189.64-10.896m-702.91 73.44l203.64.099m0 0l203.65.066m252.33-36.432l-48.66 36.465m48.66-36.465l43.29-37.173m-43.29 37.173l196.54-2.753m-196.54 2.753l155 36.531m-203.66-.066l-203.67-.033m203.67.033l203.66.066m-111.71-73.704l153.25 34.42m-153.25-34.42l190-5.688m-36.75 40.108l36.75-40.108m-36.75 40.108l196.85.857m-196.85-.857l-41.54 39.284m41.54-39.284l162.19 39.383m-125.44-79.491l160.1 40.965m-160.1-40.965l191.03.363m-191.03-.363l191.03.379m-30.93 40.586l30.93-40.602m-30.93 40.602l197.39-.016m-197.39.016L2520 845.41m-30.93 40.586l-34.66 38.526m34.66-38.526l169.09 38.641M2520 845.394l166.46 40.586M2520 845.394l192 1.912m-25.54 38.674l25.54-38.674m-25.54 38.674L2520 845.41m166.46 40.57l197.62 1.006m-197.62-1.006l175.5 38.756m-175.5-38.756l-28.3 38.657M2520 845.41l192 1.896m0 0l172.08 39.68M2712 847.306l192.3 3.231m-653.62 73.886l203.73.099m0 0l203.75.115m225.92-37.651l-22.12 37.75m22.12-37.75l20.22-36.449m-20.22 36.449l197.75 1.318m-197.75-1.318l181.72 37.849m-203.84-.099l-203.8-.099m203.8.099l203.84.099m-161.5-74.298l177.53 37.767m-177.53-37.767l192.32 3.215m-192.32-3.215l192.32 3.231m-14.79 34.536l14.79-34.536m-14.79 34.536l14.79-34.552m-14.79 34.552l197.67.989m-197.67-.989l-16.03 36.531m16.03-36.531l187.83 36.614m-173.04-71.166l182.88 35.541m-182.88-35.541l192.06 1.879m-192.06-1.863l192.06 1.863m-192.06-1.863l182.88 35.525m0 0l9.18-33.662m-9.18 33.662l197.5-.033m-197.5.033l-9.84 35.625m9.84-35.625L3473.55 925m-184.87-69.369L3477 889.26m0 0l-3.45 35.74m-407.75-.165l203.86.083m0 0l203.89.082" stroke="#4A5164" stroke-width=".3" stroke-miterlimit="10" stroke-linejoin="round"/></g></svg>