<svg width="139" height="47" fill="none" xmlns="http://www.w3.org/2000/svg"><path d="M84 15l55-8.776v32L84 47V15z" fill="#00D0B7"/><path d="M94.913 38.024c-.473.075-.89-.028-1.251-.308a1.607 1.607 0 01-.623-1.135c-.053-.467.073-.89.376-1.27.304-.38.687-.607 1.15-.68a1.58 1.58 0 011.244.309c.376.278.585.645.625 1.103.03.322-.022.626-.156.91a1.906 1.906 0 01-.552.713c-.238.19-.51.31-.813.358zm4.637-17.108l3.503-.555 4.615 11.008.185-.03 4.768-12.493 3.503-.555-.12 16.219-2.747.435.086-11.143-.139.022-4.461 11.788-2.045.324-4.277-10.428-.147.023-.098 11.169-2.747.435.12-16.219zm19.571 13.1l.121-16.219 10.278-1.628-.021 2.464-7.416 1.174-.03 4.403 6.883-1.09-.021 2.463-6.883 1.09-.027 4.426 7.477-1.184-.021 2.463-10.34 1.638z" fill="#022723"/><path d="M0 15L94 0v32L0 47V15z" fill="#FFD600"/><path d="M8.13 37.997l.121-16.218 2.863-.454-.046 7.45.193-.03 6.211-8.427 3.496-.553-6.153 8.243 6.086 7.966-3.441.546-4.638-6.21-1.784 2.418-.045 4.816-2.862.453zm16.736-2.65l-3.056.483 5.684-17.1 3.534-.559 5.45 15.336-3.055.484-4.112-12.226-.123.02-4.322 13.562zm.145-6.375l8.333-1.32-.021 2.36-8.334 1.32.022-2.36zm13.549 4.206l.12-16.219 5.927-.939c1.214-.192 2.232-.137 3.055.165.823.302 1.444.81 1.863 1.524.418.71.622 1.581.612 2.616-.005 1.035-.226 1.969-.663 2.803-.433.828-1.07 1.517-1.911 2.066-.836.55-1.861.92-3.075 1.112l-4.221.669.025-2.44 3.843-.609c.71-.112 1.29-.305 1.743-.577.452-.277.787-.628 1.004-1.053.222-.43.335-.933.339-1.509-.002-.574-.111-1.047-.328-1.419-.213-.378-.546-.636-1-.775-.45-.145-1.03-.161-1.74-.049l-2.624.416-.106 13.764-2.863.454zm8.218-8.642l3.858 6.729-3.195.506-3.788-6.74 3.125-.495zm8.983-10.282l-.12 16.218-2.864.454.12-16.219 2.864-.453zm2.98 15.727l.12-16.218 10.278-1.628-.021 2.463-7.416 1.175-.03 4.402 6.883-1.09-.021 2.464-6.883 1.09-.027 4.426 7.477-1.185-.021 2.464-10.34 1.637zm13.198-2.09l.12-16.219 5.927-.938c1.214-.193 2.232-.138 3.055.164.823.302 1.444.81 1.863 1.525.418.709.622 1.58.612 2.616-.005 1.034-.226 1.968-.663 2.802-.433.828-1.07 1.517-1.911 2.067-.836.549-1.861.92-3.075 1.112l-4.221.668.025-2.44 3.842-.609c.71-.112 1.291-.304 1.744-.576.452-.278.786-.629 1.004-1.053.222-.43.335-.934.338-1.51 0-.574-.11-1.047-.327-1.419-.213-.377-.547-.636-1-.774-.451-.145-1.031-.162-1.74-.05l-2.624.416-.106 13.764-2.863.454zm8.218-8.642l3.858 6.73-3.195.505-3.788-6.74 3.125-.495z" fill="#022723"/></svg>