<svg width="1265" height="612" fill="none" xmlns="http://www.w3.org/2000/svg"><mask id="a" style="mask-type:alpha" maskUnits="userSpaceOnUse" x="0" y="0" width="1265" height="612"><path d="M0 40C0 17.909 17.909 0 40 0h1185c22.09 0 40 17.909 40 40v532c0 22.091-17.91 40-40 40H40c-22.091 0-40-17.909-40-40V40z" fill="#007668"/></mask><g mask="url(#a)"><path opacity=".8" d="M83.667 552.884l-28.298 4.129m28.298-4.129l5.551-1.411m-5.551 1.411l29.498-11.127m-57.796 15.256l33.849-5.54m-33.849 5.54l7.5-3.615m26.349-1.925l-26.349 1.925m26.349-1.925l6.339-3.344m-6.339 3.344l23.947-9.716m-23.947 9.716l28.367-12.023m-54.716 13.948l32.688-5.269m-32.688 5.269l-29.626-5.848m29.626 5.848l7.589-3.887m25.099-1.382l22.028-8.679m-22.028 8.679l29.784-8.81m-29.784 8.81l-25.1 1.382m25.1-1.382l8.789-.122m8.819-6.25l4.42-2.307m-4.42 2.307l25.119-16.451m-20.699 14.144l7.756-.131m-7.756.131l20.699-14.144m-20.699 14.144l26.575-14.406m-18.819 14.275l18.819-14.275m-18.819 14.275l29.892-9.482m-29.892 9.482l-20.995 8.688m20.995-8.688l11.88 5.363m1.063-19.376l5.876-.262m-5.876.262l25.168-16.452m-19.292 16.19l11.073 4.793m-11.073-4.793l19.292-16.19m-19.292 16.19l28.504-12.705m-17.431 17.498l17.431-17.498m-17.431 17.498l32.983-7.306m-32.983 7.306l16.142 11.323m-16.142-11.323l-18.012 14.845m26.231-35.828l9.212 3.485m-9.212-3.485l29.587-11.154m-20.375 14.639l20.375-14.639m-20.375 14.639l15.552 10.192m-15.552-10.192l34.105-6.932m-13.73-7.707l13.73 7.707m-13.73-7.707l60.178-3.391M33.243 547.55l37.215 1.961m-37.215-1.961l8.376-3.317m28.839 5.278l-28.84-5.278m28.84 5.278l9.163.393m-9.163-.393l33.888-1.504m-62.727-3.774l38.002 5.671m-38.002-5.671l-32.176-8.856m32.176 8.856l9.055 2.018m28.947 3.653l24.725-1.897m-24.725 1.897l36.556 3.914m-36.556-3.914l-28.947-3.653m28.947 3.653l11.123 6.754m13.602-8.651l11.831 5.811m-11.831-5.811l32.875-3.325m50.995-22.151l-16.841 18.629m16.841-18.629l18.553-17.124m-18.553 17.124l54.676-3.428m-54.676 3.428l-16.831 18.629m16.831-18.629l20.915 16.527m-37.756 2.102l-18.465 15.227m18.465-15.227l20.049 16.862m-20.049-16.862l-34.154 3.522m34.154-3.522l-18.465 15.237-15.689-11.715m-21.044 9.136l21.044-9.136m-21.044 9.136l36.733 2.569m-36.733-2.569l-25.433 2.84m25.433-2.84l14.38 11.986m6.664-21.122l15.689 11.705m0 0l38.514 1.635m-38.514-1.635l-22.353 9.417m22.353-9.417l18.13 16.47m20.384-14.835l17.707-18.964m-17.707 18.964l50.238.449m-50.238-.449l-20.039-16.862m20.039 16.862l-20.384 14.835m20.384-14.835l21.664 18.955m-6.319-71.57l36.123 13.696m-36.123-13.696l46.448-11.098m-46.448 11.098l71.488-5.502m-35.365 19.198l35.365-19.198m-35.365 19.198l54.095-7.278m-54.095 7.278l-33.761 19.955m33.761-19.955l27.372 17.096m-17.047-41.89l25.04 5.596m-25.04-5.596l59.519-9.623m-34.479 15.219l18.73 11.92m-18.73-11.92l34.479-15.219m-34.479 15.219l43.248-11.575m-24.518 23.495l24.518-23.495m-24.518 23.495l33.859-10.556m-33.859 10.556l-26.723 24.374m26.723-24.374l15.158 17.965m.591-45.104l8.769 3.644m-8.769-3.644l31.555-14.658m-22.786 18.302l9.341 12.939m-9.341-12.939l22.786-18.302m-22.786 18.302l25.542-13.771m-16.201 26.71l16.201-26.71m-16.201 26.71l24.469-10.753m-24.469 10.753l11.27 20.851m-11.27-20.851l-18.701 28.521m32.146-59.762l2.756 4.531m-2.756-4.531l18.327-14.956m-15.571 19.487l15.571-19.487m-15.571 19.487l8.268 15.957m-8.268-15.957l20.64-12.079m-5.069-7.408l5.069 7.408m-5.069-7.408l19.843-10.548M171.385 541.16l37.746-2.102m0 0l32.531 19.413m-32.531-19.413l61.133-2.859m-28.602 22.272l28.602-22.272m-28.602 22.272l48.248-2.383m-48.248 2.383l-28.574 18.506m28.574-18.506l22.264 18.974m6.338-41.246l19.646 19.889m-19.646-19.889l41.881-6.409m-41.881 6.409l41.881-6.399-22.235 26.288m65.405-65.572l-13.199 31.604m13.199-31.604l12.372-28.036m-12.372 28.036l25.936-7.866m-25.936 7.866l13.78 24.934m-26.979 6.67l-29.971 7.67m29.971-7.67l-16.447 30.045m16.447-30.045l13.79 26.046m-13.79-26.046l26.979-6.67m-79.185 40.638l22.235-26.298m-22.235 26.298l35.759-3.923m-35.759 3.923l-25.984 21.357m25.984-21.357l14.449 20.787m7.786-47.085l13.524 22.375m0 0l-21.31 24.71m21.31-24.71l13.041 23.794m-13.041-23.794l30.237-3.999M9.443 535.377l41.231 10.874M9.443 535.377l8.681 5.381m32.55 5.493l-32.55-5.493m32.55 5.493l9.951 8.819m-9.951-8.819l40.07 10.407m-72.62-15.9l42.501 14.312m-42.5-14.312l-34.45-1.131m34.45 1.131l8.76 12.855m33.74 1.457l30.119 1.588m-30.119-1.588l42.52 14.35m-42.52-14.35l-33.74-1.457m33.74 1.457l10.187 14.48m19.932-12.892l12.401 12.762m-12.401-12.762l39.813 9.146m-27.412 3.616l27.412-3.616m-27.412 3.616l42.777 12.341m-42.777-12.341l-32.333.13m32.333-.13l12.018 15.255m15.394-18.871l15.365 15.957m-15.365-15.957l40.483 7.053m-25.118 8.904l25.118-8.904m-25.118 8.904l43.229 8.267m-43.229-8.267l13.701 14.461m-13.701-14.461l-30.759 2.914m55.877-11.818l18.111 17.171m-18.111-17.171l42.048 4.12m-229.413-37.35l43.21 13.986m-43.21-13.986l8.386 18.993m34.823-5.007l-34.823 5.007m34.823-5.007l9.745 18.282m-9.745-18.282l43.928 15.937m-78.751-10.93l44.568 13.275M-7.94 558.62l-36.202 12.332m36.202-12.332l9.065 21.917m35.503-8.642l34.183-2.345m-34.183 2.345l45.04 13.238m-45.04-13.238l-35.503 8.642m35.503-8.642l10.275 18.049m23.908-20.394l10.857 15.583M70.812 569.55l44.351 15.125m73.988 5.353l-29.528 6.194m29.528-6.194l23.937-13.051m-23.937 13.051l45.601 2.523m-45.601-2.523l14.734 11.398m-44.262-5.204l-32.688.262m32.688-.262l12.549 7.922m-12.549-7.922l-44.46-11.547m44.46 11.547l44.262 5.204M81.669 585.133l33.494-.458m-33.494.458l45.266 11.351m-45.266-11.351l-34.765 4.811m34.765-4.811l11.3 13.116m22.194-13.574l11.772 11.809m0 0l45.237 7.66m-45.237-7.66l-33.967 1.765m33.967-1.765l12.176 8.071m33.061-.411l31.713-2.718m-31.713 2.718l44.529 1.925m-44.529-1.925l-33.061.411m33.061-.411l12.953 3.831m27.963-30.998l21.664 15.574m-21.664-15.574l50.838.468m-29.174 15.106l29.174-15.106m-29.174 15.106l42.648 1.27m-42.648-1.27l-30.867 8.875m30.867-8.875l11.516 9.576m17.658-24.682l13.474 16.376m-13.474-16.376l40.433-.57M277.4 593.821l26.959-16.946M277.4 593.821l37.924 1.486m-37.924-1.486l-31.132 8.306m31.132-8.306l8.76 10.52m18.199-27.466l10.965 18.432m-10.965-18.432l34.351-.916m-23.386 19.348l23.386-19.348m-23.386 19.348l36.3 1.522m-36.3-1.522l9.813 11.836m-9.813-11.836l-29.164 9.034m52.55-28.382l17.196-27.793m-17.196 27.793l12.914 20.87m-12.914-20.87l33.288-.616m-16.092-27.177l13.189-32.716m-13.189 32.716l31.683-2.625m-31.683 2.625l16.092 27.177m-168.113 26.083l12.816 4.643m-12.816-4.643l42.383.701m-29.567 3.942l29.567-3.942m-29.567 3.942l42.077 2.298m-42.077-2.298l-31.576 1.906m31.576-1.906l12.962 3.69m16.605-7.632l12.51 6.24m-12.51-6.24l39.892 2.214m65.464-7.512l-26.487 10.314m26.487-10.314l20.374-21.486m-20.374 21.486l37.757 1.383m-37.757-1.383l13.11 12.734m-39.597-2.42l-25.728 5.437m25.728-5.437l14.784 9.838m-14.784-9.838l-38.977-2.802m38.977 2.802l39.597 2.42m-105.956-1.196l27.382-4.026m-27.382 4.026l40.631 4.213m-40.631-4.213l-29.115 1.392m29.115-1.392l13.691 7.044m13.691-11.07l13.249 8.239m0 0l40.512 4.401m-40.512-4.401l-26.94 2.831m26.94-2.831l15.226 9.996m25.286-5.595l24.813-7.418m-24.813 7.418l41.694 2.849m-41.694-2.849l-25.286 5.595m25.286-5.595l17.323 11.78m10.443-166.281l13.564 20.17m-13.564-20.17l14.774-17.956m-14.774 17.956l28.495-6.465m-28.495 6.465l13.564 20.179 14.931-26.644m-14.931 26.635l14.931-26.635m-14.931 26.635l37.244 1.336m-37.244-1.336l-12.156 32.8m12.156-32.8l20.709 29.381m-19.499-67.507l13.721 11.491m-13.721-11.491l34.686 1.159m-20.965 10.332l22.313 27.971m-22.313-27.971l20.965-10.332m-20.965 10.332l41.467 17.106m-41.467-17.106l22.313 27.98 19.154-10.874m-19.154 10.865l19.154-10.865m-19.154 10.865l43.515 30.24m-43.515-30.24l-16.535 28.045m16.535-28.045l25.513 40.451m-26.861-78.754l20.502 27.438m-20.502-27.438l43.111 35.192m-22.609-7.754l24.361 41.105m-24.361-41.105l22.609 7.754m-22.609-7.754l44.194 44.552m-19.833-3.447l19.833 3.447m-19.833-3.447l43.76 44.403m-43.76-44.403l25.837 44.198m-25.837-44.198l-18.002 10.211m16.25-43.562l21.585 36.798m-21.585-36.798l43.455 51.97m-43.455-51.97l21.595 36.798m-.01 0l23.927 40.956m-23.917-40.956l21.86 15.172m-21.86-15.172l42.215 48.15m-42.215-48.15l23.927 40.956m-2.067-25.784l20.355 32.978m-20.355-32.978l45.464 45.422M369.095 515.45l18.494 30.091m-18.494-30.091l32.865-3.419m-14.371 33.51l14.371-33.51m-14.371 33.51l39.341 1.261m-39.341-1.261l-15.591 29.802m15.591-29.802l21.654 30.1m-7.283-63.61l24.97 34.771m-24.97-34.771l42.048 12.406m61.762 34.192l-17.923-.205m0 0l-17.707 8.464m17.707-8.464l25.64 40.078m-25.64-40.078l-43.839-33.987m43.839 33.987l17.933.205m-17.933-.205l42.569 37.938m-103.486-49.56l17.078-22.365m-17.078 22.365l43.21 20.077m-43.21-20.077l-17.687 28.839m17.687-28.839l24.853 35.5m-7.775-57.865l26.132 42.442m-26.132-42.442l26.132 42.451m0-.009l-18.357 15.423m18.357-15.414l43.347 31.614m-43.347-31.614l-18.357 15.414m18.357-15.414l25.02 37.443m18.327-5.829l16.929-2.14m-16.929 2.14l45.286 29.138m-45.286-29.138l-18.327 5.829m18.327-5.829l24.469 32.165m-13.888-64.844l-18.288-7.194m18.288 7.194l27.845 32.455m-27.845-32.455l25.109 12.444m-25.109-12.444l57.845 38.985m-57.845-38.985l27.855 32.455m-46.143-39.649l46.133 39.649m-46.133-39.649l24.636 37.733m21.497 1.916l-21.497-1.916m18.761-18.095l32.736 26.541m-32.736-26.541l66.576 34.837m-33.84-8.296l-29.99-6.53m29.99 6.53l33.918 22.608m-33.918-22.608l33.84 8.296m-33.84-8.296l62.718 22.879m-92.708-29.409l63.908 29.138m-63.908-29.138l-21.507-1.916m21.507 1.916l33.534 28.166m30.374.972l28.8.271m-28.8-.271l54.745 8.118m-54.745-8.118l-30.374-.972m30.374.972l28.702 15.227m-28.78-29.539l28.878 14.583m-28.878-14.583l56.851 9.5m-27.973 5.083l25.945 7.847m-25.945-7.847l27.973-5.083m-2.028 12.93l-26.043 7.109m26.043-7.109l28.032-8.427m-28.032 8.427l47.718-4.68m-47.718 4.68l-25.935-7.847m25.935 7.847l-26.034 7.109m26.034-7.109l23.14 5.839m-21.112-18.769l-27.963 5.083m27.963-5.083l26.004 4.503m-26.004-4.503l52.934-2.354m-195.122-23.888l28.357 31.278m-28.357-31.278l55.041 30.082m-26.684 1.196l26.684-1.196m-26.684 1.196l58.889 19.189m-58.889-19.189l-20.817 3.027m20.817-3.027l30.926 23.094m-4.242-24.29l32.205 20.385m-32.205-20.385l59.076 16.199m-26.871 4.186l26.871-4.186m-26.871 4.186l50.956 4.222m-50.956-4.222l-27.963 3.905m27.963-3.905l26.91 12.294m-.039-16.48l24.085 8.408m0 0l-24.046 8.072m24.046-8.072l25.098-9.678m-25.098 9.678l42.599-4.764m-42.599 4.764l-24.076-8.408m24.076 8.408l20.335 6.278m-316.955-81.986l17.383 22.869m-17.383-22.869l37.245.298m-19.862 22.571l19.862-22.571m-19.862 22.571l41.841 1.308m-41.841-1.308l-24.647 11.351m24.647-11.351l17.136 12.378m2.726-34.949l21.979 23.879m-21.979-23.879l42.54 6.661m-42.54-6.661l21.979 23.888 20.561-17.227m-20.561 17.218l20.561-17.218m-20.561 17.218l43.396 12.406m-43.396-12.406l-24.705 11.07m24.705-11.07l19.311 16.648m1.25-33.866l22.835 29.624m-22.835-29.624l43.377 22.029m-20.542 7.595l20.542-7.595m-20.542 7.595l43.446 21.263m-43.446-21.263l20.001 20.478m-20.001-20.478l-24.085 4.242m44.627-11.837l22.904 28.858m-22.904-28.858l42.796 26.336m-173.222-21.104l16.881 10.267m-16.881-10.267l41.783 1.027m-24.902 9.24l24.902-9.24m-24.902 9.24l44.115 1.411m-44.115-1.411l-24.371 8.931m24.371-8.931l19.744 11.631m5.158-20.871l19.213 10.651m-19.213-10.651l44.016 5.578m67.531 17.021l-23.445-.785m23.445.785l19.892-2.522m-19.892 2.522l45.345 20.861m-45.345-20.861l20.64 20.198m-44.085-20.983l-23.898-.971m23.898.971l21.093 16.415m-21.093-16.415l-44.086-16.236m44.086 16.236l44.085 20.983M425.73 621.241l24.803-5.073m-24.803 5.073l44.991 10.192m-44.991-10.192l-24.371 10.22m24.371-10.22l21.467 13.938m3.336-19.011l20.188 15.265m0 0l44.991 17.386m-44.991-17.386l-23.524 3.746m23.524-3.746l22.382 14.723m22.609 2.663l22.992 4.568m-22.992-4.568l47.156 18.983m-47.156-18.983l-22.609-2.663m22.609 2.663l23.307 14.461m-1.063-32.613l25.453 23.383m-25.453-23.383l51.743 20.067m-26.29 3.316l26.29-3.316m-26.29 3.316l55.168 11.248m-55.168-11.248l-24.705-.663m24.705.663l26.782 14.593m-.492-17.909l28.878 14.564m-28.878-14.564l54.873 8.389m-25.995 6.175l25.995-6.175m-25.995 6.175l48.161 1.476m-48.161-1.476l-28.386 3.345m28.386-3.345l25.345 8.959m.65-15.134l22.166 7.651m-22.166-7.651l44.381-1.794m-22.215 9.445l-22.816 7.483m22.816-7.483l22.215-9.445m-22.215 9.445l37.569-5.932m-37.569 5.932l18.494 4.559m-146.528-17.946l24.164 14.415m-24.164-14.415l51.487 15.256m-27.323-.841l27.323.841m-27.323-.841l54.637 10.192m-54.637-10.192l-23.849-4.522m23.849 4.522l27.549 10.005m-.226-9.164l27.314 9.351m-27.314-9.351l53.731 5.614m-26.417 3.737l26.417-3.737m-26.417 3.737l48.849 1.672m-48.849-1.672l-27.088-.187m27.088.187l25.896 5.876m.521-9.613l22.432 5.409m-22.432-5.409l41.31-2.924m-18.878 8.333l-22.953 4.204m22.953-4.204l18.878-8.333m-18.878 8.333l38.416-6.007m-38.416 6.007l-22.943 4.204m22.943-4.204l21.162 2.392M-44.141 570.952l45.267 9.585m-45.267-9.585l8.327 24.523m36.94-14.938l-36.94 14.938m36.94-14.938l9.636 20.029m-9.636-20.029l45.778 9.407m-82.718 5.531l46.576 5.091m-46.576-5.091l-38.554 19.263m38.554-19.263l8.938 20.982m37.638-15.891l36.142-10.622m-36.142 10.622l46.89 3.831m-46.89-3.831l-37.639 15.891m37.639-15.891L20.9 615.841m26.004-25.897l10.748 14.453m-10.748-14.453l46.064 8.305m-35.316 6.148l35.316-6.148m-35.316 6.148l47.029 2.615m-47.028-2.615L20.9 615.841m36.753-11.444l11.18 9.463m24.135-15.611l11.713 8.763m-11.713-8.763l46.143 6.306m-34.43 2.457l34.43-2.457m-34.43 2.457l47.018 1.42m-47.018-1.42l12.146 4.457m-12.146-4.457l-35.847 6.848m70.277-9.305l12.588 3.877m-12.588-3.877l46.014 3.42m-259.493 6.763l47.491 1.719m-47.49-1.719l8.189 20.376m39.301-18.657l-39.301 18.657m39.301-18.657l9.46 15.079m-9.46-15.079l47.777-.616m-47.776.616l47.776-.607m-87.078 19.264l48.76-3.578m-48.76 3.578l-41.153 16.956m41.153-16.956l8.74 13.34m40.02-16.918L20.9 615.85m-38.318 15.686L20.9 615.841m-38.318 15.695l48.899-6.026m-48.899 6.026l-40.02 16.918m40.02-16.918l9.932 8.828M20.9 615.841l10.58 9.669m-10.58-9.669l47.934-1.981M20.9 615.85l47.934-1.99M20.9 615.85l10.58 9.66M151.7 608.432l-34.872 3.037m34.872-3.037l33.426-.457m-33.426.457l46.645 1.009m-46.645-1.009l13.042 1.196m-47.914 1.841l-36.379 7.436m36.379-7.436l12.579 2.167m-12.579-2.167l-47.993 2.391m47.993-2.391l47.914-1.841M31.481 625.51l37.353-11.65M31.48 625.51l48.967-6.605m-48.967 6.605l-38.967 14.854M31.48 625.51l11.024 5.119m26.329-16.769l11.614 5.045m0 0l48.958-5.269m-48.958 5.269l-37.943 11.724m37.943-11.724l12.067 3.158m36.891-8.427l35.335-4.008m-35.335 4.008l48.967-.093m-48.967.093l-36.89 8.427m36.89-8.427l13.1 3.868m42.619-9.529l13.219 1.466m-13.219-1.466l44.538 1.784m-31.319-.318l31.319.318m-31.319-.318l45.188 6.101m-45.188-6.101l-33.603.187m33.603-.187l13.829 4.681m17.49-4.363l13.869 5.783m-13.869-5.783l42.806 5.652m-28.937.131l28.937-.131m-28.937.131l44.252 9.697m-44.252-9.697l-31.359-1.42m31.359 1.42l15.118 9.613m13.819-9.744l15.315 9.828m-15.315-9.828l42.166 7.165m-42.166-7.165l15.315 9.837m0-.009l-29.134-.084m55.985-2.579l-26.851 2.672m26.851-2.672l17.333 12.724m-17.333-12.724l42.609 6.185m-69.46-3.513l44.184 10.052m-44.184-10.052l16.999 13.378m-16.999-13.378l-29.134-.093m-93.909-15.527l13.632 3.915m-13.632-3.915l47.432 4.494m-33.8-.579l33.8.579m-33.8-.579l48.525 10.145m-48.525-10.145l-35.867 3.961m35.867-3.961l14.193 9.93m19.607-9.351l14.725 9.566m-14.725-9.566l46.477 11.033m73.318 10.145l-27.185 3.326m27.185-3.326l25.276-6.539m-25.276 6.539l44.952 7.157m-44.952-7.157l19.184 15.228m-46.369-11.902l-46.133-13.471m46.133 13.471l-29.755.495-16.378-13.966m46.133 13.471l-29.755.486m29.755-.486l18.337 16.442m-18.337-16.442l46.369 11.902m-124.254-26.84l31.752 1.467m-31.752-1.467l48.13 15.424m-48.13-15.424l-34.332-.215m34.332.215l15.541 14.723m16.211-13.256l16.378 13.957m0 0l-32.589-.701m32.589.701l17.215 17.619m-17.215-17.619l48.092 15.956m-430.451-2.998l49.893-3.616m-49.893 3.616l7.943 9.958m41.95-13.574l-41.95 13.574m41.95-13.574l9.154 6.867m-9.154-6.867l49.952-8.09m-91.902 21.664l51.104-6.707m-51.104 6.707l-43.977 11.669m43.977-11.669l8.318 7.979m42.786-14.686l40.798-14.957m-40.798 14.957l51.113-9.875m-51.113 9.875l-42.786 14.686m42.786-14.686l9.527 7.034m31.27-21.991l10.316 5.082m-10.315-5.082l49.99-9.735M2.83 645.446l39.676-14.817M2.829 645.446l51.113-9.912m-51.113 9.912l-41.586 16.909M2.83 645.446l10.728 7.904m28.948-22.721l11.437 4.905m-11.437-4.905l50.01-8.566m-50.01 8.566l50.01-8.557m-38.573 13.462l38.573-13.462m-38.573 13.462l38.573-13.471m-38.573 13.471l51.123-6.885m-51.123 6.885l11.939 10.062m-11.94-10.062L13.558 653.35m78.958-31.287l12.55 6.586m-12.55-6.586l49.991-4.559m-49.99 4.568l49.99-4.568m-49.99 4.568l12.549 6.577m-248.43 45.048l52.295-3.69m-52.295 3.69l7.461 10.08 44.834-13.77m0 0l52.313-7.652m-52.313 7.652l8.73 9.015 43.583-16.667m0 0l52.314-9.005m-52.314 9.005l9.98 9.754 42.334-18.759m91.508-24.701l-39.184 16.947m39.184-16.947l37.441-11.145m-37.441 11.145l51.132.196m-51.132-.196l13.14 13.06m-52.324 3.887l-52.324 7.754m52.324-7.754l-41.074 19.562-11.25-11.808m52.324-7.754l52.324-3.887m-52.324 3.887l12.51 14.695 39.814-18.582m24.301-24.205l13.691 11.341m-13.691-11.341l50.06 5.969m-36.369 5.372l36.369-5.372m-36.369 5.372l51.133 11.22m-51.133-11.22l-37.992 12.864m37.992-12.864l14.341 18.507m22.028-23.879l14.764 16.592m-14.764-16.592l49.873 14.938m-35.109 1.654l35.109-1.654m-35.109 1.654l51.143 17.32m-51.143-17.32l-36.792 7.287m36.792-7.287l15.552 20.506m19.557-22.16l16.034 18.974m-16.034-18.974l49.804 18.32m-33.77.654l33.77-.654m-33.77.654l51.142 17.937m-51.142-17.937l16.752 19.226m-16.752-19.226l-35.591 3.186m69.361-3.84l30.877-1.663m-30.877 1.663l17.372 18.591m-17.372-18.591l49.863 16.162m-18.986-17.825l28.032-4.54m-28.032 4.54l48.436 11.725m-48.436-11.725l18.986 17.825m-223.901-31.184l52.333 5.643m-52.333-5.643l13.77 18.75 38.563-13.107m0 0l52.344 13.219m-52.344-13.219l15.03 21.076 37.314-7.857m86.733 14.751l-34.39 1.289m34.39-1.289l32.491-2.429m-32.491 2.429l51.153 13.042m-51.153-13.042l17.953 15.536m-52.343-14.247l-52.343-16.04m52.343 16.04l-36.054 3.98-16.289-20.02m52.343 16.04l52.343 14.247m-52.343-14.247l17.56 16.545 34.783-2.298m29.676-62.097l19.676 13.696m-19.676-13.696l44.115 2.7m-24.439 10.996l24.439-10.996m-24.439 10.996l46.408 1.877m-46.408-1.877l-25.768 8.071m25.768-8.071l21.457 14.405m2.982-25.401l21.969 12.873m-21.969-12.873l45.838 3.718m-23.869 9.155l23.869-9.155m-23.869 9.155l46.851 4.242m-46.851-4.242l-24.951 12.528m24.951-12.528l22.904 12.481m.965-21.636l22.982 13.397m-22.982-13.397l45.906 10.977m-22.924 2.42l22.924-2.42m-22.924 2.42l46.861 10.313m-46.861-10.313l23.888 11.369m-23.888-11.369l-23.947 8.239m46.871-10.659l23.937 12.733m-23.937-12.733l45.916 17.124m-187.867-12.752l20.404 16.265m-20.404-16.265l47.225 6.334m-26.821 9.931l26.821-9.931m-26.821 9.931l48.937 2.429m-48.937-2.429l-29.45 6.1m29.45-6.1l20.59 14.602m6.231-24.533l22.116 12.36m-22.116-12.36l47.855-.047m70.808 2.074l-22.973 1.056m22.973-1.056l21.979 4.391m-21.979-4.391l48.042 15.901m-48.042-15.901l24.863 11.678m-47.836-10.622l-24.705 7.278m24.705-7.278l24.174 10.22m-24.174-10.22l-47.835-3.13m47.835 3.13l47.836 10.622m-121.41-1.345l25.739-12.407m-25.739 12.407l48.869-1.999m-48.869 1.999l-28.347 12.173m28.347-12.173l21.664 9.884m4.075-22.291l23.13 10.408m0 0l48.879 2.942m-48.879-2.942l-27.205 11.883m27.205-11.883l22.786 9.174m26.093-6.232l23.662.402m-23.662-.402l49.046 12.631m-49.046-12.631l-26.093 6.232m26.093-6.232l23.908 12.341m-3.13-19.226l26.063 11.51m-26.063-11.51l51.398 14.527m-25.335-3.017l25.335 3.017m-25.335-3.017l52.649 10.267m-52.649-10.267l-23.179-4.223m23.179 4.223l26.999 9.463m-1.664-6.446l27.314 7.25m-27.314-7.25l52.984 6.063m-25.67 1.187l25.67-1.187m-25.67 1.187l49.085 2.205m-49.085-2.205l-25.65-.804m25.65.804l25.434 5.642m.236-6.829l23.415 3.392m0 0l-23.651 3.437m23.651-3.437l20.7-5.204m-20.7 5.204l42.708-2.654m-42.708 2.654l20.7-5.195m-20.7 5.195l-23.405-3.392m23.405 3.392l23.062 3.456m-147.975-20.151l25.384 12.229m-25.384-12.229l50.178 13.686m-24.794-1.457l24.794 1.457m-24.794-1.457l50.67 10.323m-50.67-10.323l-25.138-.29m25.138.29l25.01 12.64m-.216-11.183l25.876 8.866m-25.876-8.866l51.084 6.446m-25.208 2.42l25.208-2.42m-25.208 2.42l49.342 2.765m-49.342-2.765l-25.66 2.317m25.66-2.317l24.676 9.211m.532-11.631l24.134 5.185m-24.134-5.185l46.713.019m-46.713-.019l24.143 5.185m-.009 0l-24.666 6.446m-300.527-29.437l18.662 15.471m-18.662-15.471l50.04 8.502m-31.378 6.969l31.378-6.969m-31.378 6.969l51.162 2.803m-51.162-2.803l-33.2 2.494m33.2-2.494l19.164 10.323m12.214-17.292l19.784 9.772m-19.784-9.772l50.011-2.289m-30.227 12.061l30.227-12.061m-30.227 12.061l51.182-3.784m-51.182 3.784l-31.998 7.52m31.998-7.52l20.385 6.007m9.842-18.068l20.955 8.277m-20.955-8.277l49.991-2.709m-29.036 10.986l29.036-10.986m-29.036 10.986l51.192-.028m-51.192.028l21.605 7.184m-21.605-7.184l-30.797 9.791m59.833-20.777l22.156 10.958m-22.156-10.958l50.001 6.109m-214.581 8.352l52.364 7.829m-52.364-7.829l18.83 11.538 33.534-3.709m0 0l52.383-1.513m-52.383 1.513l20.089 5.848 32.294-7.361m81.989-9.819l-29.587 7.212m29.587-7.212l27.845-4.849m-27.845 4.849l51.172 10.94m-51.172-10.94l22.825 11.743m-52.412-4.531l-52.402 2.607m52.402-2.607l-31.064 7.39-21.338-4.783m52.402-2.607l52.412 4.531m-52.412-4.531l22.589 7.352 29.823-2.821m5.02-16.592l23.327 15.789m-23.327-15.789l50.148 12.93m-26.821 2.859l26.821-2.859m-26.821 2.859l51.143 10.22m-51.143-10.22l-28.347.803m28.347-.803l23.987 11.612m2.834-14.471l24.322 13.079m-24.322-13.079l50.336 6.894m-26.014 6.185l26.014-6.185m-26.014 6.185l51.162 3.046m-51.162-3.046l-27.156 1.392m27.156-1.392l25.187 7.754m.827-13.939l25.148 9.231m-25.148-9.231l24.675-6.446m-24.675 6.446l49.715 1.262m-49.715-1.262l25.158 9.231m-.01 0l-25.975 4.708m-104.677-17.171l52.334 10.809m-52.334-10.809l23.81 10.37 28.524.439m0 0l52.343 6.362m-52.343-6.362l25.108 6.736 27.235-.374m2.835-88.582l53.967-.58m0 0l19.686 3.747m-19.686-3.747l26.93-6.857m-26.93 6.857l43.603-6.128m-23.917 9.875l23.917-9.875m-23.917 9.875l37.234-8.96m-37.234 8.96l-24.578 10.519m24.578-10.519l15.197 3.372m-7.953-13.976l16.673.729m-16.673-.729l39.558-6.801m-22.885 7.53l13.317.915m-13.317-.915l22.885-7.53m-22.885 7.53l34.647-10.725m-21.33 11.64l21.33-11.64m-21.33 11.64l33.121-12.434m-33.121 12.434l-22.037 12.332m22.037-12.332l12.097 2.018m-2.529-10.463l11.762-3.195m-11.762 3.195l31.683-13.013m-19.921 9.818l11.791-.794m-11.791.794l19.921-9.818m-19.921 9.818l31.634-15.816m-19.843 15.022l19.843-15.022m-19.843 15.022l35.394-15.097m-35.394 15.097l14.272 3.074m-14.272-3.074l-21.024 14.452m29.154-23.476l11.713-5.998m-11.713 5.998l29.341-20.992m-17.628 14.994l17.628-14.994m-17.628 14.994l15.551-.075m-15.551.075l34.577-21.347m-16.949 6.353l16.949-6.353m-16.949 6.353l31.841-27.69m-213.419 90.889l49.174-1.27m0 0l17.501 4.914m-17.501-4.914l39.775-7.147m-22.274 12.061l22.274-12.061m-22.274 12.061l34.99-8.885m-34.99 8.885l-22.264 11.042m22.264-11.042l13.77 3.428m8.504-15.489l12.716 3.176m-12.716-3.176l34.134-10.314m56.418-29.549l-21.122 18.171m21.122-18.171l19.026-21.272m-19.026 21.272l41.812-15.695m-41.812 15.695l22.186 7.81m-43.308 10.361l-22.087 15.218m22.087-15.218l19.439 8.183m-19.439-8.183l-35.296 11.378m35.296-11.378l-22.087 15.227m22.087-15.227l43.308-10.361m-100.022 35.229l21.418-13.49m-21.418 13.49l34.627-9.641m-34.627 9.641l-21.22 12.313m21.22-12.313l12.471 2.971m8.947-16.461l13.209 3.849m0 0l-22.156 12.612m22.156-12.621l41.526-7.035m-41.526 7.035l-22.156 12.621m22.156-12.621l16.9 6.185m24.626-13.22l23.869-18.544m-23.869 18.544l51.31-2.531m-51.31 2.531l-24.626 13.22m24.626-13.22l27.471 14.331m-6.762-61.957l22.786 5.577m-22.786-5.577l14.892-21.337m-14.892 21.337l18.898-10.519 11.782 12.649m-7.894 3.447l6.191-5.642 1.703 2.195m-7.894 3.447l25.542 24.972m-25.542-24.972l-19.626 23.505m19.626-23.505l18.878 24.178m-26.772-51.092l15.788 23.467m-15.788-23.467l16.536 44.973m-.748-21.506l17.648 28.419m-17.648-28.419l.748 21.506m-.748-21.506l17.579 32.529 8.248 1.953m-25.827-34.482l25.827 34.482m-8.179-6.063l8.179 6.063m-8.179-6.063l11.88 5.708 30.936-22.403m-42.816 16.695l-3.041-2.233-3.623 1.439m6.664.794l24.341 5.4m-24.341-5.4l8.789 5.353 34.027-22.048m-59.716 9.782l25.079 12.976m-25.079-12.976l8.701 14.489 12.884.122 19.105-16.582m-15.611 14.947l34.637-22.758m-34.637 22.758l15.611-14.947m-15.611 14.947l55.828-55.455m-21.191 32.697l21.191-32.697m-21.191 32.697l58.111-66.301m-58.111 66.301l32.992-28.895m-32.992 28.895l-18.475 22.095m-.551-14.284l40.217-40.508m-40.217 40.508l64.893-80.941m-24.676 40.433l24.676-40.433m-24.676 40.433l36.92-33.604m-36.92 33.604l66.726-82.435m-42.05 42.002l42.05-42.002m-42.05 42.002l71.59-91.759M846.229 602.173l27.441 16.013m-27.441-16.013l38.504.673m-38.504-.673l38.504.682m-11.063 15.331l11.063-15.331m-11.063 15.331l11.063-15.34m-11.063 15.34l31.221 1.018m-31.221-1.018l-23.839 16.862m23.839-16.862l21.516 16.358m-10.453-31.698l20.158 16.358m-20.158-16.358l31.005 6.194m-31.005-6.185l31.005 6.185m-31.005-6.185l20.158 16.349m87.433-98.56l-25.119 37.406m25.119-37.406l29.806-48.831m-29.806 48.831l59.346-59.855m-59.346 59.855l28.076-9.594m-53.195 47l-51.467 50.99m51.467-50.99l-20.561 28.083m20.561-28.083l27.816-11.874m-27.816 11.874l53.195-47m-53.195 47l53.195-46.991M904.891 619.204l10.847-10.164m-10.847 10.164l41.753-33.071m-41.753 33.071l-9.705 15.34m9.705-15.34l24.981-7.128m-14.134-3.036l30.906-22.907m0 0l-16.772 25.943m16.772-25.943l29.794-19.348m-29.794 19.348l48.377-39.957M688.953 657.329l15.354 3.513m-15.354-3.513l36.034-7.614m-20.68 11.127l20.68-11.127m-20.68 11.127l32.845-9.931m-32.845 9.931l-19.075 10.491m19.075-10.491l14.479.719m6.201-11.846l12.165 1.196m-12.165-1.196l33.691-9.342m-21.526 10.538l21.526-10.538m-21.526 10.538l36.221-8.006m-36.221 8.006l-18.366 10.65m18.366-10.65l15.709.421m5.817-10.959l14.695 2.532m-14.695-2.532l39.056-6.436m-24.361 8.968l24.361-8.968m-24.361 8.968l47.737-.149m-47.737.149l22.166 4.269m-22.166-4.269l-20.512 8.427m44.873-17.395l23.376 8.819m-23.376-8.819l52.097 1.111m-164.599 36.285l19.538 2.326m-19.538-2.326l33.554-9.772m-14.016 12.098l14.016-12.098m-14.016 12.098l35.424-8.856m-35.424 8.856l-17.254 8.399m17.254-8.399l21.358 2.448m-7.342-14.546l21.408 3.242m-21.408-3.242l34.075-10.229m68.249-8.576l-25.571 4.418m25.571-4.418l28.721-7.708m-28.721 7.708l60.976 10.388m-60.976-10.388l33.78 12.808m-59.351-8.39l-16.053 11.202m16.053-11.202l33.908 12.491m-33.908-12.491l-42.678 4.158m42.678-4.158l59.351 8.39m-114.696 9.239l12.667-13.471m-12.667 13.471l39.282-6.427m-39.282 6.427l-14.066 11.304m14.066-11.304l24.902 5.4m-12.235-18.871l26.615 7.044m-26.615-7.044l26.625 7.044m-.01 0l-14.38 11.827m14.39-11.827l49.961 1.289m-49.961-1.289l-14.39 11.827m14.39-11.827l30.522 10.005m19.439-8.716l25.443-4.101m-25.443 4.101l61.901 10.818m-61.901-10.818l-19.439 8.716m19.439-8.716l36.989 15.022m-16.605-39.639l32.255 18.096m-32.255-18.096l45.355-.504m-13.1 18.6l13.1-18.6m-13.1 18.6l37.067-19.17m-37.067 19.17l-27.196 2.42m27.196-2.42l24.971 2.728m-11.871-21.328l23.967-.57m-23.967.57l34.686-22.468m-10.719 21.898l10.719-21.898m-10.719 21.898l41.34-47.879m-41.34 47.879l-12.096 21.898m12.096-21.898l27.658-20.067m-16.939-1.831l30.621-25.981m-30.621 25.981l46.566-45.291m-15.945 19.31l15.945-19.31m-15.945 19.31l41.547-20.879m-41.547 20.879l31.969-17.357m-31.969 17.357l-13.682 27.812m29.627-47.122l18.583-20.609m-18.583 20.609l25.602-1.569m-25.602 1.569l39.592-9.239m-21.009-11.37l25.379-35.126m-25.379 35.126l44.049-16.04m-44.049 16.04l25.379-35.117m-25.379 35.117l21.009 11.37m-161.14 98.018l36.458 14.919m-36.458-14.919l52.167.308m-15.709 14.611l15.709-14.611m-15.709 14.611l41.861-25.392m-41.861 25.392l-24.912 4.204m24.912-4.204l26.723 1.962m-11.014-16.573l26.152-10.781m-26.152 10.781l39.754-41.965m55.229-48.691l-5.523-.57-4.055 4.092m9.578-3.522l13.99-7.67m-13.99 7.67l31.55 20.655m-31.55-20.655l23.08 14.508m-32.658-10.986l-15.876 29.1m15.876-29.1l25.538 15.76m-25.538-15.76l-45.651 45.169m45.651-45.169l32.658 10.986m-91.911 65.367l13.602-31.184m-13.602 31.184l43.377-47.253m-43.377 47.253l-15.138 27.354m15.138-27.354l27.845-6.343m-14.243-24.841l29.775-16.069m0 0l41.414-13.34m-41.414 13.34l-15.532 40.91m15.532-40.91l30.704 9.044m10.71-22.384l4.9-5.12 2.22.346m-7.12 4.774l31.71 25.663M1018 584.498l-10.71 22.384m10.71-22.384l26.3 31.567m-22.17-144.252l29.54-11.024m-29.54 11.024l29.54-49.757m-29.54 49.757l60.71-64.433m-31.17 53.409l31.17-53.409m-31.17 53.409l48.07-28.26m-48.07 28.26l-31.27 50.261m31.27-50.261l17.54 23.075m-17.54-61.808l31.17-14.676m-31.17 14.676L1103.62 375m-20.78 32.38l16.9 25.149m-16.9-25.149l20.78-32.38m-20.78 32.38l43.17-12.967m-26.27 38.116l26.27-38.116m-26.27 38.116l43.82 2.494m-43.82-2.494l-30.53 51.335m30.53-51.335l13.65 47.449M1103.62 375l22.39 19.413M1103.62 375l41.11 1.121m-18.72 18.292l17.55 40.61m-17.55-40.61l18.72-18.292m-18.72 18.292l41.59 11.566m-24.04 29.044l24.04-29.044m-24.04 29.044l45.26 9.968m-45.26-9.968l18.52 44.871m-18.52-44.871l-30.17 44.955m31.34-103.857l22.87 29.858m-22.87-29.858l39.02 21.515m-16.15 8.343l16.15-8.343m-16.15 8.343l21.22 39.012m-21.22-39.012l41.14 21.505m-24.99-29.848l24.99 29.848m-24.99-29.848l37.82 30.11M1020.4 511.05l18.67 19.086m-18.67-19.086l48.81-27.186m-30.14 46.272l30.14-46.272m-30.14 46.272l-18.67-19.077m18.67 19.077l41.61.915m-41.61-.915l-23.04 27.41m23.04-27.41l13.69 39.947m-32.36-59.024l48.81-27.195m0 0l11.47 47.187m-11.47-47.187l44.18-3.886m75.43-34.987l-26.74 34.903m26.74-34.903l19.92-17.507m-19.92 17.507l45.26 13.238m-45.26-13.238l-26.73 34.903m26.73-34.903l23.86 35.622m-50.6-.719l-31.46 46.907m31.46-46.907l23.47 37.181m-23.47-37.181l-48.69.084m-32.71 51.073l32.71-51.073m-32.71 51.073l49.94-4.25m-49.94 4.25l-27.92 39.032m27.92-39.032l17.7 44.254m15.01-95.327l17.23 46.823m0 0l54.93-9.726m-54.93 9.726l-32.24 48.504m32.24-48.504l24.47 34.827m30.46-44.553l27.13-36.462m-27.13 36.462l56.1-11.789m-56.1 11.789l-23.46-37.181m23.46 37.181l-30.46 44.553m30.46-44.553l30.52 22.515m-7.33-112.106l25.34 30.745m-25.34-30.745l12.83.262m-12.83-.262l40.39 23.44m-15.05 7.305l15.05-7.305m-15.05 7.305l43.78 12.341m-43.78-12.341l-21.4 22.384m21.4-22.384l28.47 23.514m-40.98-53.997l27.56 23.178m-27.56-23.178l37.5 26.924m-9.94-3.746l28.73 19.646m-28.73-19.646l9.94 3.746m-9.94-3.746l39.33 17.413m-10.6 2.233l10.6-2.233m-10.6 2.233l40.84 7.287m-40.84-7.287l-15.31 11.173m15.31-11.173l31.21 12.351m-50-28.251l29.39 13.667m-29.39-13.667l38.02 11.967-8.63 1.7m0 0l30.24 9.52m0 0l-9.63 5.064m-146.98-3.027l50.59.719m0 0l28.97 24.673m-28.97-24.673l49.87 1.13m-20.9 23.543l20.9-23.543m-20.9 23.543l53.49-10.445m-53.49 10.445l-25.58 34.304m25.58-34.304l34.7 11.126m-13.8-34.669l32.59 13.098m-32.59-13.098l46.52 1.178m-13.93 11.92l13.93-11.92m-13.93 11.92l47.07-5.614m-47.07 5.614l-18.79 21.571m18.79-21.571l35.82 4.503m-21.89-16.423l33.14 6.306m0 0l-11.25 10.117m-314.93 58.202l17.56 28.325m-17.56-28.325l36.73 12.537m-36.73-12.537l17.56 28.334 19.17-15.797m-19.17 15.788l19.17-15.788m-19.17 15.788l37.54 24.131m-37.54-24.131l-4-.616-4.47-5.531m8.47 6.147l22.63 27.569m-22.63-27.569l-4.01-.616-4.46-5.531m27.64-9.641l18.37 39.919m-18.37-39.919l45.62 5.222m-27.25 34.697l27.25-34.697m-27.25 34.697l54.47-6.754m-54.47 6.754l-9.19 5.381-5.72-1.943m14.91-3.438l32.29 15.396m-5.04-50.093l27.22 27.943m-27.22-27.943l56.71-13.677m-29.49 41.62l29.49-41.62m-29.49 41.62l63-25.187m-63 25.187l38.49 4.484m-38.49-4.484l-22.18 22.15m51.67-63.77l33.51 16.433m-33.51-16.433l60.98-22.038m-190.95 40.134l24.59 30.437m-24.59-30.437l31.1 33.716m-6.51-3.279l6.51 3.279m-6.51-3.279l38.88 25.579m-38.88-25.579l-5.41 5.904m5.41-5.904l30.45 31.67m-23.94-28.391l32.37 22.3m-32.37-22.3l47.2 11.958m85.18-47.337l-24.51 29.671m24.51-29.671l27.47-38.471m-27.47 38.471l65.37-32.623m-65.37 32.623l42.17-3.653m-66.68 33.324l-19.96 21.832m19.96-21.832l43.48-4.101m-43.48 4.101l-60.67 17.666m60.67-17.666l66.68-33.324m-142.18 61.332l14.83-10.342m-14.83 10.342l55.54-6.176m-55.54 6.176l-8.43 6.091m8.43-6.091l39.77 14.452m-24.94-24.794l40.71 4.166m0 0l63.44-25.933m-63.44 25.933l-15.77 20.628m15.77-20.628l42.8 4.008m20.64-29.941l23.2-29.223m-23.2 29.223l65.73-33.847m-65.73 33.847l-20.64 29.941m20.64-29.941l42.1 1.307m-33.6-65.348l37.9 5.848m-37.9-5.848l60.28-23.178m-22.38 29.026l22.38-29.026m-22.38 29.026l61.63-29.035m-61.63 29.035l-23.2 28.97m23.2-28.97l42.84-6.707m-20.46-22.319l39.25-.009m-39.25.009l54.61-17.068m-15.36 17.059l15.36-17.059m-15.36 17.059l51.74-14.368m-51.74 14.368l-18.79 22.328m18.79-22.328l39.96-2.42m-24.6-14.639l36.38 2.691m0 0l-11.78 11.948m-124.79 60.425l42.53-4.624m-42.53 4.624l66.04-35.677m-23.51 31.053l23.51-31.053m-23.51 31.053l62.37-29.923m-62.37 29.923l-23.63 35.154m23.63-35.154l38.67 4.905m-15.16-35.958l38.86 1.13m-38.86-1.13l58.75-24.748m-19.89 25.878l19.89-25.878m-19.89 25.878l53.39-14.172m-53.39 14.172l-23.7 34.828m23.7-34.828l33.56 13.331m-13.67-39.209l33.5 11.706m0 0l-19.83 27.503M643.411 683.87l44.105-1.812m-44.105 1.812l44.105-1.803m0-.009l22.008 2.55m-22.008-2.55l38.612-5.951m-16.604 8.501l16.604-8.501m-16.604 8.501l-22.008-2.541m22.008 2.541l40.798-3.765m-40.798 3.765l-19.646 6.11m19.646-6.11l24.193 4.952m-46.201-7.493l38.612-5.96m0 0l24.194 4.736m-24.194-4.736l38.968-5.904m-14.774 10.64l14.774-10.64m-14.774 10.64l43.239-2.073m-43.239 2.073l-16.605 8.717m16.605-8.717l27.422 8.109m-12.648-18.749l28.465 8.567m-28.465-8.567l44.912-1.822m-16.447 10.389l16.447-10.389m-16.447 10.389l50.02 2.447m-50.02-2.447l31.496 11.715m-31.496-11.715l-15.817 10.182m32.264-20.571l33.573 12.836m-33.573-12.836l56.428 6.306m-56.428-6.306l33.583 12.836m-153.713 9.501l-22.57 5.166m22.57-5.166l24.577 5.97m-24.577-5.97l43.839-1.158m-66.409 6.324l47.147.804m-47.147-.804l25.04 7.708m22.107-6.904l19.262-7.128m-19.262 7.128l46.339 1.42m-46.339-1.42l-22.107 6.904m22.107-6.904l27.126 9.772m-7.864-16.9l27.077 8.548m-27.077-8.548l44.027-.608m65.837-7.735l-18.524 9.268m0 0l-16.89 10.024m16.89-10.024l33.406 13.761m-33.406-13.761l-47.313-1.533m47.313 1.533l18.534-9.268m-18.534 9.268l53.712 5.231m-117.975 2.392l16.95-9.156m-16.95 9.156l47.373 2.401m-47.373-2.401l-19.213 8.352m19.213-8.352l30.05 12.285m-13.1-21.441l30.423 11.557m0 0l50.296 3.737m-50.296-3.737l-17.323 9.884m17.323-9.884l32.619 14.004m17.677-10.267l20.306-8.53m-20.306 8.53l53.594 5.231m-53.594-5.231l-17.677 10.267m17.677-10.267l33.544 13.686m-25.571-43.245l-22.845 6.53m22.845-6.53l34.833 14.396m-34.833-14.396l51.635-2.242m-74.48 8.772l57.678 7.866m-57.678-7.866l35.178 14.499m22.5-6.633l16.802-16.638m-16.802 16.638l44.922-15.34m-44.922 15.34l-22.49 6.633m22.49-6.633l28.613 8.193m-28.613-8.193l-22.5 6.633m39.302-23.271l28.12 1.298m-28.12-1.298l42.983-33.697m-14.863 34.995l14.863-34.995m-14.863 34.995l45.798-30.296m-45.798 30.296l-16.309 23.533m16.309-23.533l29.951 7.222m-15.088-42.217l30.935 4.699m-30.935-4.699l46.236-31.866m-15.301 36.565l15.301-36.565m-15.301 36.565l44.381-9.398m-44.381 9.398l32.351 18.656m-32.351-18.656l-15.847 37.518m31.148-74.083l29.08 27.167m-29.08-27.167l37.01 9.183m-165.531 79.651l33.288 13.761m0 0l17.825-12.201m-17.825 12.201l-33.278-13.761m33.278 13.761l48.091-3.681m-48.091 3.681l-20.05 8.455m20.05-8.455l30.65 9.623m-63.928-23.384l51.103 1.56m0 0l30.266 8.52m-30.266-8.52l46.26-16.311m60.228-46.916l-12.03 28.054m12.03-28.054l7.93-17.984m-7.93 17.984l38.29 15.694m-38.29-15.694l31.32 30.165m-43.35-2.111l-48.198 18.862m48.198-18.862l-15.69 31.25m15.69-31.25l32.78 22.571m-32.78-22.571l43.35 2.111m-107.542 41.582l15.994-24.831m-15.994 24.831l48.502-12.443m-48.502 12.443L942.707 719.1m17.441-13.304l32.294 8.502m-16.3-33.333l32.508 12.388m0 0l-16.208 20.945m16.208-20.945l34.18 12.285m-34.18-12.285l48.47-8.679m-364.772 18.918l-24.557 7.969m24.557-7.969l26.635 10.313m-26.635-10.313l49.233 2.868m-73.79 5.101l51.192 2.344m-51.192-2.344l-25.975 4.708m25.975-4.708l26.398 6.091m24.794-3.747l22.598-7.445m-22.598 7.445l51.191 4.746m-51.191-4.746l-24.794 3.747m24.794-3.747l27.608 8.81m-5.01-16.255l28.593 12.191m-28.593-12.191l49.263 3.933m-20.67 8.258l20.67-8.258m-20.67 8.258l51.202 5.307m-51.202-5.307l-23.583 4.064m23.583-4.064l28.82 11.192m-8.15-19.45l30.532 13.565m-30.532-13.565l49.942 4.12m-19.41 9.445l19.41-9.445m-19.41 9.445l51.202 4.007m-51.202-4.007l30.02 12.518m-30.02-12.518l-22.382 5.885m41.792-15.33l31.792 13.452m-31.792-13.452l51.221 3.419m-250.191-1.663l52.373 1.383m-52.373-1.383l26.398 2.709 25.975-1.326m0 0l52.402 5.063m-52.402-5.063l27.678 5.885 24.724-.822m0 0l52.403 7.128m-52.403-7.128l28.938 9.678 23.465-2.55m73.584-1.878l-21.182 8.511m21.182-8.511l19.429-10.033m-19.429 10.033l51.29.897m-51.29-.897l31.24 12.042m-52.422-3.531l-52.402-6.633m52.402 6.633l-22.195 5.792-30.207-12.425m52.402 6.633l52.422 3.531m-52.422-3.531l31.477 13.369 20.945-9.838m-11.811-22.075l31.861 10.93m-31.861-10.93l50.7 1.168m-18.839 9.762l18.839-9.762m-18.839 9.762l51.635-3.83m-51.635 3.83l-20.05 11.145m20.05-11.145l33.14 8.987M942.707 719.1l32.796 5.932m-32.796-5.932l49.735-4.802m-16.939 10.734l16.939-10.734m-16.939 10.734l51.667-7.464m-51.667 7.464l-18.495 12.817m18.495-12.817l34.987 4.166m-18.048-14.9l34.728 3.27m-34.728-3.27l50.388-8.66m-15.66 11.93l15.66-11.93m-15.66 11.93l52.36-9.744m-52.36 9.744l37.23-.785m-37.23.785l-16.68 11.63m32.34-23.56l14.29-20.964m-14.29 20.964l36.7 2.186m-36.7-2.186l49.95-6.222m-35.66-14.742l10.57-20.46m-10.57 20.46l46.01 2.41m-46.01-2.41l35.66 14.742m-188.962 40.591l53.19-2.158m-53.19 2.158l33.003 11.715 20.187-13.873m0 0l53.482-8.651m-53.482 8.651l35.089 6.381 18.393-15.032m69.04-21.374l-15.13 8.959m15.13-8.959l13.25-8.408m-13.25 8.408l52.65-8.81m-52.65 8.81l39.42-4.242m-54.55 13.201l-53.91 12.415m53.91-12.415l-17.11 13.443-36.8-1.028m53.91-12.415l54.55-13.201m-54.55 13.201l38.79-3.457 15.76-9.744m-74.65-87.517l30.36 33.678m-30.36-33.678l35.86 25.766m-5.5 7.912l5.5-7.912m-5.5 7.912l42.66 17.078m-42.66-17.078l-6.97 14.471m6.97-14.471l35.71 26.925m-30.21-34.837l37.16 24.99m-37.16-24.99l48.2 8.361m-48.2-8.361l37.17 24.999 11.03-16.638m-11.04 16.629l11.04-16.629m-11.04 16.629l53.33-6.67m-53.33 6.67l-6.95 9.847m6.95-9.847l41.68 13.611m-30.64-30.24l42.29 9.959m-42.29-9.959l58.57-16.62m-16.28 26.579l16.28-26.579m-16.28 26.579l58.37-21.319m-58.37 21.319l42.24 7.062m-42.24-7.062L1159 680.432m27.93-46.86l42.09 5.26m-42.09-5.26l62.74-28.634m-181.98 59.276l35.44 22.87m-35.44-22.87l42.68 12.454m-7.24 10.416l7.24-10.416m-7.24 10.416l47.53 5.512m-47.53-5.512l-10.35 12.332m10.35-12.332l39.41 10.108m-32.17-20.524l40.29 15.928m-40.29-15.928l48.63 3.764m70.02-41.6l-16.13 28.381m16.13-28.381l20.65-33.894m-20.65 33.894l59.81-27.036m-59.81 27.036l-42.08-5.26 62.73-28.634m-20.65 33.894l40.07 6.82m-56.2 21.561l-11.63 19.768m11.63-19.768l41.12 4.625m-41.12-4.625L1159 680.432m53.89-13.219l56.2-21.561m-118.43 46.944l8.34-12.164m-8.34 12.164l50.6-5.615m-50.6 5.615l-8.12 4.596m8.12-4.596l41.95 3.559M1159 680.432l42.26 6.549m0 0l52.75-15.143m-52.75 15.143l-8.65 9.174m8.65-9.174l42.08.112m10.67-15.255l15.08-26.186m-15.08 26.186l53.36-18.638m-53.36 18.638l-10.67 15.255m10.67-15.255l40.51 1.532m-44.85-68.432l39.16 6.858m-39.16-6.858l62.3-30.249m-23.14 37.107l23.14-37.107m-23.14 37.107l57.69-23.823m-57.69 23.823l-19.74 33.856m19.74-33.856l36.22 11.416m-13.08-48.523l34.55 13.284m-34.55-13.284l57.26-21.497m-22.71 34.781l22.71-34.781m-22.71 34.781l51.99-11.696m-51.99 11.696l-21.47 35.239m21.47-35.239l31.7 19.394m-8.99-54.175l29.28 23.085m0 0l-20.29 31.09m-109.13 38.285l38.28 7.548m-38.28-7.548l55.96-22.44m-55.96 22.44l38.29 7.548 17.67-29.988m-17.68 29.988l17.68-29.988m-17.68 29.988l52.46-16.125m-52.46 16.125l-12.85 20.17m12.85-20.17l38.29 6.353m-20.61-36.341l34.78 13.863m-34.78-13.863l53.17-15.845m-53.17 15.845l34.78 13.873 18.39-29.718m-18.39 29.708l18.39-29.708m-18.39 29.708l50.05-7.595m-50.05 7.595l-14.17 22.478m14.17-22.478l36.42 13.098m-18.03-42.806l31.66 22.113m0 0l-13.63 20.693m-303.47 49.243l39.4-.402m-39.4.402l49.76-2.224m-10.36 1.822l10.36-1.822m-10.36 1.822l52.22-3.709m-52.22 3.709l-13.23 4.568m13.23-4.568l41.36-4.512m-31 2.69l41.86-1.887m-41.86 1.887l50.07-1.037m-8.21-.85l8.21.85m-8.21-.85l50.68-3.849m-50.68 3.849l-10.86-.803m10.86.803l41.59-2.653m-33.38 3.503l42.47-4.699m-42.47 4.699l50.73-9.062m-8.26 4.363l8.26-4.363m-8.26 4.363l50.73-8.828m-50.73 8.828l42.02-3.027m-42.02 3.027l-9.09 1.196m17.35-5.559l42.47-4.465m-42.47 4.465l51.18-13.723m-175.57 30.212l54.59-9.08m-54.59 9.08l40.41-4.802 14.18-4.278m0 0l52.45-1.85m-52.45 1.85l41.68-2.084 10.77.234m59.82-10.024l-8.71 5.801m8.71-5.801l8.71-9.258m-8.71 9.258l50.74-10.445m-50.74 10.445l42.47-.785m-51.18 6.586l-51.11 4.223m51.11-4.223l-10.07 3.438-41.04.785m51.11-4.223l51.18-6.586m-51.18 6.586l41.95.71 9.23-7.296m-33.76-8.473l42.03-1.187m-42.03 1.187l51.14-13.817m-9.11 12.63l9.11-12.63m-9.11 12.63l50.72-8.688m-50.72 8.688l-8.27 9.66m8.27-9.66l42.93 3.121m-33.82-15.751l41.61 3.942m-41.61-3.942l50.59-9.38m-8.98 13.322l8.98-13.322m-8.98 13.322l50.68-3.587m-50.68 3.587l-7.79 11.809m7.79-11.809l43.32 7.735m-34.34-21.057l41.7 9.735m0 0l-7.36 11.322m-102.31 10.613l51.2-6.539m-51.2 6.539l42.85 3.877 8.35-10.416m0 0l51.11-4.074m-51.11 4.074l43.67 7.754 7.44-11.828m-1566.455 12.538l-47.057 12.434m47.057-12.434l7.825 10.622m-7.825-10.622l53.564-4.765m-100.621 17.199l54.882-1.812m-54.882 1.812l6.811 12.033m48.071-13.845l-48.071 13.845m48.071-13.845l8.199 12.06m-8.199-12.06l45.74-15.387m-45.74 15.387l54.883-4.288m-54.883 4.288l8.199 12.07 46.684-16.358m-102.954 18.133l56.27-1.785m-56.27 1.785l-50.572 12.845m50.572-12.845l7.155 12.826m49.115-14.611l46.684-16.348m-46.684 16.348l56.28-2.933m-56.28 2.933l-49.115 14.611m49.115-14.611l8.622 13.603m28.918-41.05l9.144 11.099m-9.144-11.099l53.574-6.913m-44.43 18.012l9.597 13.415m-9.597-13.415l44.43-18.012m-44.43 18.012l54.893-5.129m-45.296 18.544l45.296-18.544m-45.296 18.544l56.29-2.952m-56.29 2.952l-47.659 16.536m47.659-16.536l10.089 15.19m24.744-46.617l10.463 12.883m-10.463-12.883l53.574-6.951m-43.111 19.834l10.994 15.592m-10.994-15.592l43.11-19.834m-43.11 19.834l54.902-4.354M-7.27 700.565l43.908-19.946M-7.27 700.565l56.29-1.841m-56.29 1.841L4.285 717.68M-7.27 700.565l-46.201 18.142m78.318-53.568l11.791 15.48m-11.791-15.48l53.583-4.867m-41.792 20.347l41.792-20.347m-41.792 20.347l12.383 18.105m-12.383-18.105l54.913-1.943m-13.12-18.404l13.12 18.404m-13.12-18.404l53.583.168m-358.697 60.64l57.727-.019m-57.727.019l6.004 13.537m51.723-13.556l-51.723 13.556m51.723-13.556l7.55 13.556m-7.55-13.556l57.737-1.008m-109.46 14.564h59.273m-59.273 0l-54.538 14.022m54.538-14.022l6.349 14.06m52.924-14.06l50.187-14.564m-50.187 14.564l59.282-.15m-59.282.15l-52.924 14.06m52.924-14.06l7.982 14.097m42.205-28.661l9.095 14.414m-9.095-14.414l57.748-1.346M49.02 698.724L4.285 717.68m44.736-18.956l42.53-20.048m-42.53 20.048l56.3-.046m-56.3.046l13.021 18.872m-57.757.084l-47.126 16.638M4.286 717.68l12.175 16.629M4.286 717.68l-57.757 1.027m57.756-1.027l57.757-.084m-164.166 16.871l48.653-15.76m-48.653 15.76l59.283-.149m-59.283.149l-51.3 14.247m51.3-14.247l9.607 14.285m39.046-30.045l10.63 15.611m0 0l59.302-.009m-59.302.009l-49.676 14.434m49.676-14.434l11.24 14.462m48.062-14.471l45.581-16.713m-45.581 16.713l59.302-.01m-59.302.01l-48.062 14.471m48.062-14.471l12.864 14.508m62.226-70.141l13.77 20.002m-13.77-20.002l40.463-18.236m-40.463 18.236l54.912 2.765m-41.142 17.237l41.142-17.237m-41.142 17.237l56.31 2.942m-56.31-2.942l-43.279 18.918m43.279-18.918l14.488 18.974m12.205-57.212l14.449 21.001m-14.449-21.001l53.593 7.988m-39.144 13.013l15.168 20.179m-15.168-20.179l39.144-13.013m-39.144 13.013l54.922 7.409m-39.754 12.77l39.754-12.77m-39.754 12.77l56.31 5.176m-56.31-5.176l-41.822 16.032m41.822-16.032l15.955 17.788m8.021-50.98l15.778 20.422m-15.778-20.422l53.604 12.154m-37.826 8.268l16.556 17.946m-16.556-17.946l37.826-8.268m-37.826 8.268l54.922 9.174m-38.366 8.772l38.366-8.772m-38.366 8.772l56.329 5.4m-56.329-5.4l17.421 15.06m-17.421-15.06l-40.355 12.612m61.625-38.826l17.096 17.442m-17.096-17.442l53.603 12.574m-36.507 4.868l36.507-4.868m-36.507 4.868l17.963 14.172m-17.963-14.172l54.933 8.043m-18.426-12.911l18.426 12.911m-18.426-12.911l53.613 9.24m-284.385 15.2l13.721 16.703m-13.72-16.703l57.766.056m-44.046 16.647l44.046-16.647m-44.046 16.647l59.312.038m-59.312-.038l-46.438 14.518m46.438-14.518l14.488 14.555m29.558-31.202l15.266 16.685m-15.266-16.685l57.777 1.756m96.684-7.212l-38.908 9.66m38.908-9.66l36.97-6.129m-36.97 6.129l56.32 3.615m-56.32-3.615l18.888 11.668m-57.796-2.008l-57.776-2.448m57.776 2.448l-40.965 12.817m40.965-12.817l18.357 13.181m-18.357-13.181l57.796 2.008m-158.083 10.473l42.511-14.929m-42.511 14.929l59.322.336m-59.322-.336l-44.823 14.517m44.823-14.517l16.113 14.545m26.398-29.474l16.811 15.265m0 0l-43.209 14.209m43.209-14.209l17.746 14.247m-17.746-14.247l59.322.364m-528.936 13.602l60.887.038m-60.887-.038l5.029 14.948m55.858-14.91l-55.858 14.91m55.858-14.91l6.742 14.947m-6.742-14.947l60.906.037m-116.764 14.873l62.6.037m-62.6-.037l-59.105 15.779m59.105-15.779l5.305 15.816m57.295-15.779l54.164-14.91m-54.164 14.91l-57.295 15.779m111.459-30.689l-54.154 14.91m54.154-14.91l8.455 14.948m-8.455-14.948l60.907.038m-115.061 14.872l62.609.038m-62.609-.038l-57.305 15.779m57.305-15.779l7.116 15.817m55.493-15.779l52.452-14.91m-52.452 14.91l62.629.037m-62.629-.037l-55.493 15.779m55.493-15.779l8.937 15.816m43.515-30.726l10.177 14.947m-10.177-14.947l60.916.028m-50.74 14.919l50.74-14.919m-50.74 14.919l62.63.037m-62.63-.037l10.75 15.826m-10.75-15.826l-53.691 15.779m104.431-30.698l11.89 14.956m-11.89-14.956l60.926.037m-358.618 30.549l64.41.037m-64.41-.037l3.671 16.778m60.739-16.741l-60.739 16.741m60.739-16.741l5.601 16.779m-5.601-16.779l64.421.038m-125.16 16.703l66.34.038m-66.34-.038l-64.509 17.788m64.509-17.788l3.868 17.825m62.472-17.787l58.82-16.741m-58.82 16.741l66.35.046m-66.35-.046l-62.472 17.787m62.472-17.787l5.915 17.834m52.905-34.575l7.53 16.787m-7.53-16.787l64.43.037m116.321-15.742l-51.88 15.789m51.88-15.789l49.036-14.919m-49.036 14.919l62.639.038m-62.639-.038l12.57 15.826m-64.45-.037l-54.982 16.741m54.981-16.741l11.378 16.778m-11.378-16.778l-64.44-.047m64.44.047l-54.991 16.741m54.991-16.741l64.45.037m-185.79 16.666l56.9-16.75m-56.9 16.75l66.349.038m-66.349-.038l-60.435 17.788m60.435-17.788l7.952 17.835m48.948-34.585l9.449 16.788m0 0l-58.397 17.797m58.407-17.797l66.36.037m-66.36-.037l-58.407 17.797m58.407-17.797l10 17.834m56.36-17.797l53.071-16.741m-53.072 16.741l66.38.047m-66.38-.047l-56.359 17.797m56.36-17.797l12.057 17.844m77.481-65.33l13.603 14.957m-13.603-14.957l60.926.037m-47.323 14.92l47.323-14.92m-47.323 14.92l62.649.037m-62.65-.037l-50.069 15.788m50.07-15.788l14.39 15.825m32.933-30.745l15.326 14.957m-15.326-14.957l60.937.028m-45.611 14.929l45.611-14.929m-45.611 14.929l62.658.038m-62.658-.038l-48.26 15.788m48.26-15.788l16.21 15.826m29.401-30.755l17.047 14.967m-17.047-14.967l60.955.038m-43.908 14.929l43.908-14.929m-43.908 14.929l62.668.028m-62.668-.028l18.022 15.825m-18.022-15.825l-46.448 15.788m90.356-30.717l41.576-13.883m-41.576 13.883l18.76 14.957m-18.76-14.957l60.956.037m-19.38-13.92l39.439-11.173m-39.439 11.173l59.332.131m-59.332-.131l19.38 13.92m-280.24 30.605L6.164 796.35m-13.307-16.788l64.46.037M6.165 796.35l51.153-16.751M6.165 796.35l66.38.037m-66.38-.037l-54.321 17.797M6.165 796.35l14.095 17.843m37.058-34.594l15.227 16.788m-15.227-16.788l64.469.038m109.116-15.76l-44.646 15.797m44.646-15.797l42.196-14.92m-42.196 14.92l62.669.037m-62.669-.037l19.843 15.834m-64.489-.037l-47.314 16.76m47.314-16.76l19.085 16.797m-19.085-16.797l-64.47-.037m64.47.037l64.489.037M72.544 796.387l49.243-16.75m-49.243 16.75l66.399.047m-66.399-.047L20.26 814.193m52.284-17.806l16.152 17.844m33.091-34.594l17.156 16.797m0 0l66.399.037m-66.399-.037l-50.247 17.797m50.247-17.797l18.199 17.843m48.2-17.806l45.404-16.76m-45.404 16.76l66.418.038m-66.418-.038l-48.2 17.806m48.2-17.806l20.256 17.853m85.642-108.257l19.35 9.744m-19.35-9.744l35.187-3.671m-35.187 3.671l54.941 4.045m-35.591 5.699l35.591-5.699m-35.591 5.699l56.32.271m-56.32-.271l-37.432 8.053m37.432-8.053l20.365 8.483m-4.528-21.898l19.754 7.716m-19.754-7.716l53.623 2.139m-33.869 5.577l20.729 5.97m-20.729-5.97l33.869-5.577m-33.869 5.577l54.923-1.074m-34.194 7.044l34.194-7.044m-34.194 7.044l56.281-1.373m-56.281 1.373l-35.955 8.212m35.955-8.212l21.792 7.605m-8.652-19.152l21.054 4.503m-21.054-4.503l53.643-2.578m-32.589 7.081l22.087 5.671m-22.087-5.671l32.589-7.081m-32.589 7.081l54.932-1.625m-54.932 1.625l22.096 5.671m-.009 0l-34.489 8.978m44.991-21.73l22.343 5.456m-22.343-5.456l53.642-.038m-31.299 5.494l-32.836 7.296m32.836-7.296l31.299-5.494m-31.299 5.494l23.455 7.268m-23.455-7.268l54.932 2.802m-87.768 4.494l56.291-.028m-56.291.028l23.249 8.342m-23.249-8.342l-34.498 8.978m98.633-21.768l23.633 8.296m-23.633-8.296l53.633 7.549m-267.81 14.396l19.893 11.304m-19.893-11.304l57.797.43m-37.904 10.874l37.904-10.874m-37.904 10.874l59.341-.187m-59.341.187l-39.952 13.789m39.952-13.789l21.004 13.817m16.9-24.691l21.437 10.687m-21.437-10.687l57.747-.607m90.789-9.006l-33.042 8.37m33.042-8.37l31.477-4.466m-31.477 4.466l56.359 3.578m-56.359-3.578l24.715 9.463m-57.757-1.093l-34.735 11.781m34.735-11.781l24.607 11.799m-24.607-11.799l-57.747.636m57.747-.636l57.757 1.093m-57.757-1.093l57.757 1.103m-151.814 10.827l36.31-11.294m-36.31 11.294l59.322-.149m-59.322.149l-38.337 14.004m38.337-14.004l22.668 14.042m13.642-25.336l23.012 11.145m0 0l59.342.018m-59.342-.018l-36.654 14.191m36.654-14.191l24.371 14.228m34.971-14.21l33.15-10.706m-33.15 10.706l59.361.365m-59.361-.365l33.15-10.696m-33.15 10.696l-34.971 14.21m34.971-14.21l26.053 14.247m13.859-38.882l24.882 8.044m-24.882-8.044l30-.747m-30 .747l54.991 6.147m-30.109 1.897l30.109-1.897m-30.109 1.897l56.428 2.905m-56.428-2.905l-31.644 5.885m31.644-5.885l26.26 7.52m-21.142-16.311l24.991 6.894m-24.991-6.894l53.633 7.175m-28.642-.281l26.319 4.802m-26.319-4.802l28.642.281m-28.642-.281l55.01 3.364m-28.691 1.438l28.691-1.438m-28.691 1.438l56.428 1.028m-56.428-1.028l-30.168 4.615m30.168-4.615l27.737 5.129m-25.414-9.65l26.368 3.083m-26.368-3.083l53.633 2.335-27.265.748m0 0l27.737 2.466m0 0l-28.691 4.101m-115.809-2.149l26.211 11.071m-26.211-11.071l57.904 1.635m-31.693 9.436l31.693-9.436m-31.693 9.436l-26.211-11.061m26.211 11.061l59.401.14m-59.401-.14l-33.308 13.882m33.308-13.882l27.638 13.91m-53.849-24.971l57.904 1.625m0 0l27.708 9.576m-27.708-9.576l57.905.514m-30.197 9.062l30.197-9.062m-30.197 9.062l59.4.43m-59.4-.43l-31.763 13.77m31.763-13.77l29.193 13.808m1.004-22.87l29.203 9.492m0 0l-30.207 13.378m-365.912-.206l20.473 14.957m-20.473-14.957l60.956.028m-40.483 14.929l40.483-14.929m-40.483 14.929l62.698.037m-62.698-.037l-42.826 15.797m42.826-15.797l21.664 15.835m18.819-30.764l22.215 14.966m-22.215-14.966l61.005.038m-38.79 14.928l38.79-14.928m-38.79 14.928l62.727.038m-62.727-.038l-41.034 15.798m41.034-15.798l23.465 15.845m15.325-30.773l23.937 14.966m-23.937-14.966l61.025.037m-37.088 14.929l37.088-14.929m-37.088 14.929l62.747.037m-62.747-.037l25.257 15.844m-25.257-15.844l-39.262 15.807m76.35-30.736l25.659 14.966m-25.659-14.966l61.024.037m-266.363 30.614l21.014 16.798m-21.014-16.798l64.49.038m-43.476 16.76l43.476-16.76m-43.476 16.76l66.409.046m-66.409-.046l-46.162 17.815m46.162-17.815l22.304 17.853m21.172-34.613l22.933 16.806m-22.933-16.806l64.499.047m102.009-15.77l-37.49 15.807m37.49-15.807l35.365-14.929m-35.365 14.929l62.698.037m-62.698-.037l27.028 15.844m-64.518-.037l-39.706 16.76m39.706-16.76l26.683 16.806m-26.683-16.806l-64.519-.037m64.519.037l64.518.037m-170.603 16.685l41.566-16.759m-41.566 16.759l66.379.038m-66.379-.038l-44.105 17.807m44.105-17.807l24.292 17.853m17.274-34.612l24.813 16.797m0 0l66.389.046m-66.389-.046l-42.087 17.815m42.087-17.815l26.3 17.862m40.089-17.816l37.835-16.769m-37.835 16.769l66.448.038m-66.448-.038l-40.089 17.816m40.089-17.816l28.317 17.863m17.855-65.405l27.333 14.966m-27.333-14.966l60.946.028m-33.613 14.938l33.613-14.938m-33.613 14.938l62.669.038m-62.669-.038l-35.67 15.807m35.67-15.807l28.859 15.845m4.754-30.783l29.056 14.976m-29.056-14.976l60.956.038m-31.9 14.938l31.9-14.938m-31.9 14.938l62.678.663m-62.678-.663l-33.81 15.807m33.81-15.807l30.719 15.844m1.181-30.782l30.778 15.601m0 0l-31.959 15.181m-129.058-.075l28.613 16.807m-28.613-16.807l64.529.038m-35.916 16.769l35.916-16.769m-35.916 16.769l66.527.037m-66.527-.037l-38.131 17.825m38.131-17.825l30.483 17.862m5.433-34.631l30.611 16.806m-30.611-16.806l64.529.037m-33.918 16.769l33.918-16.769m-33.918 16.769l66.527.159m-66.527-.159l-36.044 17.825m36.044-17.825l32.589 17.872m1.329-34.641l32.609 16.928m0 0l-33.938 17.713m-1026.632-.654l68.377.037m-68.377-.037l1.92 18.974m66.457-18.937l-66.457 18.937m66.457-18.937l4.095 18.983m-4.095-18.983l68.387.047m-134.844 18.89l70.552.046m-70.552-.046L-459 853.057l72.856.056m-2.067-20.207l2.067 20.207m68.485-20.161l64.292-18.936m-64.292 18.936l70.562.038m-70.562-.038l-68.485 20.161m68.485-20.161l4.38 20.208m59.912-39.144l6.27 18.974m-6.27-18.974l68.387.047m-68.387-.047l6.27 18.983 62.117-18.936m-62.117 18.927l62.117-18.927m-62.117 18.927l70.572.047m-70.572-.047l-66.182 20.17m66.182-20.17l6.703 20.216m55.414-39.143l8.455 18.974m-8.455-18.974l68.407.037m-68.407-.037l8.455 18.983 59.952-18.946m-59.952 18.937l59.952-18.937m-59.952 18.937l70.582.046m-70.582-.046l9.016 20.225m-9.016-20.225l-63.869 20.169m123.821-39.106l10.63 18.983m-10.63-18.983l68.417.047m-337.988 38.966l72.865.047m0 0l72.885.046m134.451-20.123l-61.566 20.179m61.566-20.179l57.787-18.936m-57.787 18.936l70.592.047m-70.592-.047l-61.556 20.179 72.895.047m-11.339-20.226l11.339 20.226m-72.905-.047l-72.885-.056m192.238-39.059l12.805 18.983m-12.805-18.983l68.416.046M-35.35 833.13l55.611-18.937M-35.35 833.13l70.602.047m-70.602-.047l-59.253 20.179m59.253-20.179l13.662 20.226m41.95-39.163l14.99 18.984m-14.99-18.984l68.435.038m-53.445 18.946l53.445-18.946m-53.445 18.946l70.611.046m-70.611-.046l-56.94 20.179m56.94-20.179l15.984 20.235m37.461-39.181l17.166 18.992m-17.166-18.992l68.446.046m-51.28 18.946l51.28-18.946m-51.28 18.946l70.631.047m-70.631-.047l18.317 20.236m-18.317-20.236l-54.627 20.189m105.907-39.135l19.351 18.993m-19.351-18.993l68.456.047m-320.202 38.985l72.915.047m0 0l72.924.056m125.258-20.142l-52.314 20.189m52.314-20.189l49.105-18.946m-49.105 18.946l70.631.047m-70.631-.047l20.63 20.235m-72.944-.046l-72.944-.047m72.944.047l72.944.046m28.475-39.181l21.526 18.993m-21.526-18.993l68.466.038m-68.466-.038l68.466.047m-46.94 18.946l46.94-18.946m-46.94 18.946l46.94-18.955m-46.94 18.955l70.621.047m-70.621-.047l-50.001 20.188m50.001-20.188l22.963 20.235m23.977-39.19l23.681 19.002m-23.681-19.002l68.397.046m-68.397-.037l68.397.037m-68.397-.037l23.681 18.993m0 0l44.716-18.956m-44.716 18.956l70.573.046m-70.573-.046l-47.658 20.188m47.658-20.188l25.296 20.244m19.42-39.2l25.857 19.002m-25.857-19.002l68.387.047m-42.53 18.955l42.53-18.955m-42.53 18.955l70.581.047m-70.581-.047l27.697 20.245m-27.697-20.245l-45.277 20.198m87.807-39.153l28.051 19.002m-28.051-19.002l68.406.047m-302.131 39.003l72.964.047m0 0l72.954.056m115.858-20.151l-42.884 20.198m42.884-20.198l40.355-18.955m-40.355 18.955l70.681.047m-70.681-.047l30.109 20.244m-72.993-.046l-72.974-.047m72.974.047l72.993.046m10.246-39.199l30.326 19.002m-30.326-19.002l68.614.037m-38.288 18.965l38.288-18.965m-38.288 18.965l70.798.046m-70.798-.046l-40.572 20.197m40.572-20.197l32.441 20.253m5.847-39.218l32.51 19.011m-32.51-19.011l68.633.047m-36.123 18.964l36.123-18.964m-36.123 18.964l70.789-.168m-70.789.168l-38.357 20.207m38.357-20.207l34.666 20.254m1.457-39.218l34.666 18.796m0 0l-36.123 20.422m-146.036-.103l73.013.056m0 0l73.023.047m33.436-134.788l-27.274.747m27.274-.747l27.737 3.559m-27.737-3.559l53.682 4.624m-80.956-3.877l55.011 2.812m-55.011-2.812l27.756 2.513m27.255.299l-27.255-.299m27.255.299l29.144 8.015m-29.144-8.015l25.945 1.065m-25.945-1.065l55.01 9.632m-82.265-9.931l56.399 8.314m-56.399-8.314l-28.701 4.157m28.701-4.157l29.194 8.268m27.205.046l25.866 1.617m-25.866-1.617l56.418 14.509m-56.418-14.509l-27.205-.046m27.205.046l30.67 13.883m-33.869-20.833l29.065 8.567m-29.065-8.567l53.692 8.931m-24.627-.364l30.552 12.892m-30.552-12.892l24.627.364m-24.627-.364l55.021 12.854m-24.469.038l24.469-.038m-24.469.038l56.418 15.956m-56.418-15.956l-25.748-.626m25.748.626l32.136 17.713m-38.061-30.241l30.394 12.49m-30.394-12.49l53.692 9.921m-23.298 2.569l31.949 15.994m-31.949-15.994l23.298-2.569m-23.298 2.569l55.03 12.061m-23.081 3.933l23.081-3.933m-23.081 3.933l56.428 12.631m-56.428-12.631l33.613 19.012m-33.613-19.012l-24.282 1.757m15.631-20.32l31.732 14.63m-31.732-14.63l53.701 7.605m-21.969 7.025l21.969-7.025m-21.969 7.025l33.347 16.564m-33.347-16.564l55.031 7.212m-33.062-14.237l33.062 14.237m-33.062-14.237l53.987 1.868m-296.973-25.532l57.895 4.111m-57.895-4.111l29.233 9.632m28.662-5.521l-28.662 5.521m28.662-5.521l30.758 15.685m-30.758-15.685l57.875 13.929m-86.537-8.408l59.42 10.164m-59.42-10.164l-30.227 13.415m30.227-13.415l30.807 17.825m28.613-7.661l27.117-1.756m-27.117 1.756l59.43 18.255m-59.43-18.255l-28.613 7.661m28.613-7.661l32.441 22.132m-5.324-23.888l32.313 20.011m-32.313-20.011l57.884 18.339m80.71 10.874l-22.815 6.381m22.815-6.381l21.684-9.352m-21.684 9.352l56.714 4.166m-56.714-4.166l35.08 17.068m-57.895-10.687l-24.036 4.558m24.036-4.558l35.414 20.375m-35.414-20.375l-57.895-17.255m57.895 17.255l57.895 10.687m-141.361-26.27l25.571-1.672m-25.571 1.672l59.43 20.141m-59.43-20.141l-26.989 3.877m26.989-3.877l34.075 22.925m-8.504-24.597l33.859 21.813m0 0l59.45 15.817m-59.45-15.817l-25.355 2.784m25.355-2.784l35.719 20.712m23.731-4.895l22.481-9.688m-22.481 9.688l59.489 5.138m-59.489-5.138l-23.731 4.895m23.731-4.895l37.343 16.022m-28.258-52.13l35.03 13.518m-35.03-13.518l20.925-12.369m-20.925 12.369l56.271-3.008m-21.241 16.526l21.241-16.526m-21.241 16.526l57.991-10.659m-57.991 10.659l-21.624 12.902m21.624-12.902l37.018 9.651m-37.018-9.651l-21.634 12.902m7.529-38.789l35.346 9.361m-35.346-9.361l55.306-7.576m-19.96 16.937l36.75 5.867m-36.75-5.867l19.96-16.937m-19.96 16.937l56.65-13.882m-19.9 19.749l19.9-19.749m-19.9 19.749l57.71-20.002m-57.71 20.002l-20.973 20.31m20.973-20.31l37.65 2.223m-54.44-25.027l36.69 3.055m-36.69-3.055l55.22-14.088m-18.53 17.143l37.81-.253m-37.81.253l18.53-17.143m-18.53 17.143l56.83-19.348m-19.02 19.095l19.02-19.095m-19.02 19.095l57.93-23.233m-57.93 23.233l38.35-2.914m-38.35 2.914l-20.06 22.225m.78-39.115l38.3-2.205m-38.3 2.205l55.94-16.975m-17.64 14.77l17.64-14.77m-17.64 14.77l38.91-4.138m-38.91 4.138l57.24-19.497m-39.6 4.727l39.6-4.727m-39.6 4.727l56.2-14.574m-230.195 92.002l37.008 14.826m0 0l21.644-18.077m-21.644 18.077l-36.998-14.826m36.998 14.826l59.327-12.444m-59.327 12.444l-22.146 10.884m22.146-10.884l38.597 7.464m-75.595-22.29l58.642-3.251m0 0l37.683 5.633m-37.683-5.633l58.623-18.087m77.99-45.458l-19.58 20.319m19.58-20.319l18.33-15.359m-18.33 15.359l58.16-19.413m-58.16 19.413l38.96-4.307m-58.54 24.626l-58.41 25.139m58.41-25.139l-20.51 24.233m20.51-24.233l38.22-3.924m-38.22 3.924l58.54-24.626m-137.89 73.485l20.94-23.72m-20.94 23.72l58.84-24.626m-58.84 24.626l-20.73 19.908m20.73-19.908l39.37 1.019m-18.43-24.739l37.9-.906m0 0l-19.47 25.645m19.47-25.645l40.42-.588m-40.42.588l58.73-28.157m-504.343 9.127l61.034 4.41m-61.034-4.41l30.817 15.63m30.217-11.22l-30.217 11.22m30.217-11.22l32.55 20.001m-32.55-20.001l61.054 14.471m-91.271-3.251l62.767 8.781m-62.767-8.781l-31.979 15.19m31.979-15.19l32.609 18.086m30.158-9.305l28.504-5.53m-28.504 5.53l62.777 14.985m-62.777-14.985l-30.158 9.305m30.158-9.305l34.44 18.909m-5.936-24.439l34.273 20.515m-34.273-20.515l61.064 19.048m-26.791 1.467l26.791-1.467m-26.791 1.467l62.786 16.424m-62.786-16.424l-28.337 3.924m28.337-3.924l36.27 16.601m-9.479-18.068l35.995 17.891m-35.995-17.891l61.074 17.928m-25.079-.037l25.079.037m-25.079-.037l62.797 13.116M858.414 805.3l38.091 12.098M858.414 805.3l-26.516.177m51.595-.14l37.718 13.079m-37.718-13.079l61.074 11.127M638.105 780.3l64.588 2.896m-64.588-2.896l32.639 16.947m31.949-14.051l-31.949 14.051m31.949-14.051l34.568 18.217m-34.568-18.217l64.598 9.604m-96.547 4.447l66.517 4.166m-66.517-4.166l-33.958 17.741m33.958-17.741l34.646 18.124m31.871-13.958l30.03-8.613m-30.03 8.613l66.536 7.913m-66.536-7.913l-31.871 13.958m31.871-13.958l36.703 17.339m-6.673-25.952l36.506 16.526M767.291 792.8l64.607 12.677m89.313 12.939l-24.706-1.018m24.706 1.018l23.356-1.952m-23.356 1.952l62.737 4.643m-62.737-4.643l39.921 6.362m-64.627-7.38l-26.171.71m26.171-.71l40.385 7.502m-40.385-7.502l-64.607-11.921m64.607 11.921l64.627 7.38m-157.335-15.452l28.101-3.849m-28.101 3.849l66.537 8.782m-66.537-8.782l-29.833 9.426m29.833-9.426l38.761 14.35m-10.66-18.199l38.436 12.631m0 0l66.556 6.792m-66.556-6.792l-27.776 5.568m27.776-5.568l40.827 10.127m25.729-3.335l24.242-.122m-24.242.122l66.55 2.045m-66.55-2.045l-25.729 3.335m25.729-3.335l42.875 5.595m-35.198-14.031l39.381 6.595m-39.381-6.595l60.743-3.42m-21.362 10.015l21.362-10.015m-21.362 10.015l62.042-10.65m-62.042 10.65l-22.816 1.719m22.816-1.719l41.522-.42m-20.16-9.595l40.68-.635m-40.68.635l60.1-18.889m-19.42 18.254l19.42-18.254m-19.42 18.254l61.7-20.001m-61.7 20.001l-20.52 10.23m20.52-10.23l43.38-2.158m-23.96-16.096l42.28-1.747m-42.28 1.747l59.89-26.233m-17.61 24.486l17.61-24.486m-17.61 24.486l61.66-22.926m-61.66 22.926l45.36.588m-45.36-.588l-18.32 17.843m35.93-42.329l18.31-27.569m-18.31 27.569l44.05 1.56m-44.05-1.56l59.98-25.504m-41.67-2.065l20.32-20.702m-20.32 20.702l58.92-22.916m-58.92 22.916l41.67 2.065m-224.148 82.36l42.308 2.167m-42.308-2.167l64.338-2.139m-22.03 4.306l22.03-4.306m-22.03 4.306l66.3-4.96m-66.3 4.96l-23.675 3.55m23.675-3.55l45 3.121m-22.97-7.427l44.27-.654m-44.27.654l63.9-12.388m79.98-40.769l-16.3 23.514m16.3-23.514l15.93-27.064m-15.93 27.064l61.84-18.918m-61.84 18.918l47.37 6.754m-63.67 16.76l-17.25 18.441m17.25-18.441l48.53 6.427m-48.53-6.427l-63.68 17.255m63.68-17.255l63.67-16.76m-146.98 45.749l19.63-11.734m-19.63 11.734l66.05-10.548m-66.05 10.548l-21.3 8.081m21.3-8.081l47.26 3.681m-27.63-15.415l46.42 1.186m-46.42-1.186l46.43 1.186m-.01 0L1117 825.666m18.8-14.229l65.78-12.014m-65.78 12.014l-18.8 14.229m18.8-14.229l49.44 7.642m16.34-19.656l15.14-23.187m-15.14 23.187l65.88-9.594m-65.88 9.594l-16.34 19.656m16.34-19.656l51.78 13.481M1143.3 708.599l39.83-4.054m-39.83 4.054l16.6-9.847m-16.6 9.847l57.42-13.144m-17.59 9.09l17.59-9.09m-17.59 9.09l58.16-8.194m-58.16 8.194l-19.2 15.106m19.2-15.106l39.65-.991m-62.88-4.802l40.82-3.297m-40.82 3.297l55.86-6.324m-15.04 3.027l40.57.896m-40.57-.896l15.04-3.027m-15.04 3.027l54.93-1.458m-14.36 2.354l14.36-2.354m-14.36 2.354l54.76 1.953m-54.76-1.953l-18.51 7.203m18.51-7.203l39.31 5.989m-64.84-9.912l39.89 1.569m-39.89-1.569l51.84-.533m-11.95 2.102l40.4 4.307m-40.4-4.307l11.95-2.102m-11.95 2.102l53.22.411m-12.82 3.896l12.82-3.896m-12.82 3.896l55.1 2.634m-55.1-2.634l41.71 7.988m-41.71-7.988l-15.45 4.036m-13-10.445l41.27 2.513m-41.27-2.513l52.04-2.672m-10.77 5.185l10.77-5.185m-10.77 5.185l42.28 6.53m-42.28-6.53l53.41-.065m-42.64-5.12l42.64 5.12m-42.64-5.12l52.1-3.353m-207.81 33.781l38.6-2.214m-38.6 2.214l58.85-16.097m-20.25 13.883l20.25-13.883m-20.25 13.883l-38.59 2.214 58.84-16.097m-20.25 13.883l59.42-8.894m-59.42 8.894l-17.25 24.981m17.25-24.981l43.08 8.268m-22.83-22.151l39.17 4.989m-39.17-4.989l57.82-1.214m70.55-1.402l-13.39 5.354m13.39-5.354l11.13-6.595m-11.13 6.595l55.23 2.859m-55.23-2.859l44.07 10.707m-57.46-5.353l-16.23 5.381m16.23-5.381l43.86 12.023m-43.86-12.023l-57.16-3.952m57.16 3.952l57.46 5.353m-133.27-3.102l18.65-6.203m-18.65 6.203l59.58 3.13m-59.58-3.13l-16.34 17.162m16.34-17.162l44.87 15.648m-26.22-21.851l40.93 9.333m0 0l60.09 6.642m-60.09-6.642l-14.71 12.518m14.71-12.518l47.32 17.628m12.77-10.986l13.6-6.67m-13.6 6.67l60.27 7.801m-60.27-7.801l-12.77 10.986m12.77-10.986l49.56 18.357m-68.9-42.329l44.1 9.454m-44.1-9.454l9.46-8.473m-9.46 8.473l53.42-.037m-9.32 9.491l9.32-9.491m-9.32 9.491l55.12 2.644m-55.12-2.644l-11.16 7.848m11.16-7.848l46.32 13.191m-80.96-31.118l43.96 8.436m-43.96-8.436l52.05-2.598m-8.09 11.034l45.8 12.135m-45.8-12.135l8.09-11.034m-8.09 11.034l53.24.467m-7.44 11.668l7.44-11.668m-7.44 11.668l54.77 1.953m-54.77-1.953l-8.8 10.547m8.8-10.547l48.38 14.471m-86.09-37.64l45.15 11.501m-45.15-11.501l51.84-.392-6.69 11.893m0 0l47.33 13.621m0 0l-6.39 12.518m-114.66-9.267l46.67 14.471m-46.67-14.471l57.48 5.343m-10.81 9.128l10.81-9.128m-10.81 9.128l60.12 6.605m-60.12-6.605l-10.71 10.556m10.71-10.556l51.63 17.899m-40.82-27.027l49.31 15.733m-49.31-15.733l57.18 3.924m-7.87 11.809l7.87-11.809m-7.87 11.809l59.61 3.045m-59.61-3.045l-8.49 11.294m8.49-11.294l53.55 16.339m-45.68-28.148l51.74 14.854m0 0l-6.06 13.294m-370.28-6.642l45.91 8.146m-45.91-8.146l60.33-16.713m-60.33 16.713l45.92 8.146m-.01 0l-14.47 25.672m28.89-50.531l-14.41 24.859m14.41-24.859l47.87 16.685m-47.87-16.685l61.21-1.514m-75.62 26.373l62.28-8.174m-62.28 8.174l-14.48 25.672m14.48-25.672l49.43 14.779m12.85-22.953l13.34-18.199m-13.34 18.199l63.53 2.653m-63.53-2.653l-12.85 22.953m12.85-22.953l51.86 21.972m-38.52-40.171l50.19 20.852m-50.19-20.852l62.03 5.11m-62.03-5.11l50.2 20.852 11.83-15.742m-11.84 15.742l11.84-15.742m-11.84 15.742l63.93 5.493m-63.93-5.493l53.79 22.58m-53.79-22.58l-11.66 19.319m11.66-19.319l-11.67 19.319m23.51-35.061l52.09 21.235m-52.09-21.235l62.33 7.371m-62.33-7.371l52.1 21.235 10.23-13.864m-214.46 39.564l50.74 13.593m-50.74-13.593l63.91-10.893m-63.91 10.893l50.75 13.593 13.16-24.486m-13.17 24.486l13.17-24.486m-13.17 24.486l66.17-3.27m-66.17 3.27l-14.1 23.075m14.1-23.075l54.15 19.852m-40.98-44.338l53 21.216m-53-21.216l64.71-.981m-64.71.981l64.72-.981m75.59-13.826l-10.14 17.087m10.14-17.087l10.24-13.864m-10.24 13.864l64.07 6.427m-64.07-6.427l55.52 21.842m-65.66-4.755l-10.15 20.048m10.15-20.048l57.1 22.879m-57.1-22.879l-65.45-3.261m65.45 3.261l65.66 4.755m-65.66-4.755l65.66 4.764m-142.83 14.172l11.71-22.197m-11.71 22.197l67.02 1.112m-67.02-1.112l11.72-22.197m-11.72 22.197l-12.02 23.122m12.02-23.122l56.6 23.328m-44.89-45.525l55.31 23.309m0 0l67.25 2.831m-67.25-2.831l-55.3-23.309m55.3 23.309l-10.42 22.216m10.42-22.216l58.55 23.299m8.7-20.468l8.56-18.124m-8.56 18.124l67.35 3.382m-67.35-3.382l8.56-18.115m-8.56 18.115l-8.7 20.468m8.7-20.468l60.38 22.299m-97.1-76.129l53.83 20.291m-53.83-20.291l62.34 7.343m-62.34-7.343l62.34 7.353m-8.51 12.938l8.51-12.938m-8.51 12.938l8.51-12.948m-8.51 12.948l63.94 5.456m-63.94-5.456l-8.55 15.424m8.55-15.424l57.12 20.17m-57.12-20.17l-8.55 15.415m17.06-28.363l55.43 18.404m-55.43-18.404l62.04 5.045m-62.04-5.035l62.04 5.035m-62.04-5.035l55.43 18.394m0 0l6.61-13.359m-6.61 13.359l63.56 2.588m-63.56-2.588l-6.82 14.714m6.82-14.714l58.64 17.928m-52.03-31.287l56.95 15.947m0 0l-4.92 15.34m-131.13-7.969l58.79 21.506m0 0l6.88-16.751m-6.88 16.751l-58.79-21.497m58.79 21.497l67.26 2.802m-67.26-2.802l-6.97 18.917m6.97-18.917l62.11 20.739m-120.9-42.236l65.67 4.746m0 0l60.38 19.553m-60.38-19.553l65.46 3.214m-5.08 16.339l5.08-16.339m-5.08 16.339l67.05 1.075m-67.05-1.075l-5.15 17.937m5.15-17.937l63.84 19.002m-58.76-35.341l61.97 17.414m0 0l-3.21 17.927m-1029.564-.7l68.604.383m-68.604-.383l34.706 18.815m33.898-18.432l-33.898 18.432m33.898-18.432l36.851 18.759m-36.851-18.759l68.574 3.381m-68.574-3.381l36.861 18.759m-70.759-.327l70.749.327m-70.749-.327l-36.133 20.45 73.082.018m-36.949-20.468l36.949 20.468m33.8-20.141l-33.8 20.141m65.523-35.519l-31.713 15.378m31.713-15.378l39.056 16.984m-39.056-16.984l68.594 4.924M742.251 834.13l70.769 1.606m-70.769-1.606l-33.81 20.141m33.81-20.141l39.282 20.197m31.487-18.591l29.538-12.06m-29.538 12.06l70.779 1.897m-70.779-1.897l-31.487 18.591m31.487-18.591l41.615 18.675m-12.077-30.735l41.241 13.957m-41.241-13.957l68.603 4.559m-27.362 9.398l27.362-9.398m-27.362 9.398l70.788 1.224m-70.788-1.224l43.947 16.853m-43.947-16.853l-29.164 16.778m56.526-26.176l43.426 10.622m-43.426-10.622l68.604 2.26m-271.324 23.776l73.092.056m0 0l73.102.084m99.952-15.554l-26.841 15.629m26.841-15.629l25.178-8.362m-25.178 8.362l70.833-.047m-70.833.047l46.283 15.667m-73.124-.038l-73.111-.075m73.111.075l73.124.038m-21.105-24.029l45.655 8.315m-45.655-8.315l68.675-.429m-68.675.429l45.655 8.324 23.02-8.753m-23.02 8.744l23.02-8.744m-23.02 8.744l70.96-.299m-70.96.299l-24.55 15.714m24.55-15.714l48.6 15.77m-25.58-24.514l47.94 8.445m-47.94-8.445l68.56-4.4m-20.62 12.845l20.62-12.845m-20.62 12.845l70.86-2.167m-70.86 2.167l-22.36 16.069m22.36-16.069l50.79 16.106M1117 825.666l50.24 10.678M1117 825.666l68.24-6.587m-18 17.265l18-17.265m-18 17.265l70.57-2.373m-70.57 2.373l53.09 18.292m-53.09-18.292l-20.07 18.273m38.07-35.538l52.57 14.892m-52.57-14.892l68.12-6.175m-252.49 41.62l73.15.056m0 0l73.15.037m90.64-20.646l-17.48 20.665m17.48-20.665l15.55-21.067m-15.55 21.067l70.6-1.56m-70.6 1.56l55.68 20.702m-73.16-.037l-73.16-.019m73.16.019l73.16.037m-40.13-41.769l55.05 19.507m-55.05-19.507l68.25-3.223m-13.2 22.73l13.2-22.73m-13.2 22.73l70.71.485m-70.71-.485l-14.92 22.262m14.92-22.262l58.26 22.318m-45.06-45.048l57.51 23.215m-57.51-23.215l68.62.206m-68.62-.206l68.62.215m-11.11 23l11.11-23.009m-11.11 23.009l70.91-.009m-70.91.009l11.11-23m-11.11 23l-12.45 21.833m12.45-21.833l60.74 21.898m-49.63-44.907l59.8 23m-59.8-23l68.97 1.083m-9.17 21.917l9.17-21.917m-9.17 21.917l-59.8-22.991m59.8 22.991l70.98.57m-70.98-.57l63.04 21.963m-63.04-21.963l-10.17 21.907m-49.63-44.898l68.97 1.074m0 0l61.81 22.487m-61.81-22.487l69.08 1.831m-234.79 41.872l73.18.056m0 0l73.19.065m81.15-21.337l-7.94 21.393m7.94-21.393l7.27-20.656m-7.27 20.656l71.04.747m-71.04-.747l65.28 21.45m-73.22-.057l-73.21-.056m73.21.056l73.22.057m-58.01-42.106l63.77 21.403m-63.77-21.403l69.08 1.822m-69.08-1.822l69.08 1.832m-5.31 19.571l5.31-19.571m-5.31 19.571l5.31-19.581m-5.31 19.581l71 .561m-71-.561l-5.76 20.703m5.76-20.703l67.47 20.749m-62.16-40.33l65.69 20.142m-65.69-20.142l68.99 1.065m-68.99-1.055l68.99 1.055m-68.99-1.055l65.69 20.132m0 0l3.3-19.077m-3.3 19.077l70.95-.019m-70.95.019l-3.53 20.188m3.53-20.188L1732.76 855m-66.41-39.312l67.65 19.058m0 0L1732.76 855m-146.47-.093l73.23.046m0 0l73.24.047" stroke="#fff" stroke-width=".3" stroke-miterlimit="10" stroke-linejoin="round"/></g></svg>