<svg width="287" height="314" fill="none" xmlns="http://www.w3.org/2000/svg"><path opacity=".3" d="M143 52h27c5.523 0 10-4.477 10-10V12c0-5.523-4.477-10-10-10h-54c-5.523 0-10 4.477-10 10v30c0 5.523 4.477 10 10 10h27zm0 0v26m0 24h-27c-5.523 0-10 4.477-10 10v30c0 5.523 4.477 10 10 10h27m0-50h27c5.523 0 10 4.477 10 10v30c0 5.523-4.477 10-10 10h-27m0-50V78m0 74v30m0 0h-26c-5.523 0-10 4.477-10 10v30c0 5.523 4.477 10 10 10h27m-1-50h28c5.523 0 10 4.477 10 10v30c0 5.523-4.477 10-10 10h-27m0 0v30m0 0h-27c-5.523 0-10 4.477-10 10v30c0 5.523 4.477 10 10 10h54c5.523 0 10-4.477 10-10v-30c0-5.523-4.477-10-10-10h-27zm104-110h27c5.523 0 10-4.477 10-10v-30c0-5.523-4.477-10-10-10h-27m0 50h-27c-5.523 0-10-4.477-10-10v-30c0-5.523 4.477-10 10-10h27m0 50v30m0 0h-27c-5.523 0-10 4.477-10 10v30c0 5.523 4.477 10 10 10h54c5.523 0 10-4.477 10-10v-30c0-5.523-4.477-10-10-10h-27zM39 102H12c-5.523 0-10 4.477-10 10v30c0 5.523 4.477 10 10 10h54c5.523 0 10-4.477 10-10v-30c0-5.523-4.477-10-10-10H39zm0 0V88c0-5.523 4.477-10 10-10h94m105 24V88c0-5.523-4.477-10-10-10h-95" stroke="#007668" stroke-width="4"/></svg>