<svg width="65" height="53" fill="none" xmlns="http://www.w3.org/2000/svg"><path d="M25.629 24.728h-11.28a1.41 1.41 0 01-1.42-1.402 1.41 1.41 0 011.42-1.402h11.28a1.41 1.41 0 011.419 1.402c0 .772-.635 1.402-1.42 1.402zM25.973 31.76H1.42A1.41 1.41 0 010 30.356a1.41 1.41 0 011.419-1.401h24.554a1.41 1.41 0 011.42 1.401 1.405 1.405 0 01-1.42 1.402z" fill="#FFD600"/><path d="M41.916 53c-7.337 0-14.074-3.33-18.477-9.132-.472-.62-.345-1.5.283-1.963a1.427 1.427 0 011.987.28c3.864 5.091 9.77 8.008 16.204 8.008 11.162 0 20.243-8.971 20.243-20 0-11.028-9.08-20-20.243-20-6.441 0-12.35 2.924-16.214 8.027a1.434 1.434 0 01-1.99.284 1.395 1.395 0 01-.286-1.966c4.406-5.815 11.143-9.148 18.49-9.148 12.728 0 23.084 10.232 23.084 22.807S54.644 53 41.916 53z" fill="#FFD600"/><path d="M41.916 10.197a1.41 1.41 0 01-1.42-1.402V1.402A1.407 1.407 0 0141.917 0a1.41 1.41 0 011.418 1.402v7.39c0 .775-.634 1.405-1.419 1.405z" fill="#FFD600"/><path d="M45.77 2.807h-7.713a1.41 1.41 0 01-1.418-1.402A1.41 1.41 0 0138.057.003h7.713a1.41 1.41 0 011.42 1.402 1.407 1.407 0 01-1.42 1.402zM41.916 34.392a1.43 1.43 0 01-1.069-.475l-5.053-5.677a1.396 1.396 0 01.127-1.981 1.438 1.438 0 012.006.126l5.053 5.676c.517.58.46 1.468-.127 1.982-.271.233-.603.35-.937.35z" fill="#FFD600"/><path d="M41.916 34.392c-.399 0-.797-.166-1.078-.49a1.388 1.388 0 01.153-1.98l10.107-8.558a1.428 1.428 0 012.003.151 1.39 1.39 0 01-.153 1.979L42.84 34.052c-.268.23-.6.34-.924.34zM25.629 38.61H9.106a1.41 1.41 0 01-1.418-1.401 1.41 1.41 0 011.418-1.402h16.52a1.41 1.41 0 011.419 1.402 1.407 1.407 0 01-1.416 1.401z" fill="#FFD600"/></svg>