<svg width="28" height="29" viewBox="0 0 28 29" fill="none" xmlns="http://www.w3.org/2000/svg">
<path fill-rule="evenodd" clip-rule="evenodd" d="M0 3.96285C0 2.10672 1.50614 0.600586 3.36227 0.600586C5.21723 0.600586 6.72337 2.10672 6.72454 3.96285C6.72454 5.81899 5.2184 7.35662 3.36227 7.35662C1.50614 7.35662 0 5.81899 0 3.96285ZM27.993 28.6V28.5988H28V18.33C28 13.3064 26.9185 9.43668 21.0456 9.43668C18.2224 9.43668 16.3277 10.986 15.5542 12.4548H15.4726V9.90567H9.90418V28.5988H15.7024V19.3427C15.7024 16.9055 16.1644 14.5489 19.1825 14.5489C22.1563 14.5489 22.2006 17.3302 22.2006 19.499V28.6H27.993ZM0.460777 9.90791H6.266V28.601H0.460777V9.90791Z" fill="#022723"/>
</svg>
