<svg width="24" height="24" viewBox="0 0 24 24" fill="none" xmlns="http://www.w3.org/2000/svg">
<path fill-rule="evenodd" clip-rule="evenodd" d="M12.0048 5.83644C8.60048 5.83644 5.83836 8.59784 5.83836 12.0017C5.83836 15.4056 8.60048 18.167 12.0048 18.167C15.4093 18.167 18.1713 15.4056 18.1713 12.0017C18.1713 8.59784 15.4093 5.83644 12.0048 5.83644ZM12.0048 16.001C9.79625 16.001 8.00479 14.21 8.00479 12.0017C8.00479 9.79339 9.79625 8.00245 12.0048 8.00245C14.2136 8.00245 16.0048 9.79339 16.0048 12.0017C16.0048 14.21 14.2136 16.001 12.0048 16.001Z" fill="white"/>
<path d="M18.4152 7.03173C19.2103 7.03173 19.8549 6.38725 19.8549 5.59242C19.8549 4.79741 19.2103 4.15312 18.4152 4.15312C17.6202 4.15312 16.9756 4.79741 16.9756 5.59242C16.9756 6.38725 17.6202 7.03173 18.4152 7.03173Z" fill="white"/>
<path fill-rule="evenodd" clip-rule="evenodd" d="M23.939 7.05606C23.8828 5.78085 23.6765 4.90415 23.381 4.14448C23.0762 3.33811 22.6073 2.61617 21.9929 2.01602C21.3927 1.40652 20.6658 0.932921 19.8686 0.632936C19.1044 0.337529 18.2321 0.131312 16.9567 0.0750878C15.6717 0.0141019 15.2637 0 12.0047 0C8.74559 0 8.33765 0.0141019 7.05743 0.0703262C5.78197 0.126551 4.9051 0.332951 4.14547 0.628174C3.33876 0.932921 2.61668 1.40176 2.01641 2.01602C1.4068 2.61617 0.933285 3.34287 0.633058 4.1399C0.337595 4.90415 0.131338 5.77609 0.0751024 7.0513C0.0141046 8.33603 0 8.74389 0 12.0023C0 15.2608 0.0141046 15.6686 0.0703398 16.9486C0.126575 18.2238 0.333015 19.1005 0.628479 19.8602C0.933285 20.6666 1.4068 21.3885 2.01641 21.9887C2.61668 22.5981 3.34352 23.0718 4.14071 23.3717C4.9051 23.6671 5.77721 23.8734 7.05285 23.9296C8.33289 23.986 8.74101 23.9999 12.0001 23.9999C15.2592 23.9999 15.6671 23.986 16.9473 23.9296C18.2228 23.8734 19.0996 23.6671 19.8593 23.3717C21.4725 22.7481 22.748 21.4729 23.3717 19.8602C23.667 19.0959 23.8734 18.2238 23.9296 16.9486C23.9859 15.6686 24 15.2608 24 12.0023C24 8.74389 23.9952 8.33603 23.939 7.05606ZM21.7773 16.8548C21.7257 18.0269 21.5288 18.6599 21.3646 19.0818C20.9613 20.1274 20.1313 20.9572 19.0855 21.3605C18.6635 21.5246 18.0259 21.7215 16.8581 21.7729C15.592 21.8293 15.2123 21.8432 12.0094 21.8432C8.80658 21.8432 8.4221 21.8293 7.16056 21.7729C5.98823 21.7215 5.35517 21.5246 4.93313 21.3605C4.41273 21.1682 3.93903 20.8634 3.55454 20.4649C3.15595 20.0757 2.85114 19.6069 2.65881 19.0866C2.49468 18.6646 2.29777 18.0269 2.2463 16.8596C2.18988 15.5937 2.17596 15.2139 2.17596 12.0117C2.17596 8.80945 2.18988 8.42504 2.2463 7.16393C2.29777 5.99183 2.49468 5.35889 2.65881 4.93693C2.85114 4.41645 3.15595 3.94303 3.55931 3.55843C3.94837 3.15992 4.4173 2.85517 4.93789 2.66305C5.35993 2.49896 5.99775 2.30208 7.16532 2.25044C8.43144 2.19421 8.81135 2.18011 12.014 2.18011C15.2216 2.18011 15.6013 2.19421 16.8629 2.25044C18.0352 2.30208 18.6683 2.49896 19.0903 2.66305C19.6107 2.85517 20.0844 3.15992 20.4689 3.55843C20.8675 3.94761 21.1723 4.41645 21.3646 4.93693C21.5288 5.35889 21.7257 5.99641 21.7773 7.16393C21.8336 8.4298 21.8477 8.80945 21.8477 12.0117C21.8477 15.2139 21.8336 15.589 21.7773 16.8548Z" fill="white"/>
</svg>
