<svg width="22" height="22" viewBox="0 0 22 22" fill="none" xmlns="http://www.w3.org/2000/svg">
<path fill-rule="evenodd" clip-rule="evenodd" d="M0.397461 2.59384C0.397461 1.16192 1.55938 0 2.9913 0C4.42232 0 5.58424 1.16192 5.58514 2.59384C5.58514 4.02576 4.42322 5.21198 2.9913 5.21198C1.55938 5.21198 0.397461 4.02576 0.397461 2.59384ZM21.9928 21.6003V21.5994H21.9982V13.6775C21.9982 9.80199 21.1639 6.81665 16.6332 6.81665C14.4552 6.81665 12.9936 8.01187 12.3969 9.14499H12.3338V7.17846H8.03809V21.5994H12.5112V14.4587C12.5112 12.5785 12.8676 10.7605 15.1959 10.7605C17.49 10.7605 17.5242 12.9061 17.5242 14.5793V21.6003H21.9928ZM0.75293 7.18018H5.2314V21.6011H0.75293V7.18018Z" fill="white"/>
</svg>
