<svg width="73" height="83" viewBox="0 0 73 83" fill="none" xmlns="http://www.w3.org/2000/svg">
<g clip-path="url(#clip0_487_18963)">
<path d="M57.6049 18.7835L61.1225 12.6647C61.2832 12.385 61.3263 12.0528 61.2422 11.7413C61.1581 11.4298 60.9537 11.1645 60.674 11.0036L55.7004 8.14659C55.4206 7.98589 55.0883 7.94293 54.7768 8.02717C54.4653 8.1114 54.2 8.31593 54.0393 8.59577L50.5273 14.7083C47.3606 13.3423 44.0106 12.4488 40.5843 12.0563V8.33711H43.0527C43.3754 8.33711 43.6849 8.20891 43.9131 7.98072C44.1413 7.75252 44.2695 7.44303 44.2695 7.12031V1.38538C44.2696 1.22556 44.2382 1.06729 44.177 0.91962C44.1159 0.77195 44.0263 0.637775 43.9133 0.524767C43.8003 0.411759 43.6661 0.322134 43.5184 0.261016C43.3708 0.199899 43.2125 0.168488 43.0527 0.168579H29.9474C29.7876 0.168488 29.6293 0.199899 29.4817 0.261016C29.334 0.322134 29.1998 0.411759 29.0868 0.524767C28.9738 0.637775 28.8842 0.77195 28.8231 0.91962C28.7619 1.06729 28.7305 1.22556 28.7306 1.38538V7.12031C28.7306 7.44303 28.8588 7.75252 29.087 7.98072C29.3152 8.20891 29.6247 8.33711 29.9474 8.33711H32.4158V12.0529C28.9895 12.4454 25.6395 13.3389 22.4728 14.7048L18.9608 8.59229C18.8813 8.45366 18.7752 8.33207 18.6487 8.23446C18.5221 8.13684 18.3776 8.06513 18.2233 8.02342C18.0691 7.9817 17.9081 7.9708 17.7496 7.99134C17.5911 8.01188 17.4382 8.06345 17.2997 8.14312L12.3261 11.0002C12.0464 11.161 11.842 11.4263 11.7579 11.7378C11.6738 12.0493 11.7169 12.3815 11.8776 12.6613L15.3952 18.7835C9.38413 23.2258 4.92803 29.4515 2.6616 36.5741C0.39517 43.6966 0.433992 51.3527 2.77254 58.4518C5.11108 65.551 9.63009 71.7313 15.6859 76.1124C21.7418 80.4934 29.0256 82.8519 36.5 82.8519C43.9745 82.8519 51.2583 80.4934 57.3142 76.1124C63.37 71.7313 67.889 65.551 70.2276 58.4518C72.5661 51.3527 72.6049 43.6966 70.3385 36.5741C68.0721 29.4515 63.616 23.2258 57.6049 18.7835ZM55.5433 10.8569L58.4059 12.5055L55.5912 17.4047C54.6642 16.8123 53.7109 16.2625 52.7314 15.7554L55.5433 10.8569ZM31.1642 2.60217H41.8359V5.90352H31.1642V2.60217ZM34.8494 8.33711H38.1507V11.8533C37.6035 11.8276 37.0563 11.8102 36.5 11.8102C35.9438 11.8102 35.3966 11.8269 34.8494 11.8526V8.33711ZM14.5942 12.5055L17.4568 10.8611L20.2687 15.7554C19.2883 16.2616 18.335 16.8113 17.4089 17.4047L14.5942 12.5055ZM36.5 80.3979C29.9581 80.3979 23.563 78.458 18.1235 74.8234C12.6841 71.1889 8.44457 66.023 5.94109 59.9789C3.43761 53.9349 2.78262 47.2843 4.05895 40.868C5.33528 34.4517 8.4856 28.558 13.1115 23.9322C17.7375 19.3064 23.6312 16.1562 30.0475 14.88C36.4638 13.6038 43.1145 14.2589 49.1584 16.7625C55.2024 19.2661 60.3682 23.5057 64.0027 28.9453C67.6371 34.3848 69.5769 40.7799 69.5768 47.3219C69.5666 56.0912 66.0785 64.4985 59.8776 70.6992C53.6767 76.9 45.2694 80.388 36.5 80.3979Z" fill="#007668"/>
<path d="M60.4245 61.0112C62.8309 56.8235 64.091 52.0754 64.0778 47.2454C64.0647 42.4155 62.7786 37.6744 60.3494 33.4998C60.3333 33.4582 60.3147 33.4176 60.2938 33.3781C60.2722 33.3457 60.249 33.3144 60.2242 33.2843C57.8302 29.2568 54.4562 25.9004 50.4161 23.5276C50.383 23.5003 50.3481 23.475 50.3118 23.4518C50.2724 23.4314 50.2318 23.4133 50.1902 23.3976C46.0027 20.9911 41.2549 19.7308 36.4252 19.7439C31.5954 19.7569 26.8545 21.0428 22.6801 23.472C22.6379 23.4887 22.5965 23.5078 22.5564 23.529C22.5244 23.5506 22.4935 23.5738 22.4639 23.5986C18.4358 25.9925 15.0788 29.3665 12.7052 33.4066C12.6475 33.4724 12.6035 33.549 12.5758 33.6319C10.1694 37.8196 8.90928 42.5675 8.92247 47.3974C8.93565 52.2272 10.2217 56.9682 12.6509 61.1427C12.6672 61.1845 12.6858 61.2253 12.7066 61.265C12.7219 61.2915 12.7448 61.3109 12.7615 61.3346C15.1558 65.3717 18.5343 68.736 22.5814 71.1134C22.6154 71.1411 22.6509 71.1669 22.6878 71.1906C22.7184 71.208 22.7517 71.215 22.783 71.2303C26.9781 73.6465 31.737 74.9117 36.5782 74.8979C41.4193 74.8841 46.1709 73.5918 50.3522 71.1517C50.3821 71.1371 50.4141 71.1308 50.4433 71.1134C50.4725 71.0961 50.5044 71.0682 50.5357 71.0439C54.5729 68.6447 57.9359 65.2612 60.3104 61.2094C60.3292 61.1823 60.3529 61.1621 60.3695 61.1329C60.3905 61.0936 60.4089 61.053 60.4245 61.0112ZM50.2416 68.3621L48.6779 65.697C48.5147 65.4185 48.2475 65.2163 47.9352 65.1348C47.6229 65.0533 47.291 65.0992 47.0126 65.2624C46.7341 65.4256 46.5319 65.6927 46.4504 66.005C46.3689 66.3173 46.4148 66.6492 46.578 66.9277L48.1439 69.599C44.9163 71.2955 41.3563 72.2643 37.7142 72.4373V69.3327C37.7142 69.01 37.586 68.7005 37.3578 68.4723C37.1296 68.2441 36.8201 68.1159 36.4974 68.1159C36.1747 68.1159 35.8652 68.2441 35.637 68.4723C35.4088 68.7005 35.2806 69.01 35.2806 69.3327V72.4373C31.6871 72.2649 28.1734 71.3176 24.9802 69.6602L26.5308 66.9812C26.6873 66.7022 26.7277 66.3728 26.6432 66.0642C26.5587 65.7557 26.356 65.4928 26.0791 65.3326C25.8022 65.1723 25.4734 65.1276 25.1637 65.208C24.8541 65.2884 24.5886 65.4876 24.4247 65.7623L22.8762 68.4386C19.9178 66.5225 17.3917 64.0104 15.4593 61.0627L18.1272 59.4996C18.4042 59.3358 18.6049 59.0689 18.6855 58.7574C18.7662 58.4458 18.7201 58.1151 18.5575 57.8374C18.3949 57.5598 18.1289 57.3578 17.8177 57.2758C17.5066 57.1938 17.1756 57.2384 16.8972 57.3998L14.2258 58.9656C12.5291 55.7382 11.5601 52.1781 11.3869 48.5359H14.4914C14.8141 48.5359 15.1236 48.4077 15.3518 48.1796C15.58 47.9514 15.7082 47.6419 15.7082 47.3191C15.7082 46.9964 15.58 46.6869 15.3518 46.4587C15.1236 46.2305 14.8141 46.1024 14.4914 46.1024H11.3869C11.5584 42.5081 12.505 38.9934 14.1619 35.7992L16.8416 37.3491C17.1204 37.5024 17.4481 37.5405 17.7547 37.4551C18.0612 37.3697 18.322 37.1676 18.4813 36.8922C18.6407 36.6167 18.6857 36.2898 18.6069 35.9816C18.5281 35.6733 18.3317 35.4082 18.0598 35.243L15.3842 33.6945C17.3001 30.7372 19.8117 28.2121 22.7587 26.2804L24.3225 28.9483C24.4863 29.2252 24.7532 29.426 25.0647 29.5066C25.3762 29.5873 25.707 29.5412 25.9847 29.3786C26.2623 29.2159 26.4643 28.9499 26.5463 28.6388C26.6283 28.3276 26.5837 27.9967 26.4223 27.7183L24.8565 25.0469C28.0838 23.35 31.6439 22.3812 35.2861 22.2086V25.3125C35.2861 25.6352 35.4143 25.9447 35.6425 26.1729C35.8707 26.4011 36.1802 26.5293 36.5029 26.5293C36.8257 26.5293 37.1352 26.4011 37.3633 26.1729C37.5915 25.9447 37.7197 25.6352 37.7197 25.3125V22.2086C41.3139 22.38 44.8286 23.3264 48.0229 24.9829L46.4695 27.6634C46.387 27.8018 46.3327 27.9552 46.31 28.1147C46.2872 28.2742 46.2963 28.4367 46.3368 28.5927C46.3773 28.7486 46.4484 28.895 46.546 29.0233C46.6435 29.1516 46.7656 29.2592 46.905 29.3399C47.0445 29.4206 47.1986 29.4728 47.3584 29.4935C47.5183 29.5142 47.6806 29.5029 47.836 29.4603C47.9914 29.4177 48.1368 29.3447 48.2638 29.2455C48.3908 29.1462 48.4968 29.0228 48.5756 28.8822L50.1241 26.2032C53.0826 28.1196 55.6088 30.6323 57.541 33.5805L54.8731 35.1435C54.7345 35.2239 54.6131 35.3309 54.5159 35.4583C54.4187 35.5857 54.3477 35.7311 54.3069 35.886C54.266 36.041 54.2562 36.2025 54.2779 36.3612C54.2997 36.52 54.3525 36.6729 54.4335 36.8112C54.5145 36.9494 54.622 37.0704 54.7499 37.167C54.8777 37.2636 55.0234 37.334 55.1785 37.3741C55.3337 37.4143 55.4952 37.4234 55.6539 37.401C55.8125 37.3785 55.9652 37.325 56.1031 37.2434L58.7752 35.6775C60.4713 38.9052 61.4401 42.4651 61.6135 46.1072H58.5089C58.1862 46.1072 57.8767 46.2354 57.6485 46.4636C57.4203 46.6918 57.2921 47.0013 57.2921 47.324C57.2921 47.6467 57.4203 47.9562 57.6485 48.1844C57.8767 48.4126 58.1862 48.5408 58.5089 48.5408H61.6135C61.4415 52.1341 60.4949 55.6478 58.8385 58.8412L56.1594 57.2906C55.88 57.129 55.5479 57.085 55.2361 57.1682C54.9242 57.2515 54.6582 57.4552 54.4966 57.7346C54.3349 58.014 54.2909 58.3461 54.3742 58.6579C54.4574 58.9698 54.6612 59.2358 54.9405 59.3974L57.6161 60.9459C55.7005 63.9039 53.1888 66.4298 50.2416 68.3621Z" fill="#007668"/>
<path d="M54.852 47.3219C54.852 46.9992 54.7238 46.6897 54.4956 46.4615C54.2674 46.2333 53.9579 46.1051 53.6352 46.1051H41.9192C41.6869 45.0793 41.169 44.1402 40.4253 43.3964C39.6816 42.6526 38.7425 42.1344 37.7167 41.902V30.1866C37.7167 29.8639 37.5885 29.5544 37.3604 29.3262C37.1322 29.098 36.8227 28.9698 36.5 28.9698C36.1772 28.9698 35.8677 29.098 35.6395 29.3262C35.4114 29.5544 35.2832 29.8639 35.2832 30.1866V41.902C34.3124 42.1194 33.4177 42.5935 32.6927 43.2747C31.9677 43.9559 31.4389 44.8193 31.1615 45.7747C30.8841 46.7301 30.8683 47.7424 31.1158 48.706C31.3633 49.6696 31.8649 50.5491 32.5683 51.2526C33.2718 51.9561 34.1512 52.4578 35.1147 52.7054C36.0783 52.9529 37.0906 52.9373 38.046 52.66C39.0015 52.3827 39.8649 51.854 40.5462 51.129C41.2275 50.4041 41.7017 49.5095 41.9192 48.5387H53.6352C53.9579 48.5385 54.2673 48.4103 54.4954 48.1821C54.7236 47.954 54.8518 47.6446 54.852 47.3219ZM36.5 50.446C35.8819 50.4461 35.2776 50.2629 34.7637 49.9196C34.2497 49.5763 33.8491 49.0883 33.6125 48.5173C33.3759 47.9463 33.314 47.318 33.4345 46.7118C33.5551 46.1056 33.8527 45.5488 34.2897 45.1117C34.7268 44.6747 35.2836 44.3771 35.8898 44.2565C36.496 44.136 37.1244 44.1979 37.6954 44.4345C38.2664 44.6711 38.7544 45.0717 39.0977 45.5857C39.441 46.0996 39.6241 46.7039 39.624 47.3219C39.6227 48.1501 39.2932 48.9439 38.7076 49.5295C38.122 50.1151 37.3281 50.4447 36.5 50.446Z" fill="#FFB800"/>
</g>
<defs>
<clipPath id="clip0_487_18963">
<rect width="73" height="83" fill="white"/>
</clipPath>
</defs>
</svg>
