<svg width="74" height="74" viewBox="0 0 74 74" fill="none" xmlns="http://www.w3.org/2000/svg">
<g clip-path="url(#clip0_487_18968)">
<path d="M69.0191 38.1859V27.5128C69.0191 24.2433 66.3591 21.5833 63.0896 21.5833H32.2563C31.3277 21.5833 30.4608 21.817 29.6782 22.1988C27.891 20.1235 25.6497 18.5854 23.1332 17.7078C25.7623 16.0179 27.5127 13.0745 27.5127 9.72436C27.5127 4.49337 23.2565 0.237183 18.0255 0.237183C12.7945 0.237183 8.53834 4.49337 8.53834 9.72436C8.53834 13.084 10.2982 16.0333 12.9392 17.7197C6.93382 19.827 2.60886 25.5395 2.60886 32.2564V38.1859H0.237061V73.7628H73.7627V38.1859H69.0191ZM39.3717 57.1603V52.4167H55.9742V57.1603H39.3717ZM32.2563 50.0449C30.2948 50.0449 28.6986 48.4487 28.6986 46.4872V45.3013H66.6473V46.4872C66.6473 48.4487 65.0511 50.0449 63.0896 50.0449H32.2563ZM63.0896 23.9551C65.0511 23.9551 66.6473 25.5513 66.6473 27.5128V42.9295H28.6986V27.5128C28.6986 25.5513 30.2948 23.9551 32.2563 23.9551H63.0896ZM10.9101 9.72436C10.9101 5.80023 14.1014 2.60898 18.0255 2.60898C21.9497 2.60898 25.1409 5.80023 25.1409 9.72436C25.1409 13.6485 21.9497 16.8397 18.0255 16.8397C14.1014 16.8397 10.9101 13.6485 10.9101 9.72436ZM4.98065 32.2564C4.98065 25.0639 10.8331 19.2115 18.0255 19.2115C21.8216 19.2115 25.3212 20.8244 27.7997 23.6444C26.8948 24.6856 26.3268 26.0281 26.3268 27.5128V38.1859H10.9101V27.5128H8.53834V38.1859H4.98065V32.2564ZM26.3268 40.5577V46.4872C26.3268 49.7567 28.9868 52.4167 32.2563 52.4167H36.9999V57.1603H32.2563V59.5321H63.0896V57.1603H58.346V52.4167H63.0896C66.3591 52.4167 69.0191 49.7567 69.0191 46.4872V40.5577H71.3909V64.2756H2.60886V40.5577H26.3268ZM2.60886 71.391V66.6474H71.3909V71.391H2.60886Z" fill="#007668"/>
<path d="M15.6538 61.9038C19.2589 61.9038 26.3269 60.4712 26.3269 57.1602V47.673C26.3269 44.362 19.2589 42.9294 15.6538 42.9294C12.0487 42.9294 4.98071 44.362 4.98071 47.673V57.1602C4.98071 60.4712 12.0487 61.9038 15.6538 61.9038ZM15.6538 59.532C11.5767 59.532 7.58376 57.9239 7.35251 57.1602V55.341C9.73972 56.5898 13.3828 57.1602 15.6538 57.1602C17.926 57.1602 21.5702 56.5898 23.9574 55.3399V57.1329C23.7238 57.9239 19.7309 59.532 15.6538 59.532ZM15.6538 45.3012C19.6847 45.3012 23.6325 46.8737 23.9491 47.673C23.6325 48.4723 19.6847 50.0448 15.6538 50.0448C11.585 50.0448 7.60273 48.4427 7.35251 47.7062V47.6956C7.60273 46.9034 11.585 45.3012 15.6538 45.3012ZM7.35251 50.5975C9.73972 51.8462 13.3828 52.4166 15.6538 52.4166C17.926 52.4166 21.569 51.8462 23.9563 50.5975V52.3917C23.7143 53.1839 19.7273 54.7884 15.6538 54.7884C11.5767 54.7884 7.58376 53.1803 7.35251 52.4166V50.5975Z" fill="#FFB800"/>
<path d="M34.5577 11.859C35.2858 11.859 35.963 11.6372 36.5275 11.2601L40.6651 14.3636C40.5595 14.698 40.4872 15.0479 40.4872 15.4167C40.4872 17.3781 42.0834 18.9744 44.0449 18.9744C46.0063 18.9744 47.6026 17.3781 47.6026 15.4167C47.6026 14.8688 47.4686 14.3565 47.2456 13.8928L52.007 9.13141C52.4719 9.35317 52.9842 9.48718 53.532 9.48718C54.0799 9.48718 54.5922 9.35317 55.0559 9.13023L57.4455 11.5198C57.2237 11.9847 57.0897 12.497 57.0897 13.0449C57.0897 15.0063 58.686 16.6026 60.6474 16.6026C62.6089 16.6026 64.2051 15.0063 64.2051 13.0449C64.2051 12.497 64.0711 11.9847 63.8482 11.521L68.6096 6.75962C69.0744 6.98138 69.5867 7.11539 70.1346 7.11539C72.0961 7.11539 73.6923 5.51917 73.6923 3.55769C73.6923 1.59622 72.0961 0 70.1346 0C68.1731 0 66.5769 1.59622 66.5769 3.55769C66.5769 4.10558 66.7109 4.61788 66.9339 5.08157L62.1725 9.84295C61.7076 9.62119 61.1953 9.48718 60.6474 9.48718C60.0996 9.48718 59.5872 9.62119 59.1236 9.84413L56.734 7.45455C56.9557 6.98968 57.0897 6.47737 57.0897 5.92949C57.0897 3.96801 55.4935 2.37179 53.532 2.37179C51.5706 2.37179 49.9744 3.96801 49.9744 5.92949C49.9744 6.47737 50.1084 6.98968 50.3313 7.45337L45.5699 12.2147C45.1051 11.993 44.5928 11.859 44.0449 11.859C43.3167 11.859 42.6396 12.0807 42.0751 12.4579L37.9375 9.35436C38.043 9.01994 38.1154 8.6701 38.1154 8.30128C38.1154 6.33981 36.5192 4.74359 34.5577 4.74359C32.5962 4.74359 31 6.33981 31 8.30128C31 10.2628 32.5962 11.859 34.5577 11.859ZM70.1346 2.37179C70.788 2.37179 71.3205 2.90426 71.3205 3.55769C71.3205 4.21112 70.788 4.74359 70.1346 4.74359C69.4812 4.74359 68.9487 4.21112 68.9487 3.55769C68.9487 2.90426 69.4812 2.37179 70.1346 2.37179ZM61.8333 13.0449C61.8333 13.6983 61.3009 14.2308 60.6474 14.2308C59.994 14.2308 59.4615 13.6983 59.4615 13.0449C59.4615 12.3914 59.994 11.859 60.6474 11.859C61.3009 11.859 61.8333 12.3914 61.8333 13.0449ZM53.532 4.74359C54.1855 4.74359 54.7179 5.27606 54.7179 5.92949C54.7179 6.58292 54.1855 7.11539 53.532 7.11539C52.8786 7.11539 52.3462 6.58292 52.3462 5.92949C52.3462 5.27606 52.8786 4.74359 53.532 4.74359ZM44.0449 14.2308C44.6983 14.2308 45.2308 14.7632 45.2308 15.4167C45.2308 16.0701 44.6983 16.6026 44.0449 16.6026C43.3914 16.6026 42.859 16.0701 42.859 15.4167C42.859 14.7632 43.3914 14.2308 44.0449 14.2308ZM34.5577 7.11539C35.2111 7.11539 35.7436 7.64785 35.7436 8.30128C35.7436 8.95471 35.2111 9.48718 34.5577 9.48718C33.9043 9.48718 33.3718 8.95471 33.3718 8.30128C33.3718 7.64785 33.9043 7.11539 34.5577 7.11539Z" fill="#FFB800"/>
<path d="M63.0897 38.1859H60.7179V26.3269H53.6025V38.1859H51.2307V31.0705H44.1153V38.1859H41.7435V28.6987H34.6281V38.1859H32.2563V40.5577H63.0897V38.1859ZM55.9743 28.6987H58.3461V38.1859H55.9743V28.6987ZM46.4871 33.4423H48.8589V38.1859H46.4871V33.4423ZM36.9999 31.0705H39.3717V38.1859H36.9999V31.0705Z" fill="#007668"/>
</g>
<defs>
<clipPath id="clip0_487_18968">
<rect width="74" height="74" fill="white"/>
</clipPath>
</defs>
</svg>
