<svg width="69" height="73" viewBox="0 0 69 73" fill="none" xmlns="http://www.w3.org/2000/svg">
<g clip-path="url(#clip0_487_18973)">
<path d="M55.5234 72.7899H1.79688C1.48711 72.7899 1.19003 72.6665 0.970996 72.447C0.75196 72.2274 0.628906 71.9297 0.628906 71.6192V1.38072C0.628906 1.07025 0.75196 0.772494 0.970996 0.552956C1.19003 0.333418 1.48711 0.210083 1.79688 0.210083H40.3398C40.6496 0.210149 40.9466 0.333528 41.1656 0.553081L56.3492 15.7714C56.5682 15.9909 56.6913 16.2886 56.6914 16.5991V48.2064C56.6914 48.5169 56.5684 48.8146 56.3493 49.0342C56.1303 49.2537 55.8332 49.377 55.5234 49.377C55.2137 49.377 54.9166 49.2537 54.6976 49.0342C54.4785 48.8146 54.3555 48.5169 54.3555 48.2064V17.0837L39.8563 2.55137H2.96484V70.4486H55.5234C55.8332 70.4486 56.1303 70.5719 56.3493 70.7915C56.5684 71.011 56.6914 71.3087 56.6914 71.6192C56.6914 71.9297 56.5684 72.2274 56.3493 72.447C56.1303 72.6665 55.8332 72.7899 55.5234 72.7899Z" fill="#007668"/>
<path d="M55.5234 17.7697H40.3398C40.0301 17.7697 39.733 17.6464 39.514 17.4268C39.2949 17.2073 39.1719 16.9095 39.1719 16.5991V1.38072C39.1719 1.14922 39.2405 0.922942 39.3688 0.730476C39.4971 0.538011 39.6795 0.388006 39.8929 0.299423C40.1063 0.210841 40.3411 0.187659 40.5676 0.232808C40.7942 0.277956 41.0023 0.389409 41.1656 0.553076L56.3492 15.7714C56.5125 15.9351 56.6237 16.1437 56.6687 16.3707C56.7138 16.5978 56.6906 16.8331 56.6023 17.047C56.5139 17.2609 56.3642 17.4437 56.1722 17.5723C55.9802 17.701 55.7544 17.7696 55.5234 17.7697ZM41.5078 15.4284H52.704L41.5078 4.20665V15.4284Z" fill="#007668"/>
<path d="M43.8438 24.7936H21.6523C21.3426 24.7936 21.0455 24.6702 20.8265 24.4507C20.6074 24.2311 20.4844 23.9334 20.4844 23.6229C20.4844 23.3124 20.6074 23.0147 20.8265 22.7951C21.0455 22.5756 21.3426 22.4523 21.6523 22.4523H43.8438C44.1535 22.4523 44.4506 22.5756 44.6696 22.7951C44.8887 23.0147 45.0117 23.3124 45.0117 23.6229C45.0117 23.9334 44.8887 24.2311 44.6696 24.4507C44.4506 24.6702 44.1535 24.7936 43.8438 24.7936Z" fill="#007668"/>
<path d="M43.8438 35.3293H21.6523C21.3426 35.3293 21.0455 35.206 20.8265 34.9864C20.6074 34.7669 20.4844 34.4692 20.4844 34.1587C20.4844 33.8482 20.6074 33.5504 20.8265 33.3309C21.0455 33.1114 21.3426 32.988 21.6523 32.988H43.8438C44.1535 32.988 44.4506 33.1114 44.6696 33.3309C44.8887 33.5504 45.0117 33.8482 45.0117 34.1587C45.0117 34.4692 44.8887 34.7669 44.6696 34.9864C44.4506 35.206 44.1535 35.3293 43.8438 35.3293Z" fill="#007668"/>
<path d="M43.8438 45.8651H21.6523C21.3426 45.8651 21.0455 45.7418 20.8265 45.5222C20.6074 45.3027 20.4844 45.0049 20.4844 44.6944C20.4844 44.384 20.6074 44.0862 20.8265 43.8667C21.0455 43.6471 21.3426 43.5238 21.6523 43.5238H43.8438C44.1535 43.5238 44.4506 43.6471 44.6696 43.8667C44.8887 44.0862 45.0117 44.384 45.0117 44.6944C45.0117 45.0049 44.8887 45.3027 44.6696 45.5222C44.4506 45.7418 44.1535 45.8651 43.8438 45.8651Z" fill="#007668"/>
<path d="M35.668 56.4009H21.6523C21.3426 56.4009 21.0455 56.2775 20.8265 56.058C20.6074 55.8384 20.4844 55.5407 20.4844 55.2302C20.4844 54.9197 20.6074 54.622 20.8265 54.4024C21.0455 54.1829 21.3426 54.0596 21.6523 54.0596H35.668C35.9777 54.0596 36.2748 54.1829 36.4938 54.4024C36.7129 54.622 36.8359 54.9197 36.8359 55.2302C36.8359 55.5407 36.7129 55.8384 36.4938 56.058C36.2748 56.2775 35.9777 56.4009 35.668 56.4009Z" fill="#007668"/>
<path d="M16.9805 27.1348H12.3086C11.9988 27.1348 11.7018 27.0115 11.4827 26.7919C11.2637 26.5724 11.1406 26.2746 11.1406 25.9642V21.2816C11.1406 20.9711 11.2637 20.6734 11.4827 20.4538C11.7018 20.2343 11.9988 20.111 12.3086 20.111H16.9805C17.2902 20.111 17.5873 20.2343 17.8063 20.4538C18.0254 20.6734 18.1484 20.9711 18.1484 21.2816V25.9642C18.1484 26.2746 18.0254 26.5724 17.8063 26.7919C17.5873 27.0115 17.2902 27.1348 16.9805 27.1348ZM13.4766 24.7935H15.8125V22.4522H13.4766V24.7935Z" fill="#007668"/>
<path d="M16.9805 37.6706H12.3086C11.9988 37.6706 11.7018 37.5472 11.4827 37.3277C11.2637 37.1082 11.1406 36.8104 11.1406 36.4999V31.8174C11.1406 31.5069 11.2637 31.2091 11.4827 30.9896C11.7018 30.7701 11.9988 30.6467 12.3086 30.6467H16.9805C17.2902 30.6467 17.5873 30.7701 17.8063 30.9896C18.0254 31.2091 18.1484 31.5069 18.1484 31.8174V36.4999C18.1484 36.8104 18.0254 37.1082 17.8063 37.3277C17.5873 37.5472 17.2902 37.6706 16.9805 37.6706ZM13.4766 35.3293H15.8125V32.988H13.4766V35.3293Z" fill="#007668"/>
<path d="M16.9805 48.2063H12.3086C11.9988 48.2063 11.7018 48.083 11.4827 47.8635C11.2637 47.6439 11.1406 47.3462 11.1406 47.0357V42.3531C11.1406 42.0427 11.2637 41.7449 11.4827 41.5254C11.7018 41.3058 11.9988 41.1825 12.3086 41.1825H16.9805C17.2902 41.1825 17.5873 41.3058 17.8063 41.5254C18.0254 41.7449 18.1484 42.0427 18.1484 42.3531V47.0357C18.1484 47.3462 18.0254 47.6439 17.8063 47.8635C17.5873 48.083 17.2902 48.2063 16.9805 48.2063ZM13.4766 45.8651H15.8125V43.5238H13.4766V45.8651Z" fill="#007668"/>
<path d="M16.9805 58.7421H12.3086C11.9988 58.7421 11.7018 58.6188 11.4827 58.3992C11.2637 58.1797 11.1406 57.8819 11.1406 57.5715V52.8889C11.1406 52.5784 11.2637 52.2807 11.4827 52.0611C11.7018 51.8416 11.9988 51.7183 12.3086 51.7183H16.9805C17.2902 51.7183 17.5873 51.8416 17.8063 52.0611C18.0254 52.2807 18.1484 52.5784 18.1484 52.8889V57.5715C18.1484 57.8819 18.0254 58.1797 17.8063 58.3992C17.5873 58.6188 17.2902 58.7421 16.9805 58.7421ZM13.4766 56.4008H15.8125V54.0595H13.4766V56.4008Z" fill="#007668"/>
<path d="M54.3553 64.5954C54.0455 64.5953 53.7485 64.4719 53.5295 64.2524L48.8576 59.5698C48.6449 59.349 48.5272 59.0533 48.5298 58.7464C48.5325 58.4394 48.6553 58.1458 48.8719 57.9288C49.0884 57.7117 49.3814 57.5886 49.6876 57.5859C49.9938 57.5833 50.2889 57.7013 50.5092 57.9145L54.3553 61.7694L61.7053 54.4026C61.9256 54.1893 62.2206 54.0714 62.5269 54.074C62.8331 54.0767 63.126 54.1998 63.3426 54.4168C63.5591 54.6339 63.682 54.9275 63.6846 55.2344C63.6873 55.5414 63.5696 55.8371 63.3568 56.0579L55.181 64.2524C54.962 64.4719 54.665 64.5953 54.3553 64.5954Z" fill="#FFB800"/>
<path d="M55.5234 72.7899C52.9824 72.7899 50.4985 72.0347 48.3857 70.6197C46.2729 69.2048 44.6262 67.1936 43.6538 64.8407C42.6813 62.4877 42.4269 59.8985 42.9227 57.4006C43.4184 54.9027 44.642 52.6083 46.4388 50.8074C48.2356 49.0065 50.5248 47.7801 53.017 47.2832C55.5092 46.7863 58.0924 47.0413 60.44 48.016C62.7876 48.9906 64.7942 50.6411 66.2059 52.7587C67.6176 54.8763 68.3711 57.366 68.3711 59.9128C68.3674 63.3269 67.0126 66.6001 64.604 69.0142C62.1954 71.4283 58.9297 72.7862 55.5234 72.7899ZM55.5234 49.3771C53.4444 49.3771 51.4121 49.995 49.6834 51.1527C47.9548 52.3103 46.6075 53.9558 45.8119 55.881C45.0163 57.8061 44.8081 59.9245 45.2137 61.9683C45.6193 64.012 46.6204 65.8893 48.0905 67.3627C49.5606 68.8362 51.4336 69.8396 53.4727 70.2462C55.5118 70.6527 57.6253 70.444 59.5461 69.6466C61.4669 68.8492 63.1086 67.4988 64.2636 65.7662C65.4187 64.0336 66.0352 61.9966 66.0352 59.9128C66.0321 57.1195 64.9236 54.4415 62.9529 52.4663C60.9823 50.4912 58.3104 49.3802 55.5234 49.3771Z" fill="#FFB800"/>
</g>
<defs>
<clipPath id="clip0_487_18973">
<rect width="69" height="73" fill="white"/>
</clipPath>
</defs>
</svg>
