<svg width="26" height="34" viewBox="0 0 26 34" fill="none" xmlns="http://www.w3.org/2000/svg">
<path d="M1 30.0156H9C9 32.2126 10.7944 34 13 34C15.2056 34 17 32.2126 17 30.0156H25C25.5523 30.0156 26 29.5696 26 29.0195C26 25.1874 24.8232 23.7026 23.7849 22.3925C22.8271 21.1841 22 20.1405 22 17V12.9492C22 8.92527 19.3246 5.51232 15.6526 4.38195C15.874 3.96552 16 3.49137 16 2.98828C16 1.34054 14.6542 0 13 0C11.3458 0 10 1.34054 10 2.98828C10 3.49137 10.126 3.96552 10.3474 4.38195C6.6754 5.51232 4 8.92527 4 12.9492V17C4 20.1405 3.17287 21.1841 2.21513 22.3925C1.1768 23.7026 0 25.1874 0 29.0195C0 29.5696 0.447733 30.0156 1 30.0156ZM13 32.0078C11.8972 32.0078 11 31.1141 11 30.015H15C15 31.1141 14.1028 32.0078 13 32.0078ZM12 2.98828C12 2.43904 12.4486 1.99219 13 1.99219C13.5514 1.99219 14 2.43904 14 2.98828C14 3.53753 13.5514 3.98438 13 3.98438C12.4486 3.98438 12 3.53753 12 2.98828ZM3.78487 23.627C4.8232 22.3169 6 20.8322 6 17V12.9492C6 9.1045 9.1402 5.97656 13 5.97656C16.8598 5.97656 20 9.1045 20 12.9492V17C20 20.8322 21.1768 22.3169 22.2151 23.627C23.0637 24.6975 23.8096 25.6389 23.9688 28.0234H2.03127C2.1904 25.6389 2.9364 24.6975 3.78487 23.627Z" fill="white"/>
<path d="M2 12.9492C2 9.05668 4.10807 5.42134 7.50147 3.46182C7.97933 3.18591 8.14207 2.57643 7.86513 2.1005C7.5882 1.62456 6.97613 1.46247 6.49847 1.73832C2.51373 4.03923 0 8.28451 0 12.9492C0 13.4993 0.447733 13.9453 1 13.9453C1.55227 13.9453 2 13.4993 2 12.9492Z" fill="white"/>
<path d="M19.5015 1.73832C19.0237 1.4624 18.4118 1.62456 18.1348 2.1005C17.8579 2.57643 18.0206 3.18591 18.4985 3.46182C21.8919 5.42134 24 9.05668 24 12.9492C24 13.4993 24.4477 13.9453 25 13.9453C25.5523 13.9453 26 13.4993 26 12.9492C26 8.28777 23.489 4.04082 19.5015 1.73832Z" fill="white"/>
</svg>
