<svg width="1880" height="450" viewBox="0 0 1880 450" fill="none" xmlns="http://www.w3.org/2000/svg">
<mask id="mask0_396_39771" style="mask-type:alpha" maskUnits="userSpaceOnUse" x="0" y="0" width="1880" height="450">
<path d="M0 60C0 26.8629 26.8629 0 60 0H1820C1853.14 0 1880 26.8629 1880 60V450H0V60Z" fill="#1D2437"/>
</mask>
<g mask="url(#mask0_396_39771)">
<path opacity="0.3" d="M-1117.29 391.891L-1196.07 399.177M-1117.29 391.891L-1101.84 389.402M-1117.29 391.891L-1035.17 372.257M-1196.07 399.177L-1101.84 389.402M-1196.07 399.177L-1175.19 392.798M-1101.84 389.402L-1175.19 392.798M-1101.84 389.402L-1084.19 383.5M-1101.84 389.402L-1035.17 372.257M-1101.84 389.402L-1022.87 368.186M-1175.19 392.798L-1084.19 383.5M-1175.19 392.798L-1257.67 382.478M-1175.19 392.798L-1154.06 385.94M-1084.19 383.5L-1022.87 368.186M-1084.19 383.5L-1001.28 367.955M-1084.19 383.5L-1154.06 385.94M-1084.19 383.5L-1059.72 383.286M-1035.17 372.257L-1022.87 368.186M-1035.17 372.257L-965.247 343.227M-1022.87 368.186L-1001.28 367.955M-1022.87 368.186L-965.247 343.227M-1022.87 368.186L-948.889 342.766M-1001.28 367.955L-948.889 342.766M-1001.28 367.955L-918.063 351.223M-1001.28 367.955L-1059.72 383.286M-1001.28 367.955L-968.206 377.417M-965.247 343.227L-948.889 342.766M-965.247 343.227L-895.183 314.197M-948.889 342.766L-918.063 351.223M-948.889 342.766L-895.183 314.197M-948.889 342.766L-869.536 320.346M-918.063 351.223L-869.536 320.346M-918.063 351.223L-826.243 338.331M-918.063 351.223L-873.126 371.202M-918.063 351.223L-968.206 377.417M-895.183 314.197L-869.536 320.346M-895.183 314.197L-812.817 294.514M-869.536 320.346L-812.817 294.514M-869.536 320.346L-826.243 338.331M-869.536 320.346L-774.593 308.114M-812.817 294.514L-774.593 308.114M-812.817 294.514L-645.289 288.53M-1257.67 382.478L-1154.06 385.94M-1257.67 382.478L-1234.35 376.626M-1154.06 385.94L-1234.35 376.626M-1154.06 385.94L-1128.55 386.632M-1154.06 385.94L-1059.72 383.286M-1234.35 376.626L-1128.55 386.632M-1234.35 376.626L-1323.92 360.998M-1234.35 376.626L-1209.14 380.187M-1128.55 386.632L-1059.72 383.286M-1128.55 386.632L-1026.79 393.54M-1128.55 386.632L-1209.14 380.187M-1128.55 386.632L-1097.59 398.551M-1059.72 383.286L-1026.79 393.54M-1059.72 383.286L-968.206 377.417M-826.243 338.331L-873.126 371.202M-826.243 338.331L-774.593 308.114M-826.243 338.331L-674.033 332.281M-826.243 338.331L-873.099 371.202M-826.243 338.331L-768.017 367.493M-873.126 371.202L-924.529 398.073M-873.126 371.202L-817.311 400.958M-873.126 371.202L-968.206 377.417M-873.126 371.202L-924.529 398.089L-968.206 377.417M-1026.79 393.54L-968.206 377.417M-1026.79 393.54L-924.529 398.073M-1026.79 393.54L-1097.59 398.551M-1026.79 393.54L-986.756 414.69M-968.206 377.417L-924.529 398.073M-924.529 398.073L-817.311 400.958M-924.529 398.073L-986.756 414.69M-924.529 398.073L-874.057 427.136M-817.311 400.958L-768.017 367.493M-817.311 400.958L-677.458 401.749M-817.311 400.958L-873.099 371.202M-817.311 400.958L-874.057 427.136M-817.311 400.958L-757.002 434.406M-774.593 308.114L-674.033 332.281M-774.593 308.114L-645.289 288.53M-774.593 308.114L-575.582 298.405M-674.033 332.281L-575.582 298.405M-674.033 332.281L-523.439 319.439M-674.033 332.281L-768.017 367.493M-674.033 332.281L-597.832 362.449M-645.289 288.53L-575.582 298.405M-645.289 288.53L-479.598 271.551M-575.582 298.405L-523.439 319.439M-575.582 298.405L-479.598 271.551M-575.582 298.405L-455.184 277.98M-523.439 319.439L-455.184 277.98M-523.439 319.439L-429.181 300.811M-523.439 319.439L-597.832 362.449M-523.439 319.439L-481.242 351.14M-479.598 271.551L-455.184 277.98M-479.598 271.551L-391.751 245.686M-455.184 277.98L-429.181 300.811M-455.184 277.98L-391.751 245.686M-455.184 277.98L-384.079 253.681M-429.181 300.811L-384.079 253.681M-429.181 300.811L-361.063 281.837M-429.181 300.811L-397.807 337.606M-429.181 300.811L-481.242 351.14M-391.751 245.686L-384.079 253.681M-391.751 245.686L-340.731 219.293M-384.079 253.681L-340.731 219.293M-384.079 253.681L-361.063 281.837M-384.079 253.681L-326.62 232.366M-340.731 219.293L-326.62 232.366M-340.731 219.293L-285.492 200.681M-873.099 371.202L-768.017 367.493M-768.017 367.493L-677.458 401.749M-768.017 367.493L-597.832 362.449M-677.458 401.749L-597.832 362.449M-677.458 401.749L-543.14 397.546M-677.458 401.749L-757.002 434.406M-677.458 401.749L-615.478 435.23M-597.832 362.449L-543.14 397.546M-597.832 362.449L-481.242 351.14M-597.832 362.449L-481.242 351.157L-543.14 397.546M-361.063 281.837L-397.807 337.606M-361.063 281.837L-326.62 232.366M-361.063 281.837L-288.862 267.957M-361.063 281.837L-322.702 325.836M-397.807 337.606L-481.242 351.14M-397.807 337.606L-443.593 390.622M-397.807 337.606L-359.419 383.566M-397.807 337.606L-322.702 325.836M-543.14 397.546L-481.242 351.14M-543.14 397.546L-443.593 390.622M-543.14 397.546L-615.478 435.23M-543.14 397.546L-502.916 434.225M-481.242 351.14L-443.593 390.622M-443.593 390.622L-502.916 434.225M-443.593 390.622L-407.288 432.609M-443.593 390.622L-359.419 383.566M-1323.92 360.998L-1209.14 380.187M-1323.92 360.998L-1299.75 370.494M-1209.14 380.187L-1299.75 370.494M-1209.14 380.187L-1181.44 395.749M-1209.14 380.187L-1097.59 398.551M-1299.75 370.494L-1181.44 395.749M-1299.75 370.494L-1395.66 368.499M-1299.75 370.494L-1275.37 393.177M-1181.44 395.749L-1097.59 398.551M-1181.44 395.749L-1063.07 421.07M-1181.44 395.749L-1275.37 393.177M-1181.44 395.749L-1153.08 421.3M-1097.59 398.551L-1063.07 421.07M-1097.59 398.551L-986.756 414.69M-1063.07 421.07L-986.756 414.69M-1063.07 421.07L-943.984 442.846M-1063.07 421.07L-1153.08 421.3M-1063.07 421.07L-1029.61 447.99M-986.756 414.69L-943.984 442.846M-986.756 414.69L-874.057 427.136M-943.984 442.846L-874.057 427.136M-943.984 442.846L-823.64 457.436M-943.984 442.846L-905.842 468.365M-943.984 442.846L-1029.61 447.99M-874.057 427.136L-823.64 457.436M-874.057 427.136L-757.002 434.406M-1395.66 368.499L-1275.37 393.177M-1395.66 368.499L-1372.31 402.013M-1275.37 393.177L-1372.31 402.013M-1275.37 393.177L-1248.24 425.438M-1275.37 393.177L-1153.08 421.3M-1372.31 402.013L-1248.24 425.438M-1372.31 402.013L-1473.09 423.773M-1372.31 402.013L-1347.07 440.687M-1248.24 425.438L-1153.08 421.3M-1248.24 425.438L-1122.86 448.797M-1248.24 425.438L-1347.07 440.687M-1248.24 425.438L-1219.63 457.287M-1153.08 421.3L-1122.86 448.797M-1153.08 421.3L-1029.61 447.99M-823.64 457.436L-905.842 468.365M-823.64 457.436L-757.002 434.406M-823.64 457.436L-696.693 461.886M-823.64 457.436L-782.622 477.547M-905.842 468.365L-996.84 468.827M-905.842 468.365L-870.906 482.344M-905.842 468.365L-1029.61 447.99M-905.842 468.365L-782.622 477.547M-1122.86 448.797L-1029.61 447.99M-1122.86 448.797L-996.84 468.827M-1122.86 448.797L-1219.63 457.287M-1122.86 448.797L-1091.4 471.942M-1029.61 447.99L-996.84 468.827M-996.84 468.827L-870.906 482.344M-996.84 468.827L-1091.4 471.942M-996.84 468.827L-962.945 483.07M-870.906 482.344L-782.622 477.547M-870.906 482.344L-746.946 485.74M-870.906 482.344L-962.945 483.07M-870.906 482.344L-834.847 489.103M-757.002 434.406L-696.693 461.886M-757.002 434.406L-615.478 435.23M-696.693 461.886L-615.478 435.23M-696.693 461.886L-577.966 464.128M-696.693 461.886L-782.622 477.547M-696.693 461.886L-664.634 478.784M-615.478 435.23L-577.966 464.128M-615.478 435.23L-502.916 434.225M-577.966 464.128L-502.916 434.225M-577.966 464.128L-472.391 466.75M-577.966 464.128L-664.634 478.784M-577.966 464.128L-553.58 482.691M-502.916 434.225L-472.391 466.75M-502.916 434.225L-407.288 432.609M-472.391 466.75L-407.288 432.609M-472.391 466.75L-371.338 469.437M-472.391 466.75L-445.073 487.636M-472.391 466.75L-553.58 482.691M-407.288 432.609L-359.419 383.566M-407.288 432.609L-371.338 469.437M-407.288 432.609L-314.619 431.521M-359.419 383.566L-322.702 325.836M-359.419 383.566L-271.216 378.934M-359.419 383.566L-314.619 431.521M-782.622 477.547L-746.946 485.74M-782.622 477.547L-664.634 478.784M-746.946 485.74L-664.634 478.784M-746.946 485.74L-629.808 489.796M-746.946 485.74L-834.847 489.103M-746.946 485.74L-710.859 492.252M-664.634 478.784L-629.808 489.796M-664.634 478.784L-553.58 482.691M-371.338 469.437L-445.073 487.636M-371.338 469.437L-314.619 431.521M-371.338 469.437L-266.229 471.876M-371.338 469.437L-334.84 491.906M-445.073 487.636L-516.698 497.23M-445.073 487.636L-403.917 504.995M-445.073 487.636L-553.58 482.691M-445.073 487.636L-334.84 491.906M-629.808 489.796L-553.58 482.691M-629.808 489.796L-516.698 497.23M-629.808 489.796L-710.859 492.252M-629.808 489.796L-591.694 502.225M-553.58 482.691L-516.698 497.23M-516.698 497.23L-403.917 504.995M-516.698 497.23L-591.694 502.225M-516.698 497.23L-474.31 514.869M-403.917 504.995L-334.84 491.906M-403.917 504.995L-287.848 510.023M-403.917 504.995L-474.31 514.869M-403.917 504.995L-355.692 525.782M-326.62 232.366L-288.862 267.957M-326.62 232.366L-285.492 200.681M-326.62 232.366L-247.295 220.958M-326.62 232.366L-288.862 267.973L-247.295 220.958M-288.862 267.957L-247.295 220.958M-288.862 267.957L-185.178 270.314M-288.862 267.957L-322.702 325.836M-288.862 267.957L-231.211 319.802M-285.492 200.681L-247.295 220.958M-285.492 200.681L-188.932 202.726M-247.295 220.958L-185.178 270.314M-247.295 220.958L-188.932 202.726M-247.295 220.958L-131.856 251.142M-247.295 220.958L-185.178 270.331L-131.856 251.142M-185.178 270.314L-131.856 251.142M-185.178 270.314L-64.0398 323.676M-185.178 270.314L-231.211 319.802M-185.178 270.314L-114.155 341.694M-188.932 202.726L-131.856 251.142M-188.932 202.726L-68.9169 264.825M-131.856 251.142L-64.0398 323.676M-131.856 251.142L-68.9169 264.825M-131.856 251.142L-8.82729 329.759M-64.0398 323.676L-8.82729 329.759M-64.0398 323.676L57.7838 402.029M-64.0398 323.676L7.88703 401.667M-64.0398 323.676L-114.155 341.694M-68.9169 264.825L-8.82729 329.759M-68.9169 264.825L52.0569 356.531M-68.9169 264.825L-8.80004 329.759M-8.82729 329.759L57.7838 402.029M-8.80004 329.759L52.0569 356.531M-8.80004 329.759L108.721 414.723M-8.80004 329.759L57.811 402.029M52.0569 356.531L108.721 414.723M52.0569 356.531L178.62 436.681M-322.702 325.836L-271.216 378.934M-322.702 325.836L-231.211 319.802M-271.216 378.934L-231.211 319.802M-271.216 378.934L-161.695 381.159M-271.216 378.934L-314.619 431.521M-271.216 378.934L-210.935 432.049M-231.211 319.802L-161.695 381.159M-231.211 319.802L-114.155 341.694M57.7838 402.029L7.88703 401.667M7.88703 401.667L-41.4067 416.602M7.88703 401.667L79.2655 472.387M7.88703 401.667L-114.155 341.694M7.88703 401.667L57.811 402.029M7.88703 401.667L126.395 468.612M-161.695 381.159L-114.155 341.694M-161.695 381.159L-41.4067 416.586M-161.695 381.159L-210.935 432.049M-161.695 381.159L-92.5091 443.802M-114.155 341.694L-41.4067 416.586M-114.155 341.694L-41.4067 416.602M-41.4067 416.586L-92.5091 443.802M-41.4067 416.602L79.2655 472.387M-41.4067 416.602L-92.5091 443.802M-41.4067 416.602L28.2458 482.674M79.2655 472.387L126.395 468.612M79.2655 472.387L205.336 523.804M79.2655 472.387L28.2458 482.674M79.2655 472.387L147.383 529.145M108.721 414.723L57.811 402.029M108.721 414.723L186.238 471.992M108.721 414.723L178.62 436.681M108.721 414.723L269.755 483.515M108.721 414.723L186.265 471.992M57.811 402.029L186.238 471.992M57.811 402.029L126.395 468.612M186.238 471.992L126.395 468.612M178.62 436.681L269.755 483.515M178.62 436.681L363.958 498.154M269.755 483.515L186.265 471.992M269.755 483.515L364.178 523.409M269.755 483.515L363.958 498.154M269.755 483.515L444.352 523.887M186.265 471.992L364.178 523.409M186.265 471.992L126.395 468.612M186.265 471.992L279.619 521.694M364.178 523.409L444.352 523.887M364.178 523.409L516.58 537.734M364.178 523.409L279.619 521.694M364.178 523.409L444.078 550.279M363.958 498.154L444.352 523.887M363.958 498.154L522.224 514.919M444.352 523.887L516.58 537.734M444.352 523.887L522.224 514.919M516.58 537.734L444.078 550.279M516.58 537.734L594.617 522.865M516.58 537.734L649.418 529.475M516.58 537.734L444.379 523.887M516.58 537.734L444.105 550.279M516.58 537.734L580.999 548.037M522.224 514.919L444.379 523.887M522.224 514.919L594.617 522.865M522.224 514.919L669.585 510.765M126.395 468.612L205.336 523.804M126.395 468.612L279.619 521.694M205.336 523.804L279.619 521.694M205.336 523.804L369.274 557.664M205.336 523.804L147.383 529.145M205.336 523.804L291.429 564.555M279.619 521.694L369.274 557.664M279.619 521.694L444.078 550.279M369.274 557.664L444.078 550.279M369.274 557.664L511.127 565.116M369.274 557.664L291.429 564.555M369.274 557.664L444.188 579.359M444.078 550.279L511.127 565.116M511.127 565.116L444.188 579.359M511.127 565.116L580.999 548.037M511.127 565.116L629.717 556.708M511.127 565.116L444.105 550.279M511.127 565.116L567.737 576.194M-314.619 431.521L-266.229 471.876M-314.619 431.521L-210.935 432.049M-266.229 471.876L-210.935 432.049M-266.229 471.876L-149.749 474.184M-266.229 471.876L-334.84 491.906M-266.229 471.876L-218.525 493.719M-210.935 432.049L-149.749 474.184M-210.935 432.049L-92.5091 443.802M-210.935 432.049L-149.749 474.201L-92.5091 443.802M-149.749 474.184L-92.5091 443.802M-149.749 474.184L-28.9394 496.076M-149.749 474.184L-218.525 493.719M-149.749 474.184L-95.9889 503.561M-92.5091 443.802L-28.9394 496.076M-92.5091 443.802L28.2458 482.674M-28.9394 496.076L28.2458 482.674M-28.9394 496.076L92.007 533.596M-28.9394 496.076L26.7385 532.212M-28.9394 496.076L-95.9889 503.561M28.2458 482.674L92.007 533.596M28.2458 482.674L147.383 529.145M-334.84 491.906L-287.848 510.023M-334.84 491.906L-218.525 493.719M-287.848 510.023L-218.525 493.719M-287.848 510.023L-165.039 512.512M-287.848 510.023L-355.692 525.782M-287.848 510.023L-232.883 530.547M-218.525 493.719L-165.039 512.512M-218.525 493.719L-95.9889 503.561M92.007 533.596L26.7385 532.212M92.007 533.596L147.383 529.145M92.007 533.596L218.242 570.407M92.007 533.596L149.466 569.237M26.7385 532.212L-39.7901 530.497M26.7385 532.212L85.4583 561.176M26.7385 532.212L-95.9889 503.561M26.7385 532.212L149.466 569.237M-165.039 512.512L-95.9889 503.561M-165.039 512.512L-39.7901 530.497M-165.039 512.512L-232.883 530.547M-165.039 512.512L-105.278 537.108M-95.9889 503.561L-39.7901 530.497M-39.7901 530.497L85.4583 561.176M-39.7901 530.497L-105.278 537.108M-39.7901 530.497L22.5189 556.477M85.4583 561.176L149.466 569.237M85.4583 561.176L216.735 594.673M85.4583 561.176L22.5189 556.477M85.4583 561.176L150.343 586.694M147.383 529.145L218.242 570.407M147.383 529.145L291.429 564.555M218.242 570.407L291.429 564.555M218.242 570.407L371.822 590.255M218.242 570.407L149.466 569.237M218.242 570.407L292.799 596.157M291.429 564.555L371.822 590.255M291.429 564.555L444.188 579.359M371.822 590.255L444.188 579.359M371.822 590.255L505.894 592.86M371.822 590.255L292.799 596.157M371.822 590.255L442.379 606.064M444.188 579.359L505.894 592.86M444.188 579.359L567.737 576.194M505.894 592.86L442.379 606.064M505.894 592.86L567.737 576.194M505.894 592.86L610.482 582.392M505.894 592.86L557.379 600.905M149.466 569.237L216.735 594.673M149.466 569.237L292.799 596.157M216.735 594.673L292.799 596.157M216.735 594.673L368.836 612.658M216.735 594.673L150.343 586.694M216.735 594.673L293.429 612.329M292.799 596.157L368.836 612.658M292.799 596.157L442.379 606.064M368.836 612.658L442.379 606.064M368.836 612.658L504.825 615.609M368.836 612.658L293.429 612.329M368.836 612.658L440.927 623.027M442.379 606.064L504.825 615.609M442.379 606.064L557.379 600.905M504.825 615.609L440.927 623.027M504.825 615.609L557.379 600.905M504.825 615.609L611.77 605.009M504.825 615.609L440.954 623.027M504.825 615.609L563.736 619.829M-1473.09 423.773L-1347.07 440.687M-1473.09 423.773L-1449.91 467.046M-1347.07 440.687L-1449.91 467.046M-1347.07 440.687L-1320.25 476.031M-1347.07 440.687L-1219.63 457.287M-1449.91 467.046L-1320.25 476.031M-1449.91 467.046L-1557.24 501.038M-1449.91 467.046L-1425.03 504.072M-1320.25 476.031L-1219.63 457.287M-1320.25 476.031L-1189.71 482.789M-1320.25 476.031L-1425.03 504.072M-1320.25 476.031L-1292.03 502.984M-1219.63 457.287L-1189.71 482.789M-1219.63 457.287L-1091.4 471.942M-1189.71 482.789L-1091.4 471.942M-1189.71 482.789L-1058.79 487.405M-1189.71 482.789L-1292.03 502.984M-1189.71 482.789L-1158.59 499.489M-1091.4 471.942L-1058.79 487.405M-1091.4 471.942L-962.945 483.07M-1058.79 487.405L-962.945 483.07M-1058.79 487.405L-927.9 489.911M-1058.79 487.405L-1024.98 495.269M-1058.79 487.405L-1158.59 499.489M-962.945 483.07L-927.9 489.911M-962.945 483.07L-834.847 489.103M-1557.24 501.038L-1425.03 504.072M-1557.24 501.038L-1534.44 536.992M-1425.03 504.072L-1534.44 536.992M-1425.03 504.072L-1398.7 530.678M-1425.03 504.072L-1292.03 502.984M-1425.03 504.072L-1292.03 503M-1534.44 536.992L-1398.7 530.678M-1534.44 536.992L-1649 566.913M-1534.44 536.992L-1510.11 560.533M-1398.7 530.678L-1292.03 503M-1398.7 530.678L-1292.03 502.984M-1398.7 530.678L-1262.57 520.046M-1398.7 530.678L-1510.11 560.533M-1398.7 530.678L-1371.05 546.257M-1292.03 502.984L-1262.57 520.046M-1292.03 502.984L-1158.59 499.489M-1292.03 503L-1158.59 499.489M-1292.03 503L-1262.57 520.046M-927.9 489.911L-1024.98 495.269M-927.9 489.911L-834.847 489.103M-927.9 489.911L-798.048 491.691M-927.9 489.911L-891.594 492.021M-1024.98 495.269L-1126.25 508.391M-1024.98 495.269L-989.962 499.093M-1024.98 495.269L-1158.59 499.489M-1024.98 495.269L-891.594 492.021M-1262.57 520.046L-1158.59 499.489M-1262.57 520.046L-1126.25 508.391M-1262.57 520.046L-1371.05 546.257M-1262.57 520.046L-1231.88 529.079M-1158.59 499.489L-1126.25 508.391M-1126.25 508.391L-989.962 499.093M-1126.25 508.391L-1231.88 529.079M-1126.25 508.391L-1092.66 513.963M-989.962 499.093L-891.594 492.021M-989.962 499.093L-853.644 498.928M-989.962 499.093L-1092.66 513.963M-989.962 499.093L-953.492 505.918M-834.847 489.103L-798.048 491.691M-834.847 489.103L-710.859 492.252M-798.048 491.691L-710.859 492.252M-798.048 491.691L-672.252 502.456M-798.048 491.691L-891.594 492.021M-798.048 491.691L-759.55 499.95M-710.859 492.252L-672.252 502.456M-710.859 492.252L-591.694 502.225M-672.252 502.456L-591.694 502.225M-672.252 502.456L-549.058 519.568M-672.252 502.456L-759.55 499.95M-672.252 502.456L-630.164 519.419M-591.694 502.225L-549.058 519.568M-591.694 502.225L-474.31 514.869M-591.694 502.225L-549.058 519.584M-549.058 519.568L-630.164 519.419M-474.31 514.869L-549.058 519.584M-474.31 514.869L-426.057 537.322M-474.31 514.869L-355.692 525.782M-549.058 519.584L-426.057 537.322M-549.058 519.584L-501.737 543.191M-549.058 519.584L-630.164 519.419M-891.594 492.021L-853.644 498.928M-891.594 492.021L-759.55 499.95M-853.644 498.928L-759.55 499.95M-853.644 498.928L-718.559 516.831M-853.644 498.928L-953.492 505.918M-853.644 498.928L-814.132 516.452M-759.55 499.95L-718.559 516.831M-759.55 499.95L-630.164 519.419M-426.057 537.322L-501.737 543.191M-426.057 537.322L-355.692 525.782M-426.057 537.322L-300.918 549.949M-426.057 537.322L-372.653 564.192M-501.737 543.191L-630.164 519.419M-501.737 543.191L-584.57 544.064L-630.164 519.419M-501.737 543.191L-584.57 544.048M-501.737 543.191L-450.69 572.204M-501.737 543.191L-372.653 564.192M-718.559 516.831L-630.164 519.419M-718.559 516.831L-584.57 544.048M-718.559 516.831L-814.132 516.452M-718.559 516.831L-675.293 542.811M-630.164 519.419L-584.57 544.048M-584.57 544.048L-675.293 542.811M-584.57 544.048L-536.646 575.139M-584.57 544.048L-450.69 572.204M-1649 566.913L-1510.11 560.533M-1649 566.913L-1626.89 584.486M-1510.11 560.533L-1626.89 584.486M-1510.11 560.533L-1484.63 572.649M-1510.11 560.533L-1371.05 546.257M-1626.89 584.486L-1484.63 572.649M-1626.89 584.486L-1749.32 605.075M-1626.89 584.486L-1603.74 598.564M-1484.63 572.649L-1371.05 546.257M-1484.63 572.649L-1342.33 555.225M-1484.63 572.649L-1603.74 598.564M-1484.63 572.649L-1458.1 585.062M-1371.05 546.257L-1342.33 555.225M-1371.05 546.257L-1231.88 529.079M-1342.33 555.225L-1231.88 529.079M-1342.33 555.225L-1200.04 537.734M-1342.33 555.225L-1458.1 585.062M-1342.33 555.225L-1312.47 569.171M-1231.88 529.079L-1200.04 537.734M-1231.88 529.079L-1092.66 513.963M-1231.88 529.079L-1092.66 513.979M-1200.04 537.734L-1092.66 513.979M-1200.04 537.734L-1092.66 513.963M-1200.04 537.734L-1057.72 525.585M-1200.04 537.734L-1166.81 555.488M-1200.04 537.734L-1312.47 569.171M-1092.66 513.963L-1057.72 525.585M-1092.66 513.963L-953.492 505.918M-1092.66 513.979L-953.492 505.918M-1092.66 513.979L-1057.72 525.585M-1749.32 605.075L-1603.74 598.564M-1749.32 605.075L-1728.55 622.863L-1603.74 598.564M-1603.74 598.564L-1458.1 585.062M-1603.74 598.564L-1579.43 614.472L-1458.1 585.062M-1458.1 585.062L-1312.47 569.171M-1458.1 585.062L-1430.32 602.273L-1312.47 569.171M-1057.72 525.585L-1166.81 555.488M-1057.72 525.585L-953.492 505.918M-1057.72 525.585L-915.378 525.931M-1057.72 525.585L-1021.14 548.631M-1166.81 555.488L-1312.47 569.171M-1166.81 555.488L-1281.15 590.008L-1312.47 569.171M-1166.81 555.488L-1021.14 548.631M-1166.81 555.488L-1131.98 581.419L-1021.14 548.631M-953.492 505.918L-915.378 525.931M-953.492 505.918L-814.132 516.452M-915.378 525.931L-814.132 516.452M-915.378 525.931L-773.031 545.729M-915.378 525.931L-1021.14 548.631M-915.378 525.931L-875.455 558.588M-814.132 516.452L-773.031 545.729M-814.132 516.452L-675.293 542.811M-773.031 545.729L-675.293 542.811M-773.031 545.729L-630.658 576.292M-773.031 545.729L-875.455 558.588M-773.031 545.729L-729.738 581.914M-675.293 542.811L-630.658 576.292M-675.293 542.811L-536.646 575.139M-630.658 576.292L-536.646 575.139M-630.658 576.292L-488.284 607.944M-630.658 576.292L-584.022 610.219M-630.658 576.292L-729.738 581.914M-536.646 575.139L-450.69 572.204M-536.646 575.139L-488.284 607.944M-536.646 575.139L-397.834 603.658M-450.69 572.204L-372.653 564.192M-450.69 572.204L-315.852 592.893M-450.69 572.204L-397.834 603.658M-1021.14 548.631L-875.455 558.588M-1021.14 548.631L-982.811 581.716L-875.455 558.588M-875.455 558.588L-729.738 581.914M-875.455 558.588L-833.614 595.778L-729.738 581.914M-488.284 607.944L-584.022 610.219M-488.284 607.944L-397.834 603.658M-488.284 607.944L-345.883 630.957M-488.284 607.944L-438.305 635.358M-584.022 610.219L-729.738 581.914M-584.022 610.219L-684.39 617.241L-729.738 581.914M-584.022 610.219L-438.305 635.358M-584.022 610.219L-535.139 639.414L-438.305 635.358M-355.692 525.782L-300.918 549.949M-355.692 525.782L-232.883 530.547M-300.918 549.949L-232.883 530.547M-300.918 549.949L-171.724 553.263M-300.918 549.949L-372.653 564.192M-300.918 549.949L-241.185 575.369M-232.883 530.547L-171.724 553.263M-232.883 530.547L-105.278 537.108M-171.724 553.263L-105.278 537.108M-171.724 553.263L-41.2974 560.747M-171.724 553.263L-241.185 575.369M-171.724 553.263L-107.963 575.287M-105.278 537.108L-41.2974 560.747M-105.278 537.108L22.5189 556.477M-41.2974 560.747L22.5189 556.477M-41.2974 560.747L89.157 578.947M-41.2974 560.747L25.2039 580.809M-41.2974 560.747L-107.963 575.287M22.5189 556.477L89.157 578.947M22.5189 556.477L150.343 586.694M-372.653 564.192L-315.852 592.893M-372.653 564.192L-241.185 575.369M-315.852 592.893L-241.185 575.369M-315.852 592.893L-179.615 597.179M-315.852 592.893L-397.834 603.658M-315.852 592.893L-258.529 618.659M-241.185 575.369L-179.615 597.179M-241.185 575.369L-107.963 575.287M89.157 578.947L25.2039 580.809M89.157 578.947L150.343 586.694M89.157 578.947L222.9 607.004M89.157 578.947L158.371 599.553M25.2039 580.809L-43.5715 593.651M25.2039 580.809L92.5003 598.844M25.2039 580.809L-107.963 575.287M25.2039 580.809L158.371 599.553M-179.615 597.179L-107.963 575.287M-179.615 597.179L-43.5715 593.651M-179.615 597.179L-258.529 618.659M-179.615 597.179L-119.307 614.62M-107.963 575.287L-43.5715 593.651M-43.5715 593.651L92.5003 598.844M-43.5715 593.651L-119.307 614.62M-43.5715 593.651L19.8609 609.839M92.5003 598.844L158.371 599.553M92.5003 598.844L229.038 621.132M92.5003 598.844L19.8609 609.839M92.5003 598.844L159.056 620.621M150.343 586.694L222.9 607.004M150.343 586.694L293.429 612.329M222.9 607.004L293.429 612.329M222.9 607.004L369.466 625.121M222.9 607.004L158.371 599.553M222.9 607.004L298.06 623.703M293.429 612.329L369.466 625.121M293.429 612.329L440.927 623.027M369.466 625.121L440.927 623.027M369.466 625.121L506.113 629.011M369.466 625.121L298.06 623.703M369.466 625.121L440.269 635.078M440.927 623.027L506.113 629.011M506.113 629.011L440.269 635.078M506.113 629.011L563.736 619.829M506.113 629.011L625.004 624.33M506.113 629.011L563.736 619.846M506.113 629.011L440.954 623.027M506.113 629.011L570.312 635.111M158.371 599.553L229.038 621.132M158.371 599.553L298.06 623.703M229.038 621.132L298.06 623.703M229.038 621.132L370.096 639.348M229.038 621.132L159.056 620.621M229.038 621.132L298.663 643.436M298.06 623.703L370.096 639.348M298.06 623.703L440.269 635.078M370.096 639.348L440.269 635.078M370.096 639.348L507.455 644.227M370.096 639.348L298.663 643.436M370.096 639.348L438.79 655.602M440.269 635.078L507.455 644.227M440.269 635.078L570.312 635.111M440.269 635.078L507.483 644.227M507.455 644.227L438.79 655.602M-397.834 603.658L-345.883 630.957M-397.834 603.658L-258.529 618.659M-345.883 630.957L-258.529 618.659M-345.883 630.957L-203.454 635.902M-345.883 630.957L-438.305 635.358M-345.883 630.957L-292.534 649.173M-258.529 618.659L-203.454 635.902M-258.529 618.659L-119.307 614.62M-203.454 635.902L-119.307 614.62M-203.454 635.902L-60.9707 629.226M-203.454 635.902L-292.534 649.173M-203.454 635.902L-146.707 646.502M-119.307 614.62L-60.9707 629.226M-119.307 614.62L19.8609 609.839M-60.9707 629.226L19.8609 609.839M-60.9707 629.226L81.5401 629.176M-60.9707 629.226L-0.826279 641.903M-60.9707 629.226L-146.707 646.502M19.8609 609.839L81.5401 629.176M19.8609 609.839L159.056 620.621M-438.305 635.358L-292.534 649.173M-438.305 635.358L-385.888 655.717L-292.534 649.173M-292.534 649.173L-146.707 646.502M-292.534 649.173L-236.609 659.492L-146.707 646.502M81.5401 629.176L-0.826279 641.903M81.5401 629.176L159.056 620.621M81.5401 629.176L223.996 648.48M81.5401 629.176L145.082 649.898M-0.826279 641.903L-146.707 646.502M-0.826279 641.903L-87.3028 654.942L-146.707 646.502M-0.826279 641.903L145.082 649.898M-0.826279 641.903L62.0581 654.876L145.082 649.898M159.056 620.621L223.996 648.48M159.056 620.621L298.663 643.436M223.996 648.48L298.663 643.436M223.996 648.48L366.37 666.515M223.996 648.48L145.082 649.898M223.996 648.48L290.771 668.971M298.663 643.436L366.37 666.515M298.663 643.436L438.79 655.602M366.37 666.515L438.79 655.602M366.37 666.515L508.798 671.889M366.37 666.515L290.771 668.971M366.37 666.515L436.488 680.198M438.79 655.602L508.798 671.889M438.79 655.602L507.483 644.227M438.79 655.602L577.19 657.827M438.79 655.602L508.825 671.889M508.798 671.889L436.488 680.198M145.082 649.898L290.771 668.971M145.082 649.898L211.364 668.196L290.771 668.971M290.771 668.971L436.488 680.198M290.771 668.971L360.67 680.857L436.488 680.198M444.379 523.887L594.617 522.865M594.617 522.865L649.418 529.475M594.617 522.865L669.585 510.765M594.617 522.865L716.002 512.05M649.418 529.475L716.002 512.05M649.418 529.475L753.075 513.666M649.418 529.475L580.999 548.037M649.418 529.475L691.724 535.426M669.585 510.765L716.002 512.05M669.585 510.765L779.708 498.763M716.002 512.05L753.075 513.666M716.002 512.05L779.708 498.763M716.002 512.05L812.452 493.126M753.075 513.666L812.452 493.126M753.075 513.666L845.278 491.724M753.075 513.666L691.724 535.426M753.075 513.666L786.75 517.227M779.708 498.763L812.452 493.126M779.708 498.763L867.911 475.8M812.452 493.126L845.278 491.724M812.452 493.126L867.911 475.8M812.452 493.126L900.518 465.216M845.278 491.724L900.518 465.216M845.278 491.724L943.81 465.085M845.278 491.724L885.009 497.148M845.278 491.724L786.75 517.227M867.911 475.8L900.518 465.216M867.911 475.8L949.592 438.758M900.518 465.216L949.592 438.758M900.518 465.216L943.81 465.085M900.518 465.216L996.776 427.548M949.592 438.758L996.776 427.548M949.592 438.758L1038.23 389.896M444.105 550.279L580.999 548.037M580.999 548.037L629.717 556.708M580.999 548.037L691.724 535.426M629.717 556.708L691.724 535.426M629.717 556.708L727.126 541.031M629.717 556.708L567.737 576.194M629.717 556.708L668.051 562.758M691.724 535.426L727.126 541.031M691.724 535.426L786.75 517.227M943.81 465.085L885.009 497.148M943.81 465.085L996.776 427.548M943.81 465.085L1060.21 437.39M943.81 465.085L1005.57 478.866M885.009 497.148L823.522 524.002M885.009 497.148L939.125 511.589M885.009 497.148L786.75 517.227M885.009 497.148L823.522 524.018M885.009 497.148L1005.57 478.866M727.126 541.031L786.75 517.227M727.126 541.031L823.522 524.018M727.126 541.031L668.051 562.758M727.126 541.031L761.843 546.273M786.75 517.227L823.522 524.018M823.522 524.018L761.843 546.273M823.522 524.002L939.125 511.589M823.522 524.002L761.843 546.273M823.522 524.002L870.569 534.915M939.125 511.589L1005.57 478.866M939.125 511.589L1081.96 507.121M939.125 511.589L870.569 534.915M939.125 511.589L1015.6 536.877M996.776 427.548L1060.21 437.39M996.776 427.548L1038.23 389.896M996.776 427.548L1049.39 408.986L1082.18 431.307M1060.21 437.39L1077.44 427.433L1082.18 431.307M1060.21 437.39L1131.31 481.454M1060.21 437.39L1005.57 478.866M1060.21 437.39L1112.76 480.053M1038.23 389.896L1082.18 431.307M1038.23 389.896L1084.27 469.255M1082.18 431.307L1131.31 481.454M1082.18 431.307L1084.27 469.255M1082.18 431.307L1131.12 488.708L1154.08 492.153M1082.18 431.307L1154.08 492.153M1131.31 481.454L1154.08 492.153M1131.31 481.454L1164.39 491.527L1250.51 451.995M1131.31 481.454L1122.85 477.514L1112.76 480.053M1131.31 481.454L1199.07 490.983M1131.31 481.454L1155.78 490.9L1250.51 451.995M1084.27 469.255L1154.08 492.153M1084.27 469.255L1108.49 494.824L1144.36 495.038L1197.54 465.777M1154.08 492.153L1250.51 451.995M1154.08 492.153L1197.54 465.777M1154.08 492.153L1309.5 394.298M1250.51 451.995L1309.5 394.298M1250.51 451.995L1412.28 335.001M1250.51 451.995L1342.35 401.007M1250.51 451.995L1199.07 490.983M1197.54 465.777L1309.5 394.298M1197.54 465.777L1378.19 322.951M1309.5 394.298L1378.19 322.951M1309.5 394.298L1412.28 335.001M1309.5 394.298L1495.25 248.834M1378.19 322.951L1495.25 248.834M1378.19 322.951L1577.48 161.035M1005.57 478.866L1081.96 507.121M1005.57 478.866L1112.76 480.053M1005.57 478.866L1112.76 480.069M1081.96 507.121L1112.76 480.069M1081.96 507.121L1112.76 480.053M1081.96 507.121L1168.88 508.918M1081.96 507.121L1015.6 536.877M1081.96 507.121L1141.86 535.987M1112.76 480.053L1168.88 508.918M1112.76 480.053L1199.07 490.983M1112.76 480.069L1199.07 490.983M1112.76 480.069L1168.88 508.918M1412.28 335.001L1342.35 401.007M1412.28 335.001L1495.25 248.834M1412.28 335.001L1577.48 229.382M1412.28 335.001L1490.45 318.071M1342.35 401.007L1199.07 490.983M1342.35 401.007L1285.11 450.561M1342.35 401.007L1419.79 380.055M1342.35 401.007L1490.45 318.071M1342.35 401.007L1490.45 318.088M1168.88 508.918L1199.07 490.983M1168.88 508.918L1285.11 450.561M1168.88 508.918L1141.86 535.987M1168.88 508.918L1238.42 496.34M1199.07 490.983L1285.11 450.561M1285.11 450.561L1238.42 496.34M1285.11 450.561L1368.05 416.421M1285.11 450.561L1419.79 380.055M567.737 576.194L610.482 582.392M567.737 576.194L668.051 562.758M610.482 582.392L668.051 562.758M610.482 582.392L701.918 564.868M610.482 582.392L557.379 600.905M610.482 582.392L650.788 583.661M668.051 562.758L701.918 564.868M668.051 562.758L761.843 546.273M701.918 564.868L761.843 546.273M701.918 564.868L802.752 550.741M701.918 564.868L650.788 583.661M701.918 564.868L745.649 565.61M761.843 546.273L802.752 550.741M761.843 546.273L870.569 534.915M802.752 550.741L870.569 534.915M802.752 550.741L935.645 550.477M802.752 550.741L864.458 558.274M802.752 550.741L745.649 565.61M870.569 534.915L935.645 550.477M870.569 534.915L1015.6 536.877M557.379 600.905L611.77 605.009M557.379 600.905L650.788 583.661M611.77 605.009L650.788 583.661M611.77 605.009L710.384 589.382M611.77 605.009L563.736 619.829M611.77 605.009L671.229 609.328M650.788 583.661L710.384 589.382M650.788 583.661L745.649 565.61M935.645 550.477L864.458 558.274M935.645 550.477L1015.6 536.877M935.645 550.477L1105.39 568.808M935.645 550.477L1029.68 573.078M864.458 558.274L819.768 578.04M864.458 558.274L958.853 580.315M864.458 558.274L745.649 565.61M864.458 558.274L1029.68 573.078M710.384 589.382L745.649 565.61M710.384 589.382L819.741 578.04M710.384 589.382L671.229 609.328M710.384 589.382L779.708 598.91M745.649 565.61L819.741 578.04M745.649 565.61L819.768 578.04M819.741 578.04L779.708 598.91M819.768 578.04L958.853 580.315M819.768 578.04L779.708 598.91M819.768 578.04L904.737 595.695M958.853 580.315L1029.68 573.078M958.853 580.315L1131.18 599.404M958.853 580.315L904.737 595.695M958.853 580.315L1061.83 606.823M1015.6 536.877L1105.39 568.808M1015.6 536.877L1141.86 535.987M1105.39 568.808L1141.86 535.987M1105.39 568.808L1208.58 534.981M1105.39 568.808L1029.68 573.078M1105.39 568.808L1174.91 573.622M1141.86 535.987L1208.58 534.981M1141.86 535.987L1238.42 496.34M1208.58 534.981L1238.42 496.34M1208.58 534.981L1323.67 450.495M1208.58 534.981L1174.91 573.622M1208.58 534.981L1285.58 499.571M1238.42 496.34L1323.67 450.495M1238.42 496.34L1368.05 416.421M1323.67 450.495L1368.05 416.421M1323.67 450.495L1439.32 413.651M1323.67 450.495L1412.66 419.866M1323.67 450.495L1285.58 499.571M1368.05 416.421L1419.79 380.055M1368.05 416.421L1439.32 413.651M1368.05 416.421L1478.26 400.117M1419.79 380.055L1490.45 318.071M1419.79 380.055L1542.41 351.75M1419.79 380.055L1490.45 318.088M1419.79 380.055L1478.26 400.117M1029.68 573.078L1131.18 599.404M1029.68 573.078L1174.91 573.622M1131.18 599.404L1174.91 573.622M1131.18 599.404L1247.71 554.598M1131.18 599.404L1061.83 606.823M1131.18 599.404L1205.57 602.866M1174.91 573.622L1247.71 554.598M1174.91 573.622L1285.58 499.571M1439.32 413.651L1423.95 412.646L1412.66 419.866M1439.32 413.651L1478.26 400.117M1439.32 413.651L1527.17 450.1M1439.32 413.651L1503.58 439.253M1412.66 419.866L1368.47 471.217M1412.66 419.866L1483.77 447.676M1412.66 419.866L1285.58 499.571M1412.66 419.866L1503.58 439.253M1247.71 554.598L1285.58 499.571M1247.71 554.598L1368.47 471.217M1247.71 554.598L1205.57 602.866M1247.71 554.598L1325.23 543.405M1285.58 499.571L1368.47 471.217M1368.47 471.217L1483.77 447.676M1368.47 471.217L1325.23 543.405M1368.47 471.217L1453.96 487.174M1483.77 447.676L1497.39 438.643L1503.58 439.253M1483.77 447.676L1572.02 492.961M1483.77 447.676L1453.96 487.174M1483.77 447.676L1556.98 503.379M1495.25 248.834L1577.48 229.382M1495.25 248.834L1577.48 161.035M1495.25 248.834L1664.26 135.137M1577.48 229.382L1664.26 135.137M1577.48 229.382L1711.3 179.515M1577.48 229.382L1490.45 318.071M1577.48 229.382L1626.31 270.1M1577.48 161.035L1664.26 135.137M1577.48 161.035L1722.13 78M1664.26 135.137L1711.3 179.515M1664.26 135.137L1722.13 78M1664.26 135.137L1784.43 112.256M1711.3 179.515L1784.43 112.256M1711.3 179.515L1833.29 183.916M1711.3 179.515L1626.31 270.1M1711.3 179.515L1749.31 263.242M1722.13 78L1784.43 112.256M1722.13 78L1836.55 79.9782M1784.43 112.256L1833.29 183.916M1784.43 112.256L1836.55 79.9782M1784.43 112.256L1900.23 132.664M1833.29 183.916L1900.23 132.664M1833.29 183.916L1959.31 201.506M1833.29 183.916L1884.86 263.094M1833.29 183.916L1749.31 263.242M1836.55 79.9782L1900.23 132.664M1836.55 79.9782L1945.19 117.943M1900.23 132.664L1945.19 117.943M1900.23 132.664L1959.31 201.506M1900.23 132.664L2014.76 170.613M1945.19 117.943L2014.76 170.613M1945.19 117.943L2050.47 171.074M1490.45 318.071L1542.41 351.75M1490.45 318.071L1626.31 270.1M1542.41 351.75L1626.31 270.1M1542.41 351.75L1490.45 318.088M1542.41 351.75L1658.25 353.366M1542.41 351.75L1478.26 400.117M1542.41 351.75L1580.52 422.24M1490.45 318.088L1626.31 270.1M1626.31 270.1L1658.25 353.366M1626.31 270.1L1749.31 263.242M1959.31 201.506L1884.86 263.094M1959.31 201.506L2014.76 170.613M1959.31 201.506L2085.29 224.865M1959.31 201.506L1884.89 263.094M1959.31 201.506L2025.73 264.363M1884.86 263.094L1797.29 345.865M1884.86 263.094L1950.18 328.704M1884.86 263.094L1749.31 263.242M1658.25 353.366L1749.31 263.242M1658.25 353.366L1797.29 345.865M1658.25 353.366L1580.52 422.24M1658.25 353.366L1707.52 431.455M1749.31 263.242L1797.29 345.865M1797.29 345.865L1950.18 328.704M1797.29 345.865L1707.52 431.455M1797.29 345.865L1865.4 407.321M1950.18 328.704L2025.73 264.363M1950.18 328.704L2106.37 307.9M1950.18 328.704L1884.89 263.094M1950.18 328.704L1865.4 407.321M1950.18 328.704L2035.15 368.433M2014.76 170.613L2085.29 224.865M2014.76 170.613L2050.47 171.074M2014.76 170.613L2127.19 211.974M2085.29 224.865L2127.19 211.974M2085.29 224.865L2207.17 246.642M2085.29 224.865L2025.73 264.363M2085.29 224.865L2164.56 266.358M2050.47 171.074L2127.19 211.974M2050.47 171.074L2154.86 218.584M2127.19 211.974L2207.17 246.642M2127.19 211.974L2154.86 218.584M2127.19 211.974L2236.68 242.702M2207.17 246.642L2236.68 242.702M2207.17 246.642L2320.86 259.5M2207.17 246.642L2164.56 266.358M2207.17 246.642L2294.06 268.435M2154.86 218.584L2236.68 242.702M2154.86 218.584L2260.71 239.701L2236.68 242.702M2236.68 242.702L2320.86 259.5M2320.86 259.5L2294.06 268.435M1884.89 263.094L2025.73 264.363M2025.73 264.363L2106.37 307.9M2025.73 264.363L2164.56 266.358M2106.37 307.9L2164.56 266.358M2106.37 307.9L2255.29 289.47M2106.37 307.9L2035.15 368.433M2106.37 307.9L2202.98 327.534M2164.56 266.358L2255.29 289.47M2164.56 266.358L2294.06 268.435M2255.29 289.47L2294.06 268.435M2255.29 289.47L2386.32 279.562M2255.29 289.47L2202.98 327.534M2255.29 289.47L2355 297.416M2294.06 268.435L2386.32 279.562M2386.32 279.562L2355 297.416M1478.26 400.117L1527.17 450.1M1478.26 400.117L1580.52 422.24M1478.26 400.117L1527.17 450.116L1580.52 422.24M1527.17 450.1L1580.52 422.24M1527.17 450.1L1631.68 492.681M1527.17 450.1L1516.02 449.012L1503.58 439.253M1527.17 450.1L1590.16 498.747M1527.17 450.1L1515.99 449.012L1503.58 439.253M1580.52 422.24L1631.68 492.681M1580.52 422.24L1707.52 431.455M1631.68 492.681L1707.52 431.455M1631.68 492.681L1783.31 480.762M1631.68 492.681L1606.08 502.176L1590.16 498.747M1631.68 492.681L1721.55 519.848M1707.52 431.455L1783.31 480.762M1707.52 431.455L1865.4 407.321M1783.31 480.762L1865.4 407.321M1783.31 480.762L1958.68 436.318M1783.31 480.762L1890.45 488.675M1783.31 480.762L1721.55 519.848M1865.4 407.321L1958.68 436.318M1865.4 407.321L2035.15 368.433M1503.58 439.253L1572.02 492.961M1503.58 439.253L1590.16 498.747M1572.02 492.961L1590.16 498.747M1572.02 492.961L1680.26 538.097M1572.02 492.961L1556.98 503.379M1572.02 492.961L1656.8 548.845M1590.16 498.747L1680.26 538.097M1590.16 498.747L1721.55 519.848M1958.68 436.318L1890.45 488.675M1958.68 436.318L2035.15 368.433M1958.68 436.318L2140.67 378.753M1958.68 436.318L2076.09 429.873M1890.45 488.675L1834.88 527.2M1890.45 488.675L2011.5 481.438M1890.45 488.675L1721.55 519.848M1890.45 488.675L2076.09 429.873M1680.26 538.097L1721.55 519.848M1680.26 538.097L1834.88 527.2M1680.26 538.097L1656.8 548.845M1680.26 538.097L1790.98 563.599M1721.55 519.848L1834.88 527.2M1834.88 527.2L2011.5 481.438M1834.88 527.2L1790.98 563.599M1834.88 527.2L1954.04 534.272M2011.5 481.438L2076.09 429.873M2011.5 481.438L2194.49 421.713M2011.5 481.438L1954.04 534.272M2011.5 481.438L2128.7 483.746M2035.15 368.433L2140.67 378.753M2035.15 368.433L2202.98 327.534M2140.67 378.753L2202.98 327.534M2140.67 378.753L2312.23 327.517M2140.67 378.753L2076.09 429.873M2140.67 378.753L2259.92 366.916M2202.98 327.534L2312.23 327.517M2202.98 327.534L2355 297.416M2312.23 327.517L2355 297.416M2312.23 327.517L2456.27 302.163M2312.23 327.517L2259.92 366.916M2312.23 327.517L2423.47 323.248M2355 297.416L2456.27 302.163M2456.27 302.163L2423.47 323.248M2076.09 429.873L2194.49 421.713M2076.09 429.873L2259.92 366.916M2194.49 421.713L2259.92 366.916M2194.49 421.713L2368.1 368.911M2194.49 421.713L2128.7 483.746M2194.49 421.713L2302.12 430.367M2259.92 366.916L2368.1 368.911M2259.92 366.916L2423.47 323.248M2368.1 368.911L2423.47 323.248M2368.1 368.911L2516.74 343.903M2368.1 368.911L2302.12 430.367M2368.1 368.911L2461.53 392.435M2423.47 323.248L2516.74 343.903M2516.74 343.903L2461.53 392.435M440.954 623.027L563.736 619.829M440.954 623.027L563.736 619.846M563.736 619.829L625.004 624.33M563.736 619.829L671.229 609.328M625.004 624.33L671.229 609.328M625.004 624.33L563.736 619.846M625.004 624.33L738.58 617.686M625.004 624.33L570.312 635.111M625.004 624.33L692.355 633.067M563.736 619.846L671.229 609.328M671.229 609.328L738.58 617.686M671.229 609.328L779.708 598.91M738.58 617.686L779.708 598.91M738.58 617.686L858.951 614.027M738.58 617.686L692.355 633.067M738.58 617.686L814.918 631.995M779.708 598.91L858.951 614.027M779.708 598.91L904.737 595.695M858.951 614.027L904.737 595.695M858.951 614.027L998.201 618.346M858.951 614.027L946.633 634.699M858.951 614.027L814.918 631.995M904.737 595.695L998.201 618.346M904.737 595.695L1061.83 606.823M904.737 595.695L998.228 618.346M570.312 635.111L507.483 644.227M570.312 635.111L638.732 645.645M570.312 635.111L692.355 633.067M507.483 644.227L638.732 645.645M507.483 644.227L577.19 657.827M638.732 645.645L692.355 633.067M638.732 645.645L767.734 648.151M638.732 645.645L577.19 657.827M638.732 645.645L714.248 662.888M692.355 633.067L767.734 648.151M692.355 633.067L814.918 631.995M998.201 618.346L946.633 634.699M946.633 634.699L899.613 652.387M946.633 634.699L1039.63 658.981M946.633 634.699L814.918 631.995M946.633 634.699L998.228 618.346M946.633 634.699L1096.16 643.93M767.734 648.151L814.918 631.995M767.734 648.151L899.613 652.387M767.734 648.151L714.248 662.888M767.734 648.151L851.388 669.828M814.918 631.995L899.613 652.387M899.613 652.387L1039.63 658.981M899.613 652.387L851.388 669.828M899.613 652.387L990.419 677.098M1039.63 658.981L1096.16 643.93M1039.63 658.981L1188.83 668.213M1039.63 658.981L990.419 677.098M1039.63 658.981L1133.01 683.132M1061.83 606.823L998.228 618.346M1061.83 606.823L1158.8 632.226M1061.83 606.823L1205.57 602.866M998.228 618.346L1158.8 632.226M998.228 618.346L1096.16 643.93M1158.8 632.226L1205.57 602.866M1158.8 632.226L1283.85 605.158M1158.8 632.226L1096.19 643.931M1158.8 632.226L1238.45 646.683M1158.8 632.226L1096.16 643.93M1205.57 602.866L1283.85 605.158M1205.57 602.866L1325.23 543.405M1283.85 605.158L1325.23 543.405M1283.85 605.158L1411.35 551.697M1283.85 605.158L1238.45 646.683M1283.85 605.158L1367.23 617.901M1325.23 543.405L1411.35 551.697M1325.23 543.405L1453.96 487.174M1411.35 551.697L1453.96 487.174M1411.35 551.697L1534.9 535.113M1411.35 551.697L1501.41 584.617M1411.35 551.697L1367.23 617.901M1453.96 487.174L1534.9 535.113M1453.96 487.174L1556.98 503.379M1096.16 643.93L1188.83 668.213M1188.83 668.213L1238.45 646.683M1188.83 668.213L1096.19 643.931M1188.83 668.213L1322.71 661.718M1188.83 668.213L1133.01 683.132M1188.83 668.213L1274.15 685.192M1096.19 643.931L1238.45 646.683M1238.45 646.683L1322.71 661.718M1238.45 646.683L1367.23 617.901M1534.9 535.113L1501.41 584.617M1534.9 535.113L1556.98 503.379M1534.9 535.113L1641.49 562.808M1534.9 535.113L1622.09 588.343M1501.41 584.617L1367.23 617.901M1501.41 584.617L1457.74 639.76M1501.41 584.617L1592.66 624.445M1501.41 584.617L1622.09 588.343M1322.71 661.718L1367.23 617.901M1322.71 661.718L1457.74 639.76M1322.71 661.718L1274.15 685.192M1322.71 661.718L1412.61 676.719M1367.23 617.901L1457.74 639.76M1457.74 639.76L1412.61 676.719M1457.74 639.76L1552.87 661.438M1457.74 639.76L1592.66 624.445M577.19 657.827L508.825 671.889M577.19 657.827L651.336 676.027M577.19 657.827L714.248 662.888M508.825 671.889L651.336 676.027M508.825 671.889L436.515 680.198M508.825 671.889L582.314 682.637M651.336 676.027L714.248 662.888M651.336 676.027L793.847 684.401M651.336 676.027L582.314 682.637M651.336 676.027L728.195 691.572M714.248 662.888L793.847 684.401M714.248 662.888L851.388 669.828M793.847 684.401L851.388 669.828M793.847 684.401L936.385 693.765M793.847 684.401L728.195 691.572M793.847 684.401L874.076 704.15M851.388 669.828L936.385 693.765M851.388 669.828L990.419 677.098M936.385 693.765L990.419 677.098M936.385 693.765L1078.92 700.837M936.385 693.765L1019.96 715.855M936.385 693.765L874.076 704.15M990.419 677.098L1078.92 700.837M990.419 677.098L1133.01 683.132M436.515 680.198L582.314 682.637M436.515 680.198L510.004 684.978L582.314 682.637M582.314 682.637L728.195 691.572M582.314 682.637L659.365 693.023L728.195 691.572M728.195 691.572L874.076 704.15M728.195 691.572L808.753 708.651L874.076 704.15M1078.92 700.837L1019.96 715.855M1078.92 700.837L1133.01 683.132M1078.92 700.837L1221.71 702.419M1078.92 700.837L1165.89 722.086M1019.96 715.855L874.076 704.15M1019.96 715.855L958.168 726.075L874.076 704.15M1019.96 715.855L1165.89 722.086M1019.96 715.855L1107.58 739.445L1165.89 722.086M1133.01 683.132L1221.71 702.419M1133.01 683.132L1274.15 685.192M1221.71 702.419L1274.15 685.192M1221.71 702.419L1365.45 695.66M1221.71 702.419L1165.89 722.086M1221.71 702.419L1313.97 718.278M1274.15 685.192L1365.45 695.66M1274.15 685.192L1412.61 676.719M1365.45 695.66L1412.61 676.719M1365.45 695.66L1509.28 682.489M1365.45 695.66L1313.97 718.278M1365.45 695.66L1462.86 703.013M1412.61 676.719L1509.28 682.489M1412.61 676.719L1552.87 661.438M1509.28 682.489L1552.87 661.438M1509.28 682.489L1655.05 665.295M1509.28 682.489L1612.93 681.104M1509.28 682.489L1462.86 703.013M1552.87 661.438L1592.66 624.445M1552.87 661.438L1655.05 665.295M1552.87 661.438L1691.93 650.459M1592.66 624.445L1622.09 588.343M1592.66 624.445L1720.76 628.698M1592.66 624.445L1691.93 650.459M1165.89 722.086L1313.97 718.278M1165.89 722.086L1257.77 742.758L1313.97 718.278M1313.97 718.278L1462.86 703.013M1313.97 718.278L1411.65 729.537L1462.86 703.013M1655.05 665.295L1612.93 681.104M1655.05 665.295L1691.93 650.459M1655.05 665.295L1801.62 649.75M1655.05 665.295L1764.79 657.811M1612.93 681.104L1462.86 703.013M1612.93 681.104L1565.28 704.826L1462.86 703.013M1612.93 681.104L1764.79 657.811M1612.93 681.104L1720.92 675.005L1764.79 657.811M1556.98 503.379L1641.49 562.808M1556.98 503.379L1656.8 548.845M1641.49 562.808L1656.8 548.845M1641.49 562.808L1760.24 592.942M1641.49 562.808L1622.09 588.343M1641.49 562.808L1740.9 610.318M1656.8 548.845L1760.24 592.942M1656.8 548.845L1790.98 563.599M1656.8 548.845L1760.27 592.959L1790.98 563.599M1760.24 592.942L1790.98 563.599M1760.24 592.942L1908.72 581.172M1760.24 592.942L1740.9 610.318M1760.24 592.942L1876.28 616.961M1790.98 563.599L1908.72 581.172M1790.98 563.599L1954.04 534.272M1908.72 581.172L1954.04 534.272M1908.72 581.172L2071.21 543.553M1908.72 581.172L2026.3 593.635M1908.72 581.172L1876.28 616.961M1954.04 534.272L2071.21 543.553M1954.04 534.272L2128.7 483.746M1622.09 588.343L1720.76 628.698M1622.09 588.343L1740.9 610.318M1720.76 628.698L1740.9 610.318M1720.76 628.698L1853.07 638.424M1720.76 628.698L1691.93 650.459M1720.76 628.698L1830.47 646.535M1740.9 610.318L1853.07 638.424M1740.9 610.318L1876.28 616.961M2071.21 543.553L2026.3 593.635M2071.21 543.553L2128.7 483.746M2071.21 543.553L2237.72 495.846M2071.21 543.553L1954.07 534.272L2128.7 483.746M2071.21 543.553L2182.76 555.587M2026.3 593.635L1993.94 628.517M2026.3 593.635L2140.78 601.795M2026.3 593.635L1876.28 616.961M2026.3 593.635L2182.76 555.587M1853.07 638.424L1876.28 616.961M1853.07 638.424L1993.94 628.517M1853.07 638.424L1830.47 646.535M1853.07 638.424L1969.85 644.705M1876.28 616.961L1993.94 628.517M1993.94 628.517L2140.78 601.795M1993.94 628.517L1969.85 644.705M1993.94 628.517L2111.08 628.715M2140.78 601.795L2182.76 555.587M2140.78 601.795L2289.32 568.907M2140.78 601.795L2111.08 628.715M2140.78 601.795L2253.56 604.498M2128.7 483.746L2237.72 495.846M2128.7 483.746L2302.12 430.367M2237.72 495.846L2302.12 430.367M2237.72 495.846L2398.32 453.809M2237.72 495.846L2182.76 555.587M2237.72 495.846L2338.53 515.99M2302.12 430.367L2398.32 453.809M2302.12 430.367L2461.53 392.435M2398.32 453.809L2461.53 392.435M2398.32 453.809L2543.05 433.17M2398.32 453.809L2338.53 515.99M2398.32 453.809L2486.55 488.032M2461.53 392.435L2543.05 433.17M2543.05 433.17L2486.55 488.032M2182.76 555.587L2289.32 568.907M2182.76 555.587L2338.53 515.99M2182.76 555.587L2289.35 568.907L2338.53 515.99M2289.32 568.907L2338.53 515.99M2289.32 568.907L2435.36 540.454M2289.32 568.907L2253.56 604.498M2289.32 568.907L2395.91 580.117M2338.53 515.99L2435.36 540.454M2338.53 515.99L2486.55 488.032M2338.53 515.99L2435.36 540.471L2486.55 488.032M2435.36 540.454L2486.55 488.032M2435.36 540.454L2574.7 527.052M2435.36 540.454L2395.91 580.117M2435.36 540.454L2536.75 563.566M2486.55 488.032L2574.7 527.052M2574.7 527.052L2536.75 563.566M1691.93 650.459L1801.62 649.75M1691.93 650.459L1830.47 646.535M1801.62 649.75L1830.47 646.535M1801.62 649.75L1947 643.205M1801.62 649.75L1764.79 657.811M1801.62 649.75L1916.75 641.787M1830.47 646.535L1947 643.205M1830.47 646.535L1969.85 644.705M1947 643.205L1969.85 644.705M1947 643.205L2088.09 636.413M1947 643.205L1916.75 641.787M1947 643.205L2062.77 638.523M1969.85 644.705L2088.09 636.413M1969.85 644.705L2111.08 628.715M2088.09 636.413L2111.08 628.715M2088.09 636.413L2229.31 620.835M2088.09 636.413L2205.06 631.072M2088.09 636.413L2062.77 638.523M2111.08 628.715L2229.31 620.835M2111.08 628.715L2253.56 604.498M1764.79 657.811L1916.75 641.787M1764.79 657.811L1877.3 649.338L1916.75 641.787M1916.75 641.787L2062.77 638.523M1916.75 641.787L2032.79 638.111L2062.77 638.523M2229.31 620.835L2205.06 631.072M2229.31 620.835L2253.56 604.498M2229.31 620.835L2370.56 602.405M2229.31 620.835L2347.55 619.45M2205.06 631.072L2062.77 638.523M2205.06 631.072L2177.03 637.139L2062.77 638.523M2205.06 631.072L2347.55 619.45M2205.06 631.072L2321.84 632.325L2347.55 619.45M2253.56 604.498L2370.56 602.405M2253.56 604.498L2395.91 580.117M2370.56 602.405L2395.91 580.117M2370.56 602.405L2511.76 587.074M2370.56 602.405L2347.55 619.45M2370.56 602.405L2490.06 607.911M2395.91 580.117L2511.76 587.074M2395.91 580.117L2536.75 563.566M2511.76 587.074L2536.75 563.566M2511.76 587.074L2652.84 580.743M2511.76 587.074L2490.06 607.911M2511.76 587.074L2632.35 600.723M2536.75 563.566L2652.84 580.743M2652.84 580.743L2632.35 600.723M2347.55 619.45L2490.06 607.911M2347.55 619.45L2466.82 626.292L2490.06 607.911M2490.06 607.911L2632.35 600.723M2490.06 607.911L2611.63 621.593L2632.35 600.723M-1728.44 622.846L-1859.44 644.788M-1728.44 622.846L-1706.65 641.59M-1728.44 622.846L-1579.32 614.439M-1859.44 644.788L-1706.65 641.59M-1859.44 644.788L-1840.48 666.02M-1706.65 641.59L-1840.48 666.02M-1706.65 641.59L-1683.83 662.872M-1706.65 641.59L-1579.32 614.439M-1706.65 641.59L-1553.87 634.023M-1706.65 641.59L-1683.83 662.888L-1553.87 634.023M-1840.48 666.02L-1683.83 662.872M-1840.48 666.02L-1981.26 688.687M-1840.48 666.02L-1820.56 688.654M-1683.83 662.872L-1553.87 634.023M-1683.83 662.872L-1527.15 657.695M-1683.83 662.872L-1820.56 688.654M-1683.83 662.872L-1659.83 686.874M-1579.32 614.439L-1553.87 634.023M-1579.32 614.439L-1430.18 602.24M-1553.87 634.023L-1527.15 657.695M-1553.87 634.023L-1430.18 602.24M-1553.87 634.023L-1401.05 624.973M-1527.15 657.695L-1401.05 624.973M-1527.15 657.695L-1370.45 652.486M-1527.15 657.695L-1659.83 686.874M-1527.15 657.695L-1499.07 684.5M-1430.18 602.24L-1401.05 624.973M-1430.18 602.24L-1281.04 589.975M-1401.05 624.973L-1370.45 652.486M-1401.05 624.973L-1281.04 589.975M-1401.05 624.973L-1248.21 617.291M-1370.45 652.486L-1248.21 617.291M-1370.45 652.486L-1213.74 649.239M-1370.45 652.486L-1338.28 682.687M-1370.45 652.486L-1499.07 684.5M-1281.04 589.975L-1248.21 617.291M-1281.04 589.975L-1131.87 581.386M-1248.21 617.291L-1131.87 581.386M-1248.21 617.291L-1213.74 649.239M-1248.21 617.291L-1095.35 613.862M-1131.87 581.386L-1095.35 613.862M-1131.87 581.386L-982.701 581.683M-1981.26 688.687L-1820.56 688.654M-1981.26 688.687L-1964.55 712.574M-1820.56 688.654L-1964.55 712.574M-1820.56 688.654L-1799.54 712.574M-1820.56 688.654L-1659.83 686.874M-1964.55 712.574H-1799.54M-1964.55 712.574L-2116.38 737.318M-1964.55 712.574L-1946.87 737.384M-1799.54 712.574L-1659.83 686.874M-1799.54 712.574L-1634.51 712.31M-1799.54 712.574L-1946.87 737.384M-1799.54 712.574L-1777.32 737.45M-1659.83 686.874L-1634.51 712.31M-1659.83 686.874L-1499.07 684.5M-1213.74 649.239L-1338.28 682.687M-1213.74 649.239L-1095.35 613.862M-1213.74 649.239L-1057.01 649.156M-1213.74 649.239L-1177.49 682.538M-1338.28 682.687L-1469.47 712.047M-1338.28 682.687L-1304.38 712.03M-1338.28 682.687L-1499.07 684.5M-1338.28 682.687L-1177.49 682.538M-1634.51 712.31L-1499.07 684.5M-1634.51 712.31L-1469.47 712.047M-1634.51 712.31L-1777.32 737.45M-1634.51 712.31L-1607.76 737.516M-1499.07 684.5L-1469.47 712.047M-1469.47 712.047L-1304.38 712.03M-1469.47 712.047L-1607.76 737.516M-1469.47 712.047L-1438.18 737.565M-1304.38 712.03L-1177.49 682.538M-1304.38 712.03L-1139.3 712.014M-1304.38 712.03L-1438.18 737.565M-1304.38 712.03L-1268.57 737.631M-1095.35 613.862L-1057.01 649.156M-1095.35 613.862L-982.701 581.683M-1095.35 613.862L-942.477 618.741M-1057.01 649.156L-942.477 618.741M-1057.01 649.156L-900.253 654.349M-1057.01 649.156L-1177.49 682.538M-1057.01 649.156L-1016.68 682.637M-982.701 581.683L-942.477 618.741M-982.701 581.683L-833.505 595.778M-942.477 618.741L-900.253 654.349M-942.477 618.741L-833.505 595.778M-942.477 618.741L-789.581 631.814M-900.253 654.349L-789.581 631.814M-900.253 654.349L-743.494 663.482M-900.253 654.349L-1016.68 682.637M-900.253 654.349L-855.836 685.736M-833.505 595.778L-789.581 631.814M-833.505 595.778L-684.281 617.225M-789.581 631.814L-743.494 663.482M-789.581 631.814L-684.281 617.225M-789.581 631.814L-636.686 648.002M-743.494 663.482L-636.686 648.002M-743.494 663.482L-586.68 673.01M-743.494 663.482L-694.994 690.056M-743.494 663.482L-855.836 685.736M-684.281 617.225L-636.686 648.002M-684.281 617.225L-535.057 639.414M-636.686 648.002L-535.057 639.414M-636.686 648.002L-586.68 673.01M-636.686 648.002L-483.763 662.196M-535.057 639.414L-483.763 662.196M-535.057 639.414L-385.805 655.717M-1177.49 682.538L-1139.3 712.014M-1177.49 682.538L-1016.68 682.637M-1139.3 712.014L-1016.68 682.637M-1139.3 712.014L-974.18 712.079M-1139.3 712.014L-1268.57 737.631M-1139.3 712.014L-1098.96 737.697M-1016.68 682.637L-974.18 712.079M-1016.68 682.637L-855.836 685.736M-586.68 673.01L-694.994 690.056M-586.68 673.01L-483.763 662.196M-586.68 673.01L-429.893 679.39M-586.68 673.01L-534.098 693.6M-694.994 690.056L-855.836 685.736M-694.994 690.056L-809.036 712.673M-694.994 690.056L-643.892 713.316M-694.994 690.056L-534.098 693.6M-974.18 712.079L-855.836 685.736M-974.18 712.079L-809.036 712.673M-974.18 712.079L-1098.96 737.697M-974.18 712.079L-929.325 737.747M-855.836 685.736L-809.036 712.673M-809.036 712.673L-929.325 737.747M-809.036 712.673L-759.632 737.813M-809.036 712.673L-643.892 713.316M-2116.38 737.318L-1946.87 737.384M-2116.38 737.318L-2102.37 763.694M-1946.87 737.384L-2102.37 763.694M-1946.87 737.384L-1928.11 763.76M-1946.87 737.384L-1777.32 737.45M-2102.37 763.694L-1928.11 763.76M-2102.37 763.694L-2266.91 791.537M-2102.37 763.694L-2087.6 791.603M-1928.11 763.76L-1777.32 737.45M-1928.11 763.76L-2087.6 791.603M-1777.32 737.45L-1928.08 763.76M-1777.32 737.45L-1753.78 763.826M-1777.32 737.45L-1607.76 737.516M-1928.08 763.76L-1753.78 763.826M-1928.08 763.76L-2087.6 791.603M-1928.08 763.76L-1908.27 791.669M-1753.78 763.826L-1607.76 737.516M-1753.78 763.826L-1579.43 763.892M-1753.78 763.826L-1908.27 791.669M-1753.78 763.826L-1728.9 791.735M-1607.76 737.516L-1579.43 763.892M-1607.76 737.516L-1438.18 737.565M-1579.43 763.892L-1438.18 737.565M-1579.43 763.892L-1405.08 763.958M-1579.43 763.892L-1549.51 791.817M-1579.43 763.892L-1728.9 791.735M-1438.18 737.565L-1405.08 763.958M-1438.18 737.565L-1268.57 737.631M-2266.91 791.537L-2087.6 791.603M-2266.91 791.537L-2256.69 821.144M-2087.6 791.603L-2256.69 821.144M-2087.6 791.603L-2072.01 821.21M-2087.6 791.603L-1908.27 791.669M-2256.69 821.144L-2072.01 821.21M-2256.69 821.144L-2436.28 852.532M-2256.69 821.144L-2245.93 852.598M-2072.01 821.21L-1908.27 791.669M-2072.01 821.21L-1887.31 821.293M-2072.01 821.21L-2245.93 852.598M-2072.01 821.21L-2055.55 852.68M-1908.27 791.669L-1887.31 821.293M-1908.27 791.669L-1728.9 791.735M-1405.08 763.958L-1549.51 791.817M-1405.08 763.958L-1268.57 737.631M-1405.08 763.958L-1230.7 764.024M-1405.08 763.958L-1370.09 791.883M-1549.51 791.817L-1702.57 821.359M-1549.51 791.817L-1517.84 821.425M-1549.51 791.817L-1728.9 791.735M-1549.51 791.817L-1702.6 821.359M-1549.51 791.817L-1370.09 791.883M-1887.31 821.293L-1728.9 791.735M-1887.31 821.293L-1702.6 821.359M-1887.31 821.293L-2055.55 852.68M-1887.31 821.293L-1865.17 852.763M-1728.9 791.735L-1702.6 821.359M-1702.6 821.359L-1865.17 852.763M-1702.57 821.359L-1517.84 821.425M-1702.57 821.359L-1865.17 852.763M-1702.57 821.359L-1674.73 852.829M-1517.84 821.425L-1370.09 791.883M-1517.84 821.425L-1333.05 821.507M-1517.84 821.425L-1674.73 852.829M-1517.84 821.425L-1484.27 852.911M-1268.57 737.631L-1230.7 764.024M-1268.57 737.631L-1098.96 737.697M-1230.7 764.024L-1098.96 737.697M-1230.7 764.024L-1056.3 764.09M-1230.7 764.024L-1370.09 791.883M-1230.7 764.024L-1190.64 791.949M-1098.96 737.697L-1056.3 764.09M-1098.96 737.697L-929.325 737.747M-1056.3 764.09L-929.325 737.747M-1056.3 764.09L-881.867 764.156M-1056.3 764.09L-1190.64 791.949M-1056.3 764.09L-1011.17 792.015M-929.325 737.747L-881.867 764.156M-929.325 737.747L-759.632 737.813M-881.867 764.156L-759.632 737.813M-881.867 764.156L-707.407 764.205M-881.867 764.156L-831.696 792.081M-881.867 764.156L-1011.17 792.015M-759.632 737.813L-643.892 713.316M-759.632 737.813L-707.407 764.205M-759.632 737.813L-589.94 737.879M-643.892 713.316L-534.098 693.6M-643.892 713.316L-478.721 713.547M-643.892 713.316L-589.94 737.879M-1370.09 791.883L-1333.05 821.507M-1370.09 791.883L-1190.64 791.949M-1333.05 821.507L-1190.64 791.949M-1333.05 821.507L-1148.26 821.573M-1333.05 821.507L-1484.27 852.911M-1333.05 821.507L-1293.81 852.993M-1190.64 791.949L-1148.26 821.573M-1190.64 791.949L-1011.17 792.015M-707.407 764.205L-831.696 792.081M-707.407 764.205L-589.94 737.879M-707.407 764.205L-532.947 764.271M-707.407 764.205L-652.167 792.147M-831.696 792.081L-963.411 821.655M-831.696 792.081L-778.566 821.721M-831.696 792.081L-1011.17 792.015M-831.696 792.081L-652.167 792.147M-1148.26 821.573L-1011.17 792.015M-1148.26 821.573L-963.411 821.655M-1148.26 821.573L-1293.81 852.993M-1148.26 821.573L-1103.29 853.059M-1011.17 792.015L-963.411 821.655M-963.411 821.655L-778.566 821.721M-963.411 821.655L-1103.29 853.059M-963.411 821.655L-912.747 853.142M-778.566 821.721L-652.167 792.147M-778.566 821.721L-593.667 821.787M-778.566 821.721L-912.747 853.142M-778.566 821.721L-722.176 853.224M-483.763 662.196L-429.893 679.39M-483.763 662.196L-385.805 655.717M-483.763 662.196L-330.812 669.334M-429.893 679.39L-330.812 669.334M-429.893 679.39L-273.106 679.868M-429.893 679.39L-534.098 693.6M-429.893 679.39L-373.201 694.358M-385.805 655.717L-330.812 669.334M-385.805 655.717L-236.527 659.492M-330.812 669.334L-273.106 679.868M-330.812 669.334L-236.527 659.492M-330.812 669.334L-177.917 667.438M-273.106 679.868L-177.917 667.438M-273.106 679.868L-116.43 677.444M-273.106 679.868L-373.201 694.358M-273.106 679.868L-212.442 693.287M-236.527 659.492L-177.917 667.438M-236.527 659.492L-87.1933 654.942M-177.917 667.438L-116.43 677.444M-177.917 667.438L-87.1933 654.942M-177.917 667.438L-24.994 664.57M-177.917 667.438L-116.402 677.444M-116.43 677.444L-212.442 693.287M-87.1933 654.942L-24.994 664.57M-87.1933 654.942L62.1401 654.877M-24.994 664.57L-116.402 677.444M-24.994 664.57L62.1401 654.877M-24.994 664.57L40.302 677.395M-24.994 664.57L127.929 669.515M-116.402 677.444L40.302 677.395M-116.402 677.444L-51.682 692.166M-116.402 677.444L-212.442 693.287M62.1401 654.877L127.929 669.515M62.1401 654.877L211.447 668.196M-534.098 693.6L-478.721 713.547M-534.098 693.6L-373.201 694.358M-478.721 713.547L-373.201 694.358M-478.721 713.547L-313.523 713.217M-478.721 713.547L-589.94 737.879M-478.721 713.547L-420.248 737.928M-373.201 694.358L-313.523 713.217M-373.201 694.358L-212.442 693.287M40.302 677.395L-51.682 692.166M40.302 677.395L127.929 669.515M40.302 677.395L197.198 683.709M40.302 677.395L109.105 694.094M-51.682 692.166L-148.379 712.953M-51.682 692.166L16.8195 712.986M-51.682 692.166L-212.442 693.287M-51.682 692.166L109.105 694.094M-51.682 692.166L109.105 694.111M-313.523 713.217L-212.442 693.287M-313.523 713.217L-148.379 712.953M-313.523 713.217L-420.248 737.928M-313.523 713.217L-250.419 737.994M-212.442 693.287L-148.379 712.953M-148.379 712.953L16.8195 712.986M-148.379 712.953L-250.419 737.994M-148.379 712.953L-80.5349 738.06M16.8195 712.986L109.105 694.094M16.8195 712.986L182.073 713.629M16.8195 712.986L109.105 694.111M16.8195 712.986L-80.5349 738.06M16.8195 712.986L89.349 738.126M127.929 669.515L197.198 683.709M127.929 669.515L211.447 668.196M127.929 669.515L281.017 680.362M197.198 683.709L281.017 680.362M197.198 683.709L354.286 688.836M197.198 683.709L109.105 694.094M197.198 683.709L270.303 696.979M211.447 668.196L281.017 680.362M211.447 668.196L360.752 680.857M281.017 680.362L354.286 688.836M281.017 680.362L360.752 680.857M281.017 680.362L434.159 686.297M354.286 688.836L434.159 686.297M354.286 688.836L511.374 690.649M354.286 688.836L270.303 696.979M354.286 688.836L431.501 697.886M360.752 680.857L434.159 686.297M360.752 680.857L510.059 684.978L434.159 686.297M434.159 686.297L511.374 690.649M511.374 690.649L431.501 697.886M109.105 694.094L182.073 713.629M109.105 694.094L270.303 696.979M182.073 713.629L270.303 696.979M182.073 713.629L109.105 694.111M182.073 713.629L347.436 713.876M182.073 713.629L89.349 738.126M182.073 713.629L259.014 738.175M109.105 694.111L270.303 696.979M270.303 696.979L347.436 713.876M270.303 696.979L431.501 697.886M347.436 713.876L431.501 697.886M347.436 713.876L512.799 714.635M347.436 713.876L259.014 738.175M347.436 713.876L428.706 738.241M431.501 697.886L512.799 714.635M512.799 714.635L428.706 738.241M-589.94 737.879L-532.947 764.271M-589.94 737.879L-420.248 737.928M-532.947 764.271L-420.248 737.928M-532.947 764.271L-358.405 764.337M-532.947 764.271L-652.167 792.147M-532.947 764.271L-472.638 792.213M-420.248 737.928L-358.405 764.337M-420.248 737.928L-250.419 737.994M-358.405 764.337L-250.419 737.994M-358.405 764.337L-183.781 764.403M-358.405 764.337L-472.638 792.213M-358.405 764.337L-293.082 792.296M-250.419 737.994L-183.781 764.403M-250.419 737.994L-80.5349 738.06M-183.781 764.403L-80.5349 738.06M-183.781 764.403L-9.1017 764.469M-183.781 764.403L-113.471 792.361M-183.781 764.403L-293.082 792.296M-80.5349 738.06L-9.1017 764.469M-80.5349 738.06L89.349 738.126M-652.167 792.147L-593.667 821.787M-652.167 792.147L-472.638 792.213M-593.667 821.787L-472.638 792.213M-593.667 821.787L-408.795 821.87M-593.667 821.787L-722.176 853.224M-593.667 821.787L-531.577 853.29M-472.638 792.213L-408.795 821.87M-472.638 792.213L-293.082 792.296M-9.1017 764.469L-113.471 792.361M-9.1017 764.469L89.349 738.126M-9.1017 764.469L165.441 764.535M-9.1017 764.469L66.1407 792.427M-113.471 792.361L-224.005 821.936M-113.471 792.361L-39.1873 822.018M-113.471 792.361L-293.082 792.296M-113.471 792.361L66.1407 792.427M-408.795 821.87L-293.082 792.296M-408.795 821.87L-224.005 821.936M-408.795 821.87L-531.577 853.29M-408.795 821.87L-341.17 853.373M-293.082 792.296L-224.005 821.936M-224.005 821.936L-39.1873 822.018M-224.005 821.936L-341.17 853.373M-224.005 821.936L-150.79 853.455M-39.1873 822.018L66.1407 792.427M-39.1873 822.018L145.794 822.084M-39.1873 822.018L-150.79 853.455M-39.1873 822.018L39.6441 853.537M89.349 738.126L165.441 764.535M89.349 738.126L259.014 738.175M165.441 764.535L259.014 738.175M165.441 764.535L339.901 764.601M165.441 764.535L66.1407 792.427M165.441 764.535L245.779 792.493M259.014 738.175L339.901 764.601M259.014 738.175L428.706 738.241M339.901 764.601L428.706 738.241M339.901 764.601L514.388 765.771M339.901 764.601L245.779 792.493M339.901 764.601L425.418 792.559M428.706 738.241L514.388 765.771M514.388 765.771L425.418 792.559M66.1407 792.427L145.794 822.084M66.1407 792.427L245.779 792.493M145.794 822.084L245.779 792.493M145.794 822.084L330.996 822.15M145.794 822.084L39.6441 853.537M145.794 822.084L230.654 853.603M245.779 792.493L330.996 822.15M245.779 792.493L425.418 792.559M330.996 822.15L425.418 792.559M330.996 822.15L516.196 822.43M330.996 822.15L230.654 853.603M330.996 822.15L421.719 853.686M425.418 792.559L516.196 822.43M516.196 822.43L421.719 853.686M-2436.28 852.532L-2245.93 852.598M-2436.28 852.532L-2430.93 886.013M-2245.93 852.598L-2430.93 886.013M-2245.93 852.598L-2234.53 886.095M-2245.93 852.598L-2055.55 852.68M-2430.93 886.013L-2234.53 886.095M-2430.93 886.013L-2628 921.571L-2425.18 921.67M-2430.93 886.013L-2425.18 921.67M-2234.53 886.095L-2055.55 852.68M-2234.53 886.095L-2038.09 886.161M-2234.53 886.095L-2425.18 921.67M-2234.53 886.095L-2222.33 921.752M-2055.55 852.68L-2038.09 886.161M-2055.55 852.68L-1865.17 852.763M-2055.55 852.68L-2038.09 886.178L-1865.17 852.763M-2038.09 886.161L-1865.17 852.763M-2038.09 886.161L-1841.63 886.244M-2038.09 886.161L-2222.33 921.752M-2038.09 886.161L-2019.43 921.835M-1865.17 852.763L-1841.63 886.244M-1865.17 852.763L-1674.73 852.829M-1865.17 852.763L-1841.63 886.26L-1674.73 852.829M-1841.63 886.244L-1674.73 852.829M-1841.63 886.244L-1645.14 886.326M-1841.63 886.244L-1816.53 921.934M-1841.63 886.244L-2019.43 921.835M-1674.73 852.829L-1645.14 886.326M-1674.73 852.829L-1484.27 852.911M-2425.18 921.67L-2222.33 921.752M-2222.33 921.752L-2019.43 921.835M-1645.14 886.326L-1816.53 921.934M-1645.14 886.326L-1484.27 852.911M-1645.14 886.326L-1448.62 886.408M-1645.14 886.326L-1816.5 921.934L-1613.57 922.016M-1645.14 886.326L-1613.57 922.016M-1816.53 921.934L-2019.43 921.835M-1484.27 852.911L-1448.62 886.408M-1484.27 852.911L-1293.81 852.993M-1448.62 886.408L-1293.81 852.993M-1448.62 886.408L-1252.08 886.491M-1448.62 886.408L-1613.57 922.016M-1448.62 886.408L-1410.59 922.099M-1293.81 852.993L-1252.08 886.491M-1293.81 852.993L-1103.29 853.059M-1252.08 886.491L-1103.29 853.059M-1252.08 886.491L-1055.5 886.573M-1252.08 886.491L-1410.59 922.099M-1252.08 886.491L-1207.58 922.197M-1103.29 853.059L-1055.5 886.573M-1103.29 853.059L-912.747 853.142M-1055.5 886.573L-912.747 853.142M-1055.5 886.573L-858.878 886.656M-1055.5 886.573L-1004.51 922.28M-1055.5 886.573L-1207.58 922.197M-912.747 853.142L-858.878 886.656M-912.747 853.142L-722.176 853.224M-1613.57 922.016L-1410.59 922.099M-1410.59 922.099L-1207.58 922.197M-858.878 886.656L-1004.51 922.28M-858.878 886.656L-722.176 853.224M-858.878 886.656L-662.251 886.738M-858.878 886.656L-801.446 922.362M-1004.51 922.28L-1207.58 922.197M-1004.51 922.28L-801.446 922.362M-722.176 853.224L-662.251 886.738M-722.176 853.224L-531.577 853.29M-722.176 853.224L-531.577 853.307M-662.251 886.738L-531.577 853.307M-662.251 886.738L-531.577 853.29M-662.251 886.738L-465.651 886.821M-662.251 886.738L-801.446 922.362M-662.251 886.738L-598.325 922.445M-531.577 853.29L-465.651 886.821M-531.577 853.29L-341.17 853.373M-531.577 853.307L-341.17 853.373M-531.577 853.307L-465.651 886.821M-465.651 886.821L-341.17 853.373M-465.651 886.821L-269.188 886.903M-465.651 886.821L-598.325 922.445M-465.651 886.821L-395.231 922.544M-341.17 853.373L-269.188 886.903M-341.17 853.373L-150.79 853.455M-269.188 886.903L-150.79 853.455M-269.188 886.903L-72.6984 886.985M-269.188 886.903L-192.083 922.626M-269.188 886.903L-395.231 922.544M-150.79 853.455L-72.6984 886.985M-150.79 853.455L39.6441 853.537M-801.446 922.362L-598.325 922.445M-598.325 922.445L-395.231 922.544M-72.6984 886.985L-192.083 922.626M-72.6984 886.985L39.6441 853.537M-72.6984 886.985L124.066 887.068M-72.6984 886.985L11.1201 922.709M-192.083 922.626L-395.231 922.544M-192.083 922.626L11.1201 922.709M39.6441 853.537L124.066 887.068M39.6441 853.537L230.654 853.603M124.066 887.068L230.654 853.603M124.066 887.068L321.158 887.15M124.066 887.068L11.1201 922.709M124.066 887.068L214.378 922.807M230.654 853.603L321.158 887.15M230.654 853.603L421.719 853.686M321.158 887.15L421.719 853.686M321.158 887.15L518.224 886.854M321.158 887.15L214.378 922.807M321.158 887.15L417.664 922.89M421.719 853.686L518.224 886.854M518.224 886.854L417.664 922.89M11.1201 922.709L214.378 922.807M214.378 922.807L417.664 922.89M510.744 685.044L434.816 686.363M510.744 685.044L587.959 691.325M510.744 685.044L660.187 693.204M434.816 686.363L587.959 691.325M434.816 686.363L512.086 690.797M587.959 691.325L512.086 690.797M587.959 691.325L669.092 705.469M587.959 691.325L660.187 693.204M587.959 691.325L741.101 708.321M512.086 690.797L669.092 705.469M512.086 690.797L432.186 698.133M512.086 690.797L593.357 705.387M669.092 705.469L741.101 708.321M669.092 705.469L826.152 731.07M669.092 705.469L593.357 705.387M669.092 705.469L754.472 729.966M660.187 693.204L741.101 708.321M660.187 693.204L809.657 708.964M741.101 708.321L826.152 731.07M741.101 708.321L809.657 708.964M741.101 708.321L894.27 731.004M826.152 731.07L894.27 731.004M826.152 731.07L983.213 759.227M826.152 731.07L754.472 729.966M826.152 731.07L915.615 762.326M809.657 708.964L894.27 731.004M809.657 708.964L959.128 726.471M894.27 731.004L983.213 759.227M894.27 731.004L959.128 726.471M894.27 731.004L1047.47 752.286M983.213 759.227L1047.47 752.286M983.213 759.227L1140.3 781.514M983.213 759.227L1076.79 792.774M983.213 759.227L915.615 762.326M959.128 726.471L1047.47 752.286M959.128 726.471L1108.63 739.89M1047.47 752.286L1108.63 739.89M1047.47 752.286L1140.3 781.514M1047.47 752.286L1200.66 765.013M1108.63 739.89L1200.66 765.013M1108.63 739.89L1258.92 743.187M432.186 698.133L593.357 705.387M432.186 698.133L513.566 715.129M593.357 705.387L513.566 715.129M593.357 705.387L678.984 733.065M593.357 705.387L754.472 729.966M513.566 715.129L678.984 733.065M513.566 715.129L429.418 738.802M513.566 715.129L599.33 746.583M678.984 733.065L754.472 729.966M678.984 733.065L844.429 765.277M678.984 733.065L599.33 746.583M678.984 733.065L769.296 772.118M754.472 729.966L844.429 765.277M754.472 729.966L915.615 762.326M1140.3 781.514L1076.79 792.774M1140.3 781.514L1200.66 765.013M1140.3 781.514L1298.18 788.867M1140.3 781.514L1237.96 811.633M1076.79 792.774L1009.87 800.818M1076.79 792.774L1175.37 828.727M1076.79 792.774L915.615 762.326M1076.79 792.774L1237.96 811.633M844.429 765.277L915.615 762.326M844.429 765.277L1009.87 800.818M844.429 765.277L769.296 772.118M844.429 765.277L939.29 805.731M915.615 762.326L1009.87 800.818M1009.87 800.818L1175.37 828.727M1009.87 800.818L939.29 805.731M1009.87 800.818L1109.31 837.366M1175.37 828.727L1237.96 811.633M1175.37 828.727L1340.98 837.794M1175.37 828.727L1109.31 837.366M1175.37 828.727L1279.33 856.999M1200.66 765.013L1298.18 788.867M1200.66 765.013L1258.92 743.187M1200.66 765.013L1357.31 759.705M1298.18 788.867L1357.31 759.705M1298.18 788.867L1459.63 770.057M1298.18 788.867L1237.98 811.633M1298.18 788.867L1401.24 805.896M1298.18 788.867L1237.96 811.633M1258.92 743.187L1357.31 759.705M1258.92 743.187L1412.88 729.817M1357.31 759.705L1459.63 770.057M1357.31 759.705L1412.88 729.817M1357.31 759.705L1515.03 735.208M1459.63 770.057L1515.03 735.208M1459.63 770.057L1620.28 734.763M1459.63 770.057L1401.24 805.896M1459.63 770.057L1564.43 773.981M1412.88 729.817L1515.03 735.208M1412.88 729.817L1566.6 704.958M1515.03 735.208L1620.28 734.763M1515.03 735.208L1566.6 704.958M1515.03 735.208L1673.22 701.068M1620.28 734.763L1673.22 701.068M1620.28 734.763L1781.56 693.765M1620.28 734.763L1727.03 729.62M1620.28 734.763L1564.43 773.981M1566.6 704.958L1673.22 701.068M1566.6 704.958L1722.34 675.005M1673.22 701.068L1722.34 675.005M1673.22 701.068L1781.56 693.765M1673.22 701.068L1832.58 666.663M1722.34 675.005L1832.58 666.663M1722.34 675.005L1878.78 649.288M1237.96 811.633L1340.98 837.794M1340.98 837.794L1401.24 805.896M1340.98 837.794L1237.98 811.633M1340.98 837.794L1506.13 815.836M1340.98 837.794L1279.33 856.999M1340.98 837.794L1448.42 850.966M1237.98 811.633L1401.24 805.896M1401.24 805.896L1506.13 815.836M1401.24 805.896L1564.43 773.981M1781.56 693.765L1727.03 729.62M1781.56 693.765L1832.58 666.663M1781.56 693.765L1943.47 659.509M1781.56 693.765L1890.01 686.165M1727.03 729.62L1564.43 773.981M1727.03 729.62L1669.95 772.382M1727.03 729.62L1833.43 722.696M1727.03 729.62L1890.01 686.165M1506.13 815.836L1564.43 773.981M1506.13 815.836L1669.95 772.382M1506.13 815.836L1448.42 850.966M1506.13 815.836L1615.73 817.633M1564.43 773.981L1669.95 772.382M1669.95 772.382L1615.73 817.633M1669.95 772.382L1782.46 771.343M1669.95 772.382L1833.43 722.696M429.418 738.802L599.33 746.583M429.418 738.802L515.21 766.381M599.33 746.583L515.21 766.381M599.33 746.583L689.944 781.877M599.33 746.583L769.296 772.118M515.21 766.381L689.944 781.877M515.21 766.381L426.185 793.186M515.21 766.381L605.988 798.296M689.944 781.877L769.296 772.118M689.944 781.877L864.705 808.319M689.944 781.877L605.988 798.296M689.944 781.877L785.819 815.243M769.296 772.118L864.705 808.319M769.296 772.118L939.29 805.731M864.705 808.319L939.29 805.731M864.705 808.319L1039.49 837.3M864.705 808.319L785.819 815.243M864.705 808.319L965.676 837.613M939.29 805.731L1039.49 837.3M939.29 805.731L1109.31 837.366M1039.49 837.3L1109.31 837.366M1039.49 837.3L1214.31 860.445M1039.49 837.3L1145.53 858.648M1039.49 837.3L965.676 837.613M1109.31 837.366L1214.31 860.445M1109.31 837.366L1279.33 856.999M426.185 793.186L605.988 798.296M426.185 793.186L517.045 823.09M605.988 798.296L517.045 823.09M605.988 798.296L702.219 830.442M605.988 798.296L785.819 815.243M517.045 823.09L702.219 830.442M517.045 823.09L422.513 854.395M517.045 823.09L613.496 855.07M702.219 830.442L785.819 815.243M702.219 830.442L887.448 844.405M702.219 830.442L613.496 855.07M702.219 830.442L804.396 861.038M785.819 815.243L887.448 844.405M785.819 815.243L965.676 837.613M1214.31 860.445L1145.53 858.648M1214.31 860.445L1279.33 856.999M1214.31 860.445L1388.96 868.638M1214.31 860.445L1325.45 871.671M1145.53 858.648L1072.68 859.901M1145.53 858.648L1257.96 871.885M1145.53 858.648L965.676 837.613M1145.53 858.648L1325.45 871.671M887.448 844.405L965.676 837.613M887.448 844.405L1072.68 859.901M887.448 844.405L804.396 861.038M887.448 844.405L995.351 869.726M965.676 837.613L1072.68 859.901M1072.68 859.901L1257.96 871.885M1072.68 859.901L995.351 869.726M1072.68 859.901L1186.33 877.77M1257.96 871.885L1325.45 871.671M1257.96 871.885L1443.21 875.495M1257.96 871.885L1186.33 877.77M1257.96 871.885L1377.32 881.76M1279.33 856.999L1388.96 868.638M1279.33 856.999L1448.42 850.966M1388.96 868.638L1448.42 850.966M1388.96 868.638L1561.67 849.845M1388.96 868.638L1325.45 871.671M1388.96 868.638L1504.56 867.896M1448.42 850.966L1561.67 849.845M1448.42 850.966L1615.73 817.633M1561.67 849.845L1615.73 817.633M1561.67 849.845L1733.44 814.55M1561.67 849.845L1504.56 867.896M1561.67 849.845L1682.45 846.037M1615.73 817.633L1733.44 814.55M1615.73 817.633L1782.46 771.343M1733.44 814.55L1782.46 771.343M1733.44 814.55L1905.11 774.096M1733.44 814.55L1859.7 815.589M1733.44 814.55L1682.45 846.037M1782.46 771.343L1833.43 722.696M1782.46 771.343L1905.11 774.096M1782.46 771.343L1949.44 726.339M1833.43 722.696L1890.01 686.165M1833.43 722.696L1997.48 682.258M1833.43 722.696L1949.44 726.339M1325.45 871.671L1443.21 875.495M1325.45 871.671L1504.56 867.896M1443.21 875.495L1504.56 867.896M1443.21 875.495L1627.79 866.742M1443.21 875.495L1377.32 881.76M1443.21 875.495L1568.49 881.001M1504.56 867.896L1627.79 866.742M1504.56 867.896L1682.45 846.037M1905.11 774.096L1859.7 815.589M1905.11 774.096L1949.44 726.339M1905.11 774.096L2077.24 740.714M1905.11 774.096L2036.96 786.015M1859.7 815.589L1811.7 848.13M1859.7 815.589L1994.82 826.931M1859.7 815.589L1682.45 846.037M1859.7 815.589L2036.96 786.015M1627.79 866.742L1682.45 846.037M1627.79 866.742L1811.67 848.13M1627.79 866.742L1568.49 881.001M1627.79 866.742L1759.36 873.237M1682.45 846.037L1811.67 848.13M1682.45 846.037L1811.7 848.13M1811.67 848.13L1759.36 873.237M1811.7 848.13L1994.82 826.931M1811.7 848.13L1759.36 873.237M1811.7 848.13L1949.33 861.615M1994.82 826.931L2036.96 786.015M1994.82 826.931L2178.21 810.001M1994.82 826.931L1949.33 861.615M1994.82 826.931L2138.97 850.719M1832.58 666.663L1943.47 659.509M1832.58 666.663L1878.78 649.288M1832.58 666.663L1992.43 643.469M1943.47 659.509L1992.43 643.469M1943.47 659.509L2105.38 645.051M1943.47 659.509L1890.01 686.165M1943.47 659.509L2053.84 657.761M1878.78 649.288L1992.43 643.469M1878.78 649.288L2034.3 638.128M1992.43 643.469L2105.38 645.051M1992.43 643.469L2034.3 638.128M1992.43 643.469L2145.33 640.897M2105.38 645.051L2145.33 640.897M2105.38 645.051L2257.81 648.497M2105.38 645.051L2053.84 657.761M2105.38 645.051L2214.79 655.618M2034.3 638.128L2145.33 640.897M2034.3 638.128L2178.62 637.188M2145.33 640.897L2257.81 648.497M2145.33 640.897L2178.62 637.188M2145.33 640.897L2293.51 641.623M2257.81 648.497L2293.51 641.623M2257.81 648.497L2411.2 653.146M2257.81 648.497L2373.93 662.592M2257.81 648.497L2214.79 655.618M2178.62 637.188L2293.51 641.623M2178.62 637.188L2323.49 632.473M2293.51 641.623L2323.49 632.473M2293.51 641.623L2411.2 653.146M2293.51 641.623L2442.19 641.507M2323.49 632.473L2442.19 641.507M2323.49 632.473L2468.52 626.555M1890.01 686.165L1997.48 682.258M1890.01 686.165L2053.84 657.761M1997.48 682.258L2053.84 657.761M1997.48 682.258L1890.04 686.165L2053.84 657.761M1997.48 682.258L2162.89 666.564M1997.48 682.258L1949.44 726.339M1997.48 682.258L2117.38 696.847M2053.84 657.761L2162.89 666.564M2053.84 657.761L2214.79 655.618M2411.2 653.146L2373.93 662.592M2411.2 653.146L2442.19 641.507M2411.2 653.146L2564.94 658.19M2411.2 653.146L2533.9 672.037M2373.93 662.592L2328.75 672.087M2373.93 662.592L2496.03 683.808M2373.93 662.592L2214.79 655.618M2373.93 662.592L2533.9 672.037M2162.89 666.564L2214.79 655.618M2162.89 666.564L2328.75 672.087M2162.89 666.564L2117.38 696.847M2162.89 666.564L2287.78 694.177M2214.79 655.618L2328.75 672.087M2328.75 672.087L2496.03 683.808M2328.75 672.087L2287.78 694.177M2328.75 672.087L2460.46 703.194M2496.03 683.808L2533.9 672.037M2496.03 683.808L2663.8 697.573M2496.03 683.808L2460.46 703.194M2496.03 683.808L2633.99 716.201M2442.19 641.507L2564.94 658.19M2442.19 641.507L2468.52 626.555M2442.19 641.507L2590.89 641.441M2564.94 658.19L2590.89 641.441M2564.94 658.19L2718.39 662.855M2564.94 658.19L2533.9 672.037M2564.94 658.19L2693.89 681.467M2468.52 626.555L2590.89 641.441M2468.52 626.555L2613.41 621.972M2590.89 641.441L2718.39 662.855M2590.89 641.441L2613.41 621.972M2590.89 641.441L2739.1 642.266M2718.39 662.855L2739.1 642.266M2718.39 662.855L2870.87 666.301M2718.39 662.855L2693.89 681.467M2718.39 662.855L2853.09 688.391M2613.41 621.972L2739.1 642.266M2613.41 621.972L2757.73 621.28L2739.1 642.266M2739.1 642.266L2870.87 666.301M2870.87 666.301L2853.09 688.391M2533.9 672.037L2663.8 697.573M2533.9 672.037L2693.89 681.467M2663.8 697.573L2693.89 681.467M2663.8 697.573L2831.17 709.228M2663.8 697.573L2633.99 716.201M2663.8 697.573L2807.55 729.158M2693.89 681.467L2831.17 709.228M2693.89 681.467L2853.09 688.391M2831.17 709.228L2853.09 688.391M2831.17 709.228L2997.13 714.602M2831.17 709.228L2807.55 729.158M2831.17 709.228L2980.25 738.06M2853.09 688.391L2997.13 714.602M2997.13 714.602L2980.25 738.06M1949.44 726.339L2077.24 740.714M1949.44 726.339L2117.38 696.847M1949.44 726.339L2077.27 740.714M2077.24 740.714L2036.96 786.015M2117.38 696.847L2077.27 740.714M2117.38 696.847L2250.66 726.29M2117.38 696.847L2287.78 694.177M2077.27 740.714L2250.66 726.29M2077.27 740.714L2036.96 786.015M2077.27 740.714L2214.87 766.793M2250.66 726.29L2287.78 694.177M2250.66 726.29L2427.53 730.971M2250.66 726.29L2214.87 766.793M2250.66 726.29L2395.03 765.062M2287.78 694.177L2427.53 730.971M2287.78 694.177L2460.46 703.194M2287.78 694.177L2427.56 730.971L2460.46 703.194M2427.53 730.971L2460.46 703.194M2427.53 730.971L2605.5 740.665M2427.53 730.971L2577.25 770.816M2427.53 730.971L2395.06 765.062M2427.53 730.971L2395.03 765.062M2460.46 703.194L2605.5 740.665M2460.46 703.194L2633.99 716.201M2460.46 703.194L2605.52 740.665L2633.99 716.201M2036.96 786.015L2178.21 810.001M2036.96 786.015L2214.87 766.793M2036.96 786.015L2178.24 810.001L2214.87 766.793M2178.21 810.001L2214.87 766.793M2178.21 810.001L2362.42 804.231M2178.21 810.001L2138.97 850.719M2178.21 810.001L2328.97 845.031M2214.87 766.793L2362.42 804.231M2214.87 766.793L2395.03 765.062M2214.87 766.793L2395.06 765.062M2605.5 740.665L2577.25 770.816M2605.5 740.665L2633.99 716.201M2605.5 740.665L2783.85 752.006M2605.5 740.665L2760.03 779.207M2577.25 770.816L2549 806.192M2577.25 770.816L2736.22 811.187M2577.25 770.816L2395.06 765.062M2577.25 770.816L2760.03 779.207M2577.25 770.816L2760.03 779.223M2362.42 804.231L2395.03 765.062M2362.42 804.231L2549 806.192M2362.42 804.231L2395.06 765.062M2362.42 804.231L2328.97 845.031M2362.42 804.231L2520 845.394M2395.03 765.062L2549 806.192M2549 806.192L2736.22 811.187M2549 806.192L2395.06 765.062M2549 806.192L2520 845.394M2549 806.192L2712 847.306M2736.22 811.187L2760.03 779.207M2736.22 811.187L2923.7 817.155M2736.22 811.187L2760.03 779.223M2736.22 811.187L2712 847.306M2736.22 811.187L2904.3 850.537M2633.99 716.201L2783.85 752.006M2633.99 716.201L2807.55 729.158M2633.99 716.201L2807.55 729.175M2783.85 752.006L2807.55 729.175M2783.85 752.006L2807.55 729.158M2783.85 752.006L2961.84 761.633M2783.85 752.006L2760.03 779.223M2783.85 752.006L2942.85 787.597M2783.85 752.006L2760.03 779.207M2807.55 729.158L2961.84 761.633M2807.55 729.158L2980.25 738.06M2807.55 729.175L2980.25 738.06M2807.55 729.175L2961.84 761.633M2961.84 761.633L2980.25 738.06M2961.84 761.633L3138.79 766.2M2961.84 761.633L2942.85 787.597M2961.84 761.633L3125.09 793.268M2980.25 738.06L3138.79 766.2M3138.79 766.2L3125.09 793.268M2760.03 779.207L2923.7 817.155M2923.7 817.155L2942.85 787.597M2923.7 817.155L2760.03 779.223M2923.7 817.155L3110.96 822.101M2923.7 817.155L2904.3 850.537M2923.7 817.155L3096.62 853.752M2760.03 779.223L2942.85 787.597M2942.85 787.597L3110.96 822.101M2942.85 787.597L3125.09 793.268M3110.96 822.101L3125.09 793.268M3110.96 822.101L3297.61 823.996M3110.96 822.101L3096.62 853.752M3110.96 822.101L3288.68 855.631M3125.09 793.268L3297.61 823.996M3297.61 823.996L3288.68 855.631M422.513 854.395L613.496 855.07M422.513 854.395L519.128 887.595M613.496 855.07L519.128 887.595M613.496 855.07L716.084 888.172M613.496 855.07L804.396 861.038M613.496 855.07L716.111 888.172M519.128 887.595L716.084 888.172M519.128 887.595L418.54 923.681L621.99 923.714M519.128 887.595L621.99 923.714M716.084 888.172L621.99 923.714M804.396 861.038L716.111 888.172M804.396 861.038L913.122 891.008M804.396 861.038L995.351 869.726M716.111 888.172L913.122 891.008M716.111 888.172L621.99 923.714M716.111 888.172L825.467 923.813M913.122 891.008L995.351 869.726M913.122 891.008L1110.16 894.354M913.122 891.008L825.467 923.813M913.122 891.008L1028.97 923.961M995.351 869.726L1110.16 894.354M995.351 869.726L1186.33 877.77M1110.16 894.354L1186.33 877.77M1110.16 894.354L1307.23 896.514M1110.16 894.354L1232.5 924.093M1110.16 894.354L1028.97 923.961M1186.33 877.77L1307.23 896.514M1186.33 877.77L1377.32 881.76M621.99 923.714L825.467 923.813M825.467 923.813L1028.97 923.961M1307.23 896.514L1232.5 924.093M1307.23 896.514L1377.32 881.76M1307.23 896.514L1504.4 896.431M1307.23 896.514L1436.06 924.159M1232.5 924.093L1028.97 923.961M1232.5 924.093L1436.06 924.159M1377.32 881.76L1504.4 896.431M1377.32 881.76L1568.49 881.001M1377.32 881.76L1504.4 896.448L1568.49 881.001M1504.4 896.431L1568.49 881.001M1504.4 896.431L1701.96 895.904M1504.4 896.431L1436.06 924.159M1504.4 896.431L1639.7 924.258M1568.49 881.001L1701.96 895.904M1568.49 881.001L1759.36 873.237M1701.96 895.904L1759.36 873.237M1701.96 895.904L1899.22 892.079M1701.96 895.904L1639.7 924.258M1701.96 895.904L1843.35 924.324M1759.36 873.237L1899.22 892.079M1759.36 873.237L1949.33 861.615M1899.22 892.079L1949.33 861.615M1899.22 892.079L2095.68 887.892M1899.22 892.079L2047.02 924.357M1899.22 892.079L1843.35 924.324M1949.33 861.615L2095.68 887.892M1949.33 861.615L2138.97 850.719M1436.06 924.159L1639.7 924.258M1639.7 924.258L1843.35 924.324M2095.68 887.892L2047.02 924.357M2095.68 887.892L2138.97 850.719M2095.68 887.892L2292.22 885.139M2095.68 887.892L2250.68 924.423M2047.02 924.357L1843.35 924.324M2047.02 924.357L2250.68 924.423M2138.97 850.719L2292.22 885.139M2138.97 850.719L2328.97 845.031M2292.22 885.139L2328.97 845.031M2292.22 885.139L2489.07 885.996M2292.22 885.139L2250.68 924.423M2292.22 885.139L2454.41 924.522M2328.97 845.031L2489.07 885.996M2328.97 845.031L2520 845.394M2328.97 845.031L2520 845.41M2489.07 885.996L2520 845.394M2489.07 885.996L2686.46 885.98M2489.07 885.996L2520 845.41M2489.07 885.996L2454.41 924.522M2489.07 885.996L2658.16 924.637M2520 845.394L2686.46 885.98M2520 845.394L2712 847.306M2686.46 885.98L2712 847.306M2686.46 885.98L2520 845.41M2686.46 885.98L2884.08 886.986M2686.46 885.98L2861.96 924.736M2686.46 885.98L2658.16 924.637M2520 845.41L2712 847.306M2712 847.306L2884.08 886.986M2712 847.306L2904.3 850.537M2250.68 924.423L2454.41 924.522M2454.41 924.522L2658.16 924.637M2884.08 886.986L2861.96 924.736M2884.08 886.986L2904.3 850.537M2884.08 886.986L3081.83 888.304M2884.08 886.986L3065.8 924.835M2861.96 924.736L2658.16 924.637M2861.96 924.736L3065.8 924.835M2904.3 850.537L3081.83 888.304M2904.3 850.537L3096.62 853.752M2904.3 850.537L3096.62 853.768M3081.83 888.304L3096.62 853.768M3081.83 888.304L3096.62 853.752M3081.83 888.304L3279.5 889.293M3081.83 888.304L3065.8 924.835M3081.83 888.304L3269.66 924.918M3096.62 853.752L3279.5 889.293M3096.62 853.752L3288.68 855.631M3096.62 853.768L3288.68 855.631M3096.62 853.768L3279.5 889.293M3279.5 889.293L3288.68 855.631M3279.5 889.293L3477 889.26M3279.5 889.293L3269.66 924.918M3279.5 889.293L3473.55 925M3288.68 855.631L3477 889.26M3477 889.26L3473.55 925M3065.8 924.835L3269.66 924.918M3269.66 924.918L3473.55 925" stroke="#4A5164" stroke-width="0.3" stroke-miterlimit="10" stroke-linejoin="round"/>
</g>
</svg>
