<svg width="139" height="47" viewBox="0 0 139 47" fill="none" xmlns="http://www.w3.org/2000/svg">
<path d="M84 15.0002L139 6.22363V38.2236L84 47.0002V15.0002Z" fill="#00D0B7"/>
<path d="M94.913 38.024C94.4398 38.0989 94.0227 37.9962 93.6619 37.7159C93.3011 37.4355 93.0935 37.0571 93.0392 36.5806C92.9864 36.1143 93.1118 35.6911 93.4155 35.3108C93.7191 34.9305 94.1024 34.7036 94.5654 34.6303C95.0232 34.5578 95.4377 34.6609 95.8087 34.9396C96.185 35.2175 96.3935 35.5852 96.4343 36.0428C96.4643 36.365 96.4122 36.6686 96.278 36.9535C96.149 37.2376 95.9651 37.475 95.7264 37.6657C95.4877 37.8565 95.2165 37.9759 94.913 38.024ZM99.5497 20.9161L103.053 20.3613L107.668 31.3686L107.853 31.3393L112.621 18.8458L116.124 18.2909L116.004 34.5095L113.257 34.9446L113.343 23.8017L113.204 23.8237L108.743 35.612L106.698 35.9359L102.421 25.5079L102.274 25.5311L102.176 36.6996L99.4291 37.1347L99.5497 20.9161ZM119.121 34.0157L119.242 17.7972L129.52 16.1693L129.499 18.6326L122.083 19.8071L122.053 24.2098L128.936 23.1197L128.915 25.583L122.032 26.6731L122.005 31.099L129.482 29.9147L129.461 32.3781L119.121 34.0157Z" fill="#022723"/>
<path d="M0 15L94 0V32L0 47V15Z" fill="#FFD600"/>
<path d="M8.13073 37.9971L8.25133 21.7786L11.1141 21.3251L11.0681 28.7756L11.261 28.7451L17.4723 20.3181L20.9678 19.7645L14.8145 28.0082L20.9012 35.9745L17.4598 36.5195L12.8218 30.3092L11.0375 32.7275L10.9935 37.5437L8.13073 37.9971ZM24.8655 35.3466L21.8098 35.8305L27.4939 18.7308L31.028 18.1711L36.4785 33.5073L33.4229 33.9912L29.3112 21.7651L29.1878 21.7847L24.8655 35.3466ZM25.0107 28.9719L33.3443 27.652L33.3227 30.0126L24.9891 31.3325L25.0107 28.9719ZM38.56 33.1776L38.6806 16.959L44.6067 16.0204C45.8208 15.8281 46.8393 15.883 47.6623 16.1851C48.4853 16.4871 49.1063 16.9952 49.5252 17.7093C49.9434 18.4182 50.1474 19.2903 50.1373 20.3254C50.1324 21.3598 49.9112 22.2939 49.4738 23.1278C49.0407 23.9557 48.4037 24.6446 47.5626 25.1944C46.7268 25.7434 45.7018 26.114 44.4878 26.3063L40.267 26.9748L40.2918 24.5346L44.1345 23.926C44.8444 23.8136 45.4257 23.6213 45.8783 23.3492C46.33 23.072 46.6647 22.7211 46.8822 22.2964C47.104 21.8658 47.2168 21.3628 47.2206 20.7874C47.2192 20.2128 47.11 19.7397 46.893 19.3681C46.6802 18.9904 46.3466 18.7322 45.8922 18.5932C45.4421 18.4483 44.8621 18.432 44.1522 18.5445L41.5287 18.96L41.4228 32.7242L38.56 33.1776ZM46.778 24.5356L50.636 31.2649L47.4415 31.7709L43.6529 25.0306L46.778 24.5356ZM55.7607 14.2538L55.6401 30.4724L52.7773 30.9258L52.8979 14.7072L55.7607 14.2538ZM58.7401 29.9814L58.8607 13.7628L69.1388 12.1349L69.1177 14.5983L61.7023 15.7727L61.6719 20.1754L68.5549 19.0853L68.5337 21.5486L61.6507 22.6388L61.624 27.0646L69.1011 25.8804L69.08 28.3437L58.7401 29.9814ZM71.9389 27.8909L72.0595 11.6723L77.9856 10.7337C79.1996 10.5415 80.2181 10.5963 81.0412 10.8984C81.8642 11.2004 82.4851 11.7085 82.9041 12.4226C83.3222 13.1315 83.5263 14.0036 83.5162 15.0387C83.5113 16.0731 83.2901 17.0072 82.8527 17.8411C82.4196 18.6691 81.7825 19.3579 80.9415 19.9077C80.1056 20.4567 79.0807 20.8273 77.8666 21.0196L73.6458 21.6881L73.6706 19.2479L77.5134 18.6393C78.2233 18.5269 78.8045 18.3346 79.2571 18.0626C79.7089 17.7853 80.0435 17.4344 80.261 17.0097C80.4828 16.5791 80.5956 16.0761 80.5994 15.5007C80.5981 14.9261 80.4889 14.453 80.2718 14.0814C80.0591 13.7038 79.7255 13.4455 79.2711 13.3065C78.821 13.1616 78.241 13.1453 77.5311 13.2578L74.9075 13.6733L74.8016 27.4375L71.9389 27.8909ZM80.1569 19.2489L84.0149 25.9782L80.8203 26.4842L77.0318 19.7439L80.1569 19.2489Z" fill="#022723"/>
</svg>
