<svg width="1265" height="612" viewBox="0 0 1265 612" fill="none" xmlns="http://www.w3.org/2000/svg">
<mask id="mask0_396_40169" style="mask-type:alpha" maskUnits="userSpaceOnUse" x="0" y="0" width="1265" height="612">
<path d="M0 40C0 17.9086 17.9086 0 40 0H1225C1247.09 0 1265 17.9086 1265 40V572C1265 594.091 1247.09 612 1225 612H40C17.9086 612 0 594.091 0 572V40Z" fill="#007668"/>
</mask>
<g mask="url(#mask0_396_40169)">
<path opacity="0.8" d="M83.6667 552.884L55.369 557.013M83.6667 552.884L89.218 551.473M83.6667 552.884L113.165 541.757M55.369 557.013L89.218 551.473M55.369 557.013L62.8691 553.398M89.218 551.473L62.8691 553.398M89.218 551.473L95.5567 548.129M89.218 551.473L113.165 541.757M89.218 551.473L117.585 539.45M62.8691 553.398L95.5567 548.129M62.8691 553.398L33.2427 547.55M62.8691 553.398L70.4578 549.511M95.5567 548.129L117.585 539.45M95.5567 548.129L125.341 539.319M95.5567 548.129L70.4578 549.511M95.5567 548.129L104.346 548.007M113.165 541.757L117.585 539.45M113.165 541.757L138.284 525.306M117.585 539.45L125.341 539.319M117.585 539.45L138.284 525.306M117.585 539.45L144.16 525.044M125.341 539.319L144.16 525.044M125.341 539.319L155.233 529.837M125.341 539.319L104.346 548.007M125.341 539.319L137.221 544.682M138.284 525.306L144.16 525.044M138.284 525.306L163.452 508.854M144.16 525.044L155.233 529.837M144.16 525.044L163.452 508.854M144.16 525.044L172.664 512.339M155.233 529.837L172.664 512.339M155.233 529.837L188.216 522.531M155.233 529.837L171.375 541.16M155.233 529.837L137.221 544.682M163.452 508.854L172.664 512.339M163.452 508.854L193.039 497.7M172.664 512.339L193.039 497.7M172.664 512.339L188.216 522.531M172.664 512.339L206.769 505.407M193.039 497.7L206.769 505.407M193.039 497.7L253.217 494.309M33.2427 547.55L70.4578 549.511M33.2427 547.55L41.6187 544.233M70.4578 549.511L41.6187 544.233M70.4578 549.511L79.6214 549.904M70.4578 549.511L104.346 548.007M41.6187 544.233L79.6214 549.904M41.6187 544.233L9.44301 535.377M41.6187 544.233L50.674 546.251M79.6214 549.904L104.346 548.007M79.6214 549.904L116.177 553.818M79.6214 549.904L50.674 546.251M79.6214 549.904L90.7436 556.658M104.346 548.007L116.177 553.818M104.346 548.007L137.221 544.682M188.216 522.531L171.375 541.16M188.216 522.531L206.769 505.407M188.216 522.531L242.892 519.103M188.216 522.531L171.385 541.16M188.216 522.531L209.131 539.058M171.375 541.16L152.91 556.387M171.375 541.16L191.424 558.022M171.375 541.16L137.221 544.682M171.375 541.16L152.91 556.397L137.221 544.682M116.177 553.818L137.221 544.682M116.177 553.818L152.91 556.387M116.177 553.818L90.7436 556.658M116.177 553.818L130.557 565.804M137.221 544.682L152.91 556.387M152.91 556.387L191.424 558.022M152.91 556.387L130.557 565.804M152.91 556.387L171.04 572.857M191.424 558.022L209.131 539.058M191.424 558.022L241.662 558.471M191.424 558.022L171.385 541.16M191.424 558.022L171.04 572.857M191.424 558.022L213.088 576.977M206.769 505.407L242.892 519.103M206.769 505.407L253.217 494.309M206.769 505.407L278.257 499.905M242.892 519.103L278.257 499.905M242.892 519.103L296.987 511.825M242.892 519.103L209.131 539.058M242.892 519.103L270.264 536.199M253.217 494.309L278.257 499.905M253.217 494.309L312.736 484.686M278.257 499.905L296.987 511.825M278.257 499.905L312.736 484.686M278.257 499.905L321.505 488.33M296.987 511.825L321.505 488.33M296.987 511.825L330.846 501.269M296.987 511.825L270.264 536.199M296.987 511.825L312.145 529.79M312.736 484.686L321.505 488.33M312.736 484.686L344.291 470.028M321.505 488.33L330.846 501.269M321.505 488.33L344.291 470.028M321.505 488.33L347.047 474.559M330.846 501.269L347.047 474.559M330.846 501.269L355.315 490.516M330.846 501.269L342.116 522.12M330.846 501.269L312.145 529.79M344.291 470.028L347.047 474.559M344.291 470.028L362.618 455.072M347.047 474.559L362.618 455.072M347.047 474.559L355.315 490.516M347.047 474.559L367.687 462.48M362.618 455.072L367.687 462.48M362.618 455.072L382.461 444.524M171.385 541.16L209.131 539.058M209.131 539.058L241.662 558.471M209.131 539.058L270.264 536.199M241.662 558.471L270.264 536.199M241.662 558.471L289.91 556.088M241.662 558.471L213.088 576.977M241.662 558.471L263.926 577.445M270.264 536.199L289.91 556.088M270.264 536.199L312.145 529.79M270.264 536.199L312.145 529.8L289.91 556.088M355.315 490.516L342.116 522.12M355.315 490.516L367.687 462.48M355.315 490.516L381.251 482.65M355.315 490.516L369.095 515.45M342.116 522.12L312.145 529.79M342.116 522.12L325.669 552.165M342.116 522.12L355.906 548.166M342.116 522.12L369.095 515.45M289.91 556.088L312.145 529.79M289.91 556.088L325.669 552.165M289.91 556.088L263.926 577.445M289.91 556.088L304.359 576.875M312.145 529.79L325.669 552.165M325.669 552.165L304.359 576.875M325.669 552.165L338.71 575.959M325.669 552.165L355.906 548.166M9.44301 535.377L50.674 546.251M9.44301 535.377L18.1243 540.758M50.674 546.251L18.1243 540.758M50.674 546.251L60.625 555.07M50.674 546.251L90.7436 556.658M18.1243 540.758L60.625 555.07M18.1243 540.758L-16.3251 539.627M18.1243 540.758L26.8843 553.613M60.625 555.07L90.7436 556.658M60.625 555.07L103.145 569.42M60.625 555.07L26.8843 553.613M60.625 555.07L70.8122 569.55M90.7436 556.658L103.145 569.42M90.7436 556.658L130.557 565.804M103.145 569.42L130.557 565.804M103.145 569.42L145.922 581.761M103.145 569.42L70.8122 569.55M103.145 569.42L115.163 584.675M130.557 565.804L145.922 581.761M130.557 565.804L171.04 572.857M145.922 581.761L171.04 572.857M145.922 581.761L189.151 590.028M145.922 581.761L159.623 596.222M145.922 581.761L115.163 584.675M171.04 572.857L189.151 590.028M171.04 572.857L213.088 576.977M-16.3251 539.627L26.8843 553.613M-16.3251 539.627L-7.93911 558.62M26.8843 553.613L-7.93911 558.62M26.8843 553.613L36.6286 571.895M26.8843 553.613L70.8122 569.55M-7.93911 558.62L36.6286 571.895M-7.93911 558.62L-44.1406 570.952M-7.93911 558.62L1.12596 580.537M36.6286 571.895L70.8122 569.55M36.6286 571.895L81.6687 585.133M36.6286 571.895L1.12596 580.537M36.6286 571.895L46.9043 589.944M70.8122 569.55L81.6687 585.133M70.8122 569.55L115.163 584.675M189.151 590.028L159.623 596.222M189.151 590.028L213.088 576.977M189.151 590.028L234.752 592.551M189.151 590.028L203.885 601.426M159.623 596.222L126.935 596.484M159.623 596.222L172.172 604.144M159.623 596.222L115.163 584.675M159.623 596.222L203.885 601.426M81.6687 585.133L115.163 584.675M81.6687 585.133L126.935 596.484M81.6687 585.133L46.9043 589.944M81.6687 585.133L92.9681 598.249M115.163 584.675L126.935 596.484M126.935 596.484L172.172 604.144M126.935 596.484L92.9681 598.249M126.935 596.484L139.111 604.555M172.172 604.144L203.885 601.426M172.172 604.144L216.701 606.069M172.172 604.144L139.111 604.555M172.172 604.144L185.125 607.975M213.088 576.977L234.752 592.551M213.088 576.977L263.926 577.445M234.752 592.551L263.926 577.445M234.752 592.551L277.4 593.821M234.752 592.551L203.885 601.426M234.752 592.551L246.268 602.127M263.926 577.445L277.4 593.821M263.926 577.445L304.359 576.875M277.4 593.821L304.359 576.875M277.4 593.821L315.324 595.307M277.4 593.821L246.268 602.127M277.4 593.821L286.16 604.341M304.359 576.875L315.324 595.307M304.359 576.875L338.71 575.959M315.324 595.307L338.71 575.959M315.324 595.307L351.624 596.829M315.324 595.307L325.137 607.143M315.324 595.307L286.16 604.341M338.71 575.959L355.906 548.166M338.71 575.959L351.624 596.829M338.71 575.959L371.998 575.343M355.906 548.166L369.095 515.45M355.906 548.166L387.589 545.541M355.906 548.166L371.998 575.343M203.885 601.426L216.701 606.069M203.885 601.426L246.268 602.127M216.701 606.069L246.268 602.127M216.701 606.069L258.778 608.367M216.701 606.069L185.125 607.975M216.701 606.069L229.663 609.759M246.268 602.127L258.778 608.367M246.268 602.127L286.16 604.341M351.624 596.829L325.137 607.143M351.624 596.829L371.998 575.343M351.624 596.829L389.381 598.212M351.624 596.829L364.734 609.563M325.137 607.143L299.409 612.58M325.137 607.143L339.921 616.981M325.137 607.143L286.16 604.341M325.137 607.143L364.734 609.563M258.778 608.367L286.16 604.341M258.778 608.367L299.409 612.58M258.778 608.367L229.663 609.759M258.778 608.367L272.469 615.411M286.16 604.341L299.409 612.58M299.409 612.58L339.921 616.981M299.409 612.58L272.469 615.411M299.409 612.58L314.635 622.576M339.921 616.981L364.734 609.563M339.921 616.981L381.615 619.83M339.921 616.981L314.635 622.576M339.921 616.981L357.244 628.761M367.687 462.48L381.251 482.65M367.687 462.48L382.461 444.524M367.687 462.48L396.182 456.015M367.687 462.48L381.251 482.659L396.182 456.015M381.251 482.65L396.182 456.015M381.251 482.65L418.495 483.986M381.251 482.65L369.095 515.45M381.251 482.65L401.96 512.031M382.461 444.524L396.182 456.015M382.461 444.524L417.147 445.683M396.182 456.015L418.495 483.986M396.182 456.015L417.147 445.683M396.182 456.015L437.649 473.121M396.182 456.015L418.495 483.995L437.649 473.121M418.495 483.986L437.649 473.121M418.495 483.986L462.01 514.226M418.495 483.986L401.96 512.031M418.495 483.986L444.008 524.437M417.147 445.683L437.649 473.121M417.147 445.683L460.258 480.875M437.649 473.121L462.01 514.226M437.649 473.121L460.258 480.875M437.649 473.121L481.843 517.673M462.01 514.226L481.843 517.673M462.01 514.226L505.77 558.629M462.01 514.226L487.847 558.424M462.01 514.226L444.008 524.437M460.258 480.875L481.843 517.673M460.258 480.875L503.713 532.845M460.258 480.875L481.853 517.673M481.843 517.673L505.77 558.629M481.853 517.673L503.713 532.845M481.853 517.673L524.068 565.823M481.853 517.673L505.78 558.629M503.713 532.845L524.068 565.823M503.713 532.845L549.177 578.267M369.095 515.45L387.589 545.541M369.095 515.45L401.96 512.031M387.589 545.541L401.96 512.031M387.589 545.541L426.93 546.802M387.589 545.541L371.998 575.343M387.589 545.541L409.243 575.641M401.96 512.031L426.93 546.802M401.96 512.031L444.008 524.437M505.77 558.629L487.847 558.424M487.847 558.424L470.14 566.888M487.847 558.424L513.487 598.502M487.847 558.424L444.008 524.437M487.847 558.424L505.78 558.629M487.847 558.424L530.416 596.362M426.93 546.802L444.008 524.437M426.93 546.802L470.14 566.879M426.93 546.802L409.243 575.641M426.93 546.802L451.783 582.302M444.008 524.437L470.14 566.879M444.008 524.437L470.14 566.888M470.14 566.879L451.783 582.302M470.14 566.888L513.487 598.502M470.14 566.888L451.783 582.302M470.14 566.888L495.16 604.331M513.487 598.502L530.416 596.362M513.487 598.502L558.773 627.64M513.487 598.502L495.16 604.331M513.487 598.502L537.956 630.667M524.068 565.823L505.78 558.629M524.068 565.823L551.913 598.278M524.068 565.823L549.177 578.267M524.068 565.823L581.913 604.808M524.068 565.823L551.923 598.278M505.78 558.629L551.913 598.278M505.78 558.629L530.416 596.362M551.913 598.278L530.416 596.362M549.177 578.267L581.913 604.808M549.177 578.267L615.753 613.104M581.913 604.808L551.923 598.278M581.913 604.808L615.831 627.416M581.913 604.808L615.753 613.104M581.913 604.808L644.631 627.687M551.923 598.278L615.831 627.416M551.923 598.278L530.416 596.362M551.923 598.278L585.457 626.444M615.831 627.416L644.631 627.687M615.831 627.416L670.576 635.534M615.831 627.416L585.457 626.444M615.831 627.416L644.533 642.643M615.753 613.104L644.631 627.687M615.753 613.104L672.604 622.604M644.631 627.687L670.576 635.534M644.631 627.687L672.604 622.604M670.576 635.534L644.533 642.643M670.576 635.534L698.608 627.107M670.576 635.534L718.294 630.854M670.576 635.534L644.641 627.687M670.576 635.534L644.542 642.643M670.576 635.534L693.716 641.373M672.604 622.604L644.641 627.687M672.604 622.604L698.608 627.107M672.604 622.604L725.538 620.25M530.416 596.362L558.773 627.64M530.416 596.362L585.457 626.444M558.773 627.64L585.457 626.444M558.773 627.64L617.662 646.829M558.773 627.64L537.956 630.667M558.773 627.64L589.699 650.734M585.457 626.444L617.662 646.829M585.457 626.444L644.533 642.643M617.662 646.829L644.533 642.643M617.662 646.829L668.618 651.051M617.662 646.829L589.699 650.734M617.662 646.829L644.572 659.123M644.533 642.643L668.618 651.051M668.618 651.051L644.572 659.123M668.618 651.051L693.716 641.373M668.618 651.051L711.217 646.287M668.618 651.051L644.542 642.643M668.618 651.051L688.953 657.329M371.998 575.343L389.381 598.212M371.998 575.343L409.243 575.641M389.381 598.212L409.243 575.641M389.381 598.212L431.222 599.52M389.381 598.212L364.734 609.563M389.381 598.212L406.517 610.59M409.243 575.641L431.222 599.52M409.243 575.641L451.783 582.302M409.243 575.641L431.222 599.529L451.783 582.302M431.222 599.52L451.783 582.302M431.222 599.52L474.618 611.926M431.222 599.52L406.517 610.59M431.222 599.52L450.533 616.168M451.783 582.302L474.618 611.926M451.783 582.302L495.16 604.331M474.618 611.926L495.16 604.331M474.618 611.926L518.064 633.189M474.618 611.926L494.619 632.404M474.618 611.926L450.533 616.168M495.16 604.331L518.064 633.189M495.16 604.331L537.956 630.667M364.734 609.563L381.615 619.83M364.734 609.563L406.517 610.59M381.615 619.83L406.517 610.59M381.615 619.83L425.73 621.241M381.615 619.83L357.244 628.761M381.615 619.83L401.359 631.461M406.517 610.59L425.73 621.241M406.517 610.59L450.533 616.168M518.064 633.189L494.619 632.404M518.064 633.189L537.956 630.667M518.064 633.189L563.409 654.05M518.064 633.189L538.704 653.387M494.619 632.404L470.721 631.433M494.619 632.404L515.712 648.819M494.619 632.404L450.533 616.168M494.619 632.404L538.704 653.387M425.73 621.241L450.533 616.168M425.73 621.241L470.721 631.433M425.73 621.241L401.359 631.461M425.73 621.241L447.197 635.179M450.533 616.168L470.721 631.433M470.721 631.433L515.712 648.819M470.721 631.433L447.197 635.179M470.721 631.433L493.103 646.156M515.712 648.819L538.704 653.387M515.712 648.819L562.868 667.802M515.712 648.819L493.103 646.156M515.712 648.819L539.019 663.28M537.956 630.667L563.409 654.05M537.956 630.667L589.699 650.734M563.409 654.05L589.699 650.734M563.409 654.05L618.577 665.298M563.409 654.05L538.704 653.387M563.409 654.05L590.191 668.643M589.699 650.734L618.577 665.298M589.699 650.734L644.572 659.123M618.577 665.298L644.572 659.123M618.577 665.298L666.738 666.774M618.577 665.298L590.191 668.643M618.577 665.298L643.922 674.257M644.572 659.123L666.738 666.774M644.572 659.123L688.953 657.329M666.738 666.774L643.922 674.257M666.738 666.774L688.953 657.329M666.738 666.774L704.307 660.842M666.738 666.774L685.232 671.333M538.704 653.387L562.868 667.802M538.704 653.387L590.191 668.643M562.868 667.802L590.191 668.643M562.868 667.802L617.505 677.994M562.868 667.802L539.019 663.28M562.868 667.802L590.417 677.807M590.191 668.643L617.505 677.994M590.191 668.643L643.922 674.257M617.505 677.994L643.922 674.257M617.505 677.994L666.354 679.666M617.505 677.994L590.417 677.807M617.505 677.994L643.401 683.87M643.922 674.257L666.354 679.666M643.922 674.257L685.232 671.333M666.354 679.666L643.401 683.87M666.354 679.666L685.232 671.333M666.354 679.666L704.77 673.659M666.354 679.666L643.411 683.87M666.354 679.666L687.516 682.058M-44.1406 570.952L1.12596 580.537M-44.1406 570.952L-35.8137 595.475M1.12596 580.537L-35.8137 595.475M1.12596 580.537L10.762 600.566M1.12596 580.537L46.9043 589.944M-35.8137 595.475L10.762 600.566M-35.8137 595.475L-74.3675 614.738M-35.8137 595.475L-26.8765 616.457M10.762 600.566L46.9043 589.944M10.762 600.566L57.6525 604.397M10.762 600.566L-26.8765 616.457M10.762 600.566L20.8999 615.841M46.9043 589.944L57.6525 604.397M46.9043 589.944L92.9681 598.249M57.6525 604.397L92.9681 598.249M57.6525 604.397L104.681 607.012M57.6525 604.397L20.8999 615.841M57.6525 604.397L68.8338 613.86M92.9681 598.249L104.681 607.012M92.9681 598.249L139.111 604.555M104.681 607.012L139.111 604.555M104.681 607.012L151.699 608.432M104.681 607.012L116.827 611.469M104.681 607.012L68.8338 613.86M139.111 604.555L151.699 608.432M139.111 604.555L185.125 607.975M-74.3675 614.738L-26.8765 616.457M-74.3675 614.738L-66.1783 635.114M-26.8765 616.457L-66.1783 635.114M-26.8765 616.457L-17.4177 631.536M-26.8765 616.457L20.8999 615.841M-26.8765 616.457L20.8999 615.85M-66.1783 635.114L-17.4177 631.536M-66.1783 635.114L-107.331 652.07M-66.1783 635.114L-57.438 648.454M-17.4177 631.536L20.8999 615.85M-17.4177 631.536L20.8999 615.841M-17.4177 631.536L31.4808 625.51M-17.4177 631.536L-57.438 648.454M-17.4177 631.536L-7.48636 640.364M20.8999 615.841L31.4808 625.51M20.8999 615.841L68.8338 613.86M20.8999 615.85L68.8338 613.86M20.8999 615.85L31.4808 625.51M151.699 608.432L116.827 611.469M151.699 608.432L185.125 607.975M151.699 608.432L198.344 609.441M151.699 608.432L164.741 609.628M116.827 611.469L80.4482 618.905M116.827 611.469L129.406 613.636M116.827 611.469L68.8338 613.86M116.827 611.469L164.741 609.628M31.4808 625.51L68.8338 613.86M31.4808 625.51L80.4482 618.905M31.4808 625.51L-7.48636 640.364M31.4808 625.51L42.5046 630.629M68.8338 613.86L80.4482 618.905M80.4482 618.905L129.406 613.636M80.4482 618.905L42.5046 630.629M80.4482 618.905L92.5153 622.063M129.406 613.636L164.741 609.628M129.406 613.636L178.373 613.543M129.406 613.636L92.5153 622.063M129.406 613.636L142.506 617.504M185.125 607.975L198.344 609.441M185.125 607.975L229.663 609.759M198.344 609.441L229.663 609.759M198.344 609.441L243.532 615.542M198.344 609.441L164.741 609.628M198.344 609.441L212.173 614.122M229.663 609.759L243.532 615.542M229.663 609.759L272.469 615.411M243.532 615.542L272.469 615.411M243.532 615.542L287.784 625.239M243.532 615.542L212.173 614.122M243.532 615.542L258.65 625.155M272.469 615.411L287.784 625.239M272.469 615.411L314.635 622.576M272.469 615.411L287.784 625.248M287.784 625.239L258.65 625.155M314.635 622.576L287.784 625.248M314.635 622.576L331.968 635.3M314.635 622.576L357.244 628.761M287.784 625.248L331.968 635.3M287.784 625.248L304.783 638.626M287.784 625.248L258.65 625.155M164.741 609.628L178.373 613.543M164.741 609.628L212.173 614.122M178.373 613.543L212.173 614.122M178.373 613.543L226.898 623.688M178.373 613.543L142.506 617.504M178.373 613.543L192.566 623.473M212.173 614.122L226.898 623.688M212.173 614.122L258.65 625.155M331.968 635.3L304.783 638.626M331.968 635.3L357.244 628.761M331.968 635.3L376.92 642.457M331.968 635.3L351.152 650.528M304.783 638.626L258.65 625.155M304.783 638.626L275.028 639.121L258.65 625.155M304.783 638.626L275.028 639.112M304.783 638.626L323.12 655.068M304.783 638.626L351.152 650.528M226.898 623.688L258.65 625.155M226.898 623.688L275.028 639.112M226.898 623.688L192.566 623.473M226.898 623.688L242.439 638.411M258.65 625.155L275.028 639.112M275.028 639.112L242.439 638.411M275.028 639.112L292.243 656.731M275.028 639.112L323.12 655.068M-107.331 652.07L-57.438 648.454M-107.331 652.07L-99.3876 662.028M-57.438 648.454L-99.3876 662.028M-57.438 648.454L-48.2843 655.321M-57.438 648.454L-7.48636 640.364M-99.3876 662.028L-48.2843 655.321M-99.3876 662.028L-143.365 673.697M-99.3876 662.028L-91.0705 670.007M-48.2843 655.321L-7.48636 640.364M-48.2843 655.321L2.8287 645.446M-48.2843 655.321L-91.0705 670.007M-48.2843 655.321L-38.7566 662.355M-7.48636 640.364L2.8287 645.446M-7.48636 640.364L42.5046 630.629M2.8287 645.446L42.5046 630.629M2.8287 645.446L53.9417 635.534M2.8287 645.446L-38.7566 662.355M2.8287 645.446L13.5573 653.35M42.5046 630.629L53.9417 635.534M42.5046 630.629L92.5153 622.063M42.5046 630.629L92.5153 622.072M53.9417 635.534L92.5153 622.072M53.9417 635.534L92.5153 622.063M53.9417 635.534L105.065 628.649M53.9417 635.534L65.881 645.596M53.9417 635.534L13.5573 653.35M92.5153 622.063L105.065 628.649M92.5153 622.063L142.506 617.504M92.5153 622.072L142.506 617.504M92.5153 622.072L105.065 628.649M-143.365 673.697L-91.0705 670.007M-143.365 673.697L-135.904 683.777L-91.0705 670.007M-91.0705 670.007L-38.7566 662.355M-91.0705 670.007L-82.3401 679.022L-38.7566 662.355M-38.7566 662.355L13.5573 653.35M-38.7566 662.355L-28.7761 672.109L13.5573 653.35M105.065 628.649L65.881 645.596M105.065 628.649L142.506 617.504M105.065 628.649L156.197 628.845M105.065 628.649L118.205 641.709M65.881 645.596L13.5573 653.35M65.881 645.596L24.8074 665.158L13.5573 653.35M65.881 645.596L118.205 641.709M65.881 645.596L78.3911 660.291L118.205 641.709M142.506 617.504L156.197 628.845M142.506 617.504L192.566 623.473M156.197 628.845L192.566 623.473M156.197 628.845L207.33 640.065M156.197 628.845L118.205 641.709M156.197 628.845L170.538 647.352M192.566 623.473L207.33 640.065M192.566 623.473L242.439 638.411M207.33 640.065L242.439 638.411M207.33 640.065L258.473 657.385M207.33 640.065L170.538 647.352M207.33 640.065L222.882 660.571M242.439 638.411L258.473 657.385M242.439 638.411L292.243 656.731M258.473 657.385L292.243 656.731M258.473 657.385L309.615 675.322M258.473 657.385L275.225 676.611M258.473 657.385L222.882 660.571M292.243 656.731L323.12 655.068M292.243 656.731L309.615 675.322M292.243 656.731L342.106 672.893M323.12 655.068L351.152 650.528M323.12 655.068L371.556 666.793M323.12 655.068L342.106 672.893M118.205 641.709L170.538 647.352M118.205 641.709L131.975 660.459L170.538 647.352M170.538 647.352L222.882 660.571M170.538 647.352L185.568 668.428L222.882 660.571M309.615 675.322L275.225 676.611M309.615 675.322L342.106 672.893M309.615 675.322L360.768 688.364M309.615 675.322L327.568 690.858M275.225 676.611L222.882 660.571M275.225 676.611L239.171 680.591L222.882 660.571M275.225 676.611L327.568 690.858M275.225 676.611L292.785 693.156L327.568 690.858M357.244 628.761L376.92 642.457M357.244 628.761L401.359 631.461M376.92 642.457L401.359 631.461M376.92 642.457L423.328 644.334M376.92 642.457L351.152 650.528M376.92 642.457L398.377 656.862M401.359 631.461L423.328 644.334M401.359 631.461L447.197 635.179M423.328 644.334L447.197 635.179M423.328 644.334L470.179 648.576M423.328 644.334L398.377 656.862M423.328 644.334L446.232 656.815M447.197 635.179L470.179 648.576M447.197 635.179L493.103 646.156M470.179 648.576L493.103 646.156M470.179 648.576L517.04 658.889M470.179 648.576L494.067 659.945M470.179 648.576L446.232 656.815M493.103 646.156L517.04 658.889M493.103 646.156L539.019 663.28M351.152 650.528L371.556 666.793M351.152 650.528L398.377 656.862M371.556 666.793L398.377 656.862M371.556 666.793L420.493 669.222M371.556 666.793L342.106 672.893M371.556 666.793L392.146 681.395M398.377 656.862L420.493 669.222M398.377 656.862L446.232 656.815M517.04 658.889L494.067 659.945M517.04 658.889L539.019 663.28M517.04 658.889L565.082 674.79M517.04 658.889L541.903 670.567M494.067 659.945L469.362 667.223M494.067 659.945L518.241 670.165M494.067 659.945L446.232 656.815M494.067 659.945L541.903 670.567M420.493 669.222L446.232 656.815M420.493 669.222L469.362 667.223M420.493 669.222L392.146 681.395M420.493 669.222L442.157 679.106M446.232 656.815L469.362 667.223M469.362 667.223L518.241 670.165M469.362 667.223L442.157 679.106M469.362 667.223L492.148 676.397M518.241 670.165L541.903 670.567M518.241 670.165L567.287 682.796M518.241 670.165L492.148 676.397M518.241 670.165L542.149 682.506M539.019 663.28L565.082 674.79M539.019 663.28L590.417 677.807M565.082 674.79L590.417 677.807M565.082 674.79L617.731 685.057M565.082 674.79L541.903 670.567M565.082 674.79L592.081 684.253M590.417 677.807L617.731 685.057M590.417 677.807L643.401 683.87M617.731 685.057L643.401 683.87M617.731 685.057L666.816 687.262M617.731 685.057L592.081 684.253M617.731 685.057L643.165 690.699M643.401 683.87L666.816 687.262M666.816 687.262L643.165 690.699M666.816 687.262L687.516 682.058M666.816 687.262L709.524 684.608M666.816 687.262L687.516 682.067M666.816 687.262L643.411 683.87M666.816 687.262L689.878 690.718M541.903 670.567L567.287 682.796M541.903 670.567L592.081 684.253M567.287 682.796L592.081 684.253M567.287 682.796L617.957 693.119M567.287 682.796L542.149 682.506M567.287 682.796L592.297 695.436M592.081 684.253L617.957 693.119M592.081 684.253L643.165 690.699M617.957 693.119L643.165 690.699M617.957 693.119L667.299 695.884M617.957 693.119L592.297 695.436M617.957 693.119L642.633 702.33M643.165 690.699L667.299 695.884M643.165 690.699L689.878 690.718M643.165 690.699L667.308 695.884M667.299 695.884L642.633 702.33M342.106 672.893L360.768 688.364M342.106 672.893L392.146 681.395M360.768 688.364L392.146 681.395M360.768 688.364L411.93 691.167M360.768 688.364L327.568 690.858M360.768 688.364L379.932 698.687M392.146 681.395L411.93 691.167M392.146 681.395L442.157 679.106M411.93 691.167L442.157 679.106M411.93 691.167L463.112 687.383M411.93 691.167L379.932 698.687M411.93 691.167L432.315 697.174M442.157 679.106L463.112 687.383M442.157 679.106L492.148 676.397M463.112 687.383L492.148 676.397M463.112 687.383L514.304 687.355M463.112 687.383L484.717 694.567M463.112 687.383L432.315 697.174M492.148 676.397L514.304 687.355M492.148 676.397L542.149 682.506M327.568 690.858L379.932 698.687M327.568 690.858L346.398 702.396L379.932 698.687M379.932 698.687L432.315 697.174M379.932 698.687L400.021 704.535L432.315 697.174M514.304 687.355L484.717 694.567M514.304 687.355L542.149 682.506M514.304 687.355L565.476 698.295M514.304 687.355L537.129 699.098M484.717 694.567L432.315 697.174M484.717 694.567L453.653 701.957L432.315 697.174M484.717 694.567L537.129 699.098M484.717 694.567L507.306 701.919L537.129 699.098M542.149 682.506L565.476 698.295M542.149 682.506L592.297 695.436M565.476 698.295L592.297 695.436M565.476 698.295L616.619 708.515M565.476 698.295L537.129 699.098M565.476 698.295L589.463 709.907M592.297 695.436L616.619 708.515M592.297 695.436L642.633 702.33M616.619 708.515L642.633 702.33M616.619 708.515L667.781 711.561M616.619 708.515L589.463 709.907M616.619 708.515L641.806 716.269M642.633 702.33L667.781 711.561M642.633 702.33L667.308 695.884M642.633 702.33L692.348 703.592M642.633 702.33L667.791 711.561M667.781 711.561L641.806 716.269M537.129 699.098L589.463 709.907M537.129 699.098L560.939 709.468L589.463 709.907M589.463 709.907L641.806 716.269M589.463 709.907L614.571 716.643L641.806 716.269M644.641 627.687L698.608 627.107M698.608 627.107L718.294 630.854M698.608 627.107L725.538 620.25M698.608 627.107L742.211 620.979M718.294 630.854L742.211 620.979M718.294 630.854L755.528 621.894M718.294 630.854L693.716 641.373M718.294 630.854L733.491 634.226M725.538 620.25L742.211 620.979M725.538 620.25L765.096 613.449M742.211 620.979L755.528 621.894M742.211 620.979L765.096 613.449M742.211 620.979L776.858 610.254M755.528 621.894L776.858 610.254M755.528 621.894L788.649 609.46M755.528 621.894L733.491 634.226M755.528 621.894L767.625 623.912M765.096 613.449L776.858 610.254M765.096 613.449L796.779 600.436M776.858 610.254L788.649 609.46M776.858 610.254L796.779 600.436M776.858 610.254L808.492 594.438M788.649 609.46L808.492 594.438M788.649 609.46L824.043 594.363M788.649 609.46L802.921 612.534M788.649 609.46L767.625 623.912M796.779 600.436L808.492 594.438M796.779 600.436L826.12 579.444M808.492 594.438L826.12 579.444M808.492 594.438L824.043 594.363M808.492 594.438L843.069 573.091M826.12 579.444L843.069 573.091M826.12 579.444L857.961 551.754M644.542 642.643L693.716 641.373M693.716 641.373L711.217 646.287M693.716 641.373L733.491 634.226M711.217 646.287L733.491 634.226M711.217 646.287L746.207 637.402M711.217 646.287L688.953 657.329M711.217 646.287L724.987 649.715M733.491 634.226L746.207 637.402M733.491 634.226L767.625 623.912M824.043 594.363L802.921 612.534M824.043 594.363L843.069 573.091M824.043 594.363L865.855 578.668M824.043 594.363L846.229 602.173M802.921 612.534L780.834 627.752M802.921 612.534L822.36 620.717M802.921 612.534L767.625 623.912M802.921 612.534L780.834 627.761M802.921 612.534L846.229 602.173M746.207 637.402L767.625 623.912M746.207 637.402L780.834 627.761M746.207 637.402L724.987 649.715M746.207 637.402L758.678 640.373M767.625 623.912L780.834 627.761M780.834 627.761L758.678 640.373M780.834 627.752L822.36 620.717M780.834 627.752L758.678 640.373M780.834 627.752L797.734 633.937M822.36 620.717L846.229 602.173M822.36 620.717L873.67 618.186M822.36 620.717L797.734 633.937M822.36 620.717L849.831 635.048M843.069 573.091L865.855 578.668M843.069 573.091L857.961 551.754M843.069 573.091L861.967 562.572L873.749 575.221M865.855 578.668L872.046 573.026L873.749 575.221M865.855 578.668L891.397 603.64M865.855 578.668L846.229 602.173M865.855 578.668L884.733 602.846M857.961 551.754L873.749 575.221M857.961 551.754L874.497 596.727M873.749 575.221L891.397 603.64M873.749 575.221L874.497 596.727M873.749 575.221L891.328 607.75L899.576 609.703M873.749 575.221L899.576 609.703M891.397 603.64L899.576 609.703M891.397 603.64L903.277 609.348L934.213 586.945M891.397 603.64L888.356 601.407L884.733 602.846M891.397 603.64L915.738 609.04M891.397 603.64L900.186 608.993L934.213 586.945M874.497 596.727L899.576 609.703M874.497 596.727L883.198 611.216L896.082 611.338L915.187 594.756M899.576 609.703L934.213 586.945M899.576 609.703L915.187 594.756M899.576 609.703L955.404 554.248M934.213 586.945L955.404 554.248M934.213 586.945L992.324 520.644M934.213 586.945L967.205 558.05M934.213 586.945L915.738 609.04M915.187 594.756L955.404 554.248M915.187 594.756L980.08 513.815M955.404 554.248L980.08 513.815M955.404 554.248L992.324 520.644M955.404 554.248L1022.13 471.813M980.08 513.815L1022.13 471.813M980.08 513.815L1051.67 422.056M846.229 602.173L873.67 618.186M846.229 602.173L884.733 602.846M846.229 602.173L884.733 602.855M873.67 618.186L884.733 602.855M873.67 618.186L884.733 602.846M873.67 618.186L904.891 619.204M873.67 618.186L849.831 635.048M873.67 618.186L895.186 634.544M884.733 602.846L904.891 619.204M884.733 602.846L915.738 609.04M884.733 602.855L915.738 609.04M884.733 602.855L904.891 619.204M992.324 520.644L967.205 558.05M992.324 520.644L1022.13 471.813M992.324 520.644L1051.67 460.789M992.324 520.644L1020.4 511.05M967.205 558.05L915.738 609.04M967.205 558.05L946.644 586.133M967.205 558.05L995.021 546.176M967.205 558.05L1020.4 511.05M967.205 558.05L1020.4 511.059M904.891 619.204L915.738 609.04M904.891 619.204L946.644 586.133M904.891 619.204L895.186 634.544M904.891 619.204L929.872 612.076M915.738 609.04L946.644 586.133M946.644 586.133L929.872 612.076M946.644 586.133L976.438 566.785M946.644 586.133L995.021 546.176M688.953 657.329L704.307 660.842M688.953 657.329L724.987 649.715M704.307 660.842L724.987 649.715M704.307 660.842L737.152 650.911M704.307 660.842L685.232 671.333M704.307 660.842L718.786 661.561M724.987 649.715L737.152 650.911M724.987 649.715L758.678 640.373M737.152 650.911L758.678 640.373M737.152 650.911L773.373 642.905M737.152 650.911L718.786 661.561M737.152 650.911L752.861 651.332M758.678 640.373L773.373 642.905M758.678 640.373L797.734 633.937M773.373 642.905L797.734 633.937M773.373 642.905L821.11 642.756M773.373 642.905L795.539 647.174M773.373 642.905L752.861 651.332M797.734 633.937L821.11 642.756M797.734 633.937L849.831 635.048M685.232 671.333L704.77 673.659M685.232 671.333L718.786 661.561M704.77 673.659L718.786 661.561M704.77 673.659L740.194 664.803M704.77 673.659L687.516 682.058M704.77 673.659L726.128 676.107M718.786 661.561L740.194 664.803M718.786 661.561L752.861 651.332M821.11 642.756L795.539 647.174M821.11 642.756L849.831 635.048M821.11 642.756L882.086 653.144M821.11 642.756L854.89 655.564M795.539 647.174L779.486 658.376M795.539 647.174L829.447 659.665M795.539 647.174L752.861 651.332M795.539 647.174L854.89 655.564M740.194 664.803L752.861 651.332M740.194 664.803L779.476 658.376M740.194 664.803L726.128 676.107M740.194 664.803L765.096 670.203M752.861 651.332L779.476 658.376M752.861 651.332L779.486 658.376M779.476 658.376L765.096 670.203M779.486 658.376L829.447 659.665M779.486 658.376L765.096 670.203M779.486 658.376L810.008 668.381M829.447 659.665L854.89 655.564M829.447 659.665L891.348 670.483M829.447 659.665L810.008 668.381M829.447 659.665L866.436 674.687M849.831 635.048L882.086 653.144M849.831 635.048L895.186 634.544M882.086 653.144L895.186 634.544M882.086 653.144L919.153 633.974M882.086 653.144L854.89 655.564M882.086 653.144L907.057 655.872M895.186 634.544L919.153 633.974M895.186 634.544L929.872 612.076M919.153 633.974L929.872 612.076M919.153 633.974L960.493 586.095M919.153 633.974L907.057 655.872M919.153 633.974L946.811 613.907M929.872 612.076L960.493 586.095M929.872 612.076L976.438 566.785M960.493 586.095L976.438 566.785M960.493 586.095L1002.04 565.216M960.493 586.095L992.462 568.738M960.493 586.095L946.811 613.907M976.438 566.785L995.021 546.176M976.438 566.785L1002.04 565.216M976.438 566.785L1016.03 557.546M995.021 546.176L1020.4 511.05M995.021 546.176L1039.07 530.136M995.021 546.176L1020.4 511.059M995.021 546.176L1016.03 557.546M854.89 655.564L891.348 670.483M854.89 655.564L907.057 655.872M891.348 670.483L907.057 655.872M891.348 670.483L933.209 645.091M891.348 670.483L866.436 674.687M891.348 670.483L918.071 672.445M907.057 655.872L933.209 645.091M907.057 655.872L946.811 613.907M1002.04 565.216L996.517 564.646L992.462 568.738M1002.04 565.216L1016.03 557.546M1002.04 565.216L1033.59 585.871M1002.04 565.216L1025.12 579.724M992.462 568.738L976.586 597.838M992.462 568.738L1018 584.498M992.462 568.738L946.811 613.907M992.462 568.738L1025.12 579.724M933.209 645.091L946.811 613.907M933.209 645.091L976.586 597.838M933.209 645.091L918.071 672.445M933.209 645.091L961.054 638.748M946.811 613.907L976.586 597.838M976.586 597.838L1018 584.498M976.586 597.838L961.054 638.748M976.586 597.838L1007.29 606.882M1018 584.498L1022.9 579.378L1025.12 579.724M1018 584.498L1049.71 610.161M1018 584.498L1007.29 606.882M1018 584.498L1044.3 616.065M1022.13 471.813L1051.67 460.789M1022.13 471.813L1051.67 422.056M1022.13 471.813L1082.84 407.38M1051.67 460.789L1082.84 407.38M1051.67 460.789L1099.74 432.529M1051.67 460.789L1020.4 511.05M1051.67 460.789L1069.21 483.864M1051.67 422.056L1082.84 407.38M1051.67 422.056L1103.62 375M1082.84 407.38L1099.74 432.529M1082.84 407.38L1103.62 375M1082.84 407.38L1126.01 394.413M1099.74 432.529L1126.01 394.413M1099.74 432.529L1143.56 435.023M1099.74 432.529L1069.21 483.864M1099.74 432.529L1113.39 479.978M1103.62 375L1126.01 394.413M1103.62 375L1144.73 376.121M1126.01 394.413L1143.56 435.023M1126.01 394.413L1144.73 376.121M1126.01 394.413L1167.6 405.979M1143.56 435.023L1167.6 405.979M1143.56 435.023L1188.82 444.991M1143.56 435.023L1162.08 479.894M1143.56 435.023L1113.39 479.978M1144.73 376.121L1167.6 405.979M1144.73 376.121L1183.75 397.636M1167.6 405.979L1183.75 397.636M1167.6 405.979L1188.82 444.991M1167.6 405.979L1208.74 427.484M1183.75 397.636L1208.74 427.484M1183.75 397.636L1221.57 427.746M1020.4 511.05L1039.07 530.136M1020.4 511.05L1069.21 483.864M1039.07 530.136L1069.21 483.864M1039.07 530.136L1020.4 511.059M1039.07 530.136L1080.68 531.051M1039.07 530.136L1016.03 557.546M1039.07 530.136L1052.76 570.083M1020.4 511.059L1069.21 483.864M1069.21 483.864L1080.68 531.051M1069.21 483.864L1113.39 479.978M1188.82 444.991L1162.08 479.894M1188.82 444.991L1208.74 427.484M1188.82 444.991L1234.08 458.229M1188.82 444.991L1162.09 479.894M1188.82 444.991L1212.68 480.613M1162.08 479.894L1130.62 526.801M1162.08 479.894L1185.55 517.075M1162.08 479.894L1113.39 479.978M1080.68 531.051L1113.39 479.978M1080.68 531.051L1130.62 526.801M1080.68 531.051L1052.76 570.083M1080.68 531.051L1098.38 575.305M1113.39 479.978L1130.62 526.801M1130.62 526.801L1185.55 517.075M1130.62 526.801L1098.38 575.305M1130.62 526.801L1155.09 561.628M1185.55 517.075L1212.68 480.613M1185.55 517.075L1241.65 505.286M1185.55 517.075L1162.09 479.894M1185.55 517.075L1155.09 561.628M1185.55 517.075L1216.07 539.59M1208.74 427.484L1234.08 458.229M1208.74 427.484L1221.57 427.746M1208.74 427.484L1249.13 450.924M1234.08 458.229L1249.13 450.924M1234.08 458.229L1277.86 470.57M1234.08 458.229L1212.68 480.613M1234.08 458.229L1262.55 481.743M1221.57 427.746L1249.13 450.924M1221.57 427.746L1259.07 454.67M1249.13 450.924L1277.86 470.57M1249.13 450.924L1259.07 454.67M1249.13 450.924L1288.46 468.337M1277.86 470.57L1288.46 468.337M1277.86 470.57L1318.7 477.857M1277.86 470.57L1262.55 481.743M1277.86 470.57L1309.07 482.921M1259.07 454.67L1288.46 468.337M1259.07 454.67L1297.09 466.637L1288.46 468.337M1288.46 468.337L1318.7 477.857M1318.7 477.857L1309.07 482.921M1162.09 479.894L1212.68 480.613M1212.68 480.613L1241.65 505.286M1212.68 480.613L1262.55 481.743M1241.65 505.286L1262.55 481.743M1241.65 505.286L1295.14 494.841M1241.65 505.286L1216.07 539.59M1241.65 505.286L1276.35 516.412M1262.55 481.743L1295.14 494.841M1262.55 481.743L1309.07 482.921M1295.14 494.841L1309.07 482.921M1295.14 494.841L1342.21 489.227M1295.14 494.841L1276.35 516.412M1295.14 494.841L1330.96 499.344M1309.07 482.921L1342.21 489.227M1342.21 489.227L1330.96 499.344M1016.03 557.546L1033.59 585.871M1016.03 557.546L1052.76 570.083M1016.03 557.546L1033.59 585.88L1052.76 570.083M1033.59 585.871L1052.76 570.083M1033.59 585.871L1071.13 610.002M1033.59 585.871L1029.59 585.255L1025.12 579.724M1033.59 585.871L1056.22 613.44M1033.59 585.871L1029.58 585.255L1025.12 579.724M1052.76 570.083L1071.13 610.002M1052.76 570.083L1098.38 575.305M1071.13 610.002L1098.38 575.305M1071.13 610.002L1125.6 603.248M1071.13 610.002L1061.94 615.383L1056.22 613.44M1071.13 610.002L1103.42 625.398M1098.38 575.305L1125.6 603.248M1098.38 575.305L1155.09 561.628M1125.6 603.248L1155.09 561.628M1125.6 603.248L1188.6 578.061M1125.6 603.248L1164.09 607.732M1125.6 603.248L1103.42 625.398M1155.09 561.628L1188.6 578.061M1155.09 561.628L1216.07 539.59M1025.12 579.724L1049.71 610.161M1025.12 579.724L1056.22 613.44M1049.71 610.161L1056.22 613.44M1049.71 610.161L1088.59 635.74M1049.71 610.161L1044.3 616.065M1049.71 610.161L1080.16 641.831M1056.22 613.44L1088.59 635.74M1056.22 613.44L1103.42 625.398M1188.6 578.061L1164.09 607.732M1188.6 578.061L1216.07 539.59M1188.6 578.061L1253.97 545.438M1188.6 578.061L1230.77 574.408M1164.09 607.732L1144.13 629.564M1164.09 607.732L1207.57 603.631M1164.09 607.732L1103.42 625.398M1164.09 607.732L1230.77 574.408M1088.59 635.74L1103.42 625.398M1088.59 635.74L1144.13 629.564M1088.59 635.74L1080.16 641.831M1088.59 635.74L1128.36 650.192M1103.42 625.398L1144.13 629.564M1144.13 629.564L1207.57 603.631M1144.13 629.564L1128.36 650.192M1144.13 629.564L1186.93 633.572M1207.57 603.631L1230.77 574.408M1207.57 603.631L1273.3 569.784M1207.57 603.631L1186.93 633.572M1207.57 603.631L1249.67 604.938M1216.07 539.59L1253.97 545.438M1216.07 539.59L1276.35 516.412M1253.97 545.438L1276.35 516.412M1253.97 545.438L1315.6 516.403M1253.97 545.438L1230.77 574.408M1253.97 545.438L1296.81 538.731M1276.35 516.412L1315.6 516.403M1276.35 516.412L1330.96 499.344M1315.6 516.403L1330.96 499.344M1315.6 516.403L1367.34 502.035M1315.6 516.403L1296.81 538.731M1315.6 516.403L1355.56 513.983M1330.96 499.344L1367.34 502.035M1367.34 502.035L1355.56 513.983M1230.77 574.408L1273.3 569.784M1230.77 574.408L1296.81 538.731M1273.3 569.784L1296.81 538.731M1273.3 569.784L1335.67 539.861M1273.3 569.784L1249.67 604.938M1273.3 569.784L1311.97 574.689M1296.81 538.731L1335.67 539.861M1296.81 538.731L1355.56 513.983M1335.67 539.861L1355.56 513.983M1335.67 539.861L1389.06 525.689M1335.67 539.861L1311.97 574.689M1335.67 539.861L1369.23 553.192M1355.56 513.983L1389.06 525.689M1389.06 525.689L1369.23 553.192M643.411 683.87L687.516 682.058M643.411 683.87L687.516 682.067M687.516 682.058L709.524 684.608M687.516 682.058L726.128 676.107M709.524 684.608L726.128 676.107M709.524 684.608L687.516 682.067M709.524 684.608L750.322 680.843M709.524 684.608L689.878 690.718M709.524 684.608L733.717 689.56M687.516 682.067L726.128 676.107M726.128 676.107L750.322 680.843M726.128 676.107L765.096 670.203M750.322 680.843L765.096 670.203M750.322 680.843L793.561 678.77M750.322 680.843L733.717 689.56M750.322 680.843L777.744 688.952M765.096 670.203L793.561 678.77M765.096 670.203L810.008 668.381M793.561 678.77L810.008 668.381M793.561 678.77L843.581 681.217M793.561 678.77L825.057 690.485M793.561 678.77L777.744 688.952M810.008 668.381L843.581 681.217M810.008 668.381L866.436 674.687M810.008 668.381L843.591 681.217M689.878 690.718L667.308 695.884M689.878 690.718L714.455 696.688M689.878 690.718L733.717 689.56M667.308 695.884L714.455 696.688M667.308 695.884L692.348 703.592M714.455 696.688L733.717 689.56M714.455 696.688L760.794 698.108M714.455 696.688L692.348 703.592M714.455 696.688L741.581 706.46M733.717 689.56L760.794 698.108M733.717 689.56L777.744 688.952M843.581 681.217L825.057 690.485M825.057 690.485L808.167 700.509M825.057 690.485L858.463 704.246M825.057 690.485L777.744 688.952M825.057 690.485L843.591 681.217M825.057 690.485L878.769 695.716M760.794 698.108L777.744 688.952M760.794 698.108L808.167 700.509M760.794 698.108L741.581 706.46M760.794 698.108L790.844 710.393M777.744 688.952L808.167 700.509M808.167 700.509L858.463 704.246M808.167 700.509L790.844 710.393M808.167 700.509L840.786 714.513M858.463 704.246L878.769 695.716M858.463 704.246L912.057 709.477M858.463 704.246L840.786 714.513M858.463 704.246L892.007 717.932M866.436 674.687L843.591 681.217M866.436 674.687L901.269 689.083M866.436 674.687L918.071 672.445M843.591 681.217L901.269 689.083M843.591 681.217L878.769 695.716M901.269 689.083L918.071 672.445M901.269 689.083L946.191 673.743M901.269 689.083L878.779 695.716M901.269 689.083L929.882 697.276M901.269 689.083L878.769 695.716M918.071 672.445L946.191 673.743M918.071 672.445L961.054 638.748M946.191 673.743L961.054 638.748M946.191 673.743L991.989 643.447M946.191 673.743L929.882 697.276M946.191 673.743L976.142 680.965M961.054 638.748L991.989 643.447M961.054 638.748L1007.29 606.882M991.989 643.447L1007.29 606.882M991.989 643.447L1036.37 634.049M991.989 643.447L1024.34 662.103M991.989 643.447L976.142 680.965M1007.29 606.882L1036.37 634.049M1007.29 606.882L1044.3 616.065M878.769 695.716L912.057 709.477M912.057 709.477L929.882 697.276M912.057 709.477L878.779 695.716M912.057 709.477L960.148 705.796M912.057 709.477L892.007 717.932M912.057 709.477L942.707 719.1M878.779 695.716L929.882 697.276M929.882 697.276L960.148 705.796M929.882 697.276L976.142 680.965M1036.37 634.049L1024.34 662.103M1036.37 634.049L1044.3 616.065M1036.37 634.049L1074.66 649.743M1036.37 634.049L1067.69 664.214M1024.34 662.103L976.142 680.965M1024.34 662.103L1008.65 693.353M1024.34 662.103L1057.12 684.674M1024.34 662.103L1067.69 664.214M960.148 705.796L976.142 680.965M960.148 705.796L1008.65 693.353M960.148 705.796L942.707 719.1M960.148 705.796L992.442 714.298M976.142 680.965L1008.65 693.353M1008.65 693.353L992.442 714.298M1008.65 693.353L1042.83 705.638M1008.65 693.353L1057.12 684.674M692.348 703.592L667.791 711.561M692.348 703.592L718.983 713.905M692.348 703.592L741.581 706.46M667.791 711.561L718.983 713.905M667.791 711.561L641.816 716.269M667.791 711.561L694.189 717.652M718.983 713.905L741.581 706.46M718.983 713.905L770.174 718.651M718.983 713.905L694.189 717.652M718.983 713.905L746.591 722.715M741.581 706.46L770.174 718.651M741.581 706.46L790.844 710.393M770.174 718.651L790.844 710.393M770.174 718.651L821.376 723.958M770.174 718.651L746.591 722.715M770.174 718.651L798.994 729.843M790.844 710.393L821.376 723.958M790.844 710.393L840.786 714.513M821.376 723.958L840.786 714.513M821.376 723.958L872.578 727.965M821.376 723.958L851.396 736.476M821.376 723.958L798.994 729.843M840.786 714.513L872.578 727.965M840.786 714.513L892.007 717.932M641.816 716.269L694.189 717.652M641.816 716.269L668.214 718.978L694.189 717.652M694.189 717.652L746.591 722.715M694.189 717.652L721.867 723.537L746.591 722.715M746.591 722.715L798.994 729.843M746.591 722.715L775.529 732.393L798.994 729.843M872.578 727.965L851.396 736.476M872.578 727.965L892.007 717.932M872.578 727.965L923.868 728.862M872.578 727.965L903.818 740.007M851.396 736.476L798.994 729.843M851.396 736.476L829.201 742.268L798.994 729.843M851.396 736.476L903.818 740.007M851.396 736.476L882.873 749.845L903.818 740.007M892.007 717.932L923.868 728.862M892.007 717.932L942.707 719.1M923.868 728.862L942.707 719.1M923.868 728.862L975.503 725.032M923.868 728.862L903.818 740.007M923.868 728.862L957.008 737.849M942.707 719.1L975.503 725.032M942.707 719.1L992.442 714.298M975.503 725.032L992.442 714.298M975.503 725.032L1027.17 717.568M975.503 725.032L957.008 737.849M975.503 725.032L1010.49 729.198M992.442 714.298L1027.17 717.568M992.442 714.298L1042.83 705.638M1027.17 717.568L1042.83 705.638M1027.17 717.568L1079.53 707.824M1027.17 717.568L1064.4 716.783M1027.17 717.568L1010.49 729.198M1042.83 705.638L1057.12 684.674M1042.83 705.638L1079.53 707.824M1042.83 705.638L1092.78 699.416M1057.12 684.674L1067.69 664.214M1057.12 684.674L1103.13 687.084M1057.12 684.674L1092.78 699.416M903.818 740.007L957.008 737.849M903.818 740.007L936.821 751.722L957.008 737.849M957.008 737.849L1010.49 729.198M957.008 737.849L992.097 744.23L1010.49 729.198M1079.53 707.824L1064.4 716.783M1079.53 707.824L1092.78 699.416M1079.53 707.824L1132.18 699.014M1079.53 707.824L1118.95 703.582M1064.4 716.783L1010.49 729.198M1064.4 716.783L1047.29 730.226L1010.49 729.198M1064.4 716.783L1118.95 703.582M1064.4 716.783L1103.19 713.326L1118.95 703.582M1044.3 616.065L1074.66 649.743M1044.3 616.065L1080.16 641.831M1074.66 649.743L1080.16 641.831M1074.66 649.743L1117.32 666.821M1074.66 649.743L1067.69 664.214M1074.66 649.743L1110.37 676.668M1080.16 641.831L1117.32 666.821M1080.16 641.831L1128.36 650.192M1080.16 641.831L1117.33 666.83L1128.36 650.192M1117.32 666.821L1128.36 650.192M1117.32 666.821L1170.65 660.151M1117.32 666.821L1110.37 676.668M1117.32 666.821L1159 680.432M1128.36 650.192L1170.65 660.151M1128.36 650.192L1186.93 633.572M1170.65 660.151L1186.93 633.572M1170.65 660.151L1229.02 638.832M1170.65 660.151L1212.89 667.213M1170.65 660.151L1159 680.432M1186.93 633.572L1229.02 638.832M1186.93 633.572L1249.67 604.938M1067.69 664.214L1103.13 687.084M1067.69 664.214L1110.37 676.668M1103.13 687.084L1110.37 676.668M1103.13 687.084L1150.66 692.596M1103.13 687.084L1092.78 699.416M1103.13 687.084L1142.54 697.192M1110.37 676.668L1150.66 692.596M1110.37 676.668L1159 680.432M1229.02 638.832L1212.89 667.213M1229.02 638.832L1249.67 604.938M1229.02 638.832L1288.83 611.796M1229.02 638.832L1186.94 633.572L1249.67 604.938M1229.02 638.832L1269.09 645.652M1212.89 667.213L1201.26 686.981M1212.89 667.213L1254.01 671.838M1212.89 667.213L1159 680.432M1212.89 667.213L1269.09 645.652M1150.66 692.596L1159 680.432M1150.66 692.596L1201.26 686.981M1150.66 692.596L1142.54 697.192M1150.66 692.596L1192.61 696.155M1159 680.432L1201.26 686.981M1201.26 686.981L1254.01 671.838M1201.26 686.981L1192.61 696.155M1201.26 686.981L1243.34 687.093M1254.01 671.838L1269.09 645.652M1254.01 671.838L1307.37 653.2M1254.01 671.838L1243.34 687.093M1254.01 671.838L1294.52 673.37M1249.67 604.938L1288.83 611.796M1249.67 604.938L1311.97 574.689M1288.83 611.796L1311.97 574.689M1288.83 611.796L1346.52 587.973M1288.83 611.796L1269.09 645.652M1288.83 611.796L1325.05 623.212M1311.97 574.689L1346.52 587.973M1311.97 574.689L1369.23 553.192M1346.52 587.973L1369.23 553.192M1346.52 587.973L1398.51 576.277M1346.52 587.973L1325.05 623.212M1346.52 587.973L1378.22 607.367M1369.23 553.192L1398.51 576.277M1398.51 576.277L1378.22 607.367M1269.09 645.652L1307.37 653.2M1269.09 645.652L1325.05 623.212M1269.09 645.652L1307.38 653.2L1325.05 623.212M1307.37 653.2L1325.05 623.212M1307.37 653.2L1359.83 637.075M1307.37 653.2L1294.52 673.37M1307.37 653.2L1345.66 659.553M1325.05 623.212L1359.83 637.075M1325.05 623.212L1378.22 607.367M1325.05 623.212L1359.83 637.085L1378.22 607.367M1359.83 637.075L1378.22 607.367M1359.83 637.075L1409.88 629.48M1359.83 637.075L1345.66 659.553M1359.83 637.075L1396.25 650.173M1378.22 607.367L1409.88 629.48M1409.88 629.48L1396.25 650.173M1092.78 699.416L1132.18 699.014M1092.78 699.416L1142.54 697.192M1132.18 699.014L1142.54 697.192M1132.18 699.014L1184.4 695.305M1132.18 699.014L1118.95 703.582M1132.18 699.014L1173.54 694.502M1142.54 697.192L1184.4 695.305M1142.54 697.192L1192.61 696.155M1184.4 695.305L1192.61 696.155M1184.4 695.305L1235.08 691.456M1184.4 695.305L1173.54 694.502M1184.4 695.305L1225.99 692.652M1192.61 696.155L1235.08 691.456M1192.61 696.155L1243.34 687.093M1235.08 691.456L1243.34 687.093M1235.08 691.456L1285.81 682.628M1235.08 691.456L1277.1 688.429M1235.08 691.456L1225.99 692.652M1243.34 687.093L1285.81 682.628M1243.34 687.093L1294.52 673.37M1118.95 703.582L1173.54 694.502M1118.95 703.582L1159.36 698.78L1173.54 694.502M1173.54 694.502L1225.99 692.652M1173.54 694.502L1215.22 692.418L1225.99 692.652M1285.81 682.628L1277.1 688.429M1285.81 682.628L1294.52 673.37M1285.81 682.628L1336.55 672.183M1285.81 682.628L1328.28 681.843M1277.1 688.429L1225.99 692.652M1277.1 688.429L1267.03 691.867L1225.99 692.652M1277.1 688.429L1328.28 681.843M1277.1 688.429L1319.05 689.139L1328.28 681.843M1294.52 673.37L1336.55 672.183M1294.52 673.37L1345.66 659.553M1336.55 672.183L1345.66 659.553M1336.55 672.183L1387.27 663.495M1336.55 672.183L1328.28 681.843M1336.55 672.183L1379.48 675.304M1345.66 659.553L1387.27 663.495M1345.66 659.553L1396.25 650.173M1387.27 663.495L1396.25 650.173M1387.27 663.495L1437.95 659.908M1387.27 663.495L1379.48 675.304M1387.27 663.495L1430.59 671.23M1396.25 650.173L1437.95 659.908M1437.95 659.908L1430.59 671.23M1328.28 681.843L1379.48 675.304M1328.28 681.843L1371.13 685.72L1379.48 675.304M1379.48 675.304L1430.59 671.23M1379.48 675.304L1423.15 683.058L1430.59 671.23M-135.865 683.768L-182.922 696.202M-135.865 683.768L-128.04 694.39M-135.865 683.768L-82.3006 679.003M-182.922 696.202L-128.04 694.39M-182.922 696.202L-176.111 708.235M-128.04 694.39L-176.111 708.235M-128.04 694.39L-119.841 706.45M-128.04 694.39L-82.3006 679.003M-128.04 694.39L-73.1568 690.102M-128.04 694.39L-119.841 706.46L-73.1568 690.102M-176.111 708.235L-119.841 706.45M-176.111 708.235L-226.683 721.08M-176.111 708.235L-168.956 721.061M-119.841 706.45L-73.1568 690.102M-119.841 706.45L-63.5602 703.517M-119.841 706.45L-168.956 721.061M-119.841 706.45L-111.219 720.053M-82.3006 679.003L-73.1568 690.102M-82.3006 679.003L-28.7269 672.09M-73.1568 690.102L-63.5602 703.517M-73.1568 690.102L-28.7269 672.09M-73.1568 690.102L-18.2641 684.973M-63.5602 703.517L-18.2641 684.973M-63.5602 703.517L-7.26986 700.565M-63.5602 703.517L-111.219 720.053M-63.5602 703.517L-53.4714 718.707M-28.7269 672.09L-18.2641 684.973M-28.7269 672.09L24.8468 665.139M-18.2641 684.973L-7.26986 700.565M-18.2641 684.973L24.8468 665.139M-18.2641 684.973L36.6384 680.619M-7.26986 700.565L36.6384 680.619M-7.26986 700.565L49.0205 698.724M-7.26986 700.565L4.2855 717.68M-7.26986 700.565L-53.4714 718.707M24.8468 665.139L36.6384 680.619M24.8468 665.139L78.4305 660.272M36.6384 680.619L78.4305 660.272M36.6384 680.619L49.0205 698.724M36.6384 680.619L91.5507 678.676M78.4305 660.272L91.5507 678.676M78.4305 660.272L132.014 660.44M-226.683 721.08L-168.956 721.061M-226.683 721.08L-220.679 734.617M-168.956 721.061L-220.679 734.617M-168.956 721.061L-161.406 734.617M-168.956 721.061L-111.219 720.053M-220.679 734.617H-161.406M-220.679 734.617L-275.217 748.639M-220.679 734.617L-214.33 748.677M-161.406 734.617L-111.219 720.053M-161.406 734.617L-102.124 734.467M-161.406 734.617L-214.33 748.677M-161.406 734.617L-153.424 748.714M-111.219 720.053L-102.124 734.467M-111.219 720.053L-53.4714 718.707M49.0205 698.724L4.2855 717.68M49.0205 698.724L91.5507 678.676M49.0205 698.724L105.321 698.678M49.0205 698.724L62.0424 717.596M4.2855 717.68L-42.8413 734.318M4.2855 717.68L16.4608 734.309M4.2855 717.68L-53.4714 718.707M4.2855 717.68L62.0424 717.596M-102.124 734.467L-53.4714 718.707M-102.124 734.467L-42.8413 734.318M-102.124 734.467L-153.424 748.714M-102.124 734.467L-92.5174 748.752M-53.4714 718.707L-42.8413 734.318M-42.8413 734.318L16.4608 734.309M-42.8413 734.318L-92.5174 748.752M-42.8413 734.318L-31.601 748.78M16.4608 734.309L62.0424 717.596M16.4608 734.309L75.7631 734.299M16.4608 734.309L-31.601 748.78M16.4608 734.309L29.3252 748.817M91.5507 678.676L105.321 698.678M91.5507 678.676L132.014 660.44M91.5507 678.676L146.463 681.441M105.321 698.678L146.463 681.441M105.321 698.678L161.631 701.62M105.321 698.678L62.0424 717.596M105.321 698.678L119.809 717.652M132.014 660.44L146.463 681.441M132.014 660.44L185.607 668.428M146.463 681.441L161.631 701.62M146.463 681.441L185.607 668.428M146.463 681.441L201.385 688.85M161.631 701.62L201.385 688.85M161.631 701.62L217.941 706.796M161.631 701.62L119.809 717.652M161.631 701.62L177.586 719.408M185.607 668.428L201.385 688.85M185.607 668.428L239.211 680.582M201.385 688.85L217.941 706.796M201.385 688.85L239.211 680.582M201.385 688.85L256.307 698.024M217.941 706.796L256.307 698.024M217.941 706.796L274.27 712.196M217.941 706.796L235.362 721.856M217.941 706.796L177.586 719.408M239.211 680.582L256.307 698.024M239.211 680.582L292.814 693.156M256.307 698.024L292.814 693.156M256.307 698.024L274.27 712.196M256.307 698.024L311.24 706.067M292.814 693.156L311.24 706.067M292.814 693.156L346.427 702.396M62.0424 717.596L75.7631 734.299M62.0424 717.596L119.809 717.652M75.7631 734.299L119.809 717.652M75.7631 734.299L135.075 734.337M75.7631 734.299L29.3252 748.817M75.7631 734.299L90.2515 748.854M119.809 717.652L135.075 734.337M119.809 717.652L177.586 719.408M274.27 712.196L235.362 721.856M274.27 712.196L311.24 706.067M274.27 712.196L330.59 715.811M274.27 712.196L293.158 723.864M235.362 721.856L177.586 719.408M235.362 721.856L194.397 734.673M235.362 721.856L253.719 735.037M235.362 721.856L293.158 723.864M135.075 734.337L177.586 719.408M135.075 734.337L194.397 734.673M135.075 734.337L90.2515 748.854M135.075 734.337L151.188 748.882M177.586 719.408L194.397 734.673M194.397 734.673L151.188 748.882M194.397 734.673L212.143 748.92M194.397 734.673L253.719 735.037M-275.217 748.639L-214.33 748.677M-275.217 748.639L-270.188 763.587M-214.33 748.677L-270.188 763.587M-214.33 748.677L-207.588 763.624M-214.33 748.677L-153.424 748.714M-270.188 763.587L-207.588 763.624M-270.188 763.587L-329.293 779.366M-270.188 763.587L-264.883 779.403M-207.588 763.624L-153.424 748.714M-207.588 763.624L-264.883 779.403M-153.424 748.714L-207.578 763.624M-153.424 748.714L-144.969 763.662M-153.424 748.714L-92.5174 748.752M-207.578 763.624L-144.969 763.662M-207.578 763.624L-264.883 779.403M-207.578 763.624L-200.462 779.441M-144.969 763.662L-92.5174 748.752M-144.969 763.662L-82.3401 763.699M-144.969 763.662L-200.462 779.441M-144.969 763.662L-136.032 779.478M-92.5174 748.752L-82.3401 763.699M-92.5174 748.752L-31.601 748.78M-82.3401 763.699L-31.601 748.78M-82.3401 763.699L-19.711 763.736M-82.3401 763.699L-71.5918 779.525M-82.3401 763.699L-136.032 779.478M-31.601 748.78L-19.711 763.736M-31.601 748.78L29.3252 748.817M-329.293 779.366L-264.883 779.403M-329.293 779.366L-325.622 796.144M-264.883 779.403L-325.622 796.144M-264.883 779.403L-259.282 796.182M-264.883 779.403L-200.462 779.441M-325.622 796.144L-259.282 796.182M-325.622 796.144L-390.131 813.932M-325.622 796.144L-321.754 813.969M-259.282 796.182L-200.462 779.441M-259.282 796.182L-192.932 796.228M-259.282 796.182L-321.754 813.969M-259.282 796.182L-253.367 814.016M-200.462 779.441L-192.932 796.228M-200.462 779.441L-136.032 779.478M-19.711 763.736L-71.5918 779.525M-19.711 763.736L29.3252 748.817M-19.711 763.736L42.9279 763.774M-19.711 763.736L-7.1419 779.562M-71.5918 779.525L-126.573 796.266M-71.5918 779.525L-60.2137 796.303M-71.5918 779.525L-136.032 779.478M-71.5918 779.525L-126.583 796.266M-71.5918 779.525L-7.1419 779.562M-192.932 796.228L-136.032 779.478M-192.932 796.228L-126.583 796.266M-192.932 796.228L-253.367 814.016M-192.932 796.228L-184.98 814.063M-136.032 779.478L-126.583 796.266M-126.583 796.266L-184.98 814.063M-126.573 796.266L-60.2137 796.303M-126.573 796.266L-184.98 814.063M-126.573 796.266L-116.573 814.1M-60.2137 796.303L-7.1419 779.562M-60.2137 796.303L6.16544 796.35M-60.2137 796.303L-116.573 814.1M-60.2137 796.303L-48.1564 814.147M29.3252 748.817L42.9279 763.774M29.3252 748.817L90.2515 748.854M42.9279 763.774L90.2515 748.854M42.9279 763.774L105.577 763.811M42.9279 763.774L-7.1419 779.562M42.9279 763.774L57.3179 779.599M90.2515 748.854L105.577 763.811M90.2515 748.854L151.188 748.882M105.577 763.811L151.188 748.882M105.577 763.811L168.235 763.849M105.577 763.811L57.3179 779.599M105.577 763.811L121.787 779.637M151.188 748.882L168.235 763.849M151.188 748.882L212.143 748.92M168.235 763.849L212.143 748.92M168.235 763.849L230.903 763.877M168.235 763.849L186.257 779.674M168.235 763.849L121.787 779.637M212.143 748.92L253.719 735.037M212.143 748.92L230.903 763.877M212.143 748.92L273.099 748.957M253.719 735.037L293.158 723.864M253.719 735.037L313.051 735.168M253.719 735.037L273.099 748.957M-7.1419 779.562L6.16544 796.35M-7.1419 779.562L57.3179 779.599M6.16544 796.35L57.3179 779.599M6.16544 796.35L72.5445 796.387M6.16544 796.35L-48.1564 814.147M6.16544 796.35L20.2602 814.193M57.3179 779.599L72.5445 796.387M57.3179 779.599L121.787 779.637M230.903 763.877L186.257 779.674M230.903 763.877L273.099 748.957M230.903 763.877L293.572 763.914M230.903 763.877L250.746 779.711M186.257 779.674L138.943 796.434M186.257 779.674L205.342 796.471M186.257 779.674L121.787 779.637M186.257 779.674L250.746 779.711M72.5445 796.387L121.787 779.637M72.5445 796.387L138.943 796.434M72.5445 796.387L20.2602 814.193M72.5445 796.387L88.6963 814.231M121.787 779.637L138.943 796.434M138.943 796.434L205.342 796.471M138.943 796.434L88.6963 814.231M138.943 796.434L157.142 814.277M205.342 796.471L250.746 779.711M205.342 796.471L271.76 796.509M205.342 796.471L157.142 814.277M205.342 796.471L225.598 814.324M311.24 706.067L330.59 715.811M311.24 706.067L346.427 702.396M311.24 706.067L366.181 710.112M330.59 715.811L366.181 710.112M330.59 715.811L386.91 716.082M330.59 715.811L293.158 723.864M330.59 715.811L350.955 724.294M346.427 702.396L366.181 710.112M346.427 702.396L400.05 704.535M366.181 710.112L386.91 716.082M366.181 710.112L400.05 704.535M366.181 710.112L421.104 709.038M386.91 716.082L421.104 709.038M386.91 716.082L443.191 714.709M386.91 716.082L350.955 724.294M386.91 716.082L408.702 723.687M400.05 704.535L421.104 709.038M400.05 704.535L453.693 701.957M421.104 709.038L443.191 714.709M421.104 709.038L453.693 701.957M421.104 709.038L476.036 707.413M421.104 709.038L443.2 714.709M443.191 714.709L408.702 723.687M453.693 701.957L476.036 707.413M453.693 701.957L507.335 701.919M476.036 707.413L443.2 714.709M476.036 707.413L507.335 701.919M476.036 707.413L499.491 714.681M476.036 707.413L530.968 710.215M443.2 714.709L499.491 714.681M443.2 714.709L466.449 723.051M443.2 714.709L408.702 723.687M507.335 701.919L530.968 710.215M507.335 701.919L560.968 709.468M293.158 723.864L313.051 735.168M293.158 723.864L350.955 724.294M313.051 735.168L350.955 724.294M313.051 735.168L372.392 734.981M313.051 735.168L273.099 748.957M313.051 735.168L334.055 748.985M350.955 724.294L372.392 734.981M350.955 724.294L408.702 723.687M499.491 714.681L466.449 723.051M499.491 714.681L530.968 710.215M499.491 714.681L555.85 718.259M499.491 714.681L524.206 724.144M466.449 723.051L431.714 734.832M466.449 723.051L491.056 734.85M466.449 723.051L408.702 723.687M466.449 723.051L524.206 724.144M466.449 723.051L524.206 724.154M372.392 734.981L408.702 723.687M372.392 734.981L431.714 734.832M372.392 734.981L334.055 748.985M372.392 734.981L395.06 749.023M408.702 723.687L431.714 734.832M431.714 734.832L491.056 734.85M431.714 734.832L395.06 749.023M431.714 734.832L456.085 749.06M491.056 734.85L524.206 724.144M491.056 734.85L550.417 735.215M491.056 734.85L524.206 724.154M491.056 734.85L456.085 749.06M491.056 734.85L517.109 749.097M530.968 710.215L555.85 718.259M530.968 710.215L560.968 709.468M530.968 710.215L585.959 716.362M555.85 718.259L585.959 716.362M555.85 718.259L612.278 721.164M555.85 718.259L524.206 724.144M555.85 718.259L582.11 725.779M560.968 709.468L585.959 716.362M560.968 709.468L614.601 716.643M585.959 716.362L612.278 721.164M585.959 716.362L614.601 716.643M585.959 716.362L640.969 719.726M612.278 721.164L640.969 719.726M612.278 721.164L668.706 722.192M612.278 721.164L582.11 725.779M612.278 721.164L640.015 726.293M614.601 716.643L640.969 719.726M614.601 716.643L668.234 718.978L640.969 719.726M640.969 719.726L668.706 722.192M668.706 722.192L640.015 726.293M524.206 724.144L550.417 735.215M524.206 724.144L582.11 725.779M550.417 735.215L582.11 725.779M550.417 735.215L524.206 724.154M550.417 735.215L609.818 735.355M550.417 735.215L517.109 749.097M550.417 735.215L578.055 749.125M524.206 724.154L582.11 725.779M582.11 725.779L609.818 735.355M582.11 725.779L640.015 726.293M609.818 735.355L640.015 726.293M609.818 735.355L669.218 735.785M609.818 735.355L578.055 749.125M609.818 735.355L639.011 749.163M640.015 726.293L669.218 735.785M669.218 735.785L639.011 749.163M273.099 748.957L293.572 763.914M273.099 748.957L334.055 748.985M293.572 763.914L334.055 748.985M293.572 763.914L356.27 763.951M293.572 763.914L250.746 779.711M293.572 763.914L315.236 779.749M334.055 748.985L356.27 763.951M334.055 748.985L395.06 749.023M356.27 763.951L395.06 749.023M356.27 763.951L418.997 763.989M356.27 763.951L315.236 779.749M356.27 763.951L379.735 779.796M395.06 749.023L418.997 763.989M395.06 749.023L456.085 749.06M418.997 763.989L456.085 749.06M418.997 763.989L481.744 764.026M418.997 763.989L444.254 779.833M418.997 763.989L379.735 779.796M456.085 749.06L481.744 764.026M456.085 749.06L517.109 749.097M250.746 779.711L271.76 796.509M250.746 779.711L315.236 779.749M271.76 796.509L315.236 779.749M271.76 796.509L338.169 796.555M271.76 796.509L225.598 814.324M271.76 796.509L294.064 814.362M315.236 779.749L338.169 796.555M315.236 779.749L379.735 779.796M481.744 764.026L444.254 779.833M481.744 764.026L517.109 749.097M481.744 764.026L544.442 764.063M481.744 764.026L508.772 779.87M444.254 779.833L404.548 796.593M444.254 779.833L470.937 796.639M444.254 779.833L379.735 779.796M444.254 779.833L508.772 779.87M338.169 796.555L379.735 779.796M338.169 796.555L404.548 796.593M338.169 796.555L294.064 814.362M338.169 796.555L362.461 814.408M379.735 779.796L404.548 796.593M404.548 796.593L470.937 796.639M404.548 796.593L362.461 814.408M404.548 796.593L430.848 814.455M470.937 796.639L508.772 779.87M470.937 796.639L537.385 796.677M470.937 796.639L430.848 814.455M470.937 796.639L499.254 814.502M517.109 749.097L544.442 764.063M517.109 749.097L578.055 749.125M544.442 764.063L578.055 749.125M544.442 764.063L607.111 764.101M544.442 764.063L508.772 779.87M544.442 764.063L573.301 779.908M578.055 749.125L607.111 764.101M578.055 749.125L639.011 749.163M607.111 764.101L639.011 749.163M607.111 764.101L669.789 764.764M607.111 764.101L573.301 779.908M607.111 764.101L637.83 779.945M639.011 749.163L669.789 764.764M669.789 764.764L637.83 779.945M508.772 779.87L537.385 796.677M508.772 779.87L573.301 779.908M537.385 796.677L573.301 779.908M537.385 796.677L603.912 796.714M537.385 796.677L499.254 814.502M537.385 796.677L567.868 814.539M573.301 779.908L603.912 796.714M573.301 779.908L637.83 779.945M603.912 796.714L637.83 779.945M603.912 796.714L670.439 796.873M603.912 796.714L567.868 814.539M603.912 796.714L636.501 814.586M637.83 779.945L670.439 796.873M670.439 796.873L636.501 814.586M-390.131 813.932L-321.754 813.969M-390.131 813.932L-388.211 832.906M-321.754 813.969L-388.211 832.906M-321.754 813.969L-317.659 832.952M-321.754 813.969L-253.367 814.016M-388.211 832.906L-317.659 832.952M-388.211 832.906L-459 853.057L-386.144 853.113M-388.211 832.906L-386.144 853.113M-317.659 832.952L-253.367 814.016M-317.659 832.952L-247.097 832.99M-317.659 832.952L-386.144 853.113M-317.659 832.952L-313.279 853.16M-253.367 814.016L-247.097 832.99M-253.367 814.016L-184.98 814.063M-253.367 814.016L-247.097 832.999L-184.98 814.063M-247.097 832.99L-184.98 814.063M-247.097 832.99L-176.525 833.037M-247.097 832.99L-313.279 853.16M-247.097 832.99L-240.394 853.206M-184.98 814.063L-176.525 833.037M-184.98 814.063L-116.573 814.1M-184.98 814.063L-176.525 833.046L-116.573 814.1M-176.525 833.037L-116.573 814.1M-176.525 833.037L-105.943 833.083M-176.525 833.037L-167.509 853.262M-176.525 833.037L-240.394 853.206M-116.573 814.1L-105.943 833.083M-116.573 814.1L-48.1564 814.147M-386.144 853.113L-313.279 853.16M-313.279 853.16L-240.394 853.206M-105.943 833.083L-167.509 853.262M-105.943 833.083L-48.1564 814.147M-105.943 833.083L-35.351 833.13M-105.943 833.083L-167.499 853.262L-94.604 853.309M-105.943 833.083L-94.604 853.309M-167.509 853.262L-240.394 853.206M-48.1564 814.147L-35.351 833.13M-48.1564 814.147L20.2602 814.193M-35.351 833.13L20.2602 814.193M-35.351 833.13L35.2506 833.177M-35.351 833.13L-94.604 853.309M-35.351 833.13L-21.6894 853.356M20.2602 814.193L35.2506 833.177M20.2602 814.193L88.6963 814.231M35.2506 833.177L88.6963 814.231M35.2506 833.177L105.862 833.223M35.2506 833.177L-21.6894 853.356M35.2506 833.177L51.235 853.412M88.6963 814.231L105.862 833.223M88.6963 814.231L157.142 814.277M105.862 833.223L157.142 814.277M105.862 833.223L176.493 833.27M105.862 833.223L124.179 853.459M105.862 833.223L51.235 853.412M157.142 814.277L176.493 833.27M157.142 814.277L225.598 814.324M-94.604 853.309L-21.6894 853.356M-21.6894 853.356L51.235 853.412M176.493 833.27L124.179 853.459M176.493 833.27L225.598 814.324M176.493 833.27L247.124 833.317M176.493 833.27L197.123 853.505M124.179 853.459L51.235 853.412M124.179 853.459L197.123 853.505M225.598 814.324L247.124 833.317M225.598 814.324L294.064 814.362M225.598 814.324L294.064 814.371M247.124 833.317L294.064 814.371M247.124 833.317L294.064 814.362M247.124 833.317L317.745 833.364M247.124 833.317L197.123 853.505M247.124 833.317L270.087 853.552M294.064 814.362L317.745 833.364M294.064 814.362L362.461 814.408M294.064 814.371L362.461 814.408M294.064 814.371L317.745 833.364M317.745 833.364L362.461 814.408M317.745 833.364L388.318 833.41M317.745 833.364L270.087 853.552M317.745 833.364L343.041 853.608M362.461 814.408L388.318 833.41M362.461 814.408L430.848 814.455M388.318 833.41L430.848 814.455M388.318 833.41L458.899 833.457M388.318 833.41L416.015 853.655M388.318 833.41L343.041 853.608M430.848 814.455L458.899 833.457M430.848 814.455L499.254 814.502M197.123 853.505L270.087 853.552M270.087 853.552L343.041 853.608M458.899 833.457L416.015 853.655M458.899 833.457L499.254 814.502M458.899 833.457L529.58 833.504M458.899 833.457L489.008 853.701M416.015 853.655L343.041 853.608M416.015 853.655L489.008 853.701M499.254 814.502L529.58 833.504M499.254 814.502L567.868 814.539M529.58 833.504L567.868 814.539M529.58 833.504L600.378 833.55M529.58 833.504L489.008 853.701M529.58 833.504L562.021 853.757M567.868 814.539L600.378 833.55M567.868 814.539L636.501 814.586M600.378 833.55L636.501 814.586M600.378 833.55L671.167 833.382M600.378 833.55L562.021 853.757M600.378 833.55L635.044 853.804M636.501 814.586L671.167 833.382M671.167 833.382L635.044 853.804M489.008 853.701L562.021 853.757M562.021 853.757L635.044 853.804M668.48 719.016L641.206 719.763M668.48 719.016L696.217 722.575M668.48 719.016L722.162 723.64M641.206 719.763L696.217 722.575M641.206 719.763L668.962 722.276M696.217 722.575L668.962 722.276M696.217 722.575L725.361 730.59M696.217 722.575L722.162 723.64M696.217 722.575L751.227 732.207M668.962 722.276L725.361 730.59M668.962 722.276L640.261 726.433M668.962 722.276L698.156 730.544M725.361 730.59L751.227 732.207M725.361 730.59L781.779 745.099M725.361 730.59L698.156 730.544M725.361 730.59L756.031 744.473M722.162 723.64L751.227 732.207M722.162 723.64L775.854 732.571M751.227 732.207L781.779 745.099M751.227 732.207L775.854 732.571M751.227 732.207L806.248 745.061M781.779 745.099L806.248 745.061M781.779 745.099L838.197 761.055M781.779 745.099L756.031 744.473M781.779 745.099L813.915 762.812M775.854 732.571L806.248 745.061M775.854 732.571L829.546 742.492M806.248 745.061L838.197 761.055M806.248 745.061L829.546 742.492M806.248 745.061L861.278 757.122M838.197 761.055L861.278 757.122M838.197 761.055L894.625 773.686M838.197 761.055L871.81 780.067M838.197 761.055L813.915 762.812M829.546 742.492L861.278 757.122M829.546 742.492L883.247 750.097M861.278 757.122L883.247 750.097M861.278 757.122L894.625 773.686M861.278 757.122L916.309 764.334M883.247 750.097L916.309 764.334M883.247 750.097L937.234 751.965M640.261 726.433L698.156 730.544M640.261 726.433L669.494 736.065M698.156 730.544L669.494 736.065M698.156 730.544L728.914 746.229M698.156 730.544L756.031 744.473M669.494 736.065L728.914 746.229M669.494 736.065L639.267 749.48M669.494 736.065L700.301 753.89M728.914 746.229L756.031 744.473M728.914 746.229L788.344 764.484M728.914 746.229L700.301 753.89M728.914 746.229L761.355 768.361M756.031 744.473L788.344 764.484M756.031 744.473L813.915 762.812M894.625 773.686L871.81 780.067M894.625 773.686L916.309 764.334M894.625 773.686L951.339 777.852M894.625 773.686L929.705 790.754M871.81 780.067L847.774 784.625M871.81 780.067L907.224 800.442M871.81 780.067L813.915 762.812M871.81 780.067L929.705 790.754M788.344 764.484L813.915 762.812M788.344 764.484L847.774 784.625M788.344 764.484L761.355 768.361M788.344 764.484L822.419 787.409M813.915 762.812L847.774 784.625M847.774 784.625L907.224 800.442M847.774 784.625L822.419 787.409M847.774 784.625L883.493 805.337M907.224 800.442L929.705 790.754M907.224 800.442L966.713 805.58M907.224 800.442L883.493 805.337M907.224 800.442L944.567 816.464M916.309 764.334L951.339 777.852M916.309 764.334L937.234 751.965M916.309 764.334L972.58 761.326M951.339 777.852L972.58 761.326M951.339 777.852L1009.33 767.193M951.339 777.852L929.715 790.754M951.339 777.852L988.357 787.503M951.339 777.852L929.705 790.754M937.234 751.965L972.58 761.326M937.234 751.965L992.54 744.389M972.58 761.326L1009.33 767.193M972.58 761.326L992.54 744.389M972.58 761.326L1029.23 747.444M1009.33 767.193L1029.23 747.444M1009.33 767.193L1067.04 747.191M1009.33 767.193L988.357 787.503M1009.33 767.193L1046.98 769.416M992.54 744.389L1029.23 747.444M992.54 744.389L1047.76 730.301M1029.23 747.444L1067.04 747.191M1029.23 747.444L1047.76 730.301M1029.23 747.444L1086.06 728.096M1067.04 747.191L1086.06 728.096M1067.04 747.191L1124.97 723.958M1067.04 747.191L1105.39 744.277M1067.04 747.191L1046.98 769.416M1047.76 730.301L1086.06 728.096M1047.76 730.301L1103.7 713.326M1086.06 728.096L1103.7 713.326M1086.06 728.096L1124.97 723.958M1086.06 728.096L1143.3 708.599M1103.7 713.326L1143.3 708.599M1103.7 713.326L1159.9 698.752M929.705 790.754L966.713 805.58M966.713 805.58L988.357 787.503M966.713 805.58L929.715 790.754M966.713 805.58L1026.04 793.136M966.713 805.58L944.567 816.464M966.713 805.58L1005.31 813.044M929.715 790.754L988.357 787.503M988.357 787.503L1026.04 793.136M988.357 787.503L1046.98 769.416M1124.97 723.958L1105.39 744.277M1124.97 723.958L1143.3 708.599M1124.97 723.958L1183.13 704.545M1124.97 723.958L1163.93 719.651M1105.39 744.277L1046.98 769.416M1105.39 744.277L1084.88 768.51M1105.39 744.277L1143.61 740.353M1105.39 744.277L1163.93 719.651M1026.04 793.136L1046.98 769.416M1026.04 793.136L1084.88 768.51M1026.04 793.136L1005.31 813.044M1026.04 793.136L1065.41 794.155M1046.98 769.416L1084.88 768.51M1084.88 768.51L1065.41 794.155M1084.88 768.51L1125.3 767.922M1084.88 768.51L1143.61 740.353M639.267 749.48L700.301 753.89M639.267 749.48L670.084 765.11M700.301 753.89L670.084 765.11M700.301 753.89L732.851 773.891M700.301 753.89L761.355 768.361M670.084 765.11L732.851 773.891M670.084 765.11L638.105 780.3M670.084 765.11L702.693 783.196M732.851 773.891L761.355 768.361M732.851 773.891L795.628 788.876M732.851 773.891L702.693 783.196M732.851 773.891L767.291 792.8M761.355 768.361L795.628 788.876M761.355 768.361L822.419 787.409M795.628 788.876L822.419 787.409M795.628 788.876L858.414 805.3M795.628 788.876L767.291 792.8M795.628 788.876L831.898 805.477M822.419 787.409L858.414 805.3M822.419 787.409L883.493 805.337M858.414 805.3L883.493 805.337M858.414 805.3L921.211 818.416M858.414 805.3L896.505 817.398M858.414 805.3L831.898 805.477M883.493 805.337L921.211 818.416M883.493 805.337L944.567 816.464M638.105 780.3L702.693 783.196M638.105 780.3L670.744 797.247M702.693 783.196L670.744 797.247M702.693 783.196L737.261 801.413M702.693 783.196L767.291 792.8M670.744 797.247L737.261 801.413M670.744 797.247L636.786 814.988M670.744 797.247L705.39 815.371M737.261 801.413L767.291 792.8M737.261 801.413L803.797 809.326M737.261 801.413L705.39 815.371M737.261 801.413L773.964 818.752M767.291 792.8L803.797 809.326M767.291 792.8L831.898 805.477M921.211 818.416L896.505 817.398M921.211 818.416L944.567 816.464M921.211 818.416L983.948 823.059M921.211 818.416L961.132 824.778M896.505 817.398L870.334 818.108M896.505 817.398L936.89 824.9M896.505 817.398L831.898 805.477M896.505 817.398L961.132 824.778M803.797 809.326L831.898 805.477M803.797 809.326L870.334 818.108M803.797 809.326L773.964 818.752M803.797 809.326L842.558 823.676M831.898 805.477L870.334 818.108M870.334 818.108L936.89 824.9M870.334 818.108L842.558 823.676M870.334 818.108L911.161 828.235M936.89 824.9L961.132 824.778M936.89 824.9L1003.44 826.945M936.89 824.9L911.161 828.235M936.89 824.9L979.765 830.495M944.567 816.464L983.948 823.059M944.567 816.464L1005.31 813.044M983.948 823.059L1005.31 813.044M983.948 823.059L1045.99 812.409M983.948 823.059L961.132 824.778M983.948 823.059L1025.47 822.639M1005.31 813.044L1045.99 812.409M1005.31 813.044L1065.41 794.155M1045.99 812.409L1065.41 794.155M1045.99 812.409L1107.69 792.408M1045.99 812.409L1025.47 822.639M1045.99 812.409L1089.37 810.251M1065.41 794.155L1107.69 792.408M1065.41 794.155L1125.3 767.922M1107.69 792.408L1125.3 767.922M1107.69 792.408L1169.35 769.482M1107.69 792.408L1153.05 792.996M1107.69 792.408L1089.37 810.251M1125.3 767.922L1143.61 740.353M1125.3 767.922L1169.35 769.482M1125.3 767.922L1185.28 742.418M1143.61 740.353L1163.93 719.651M1143.61 740.353L1202.53 717.437M1143.61 740.353L1185.28 742.418M961.132 824.778L1003.44 826.945M961.132 824.778L1025.47 822.639M1003.44 826.945L1025.47 822.639M1003.44 826.945L1069.74 821.985M1003.44 826.945L979.765 830.495M1003.44 826.945L1048.44 830.066M1025.47 822.639L1069.74 821.985M1025.47 822.639L1089.37 810.251M1169.35 769.482L1153.05 792.996M1169.35 769.482L1185.28 742.418M1169.35 769.482L1231.19 750.564M1169.35 769.482L1216.72 776.236M1153.05 792.996L1135.8 811.437M1153.05 792.996L1201.58 799.423M1153.05 792.996L1089.37 810.251M1153.05 792.996L1216.72 776.236M1069.74 821.985L1089.37 810.251M1069.74 821.985L1135.79 811.437M1069.74 821.985L1048.44 830.066M1069.74 821.985L1117 825.666M1089.37 810.251L1135.79 811.437M1089.37 810.251L1135.8 811.437M1135.79 811.437L1117 825.666M1135.8 811.437L1201.58 799.423M1135.8 811.437L1117 825.666M1135.8 811.437L1185.24 819.079M1201.58 799.423L1216.72 776.236M1201.58 799.423L1267.46 789.829M1201.58 799.423L1185.24 819.079M1201.58 799.423L1253.36 812.904M1143.3 708.599L1183.13 704.545M1143.3 708.599L1159.9 698.752M1143.3 708.599L1200.72 695.455M1183.13 704.545L1200.72 695.455M1183.13 704.545L1241.29 696.351M1183.13 704.545L1163.93 719.651M1183.13 704.545L1222.78 703.554M1159.9 698.752L1200.72 695.455M1159.9 698.752L1215.76 692.428M1200.72 695.455L1241.29 696.351M1200.72 695.455L1215.76 692.428M1200.72 695.455L1255.65 693.997M1241.29 696.351L1255.65 693.997M1241.29 696.351L1296.05 698.304M1241.29 696.351L1222.78 703.554M1241.29 696.351L1280.6 702.34M1215.76 692.428L1255.65 693.997M1215.76 692.428L1267.6 691.895M1255.65 693.997L1296.05 698.304M1255.65 693.997L1267.6 691.895M1255.65 693.997L1308.87 694.408M1296.05 698.304L1308.87 694.408M1296.05 698.304L1351.15 700.938M1296.05 698.304L1337.76 706.292M1296.05 698.304L1280.6 702.34M1267.6 691.895L1308.87 694.408M1267.6 691.895L1319.64 689.223M1308.87 694.408L1319.64 689.223M1308.87 694.408L1351.15 700.938M1308.87 694.408L1362.28 694.343M1319.64 689.223L1362.28 694.343M1319.64 689.223L1371.74 685.87M1163.93 719.651L1202.53 717.437M1163.93 719.651L1222.78 703.554M1202.53 717.437L1222.78 703.554M1202.53 717.437L1163.94 719.651L1222.78 703.554M1202.53 717.437L1261.95 708.543M1202.53 717.437L1185.28 742.418M1202.53 717.437L1245.61 725.705M1222.78 703.554L1261.95 708.543M1222.78 703.554L1280.6 702.34M1351.15 700.938L1337.76 706.292M1351.15 700.938L1362.28 694.343M1351.15 700.938L1406.38 703.797M1351.15 700.938L1395.22 711.645M1337.76 706.292L1321.53 711.673M1337.76 706.292L1381.62 718.315M1337.76 706.292L1280.6 702.34M1337.76 706.292L1395.22 711.645M1261.95 708.543L1280.6 702.34M1261.95 708.543L1321.53 711.673M1261.95 708.543L1245.61 725.705M1261.95 708.543L1306.82 724.191M1280.6 702.34L1321.53 711.673M1321.53 711.673L1381.62 718.315M1321.53 711.673L1306.82 724.191M1321.53 711.673L1368.85 729.301M1381.62 718.315L1395.22 711.645M1381.62 718.315L1441.89 726.116M1381.62 718.315L1368.85 729.301M1381.62 718.315L1431.18 736.672M1362.28 694.343L1406.38 703.797M1362.28 694.343L1371.74 685.87M1362.28 694.343L1415.7 694.306M1406.38 703.797L1415.7 694.306M1406.38 703.797L1461.5 706.441M1406.38 703.797L1395.22 711.645M1406.38 703.797L1452.7 716.988M1371.74 685.87L1415.7 694.306M1371.74 685.87L1423.79 683.272M1415.7 694.306L1461.5 706.441M1415.7 694.306L1423.79 683.272M1415.7 694.306L1468.94 694.773M1461.5 706.441L1468.94 694.773M1461.5 706.441L1516.27 708.394M1461.5 706.441L1452.7 716.988M1461.5 706.441L1509.88 720.912M1423.79 683.272L1468.94 694.773M1423.79 683.272L1475.63 682.88L1468.94 694.773M1468.94 694.773L1516.27 708.394M1516.27 708.394L1509.88 720.912M1395.22 711.645L1441.89 726.116M1395.22 711.645L1452.7 716.988M1441.89 726.116L1452.7 716.988M1441.89 726.116L1502.01 732.721M1441.89 726.116L1431.18 736.672M1441.89 726.116L1493.52 744.015M1452.7 716.988L1502.01 732.721M1452.7 716.988L1509.88 720.912M1502.01 732.721L1509.88 720.912M1502.01 732.721L1561.62 735.766M1502.01 732.721L1493.52 744.015M1502.01 732.721L1555.56 749.06M1509.88 720.912L1561.62 735.766M1561.62 735.766L1555.56 749.06M1185.28 742.418L1231.19 750.564M1185.28 742.418L1245.61 725.705M1185.28 742.418L1231.2 750.564M1231.19 750.564L1216.72 776.236M1245.61 725.705L1231.2 750.564M1245.61 725.705L1293.48 742.39M1245.61 725.705L1306.82 724.191M1231.2 750.564L1293.48 742.39M1231.2 750.564L1216.72 776.236M1231.2 750.564L1280.63 765.343M1293.48 742.39L1306.82 724.191M1293.48 742.39L1357.01 745.043M1293.48 742.39L1280.63 765.343M1293.48 742.39L1345.34 764.362M1306.82 724.191L1357.01 745.043M1306.82 724.191L1368.85 729.301M1306.82 724.191L1357.02 745.043L1368.85 729.301M1357.01 745.043L1368.85 729.301M1357.01 745.043L1420.94 750.536M1357.01 745.043L1410.8 767.623M1357.01 745.043L1345.35 764.362M1357.01 745.043L1345.34 764.362M1368.85 729.301L1420.94 750.536M1368.85 729.301L1431.18 736.672M1368.85 729.301L1420.95 750.536L1431.18 736.672M1216.72 776.236L1267.46 789.829M1216.72 776.236L1280.63 765.343M1216.72 776.236L1267.47 789.829L1280.63 765.343M1267.46 789.829L1280.63 765.343M1267.46 789.829L1333.63 786.559M1267.46 789.829L1253.36 812.904M1267.46 789.829L1321.61 809.681M1280.63 765.343L1333.63 786.559M1280.63 765.343L1345.34 764.362M1280.63 765.343L1345.35 764.362M1420.94 750.536L1410.8 767.623M1420.94 750.536L1431.18 736.672M1420.94 750.536L1485.01 756.963M1420.94 750.536L1476.46 772.378M1410.8 767.623L1400.65 787.671M1410.8 767.623L1467.9 790.502M1410.8 767.623L1345.35 764.362M1410.8 767.623L1476.46 772.378M1410.8 767.623L1476.46 772.387M1333.63 786.559L1345.34 764.362M1333.63 786.559L1400.65 787.671M1333.63 786.559L1345.35 764.362M1333.63 786.559L1321.61 809.681M1333.63 786.559L1390.23 809.887M1345.34 764.362L1400.65 787.671M1400.65 787.671L1467.9 790.502M1400.65 787.671L1345.35 764.362M1400.65 787.671L1390.23 809.887M1400.65 787.671L1459.2 810.97M1467.9 790.502L1476.46 772.378M1467.9 790.502L1535.25 793.884M1467.9 790.502L1476.46 772.387M1467.9 790.502L1459.2 810.97M1467.9 790.502L1528.28 812.801M1431.18 736.672L1485.01 756.963M1431.18 736.672L1493.52 744.015M1431.18 736.672L1493.52 744.025M1485.01 756.963L1493.52 744.025M1485.01 756.963L1493.52 744.015M1485.01 756.963L1548.95 762.419M1485.01 756.963L1476.46 772.387M1485.01 756.963L1542.13 777.133M1485.01 756.963L1476.46 772.378M1493.52 744.015L1548.95 762.419M1493.52 744.015L1555.56 749.06M1493.52 744.025L1555.56 749.06M1493.52 744.025L1548.95 762.419M1548.95 762.419L1555.56 749.06M1548.95 762.419L1612.51 765.007M1548.95 762.419L1542.13 777.133M1548.95 762.419L1607.59 780.347M1555.56 749.06L1612.51 765.007M1612.51 765.007L1607.59 780.347M1476.46 772.378L1535.25 793.884M1535.25 793.884L1542.13 777.133M1535.25 793.884L1476.46 772.387M1535.25 793.884L1602.51 796.686M1535.25 793.884L1528.28 812.801M1535.25 793.884L1597.36 814.623M1476.46 772.387L1542.13 777.133M1542.13 777.133L1602.51 796.686M1542.13 777.133L1607.59 780.347M1602.51 796.686L1607.59 780.347M1602.51 796.686L1669.56 797.761M1602.51 796.686L1597.36 814.623M1602.51 796.686L1666.35 815.688M1607.59 780.347L1669.56 797.761M1669.56 797.761L1666.35 815.688M636.786 814.988L705.39 815.371M636.786 814.988L671.492 833.803M705.39 815.371L671.492 833.803M705.39 815.371L742.241 834.13M705.39 815.371L773.964 818.752M705.39 815.371L742.251 834.13M671.492 833.803L742.241 834.13M671.492 833.803L635.359 854.253L708.441 854.271M671.492 833.803L708.441 854.271M742.241 834.13L708.441 854.271M773.964 818.752L742.251 834.13M773.964 818.752L813.02 835.736M773.964 818.752L842.558 823.676M742.251 834.13L813.02 835.736M742.251 834.13L708.441 854.271M742.251 834.13L781.533 854.327M813.02 835.736L842.558 823.676M813.02 835.736L883.799 837.633M813.02 835.736L781.533 854.327M813.02 835.736L854.635 854.411M842.558 823.676L883.799 837.633M842.558 823.676L911.161 828.235M883.799 837.633L911.161 828.235M883.799 837.633L954.587 838.857M883.799 837.633L927.746 854.486M883.799 837.633L854.635 854.411M911.161 828.235L954.587 838.857M911.161 828.235L979.765 830.495M708.441 854.271L781.533 854.327M781.533 854.327L854.635 854.411M954.587 838.857L927.746 854.486M954.587 838.857L979.765 830.495M954.587 838.857L1025.42 838.81M954.587 838.857L1000.87 854.524M927.746 854.486L854.635 854.411M927.746 854.486L1000.87 854.524M979.765 830.495L1025.42 838.81M979.765 830.495L1048.44 830.066M979.765 830.495L1025.42 838.819L1048.44 830.066M1025.42 838.81L1048.44 830.066M1025.42 838.81L1096.38 838.511M1025.42 838.81L1000.87 854.524M1025.42 838.81L1074.02 854.58M1048.44 830.066L1096.38 838.511M1048.44 830.066L1117 825.666M1096.38 838.511L1117 825.666M1096.38 838.511L1167.24 836.344M1096.38 838.511L1074.02 854.58M1096.38 838.511L1147.17 854.617M1117 825.666L1167.24 836.344M1117 825.666L1185.24 819.079M1167.24 836.344L1185.24 819.079M1167.24 836.344L1237.81 833.971M1167.24 836.344L1220.33 854.636M1167.24 836.344L1147.17 854.617M1185.24 819.079L1237.81 833.971M1185.24 819.079L1253.36 812.904M1000.87 854.524L1074.02 854.58M1074.02 854.58L1147.17 854.617M1237.81 833.971L1220.33 854.636M1237.81 833.971L1253.36 812.904M1237.81 833.971L1308.41 832.411M1237.81 833.971L1293.49 854.673M1220.33 854.636L1147.17 854.617M1220.33 854.636L1293.49 854.673M1253.36 812.904L1308.41 832.411M1253.36 812.904L1321.61 809.681M1308.41 832.411L1321.61 809.681M1308.41 832.411L1379.12 832.896M1308.41 832.411L1293.49 854.673M1308.41 832.411L1366.67 854.729M1321.61 809.681L1379.12 832.896M1321.61 809.681L1390.23 809.887M1321.61 809.681L1390.23 809.896M1379.12 832.896L1390.23 809.887M1379.12 832.896L1450.03 832.887M1379.12 832.896L1390.23 809.896M1379.12 832.896L1366.67 854.729M1379.12 832.896L1439.86 854.794M1390.23 809.887L1450.03 832.887M1390.23 809.887L1459.2 810.97M1450.03 832.887L1459.2 810.97M1450.03 832.887L1390.23 809.896M1450.03 832.887L1521.01 833.457M1450.03 832.887L1513.07 854.85M1450.03 832.887L1439.86 854.794M1390.23 809.896L1459.2 810.97M1459.2 810.97L1521.01 833.457M1459.2 810.97L1528.28 812.801M1293.49 854.673L1366.67 854.729M1366.67 854.729L1439.86 854.794M1521.01 833.457L1513.07 854.85M1521.01 833.457L1528.28 812.801M1521.01 833.457L1592.05 834.204M1521.01 833.457L1586.29 854.907M1513.07 854.85L1439.86 854.794M1513.07 854.85L1586.29 854.907M1528.28 812.801L1592.05 834.204M1528.28 812.801L1597.36 814.623M1528.28 812.801L1597.36 814.633M1592.05 834.204L1597.36 814.633M1592.05 834.204L1597.36 814.623M1592.05 834.204L1663.05 834.765M1592.05 834.204L1586.29 854.907M1592.05 834.204L1659.52 854.953M1597.36 814.623L1663.05 834.765M1597.36 814.623L1666.35 815.688M1597.36 814.633L1666.35 815.688M1597.36 814.633L1663.05 834.765M1663.05 834.765L1666.35 815.688M1663.05 834.765L1734 834.746M1663.05 834.765L1659.52 854.953M1663.05 834.765L1732.76 855M1666.35 815.688L1734 834.746M1734 834.746L1732.76 855M1586.29 854.907L1659.52 854.953M1659.52 854.953L1732.76 855" stroke="white" stroke-width="0.3" stroke-miterlimit="10" stroke-linejoin="round"/>
</g>
</svg>
