<svg width="287" height="314" viewBox="0 0 287 314" fill="none" xmlns="http://www.w3.org/2000/svg">
<path opacity="0.3" d="M143 52H170C175.523 52 180 47.5228 180 42V12C180 6.47715 175.523 2 170 2H116C110.477 2 106 6.47715 106 12V42C106 47.5228 110.477 52 116 52H143ZM143 52V78M143 102H116C110.477 102 106 106.477 106 112V142C106 147.523 110.477 152 116 152H143M143 102H170C175.523 102 180 106.477 180 112V142C180 147.523 175.523 152 170 152H143M143 102V78M143 152V182M143 182H117C111.477 182 107 186.477 107 192V222C107 227.523 111.477 232 117 232H144M143 182H171C176.523 182 181 186.477 181 192V222C181 227.523 176.523 232 171 232H144M144 232V262M144 262H117C111.477 262 107 266.477 107 272V302C107 307.523 111.477 312 117 312H171C176.523 312 181 307.523 181 302V272C181 266.477 176.523 262 171 262H144ZM248 152H275C280.523 152 285 147.523 285 142V112C285 106.477 280.523 102 275 102H248M248 152H221C215.477 152 211 147.523 211 142V112C211 106.477 215.477 102 221 102H248M248 152V182M248 182H221C215.477 182 211 186.477 211 192V222C211 227.523 215.477 232 221 232H275C280.523 232 285 227.523 285 222V192C285 186.477 280.523 182 275 182H248ZM39 102H12C6.47715 102 2 106.477 2 112V142C2 147.523 6.47715 152 12 152H66C71.5228 152 76 147.523 76 142V112C76 106.477 71.5228 102 66 102H39ZM39 102V88C39 82.4772 43.4772 78 49 78H143M248 102V88C248 82.4772 243.523 78 238 78H143" stroke="#007668" stroke-width="4"/>
</svg>
