<svg width="65" height="53" viewBox="0 0 65 53" fill="none" xmlns="http://www.w3.org/2000/svg">
<path d="M25.6288 24.7281H14.3481C13.5637 24.7281 12.9292 24.1012 12.9292 23.3263C12.9292 22.5514 13.5637 21.9245 14.3481 21.9245H25.6288C26.4132 21.9245 27.0477 22.5514 27.0477 23.3263C27.0477 24.0981 26.4132 24.7281 25.6288 24.7281Z" fill="#FFD600"/>
<path d="M25.9732 31.7591H1.41887C0.634504 31.7591 0 31.1322 0 30.3573C0 29.5824 0.634504 28.9555 1.41887 28.9555H25.9732C26.7576 28.9555 27.3921 29.5824 27.3921 30.3573C27.3953 31.1322 26.7608 31.7591 25.9732 31.7591Z" fill="#FFD600"/>
<path d="M41.9157 53C34.579 53 27.8418 49.6704 23.4385 43.8679C22.9666 43.2474 23.0942 42.3685 23.7223 41.9054C24.3504 41.4392 25.24 41.5652 25.7087 42.1858C29.5731 47.2763 35.4782 50.1933 41.9125 50.1933C53.0753 50.1933 62.156 41.2219 62.156 30.1935C62.156 19.1651 53.0753 10.1936 41.9125 10.1936C35.4718 10.1936 29.5636 13.1169 25.6991 18.22C25.2304 18.8374 24.3377 18.9698 23.7095 18.5035C23.0814 18.0405 22.9539 17.1585 23.4226 16.5379C27.829 10.7229 34.5663 7.39008 41.9125 7.39008C54.6408 7.39008 64.9969 17.6215 64.9969 30.1966C64.9969 42.7717 54.644 53 41.9157 53Z" fill="#FFD600"/>
<path d="M41.9155 10.1968C41.1311 10.1968 40.4966 9.56993 40.4966 8.79501V1.40178C40.4934 0.626865 41.1311 0 41.9155 0C42.6998 0 43.3343 0.626865 43.3343 1.40178V8.79186C43.3343 9.56678 42.6998 10.1968 41.9155 10.1968Z" fill="#FFD600"/>
<path d="M45.7704 2.80671H38.0575C37.2732 2.80671 36.6387 2.17984 36.6387 1.40493C36.6387 0.630008 37.2732 0.00314331 38.0575 0.00314331H45.7704C46.5548 0.00314331 47.1893 0.630008 47.1893 1.40493C47.1925 2.17984 46.5548 2.80671 45.7704 2.80671Z" fill="#FFD600"/>
<path d="M41.9156 34.3925C41.5202 34.3925 41.1312 34.2318 40.8475 33.9168L35.7938 28.2404C35.2772 27.6608 35.3346 26.7725 35.9213 26.259C36.508 25.7487 37.4039 25.8054 37.9268 26.385L42.9805 32.0614C43.4971 32.641 43.4397 33.5294 42.853 34.0428C42.582 34.2759 42.2504 34.3925 41.9156 34.3925Z" fill="#FFD600"/>
<path d="M41.9156 34.3925C41.5171 34.3925 41.1185 34.2256 40.8379 33.9011C40.3246 33.312 40.3947 32.4269 40.991 31.9229L51.0984 23.3641C51.6946 22.8569 52.5906 22.9262 53.1007 23.5153C53.6109 24.1044 53.5439 24.9895 52.9477 25.4936L42.8403 34.0523C42.5724 34.2823 42.2408 34.3925 41.9156 34.3925Z" fill="#FFD600"/>
<path d="M25.629 38.6105H9.10637C8.322 38.6105 7.6875 37.9836 7.6875 37.2087C7.6875 36.4337 8.322 35.8069 9.10637 35.8069H25.6258C26.4102 35.8069 27.0447 36.4337 27.0447 37.2087C27.0478 37.9804 26.4133 38.6105 25.629 38.6105Z" fill="#FFD600"/>
</svg>
